<svg width="637" height="637" viewBox="0 0 637 637" fill="none" xmlns="http://www.w3.org/2000/svg">
<path d="M318.5 0C494.403 0 637 142.597 637 318.5C637 494.403 494.403 637 318.5 637C142.597 637 0 494.403 0 318.5C0 142.597 142.597 0 318.5 0ZM185.403 100.784C191.055 111.685 195.9 122.586 195.9 125.412C195.9 128.238 199.535 135.102 203.976 140.754C208.417 146.406 212.05 153.673 212.05 156.903C212.05 160.133 215.683 166.997 219.721 172.649C224.162 178.302 229.007 191.625 230.218 202.525L233.044 222.309L174.099 283.676C141.396 317.589 113.135 349.888 111.116 355.944C95.3706 396.721 126.862 442.747 170.465 443.555C185.403 443.958 199.13 439.518 228.199 426.194C259.69 411.66 270.591 408.43 289.163 408.43C332.363 408.833 361.432 437.096 361.432 479.084C361.028 509.767 345.686 534.799 314.599 554.178C299.257 563.464 350.935 547.718 377.581 534.799C414.321 516.631 459.539 470.605 479.322 430.231C487.8 413.679 494.26 402.778 494.664 406.411C494.664 412.467 506.776 426.194 511.621 426.194C512.832 426.193 514.85 421.349 516.062 414.89C517.273 408.834 520.906 393.088 524.54 379.765C527.77 366.442 530.596 347.87 531 338.181C531 317.187 518.888 281.657 503.143 255.818L491.434 237.247L505.161 239.266C512.831 240.477 518.886 240.88 518.888 240.073C518.888 234.825 506.372 198.893 501.527 189.606C487.8 163.364 451.06 141.158 390.5 121.778C371.928 116.126 356.183 111.281 354.972 111.281C353.761 111.282 358.606 116.127 365.873 122.183C382.022 135.91 389.693 154.078 389.693 178.705C389.693 204.14 382.83 215.445 339.227 263.894C293.201 314.764 281.088 321.627 264.535 305.074C259.69 300.229 256.461 291.75 256.461 283.676C256.461 272.371 262.113 265.104 300.468 228.364C350.934 179.513 355.779 169.419 343.264 137.12C332.767 108.859 315.406 98.3624 277.455 96.3438L246.367 94.7285L263.324 102.803C294.412 117.337 302.486 152.462 280.281 177.897L267.766 192.028L255.249 178.705C242.733 165.786 233.044 153.673 214.473 127.431C208.82 119.76 197.515 106.034 189.44 97.1514L174.906 81.002L185.403 100.784Z" fill="white"/>
</svg>
