<svg width="1432" height="1432" viewBox="0 0 1432 1432" fill="none" xmlns="http://www.w3.org/2000/svg">
<path d="M105.72 1090.45C168.947 1193.5 257.238 1278.86 362.361 1338.57C467.484 1398.28 586.015 1430.41 706.904 1431.94C827.793 1433.48 947.102 1404.38 1053.71 1347.35C1160.31 1290.33 1250.75 1207.24 1316.57 1105.84L1020.63 913.738C987.241 965.176 941.372 1007.32 887.297 1036.25C833.223 1065.17 772.705 1079.93 711.386 1079.15C650.067 1078.37 589.944 1062.08 536.622 1031.79C483.3 1001.5 438.516 958.204 406.445 905.935L105.72 1090.45Z" fill="white"/>
<path d="M736.917 0.305647C611.473 -3.36052 487.269 26.009 376.753 85.4708C266.236 144.933 173.29 232.398 107.229 339.1C41.1674 445.803 4.31187 567.995 0.355891 693.43C-3.60009 818.865 25.4824 943.136 84.6887 1053.79L386.5 875.5C356.469 819.373 350.994 768.177 353 704.552C355.007 640.927 373.701 578.947 407.21 524.823C440.719 470.7 487.864 426.335 543.922 396.174C599.98 366.013 645.371 348.64 709 350.5L736.917 0.305647Z" fill="white"/>
<path d="M776.911 2.59375C897.419 12.8828 1013.36 53.5311 1113.91 120.746C1214.46 187.96 1296.34 279.551 1351.92 386.971C1407.5 494.391 1434.96 614.139 1431.75 735.043C1428.53 855.947 1394.74 974.066 1333.52 1078.38L1038.56 887C1069.61 834.089 1077.42 786.985 1079.05 725.659C1080.68 664.332 1066.75 603.591 1038.56 549.104C1010.37 494.617 968.835 448.159 917.832 414.065C866.83 379.972 808.022 359.354 746.896 354.135L776.911 2.59375Z" fill="white"/>
</svg>
