<svg width="332" height="318" viewBox="0 0 332 318" fill="none" xmlns="http://www.w3.org/2000/svg">
<path d="M331.076 22.965C331.076 10.6848 321.086 0.694824 308.806 0.694824H22.2702C9.99002 0.694824 0 10.6848 0 22.965V45.1616C0 48.6258 2.80731 51.434 6.27231 51.434C9.73731 51.434 12.5446 48.6266 12.5446 45.1616V22.965C12.5446 17.6023 16.9083 13.2386 22.2711 13.2386H308.807C314.17 13.2386 318.533 17.6023 318.533 22.965V179.007L292.257 162.465C289.326 160.62 285.452 161.499 283.607 164.43C281.761 167.362 282.641 171.235 285.573 173.08L318.532 193.83V295.617C318.532 300.98 314.169 305.344 308.806 305.344H260.489V256.569C260.489 242.95 254.053 229.852 243.272 221.532L177.914 171.09L220.049 147.02C227.852 142.562 237.424 142.767 245.029 147.555L260.761 157.46C263.693 159.305 267.566 158.426 269.411 155.494C271.257 152.562 270.376 148.691 267.445 146.845L251.713 136.94C240.178 129.677 225.66 129.367 213.828 136.128L167.158 162.788L111.153 119.563C99.5311 110.593 83.7156 109.379 70.8581 116.476L12.5446 148.666V74.8296C12.5446 71.3654 9.73731 68.5573 6.27231 68.5573C2.80731 68.5573 0 71.3646 0 74.8296V295.618C0 307.898 9.99002 317.888 22.2702 317.888H308.806C321.086 317.888 331.076 307.898 331.076 295.618V22.965ZM247.945 305.344H22.2702C16.9075 305.344 12.5438 300.98 12.5438 295.617V162.993L76.9195 127.457C85.3942 122.779 95.8226 123.577 103.489 129.493L235.609 231.462C243.334 237.424 247.945 246.809 247.945 256.568V305.344Z" fill="#373434"/>
</svg>
