<svg width="332" height="318" viewBox="0 0 332 318" fill="none" xmlns="http://www.w3.org/2000/svg">
<path d="M331.251 22.6037C331.251 10.3235 321.261 0.333496 308.981 0.333496H22.4453C10.1651 0.333496 0.17511 10.3235 0.17511 22.6037V44.8003C0.17511 48.2645 2.98242 51.0726 6.44742 51.0726C9.91242 51.0726 12.7197 48.2653 12.7197 44.8003V22.6037C12.7197 17.241 17.0834 12.8773 22.4462 12.8773H308.982C314.345 12.8773 318.708 17.241 318.708 22.6037V178.646L292.432 162.103C289.501 160.259 285.627 161.138 283.782 164.069C281.936 167.001 282.817 170.873 285.748 172.718L318.708 193.468V295.256C318.708 300.619 314.344 304.982 308.981 304.982H260.664V256.207C260.664 242.588 254.228 229.49 243.447 221.171L178.089 170.729L220.224 146.658C228.028 142.2 237.599 142.405 245.204 147.194L260.936 157.099C263.868 158.944 267.742 158.064 269.586 155.133C271.432 152.201 270.551 148.329 267.62 146.484L251.888 136.579C240.353 129.316 225.835 129.005 214.003 135.766L167.334 162.427L111.328 119.202C99.7062 110.232 83.8907 109.018 71.0332 116.114L12.7197 148.304V74.4683C12.7197 71.0041 9.91242 68.196 6.44742 68.196C2.98242 68.196 0.17511 71.0033 0.17511 74.4683V295.257C0.17511 307.537 10.1651 317.527 22.4453 317.527H308.981C321.261 317.527 331.251 307.537 331.251 295.257V22.6037ZM248.121 304.982H22.4453C17.0826 304.982 12.7189 300.619 12.7189 295.256V162.631L77.0946 127.096C85.5693 122.418 95.9977 123.216 103.664 129.132L235.784 231.1C243.509 237.062 248.121 246.448 248.121 256.206V304.982Z" fill="white"/>
</svg>
