<svg width="29" height="29" viewBox="0 0 29 29" fill="none" xmlns="http://www.w3.org/2000/svg">
<path d="M23.6675 14.7103C23.6675 9.64905 19.5651 5.54662 14.5038 5.54662C11.0446 5.54662 8.03669 7.4659 6.47717 10.2981H9.86517V12.3345H3.30469V5.77232H5.33935V8.27026C6.37186 6.79866 7.74392 5.59767 9.33925 4.76906C10.9346 3.94045 12.7062 3.50865 14.5038 3.51026C20.6893 3.51026 25.7038 8.5248 25.7038 14.7103C25.7038 20.8957 20.6893 25.9103 14.5038 25.9103C9.6259 25.9103 5.47766 22.7929 3.9402 18.4436L3.60251 17.4831L5.52178 16.8043L5.86117 17.7648C7.12032 21.325 10.516 23.8739 14.5038 23.8739C19.5651 23.8739 23.6675 19.7715 23.6675 14.7103ZM13.4857 9.16711H15.522V14.2894L18.6173 17.3847L19.3385 18.1042L17.8978 19.5441L17.1783 18.8229L13.4865 15.132L13.4857 9.16711Z" fill="url(#paint0_linear_2628_2467)"/>
<defs>
<linearGradient id="paint0_linear_2628_2467" x1="3.30469" y1="14.7103" x2="25.703" y2="14.7103" gradientUnits="userSpaceOnUse">
<stop stop-color="#3EE1A3"/>
<stop offset="0.36" stop-color="#32F08C"/>
<stop offset="0.716" stop-color="#60F2BD"/>
<stop offset="1" stop-color="#A0FDE7"/>
</linearGradient>
</defs>
</svg>
