<svg width="1185" height="427" viewBox="0 0 1185 427" fill="none" xmlns="http://www.w3.org/2000/svg">
<path d="M81.1464 119.146C80.9512 119.342 80.9512 119.658 81.1464 119.854L84.3284 123.036C84.5237 123.231 84.8403 123.231 85.0355 123.036C85.2308 122.84 85.2308 122.524 85.0355 122.328L82.2071 119.5L85.0355 116.672C85.2308 116.476 85.2308 116.16 85.0355 115.964C84.8403 115.769 84.5237 115.769 84.3284 115.964L81.1464 119.146ZM81.1464 31.6464C80.9512 31.8417 80.9512 32.1583 81.1464 32.3536L84.3284 35.5355C84.5237 35.7308 84.8403 35.7308 85.0355 35.5355C85.2308 35.3403 85.2308 35.0237 85.0355 34.8284L82.2071 32L85.0355 29.1716C85.2308 28.9763 85.2308 28.6597 85.0355 28.4645C84.8403 28.2692 84.5237 28.2692 84.3284 28.4645L81.1464 31.6464ZM143.25 32V32.5V32ZM312 217.5V217H254V217.5V218H312V217.5ZM156 119.5V119H81.5V119.5V120H156V119.5ZM205 168.5H205.5V91H205H204.5V168.5H205ZM146 32V31.5L143.25 31.5V32V32.5H146V32ZM143.25 32V31.5H81.5V32V32.5H143.25V32ZM205 91H205.5C205.5 58.1391 178.861 31.5 146 31.5V32V32.5C178.309 32.5 204.5 58.6913 204.5 91H205ZM156 119.5V120C182.786 120 204.5 141.714 204.5 168.5H205H205.5C205.5 141.162 183.338 119 156 119V119.5ZM254 217.5V217C227.214 217 205.5 195.286 205.5 168.5H205H204.5C204.5 195.838 226.662 218 254 218V217.5Z" fill="url(#paint0_linear_2628_1073)"/>
<path d="M80.6464 316.104C80.4512 315.908 80.4512 315.592 80.6464 315.396L83.8284 312.214C84.0237 312.019 84.3403 312.019 84.5355 312.214C84.7308 312.41 84.7308 312.726 84.5355 312.922L81.7071 315.75L84.5355 318.578C84.7308 318.774 84.7308 319.09 84.5355 319.286C84.3403 319.481 84.0237 319.481 83.8284 319.286L80.6464 316.104ZM80.6464 403.604C80.4512 403.408 80.4512 403.092 80.6464 402.896L83.8284 399.714C84.0237 399.519 84.3403 399.519 84.5355 399.714C84.7308 399.91 84.7308 400.226 84.5355 400.422L81.7071 403.25L84.5355 406.078C84.7308 406.274 84.7308 406.59 84.5355 406.786C84.3403 406.981 84.0237 406.981 83.8284 406.786L80.6464 403.604ZM142.75 403.25V402.75V403.25ZM311.5 217.75V218.25H253.5V217.75V217.25H311.5V217.75ZM155.5 315.75V316.25H81V315.75V315.25H155.5V315.75ZM204.5 266.75H205V344.25H204.5H204V266.75H204.5ZM145.5 403.25V403.75H142.75V403.25V402.75H145.5V403.25ZM142.75 403.25V403.75H81V403.25V402.75H142.75V403.25ZM204.5 344.25H205C205 377.111 178.361 403.75 145.5 403.75V403.25V402.75C177.809 402.75 204 376.559 204 344.25H204.5ZM155.5 315.75V315.25C182.286 315.25 204 293.536 204 266.75H204.5H205C205 294.088 182.838 316.25 155.5 316.25V315.75ZM253.5 217.75V218.25C226.714 218.25 205 239.964 205 266.75H204.5H204C204 239.412 226.162 217.25 253.5 217.25V217.75Z" fill="url(#paint1_linear_2628_1073)"/>
<path d="M6.4495 47.525L6.3995 47.575C5.7245 46.1 5.2995 44.425 5.1245 42.575C5.2995 44.4 5.7745 46.05 6.4495 47.525Z" fill="white"/>
<path d="M22.5003 25.95C25.7865 25.95 28.4502 23.2861 28.4502 20C28.4502 16.7139 25.7865 14.05 22.5003 14.05C19.2142 14.05 16.5503 16.7139 16.5503 20C16.5503 23.2861 19.2142 25.95 22.5003 25.95Z" fill="white"/>
<path d="M40.475 5H19.525C10.425 5 5 10.425 5 19.525V40.475C5 43.2 5.475 45.575 6.4 47.575C8.55 52.325 13.15 55 19.525 55H40.475C49.575 55 55 49.575 55 40.475V34.75V19.525C55 10.425 49.575 5 40.475 5ZM50.925 31.25C48.975 29.575 45.825 29.575 43.875 31.25L33.475 40.175C31.525 41.85 28.375 41.85 26.425 40.175L25.575 39.475C23.8 37.925 20.975 37.775 18.975 39.125L9.625 45.4C9.075 44 8.75 42.375 8.75 40.475V19.525C8.75 12.475 12.475 8.75 19.525 8.75H40.475C47.525 8.75 51.25 12.475 51.25 19.525V31.525L50.925 31.25Z" fill="white"/>
<path d="M6.4495 127.525L6.3995 127.575C5.7245 126.1 5.2995 124.425 5.1245 122.575C5.2995 124.4 5.7745 126.05 6.4495 127.525Z" fill="white"/>
<path d="M22.5003 105.95C25.7865 105.95 28.4502 103.286 28.4502 100C28.4502 96.7139 25.7865 94.05 22.5003 94.05C19.2142 94.05 16.5503 96.7139 16.5503 100C16.5503 103.286 19.2142 105.95 22.5003 105.95Z" fill="white"/>
<path d="M40.475 85H19.525C10.425 85 5 90.425 5 99.525V120.475C5 123.2 5.475 125.575 6.4 127.575C8.55 132.325 13.15 135 19.525 135H40.475C49.575 135 55 129.575 55 120.475V114.75V99.525C55 90.425 49.575 85 40.475 85ZM50.925 111.25C48.975 109.575 45.825 109.575 43.875 111.25L33.475 120.175C31.525 121.85 28.375 121.85 26.425 120.175L25.575 119.475C23.8 117.925 20.975 117.775 18.975 119.125L9.625 125.4C9.075 124 8.75 122.375 8.75 120.475V99.525C8.75 92.475 12.475 88.75 19.525 88.75H40.475C47.525 88.75 51.25 92.475 51.25 99.525V111.525L50.925 111.25Z" fill="white"/>
<g clip-path="url(#clip0_2628_1073)">
<path d="M14.4495 324.525L14.3995 324.575C13.7245 323.1 13.2995 321.425 13.1245 319.575C13.2995 321.4 13.7745 323.05 14.4495 324.525Z" fill="white"/>
<path d="M30.5003 302.95C33.7865 302.95 36.4502 300.286 36.4502 297C36.4502 293.714 33.7865 291.05 30.5003 291.05C27.2142 291.05 24.5503 293.714 24.5503 297C24.5503 300.286 27.2142 302.95 30.5003 302.95Z" fill="white"/>
<path d="M48.475 282H27.525C18.425 282 13 287.425 13 296.525V317.475C13 320.2 13.475 322.575 14.4 324.575C16.55 329.325 21.15 332 27.525 332H48.475C57.575 332 63 326.575 63 317.475V311.75V296.525C63 287.425 57.575 282 48.475 282ZM58.925 308.25C56.975 306.575 53.825 306.575 51.875 308.25L41.475 317.175C39.525 318.85 36.375 318.85 34.425 317.175L33.575 316.475C31.8 314.925 28.975 314.775 26.975 316.125L17.625 322.4C17.075 321 16.75 319.375 16.75 317.475V296.525C16.75 289.475 20.475 285.75 27.525 285.75H48.475C55.525 285.75 59.25 289.475 59.25 296.525V308.525L58.925 308.25Z" fill="white"/>
</g>
<path d="M6.4495 414.525L6.3995 414.575C5.7245 413.1 5.2995 411.425 5.1245 409.575C5.2995 411.4 5.7745 413.05 6.4495 414.525Z" fill="white"/>
<path d="M22.5003 392.95C25.7865 392.95 28.4502 390.286 28.4502 387C28.4502 383.714 25.7865 381.05 22.5003 381.05C19.2142 381.05 16.5503 383.714 16.5503 387C16.5503 390.286 19.2142 392.95 22.5003 392.95Z" fill="white"/>
<path d="M40.475 372H19.525C10.425 372 5 377.425 5 386.525V407.475C5 410.2 5.475 412.575 6.4 414.575C8.55 419.325 13.15 422 19.525 422H40.475C49.575 422 55 416.575 55 407.475V401.75V386.525C55 377.425 49.575 372 40.475 372ZM50.925 398.25C48.975 396.575 45.825 396.575 43.875 398.25L33.475 407.175C31.525 408.85 28.375 408.85 26.425 407.175L25.575 406.475C23.8 404.925 20.975 404.775 18.975 406.125L9.625 412.4C9.075 411 8.75 409.375 8.75 407.475V386.525C8.75 379.475 12.475 375.75 19.525 375.75H40.475C47.525 375.75 51.25 379.475 51.25 386.525V398.525L50.925 398.25Z" fill="white"/>
<path d="M1101.85 119.146C1102.05 119.342 1102.05 119.658 1101.85 119.854L1098.67 123.036C1098.48 123.231 1098.16 123.231 1097.96 123.036C1097.77 122.84 1097.77 122.524 1097.96 122.328L1100.79 119.5L1097.96 116.672C1097.77 116.476 1097.77 116.16 1097.96 115.964C1098.16 115.769 1098.48 115.769 1098.67 115.964L1101.85 119.146ZM1101.85 31.6464C1102.05 31.8417 1102.05 32.1583 1101.85 32.3536L1098.67 35.5355C1098.48 35.7308 1098.16 35.7308 1097.96 35.5355C1097.77 35.3403 1097.77 35.0237 1097.96 34.8284L1100.79 32L1097.96 29.1716C1097.77 28.9763 1097.77 28.6597 1097.96 28.4645C1098.16 28.2692 1098.48 28.2692 1098.67 28.4645L1101.85 31.6464ZM1039.75 32V32.5V32ZM871 217.5V217H929V217.5V218H871V217.5ZM1027 119.5V119H1101.5V119.5V120H1027V119.5ZM978 168.5H977.5V91H978H978.5V168.5H978ZM1037 32V31.5L1039.75 31.5V32V32.5H1037V32ZM1039.75 32V31.5H1101.5V32V32.5H1039.75V32ZM978 91H977.5C977.5 58.1391 1004.14 31.5 1037 31.5V32V32.5C1004.69 32.5 978.5 58.6913 978.5 91H978ZM1027 119.5V120C1000.21 120 978.5 141.714 978.5 168.5H978H977.5C977.5 141.162 999.662 119 1027 119V119.5ZM929 217.5V217C955.786 217 977.5 195.286 977.5 168.5H978H978.5C978.5 195.838 956.338 218 929 218V217.5Z" fill="url(#paint2_linear_2628_1073)"/>
<path d="M1102.35 316.104C1102.55 315.908 1102.55 315.592 1102.35 315.396L1099.17 312.214C1098.98 312.019 1098.66 312.019 1098.46 312.214C1098.27 312.41 1098.27 312.726 1098.46 312.922L1101.29 315.75L1098.46 318.578C1098.27 318.774 1098.27 319.09 1098.46 319.286C1098.66 319.481 1098.98 319.481 1099.17 319.286L1102.35 316.104ZM1102.35 403.604C1102.55 403.408 1102.55 403.092 1102.35 402.896L1099.17 399.714C1098.98 399.519 1098.66 399.519 1098.46 399.714C1098.27 399.91 1098.27 400.226 1098.46 400.422L1101.29 403.25L1098.46 406.078C1098.27 406.274 1098.27 406.59 1098.46 406.786C1098.66 406.981 1098.98 406.981 1099.17 406.786L1102.35 403.604ZM1040.25 403.25V402.75V403.25ZM871.5 217.75V218.25H929.5V217.75V217.25H871.5V217.75ZM1027.5 315.75V316.25H1102V315.75V315.25H1027.5V315.75ZM978.5 266.75H978V344.25H978.5H979V266.75H978.5ZM1037.5 403.25V403.75H1040.25V403.25V402.75H1037.5V403.25ZM1040.25 403.25V403.75H1102V403.25V402.75H1040.25V403.25ZM978.5 344.25H978C978 377.111 1004.64 403.75 1037.5 403.75V403.25V402.75C1005.19 402.75 979 376.559 979 344.25H978.5ZM1027.5 315.75V315.25C1000.71 315.25 979 293.536 979 266.75H978.5H978C978 294.088 1000.16 316.25 1027.5 316.25V315.75ZM929.5 217.75V218.25C956.286 218.25 978 239.964 978 266.75H978.5H979C979 239.412 956.838 217.25 929.5 217.25V217.75Z" fill="url(#paint3_linear_2628_1073)"/>
<path d="M1166.01 31.5C1168.77 28.4786 1170.7 25.4571 1171.41 22.8214C1171.99 20.6357 1171.79 18.6428 1170.89 17.0357C1168.58 13.05 1162.66 12.4714 1155.79 13.95C1153.6 7.26427 1150.19 2.57141 1145.5 2.57141C1141.19 2.57141 1137.53 6.94284 1135.21 14.0143C1134.38 13.8214 1133.61 13.6928 1132.77 13.5643C1126.47 12.6643 1121.91 13.8857 1120.11 17.1C1119.21 18.7071 1119.01 20.7 1119.59 22.8857C1120.3 25.5857 1122.23 28.5428 1124.99 31.5643C1122.23 34.5857 1120.3 37.6071 1119.59 40.2428C1119.01 42.4285 1119.21 44.4214 1120.11 46.0285C1121.59 48.5357 1124.67 49.8214 1128.98 49.8214C1130.14 49.8214 1131.42 49.6928 1132.77 49.5C1133.54 49.3714 1134.38 49.2428 1135.21 49.05C1137.46 56.1214 1141.19 60.4928 1145.5 60.4928C1150.19 60.4928 1153.6 55.7357 1155.72 49.05C1157.97 49.5643 1160.09 49.8214 1162.09 49.8214C1166.14 49.8214 1169.29 48.6643 1170.89 45.9643C1171.79 44.4214 1171.99 42.4285 1171.41 40.2428C1170.7 37.4785 1168.77 34.5857 1166.01 31.5ZM1123.45 44.0357C1123.06 43.3285 1123 42.3643 1123.32 41.2071C1123.84 39.3428 1125.31 36.9 1127.69 34.2C1129.3 35.6786 1131.16 37.1571 1133.09 38.5714C1133.35 40.95 1133.67 43.2 1134.19 45.3214C1128.66 46.4785 1124.61 46.0285 1123.45 44.0357ZM1130.39 31.5C1131.1 30.8571 1131.94 30.15 1132.77 29.5071C1132.77 30.15 1132.77 30.8571 1132.77 31.5C1132.77 32.2071 1132.77 32.85 1132.77 33.4928C1131.94 32.7857 1131.16 32.1428 1130.39 31.5ZM1133.09 24.4286C1131.1 25.8428 1129.3 27.3214 1127.69 28.8C1125.25 26.1643 1123.84 23.7214 1123.32 21.7928C1123 20.6357 1123.06 19.6714 1123.45 18.9643C1124.16 17.6786 1126.15 17.0357 1128.85 17.0357C1130.39 17.0357 1132.19 17.2286 1134.19 17.6786C1133.74 19.8 1133.35 22.05 1133.09 24.4286ZM1153.6 21.5357C1153.02 21.2143 1152.44 20.8286 1151.86 20.5071C1151.29 20.25 1150.71 19.9286 1150.13 19.6071C1151.09 19.2214 1152.12 18.9 1153.02 18.5786C1153.21 19.6071 1153.41 20.5714 1153.6 21.5357ZM1139.65 13.1786C1141.32 8.9357 1143.51 6.42855 1145.5 6.42855C1147.49 6.42855 1149.68 8.9357 1151.35 13.1143C1151.61 13.6928 1151.8 14.3357 1152.06 14.9786C1149.94 15.6214 1147.75 16.4571 1145.56 17.4214C1143.38 16.4571 1141.13 15.6214 1139.01 14.9786C1139.2 14.2714 1139.39 13.6928 1139.65 13.1786ZM1137.98 18.6428C1138.94 18.9 1139.84 19.2857 1140.87 19.6071C1140.29 19.9286 1139.71 20.25 1139.14 20.5714C1138.56 20.8928 1137.98 21.2786 1137.4 21.6C1137.59 20.5714 1137.79 19.6071 1137.98 18.6428ZM1137.4 41.4643C1137.98 41.7857 1138.56 42.1714 1139.14 42.4928C1139.71 42.8143 1140.29 43.1357 1140.87 43.4571C1139.91 43.8428 1138.94 44.1643 1137.98 44.4214C1137.79 43.3928 1137.59 42.4285 1137.4 41.4643ZM1151.35 50.0143C1149.68 54.1928 1147.49 56.7 1145.5 56.7C1143.51 56.7 1141.32 54.1928 1139.65 49.95C1139.39 49.3714 1139.2 48.7286 1139.01 48.0857C1141.13 47.4428 1143.31 46.6071 1145.56 45.6428C1147.75 46.6071 1149.94 47.4428 1152.06 48.0857C1151.8 48.7286 1151.61 49.3714 1151.35 50.0143ZM1153.02 44.3571C1152.06 44.0357 1151.09 43.7143 1150.13 43.3286C1150.71 43.0071 1151.29 42.6857 1151.86 42.3643C1152.44 42.1071 1153.02 41.7214 1153.6 41.4C1153.41 42.4286 1153.21 43.3928 1153.02 44.3571ZM1154.18 36.5143C1152.89 37.4143 1151.48 38.3143 1149.94 39.15C1148.46 39.9857 1146.91 40.7571 1145.5 41.4643C1144.02 40.7571 1142.54 39.9857 1141.06 39.15C1139.52 38.3143 1138.17 37.4143 1136.82 36.5143C1136.69 34.9071 1136.63 33.2357 1136.63 31.5643C1136.63 29.8928 1136.69 28.2214 1136.82 26.6143C1138.17 25.7143 1139.52 24.8786 1141.06 23.9786C1142.54 23.1428 1144.02 22.3714 1145.5 21.6643C1146.98 22.3714 1148.46 23.1428 1149.94 23.9786C1151.48 24.8143 1152.83 25.7143 1154.18 26.6143C1154.31 28.2214 1154.37 29.8928 1154.37 31.5643C1154.37 33.2357 1154.31 34.8428 1154.18 36.5143ZM1162.09 17.0357C1164.85 17.0357 1166.84 17.7428 1167.61 19.0286C1168 19.7357 1168.06 20.7 1167.74 21.8571C1167.23 23.7214 1165.75 26.1643 1163.37 28.8643C1161.76 27.3857 1159.9 25.9071 1157.91 24.4928C1157.65 22.1786 1157.26 19.8643 1156.81 17.7428C1158.74 17.2286 1160.54 17.0357 1162.09 17.0357ZM1158.16 29.5714C1159 30.2143 1159.77 30.8571 1160.54 31.5C1159.84 32.1428 1159 32.85 1158.16 33.4928C1158.16 32.7857 1158.23 32.1428 1158.23 31.5C1158.23 30.8571 1158.23 30.2143 1158.16 29.5714ZM1167.55 44.0357C1166.39 46.0285 1162.34 46.5428 1156.75 45.3857C1157.26 43.2 1157.59 40.95 1157.84 38.6357C1159.84 37.2214 1161.64 35.7428 1163.31 34.2643C1165.75 36.9 1167.16 39.3428 1167.68 41.2714C1168 42.4285 1167.94 43.3928 1167.55 44.0357Z" fill="url(#paint4_linear_2628_1073)"/>
<path d="M1145.5 25.7142C1142.29 25.7142 1139.71 28.2857 1139.71 31.4999C1139.71 34.7142 1142.29 37.2857 1145.5 37.2857C1148.71 37.2857 1151.29 34.7142 1151.29 31.4999C1151.29 28.2857 1148.71 25.7142 1145.5 25.7142ZM1145.5 33.4285C1144.41 33.4285 1143.57 32.5928 1143.57 31.4999C1143.57 30.4071 1144.41 29.5714 1145.5 29.5714C1146.59 29.5714 1147.43 30.4071 1147.43 31.4999C1147.43 32.5928 1146.59 33.4285 1145.5 33.4285Z" fill="url(#paint5_linear_2628_1073)"/>
<path d="M1120.45 127.525L1120.4 127.575C1119.72 126.1 1119.3 124.425 1119.12 122.575C1119.3 124.4 1119.77 126.05 1120.45 127.525Z" fill="white"/>
<path d="M1136.5 105.95C1139.79 105.95 1142.45 103.286 1142.45 100C1142.45 96.7139 1139.79 94.05 1136.5 94.05C1133.21 94.05 1130.55 96.7139 1130.55 100C1130.55 103.286 1133.21 105.95 1136.5 105.95Z" fill="white"/>
<path d="M1154.48 85H1133.53C1124.43 85 1119 90.425 1119 99.525V120.475C1119 123.2 1119.47 125.575 1120.4 127.575C1122.55 132.325 1127.15 135 1133.53 135H1154.48C1163.58 135 1169 129.575 1169 120.475V114.75V99.525C1169 90.425 1163.58 85 1154.48 85ZM1164.93 111.25C1162.98 109.575 1159.83 109.575 1157.88 111.25L1147.48 120.175C1145.53 121.85 1142.38 121.85 1140.43 120.175L1139.58 119.475C1137.8 117.925 1134.98 117.775 1132.98 119.125L1123.63 125.4C1123.08 124 1122.75 122.375 1122.75 120.475V99.525C1122.75 92.475 1126.48 88.75 1133.53 88.75H1154.48C1161.53 88.75 1165.25 92.475 1165.25 99.525V111.525L1164.93 111.25Z" fill="white"/>
<path d="M1131.45 327.525L1131.4 327.575C1130.72 326.1 1130.3 324.425 1130.12 322.575C1130.3 324.4 1130.77 326.05 1131.45 327.525Z" fill="white"/>
<path d="M1147.5 305.95C1150.79 305.95 1153.45 303.286 1153.45 300C1153.45 296.714 1150.79 294.05 1147.5 294.05C1144.21 294.05 1141.55 296.714 1141.55 300C1141.55 303.286 1144.21 305.95 1147.5 305.95Z" fill="white"/>
<path d="M1165.48 285H1144.53C1135.43 285 1130 290.425 1130 299.525V320.475C1130 323.2 1130.47 325.575 1131.4 327.575C1133.55 332.325 1138.15 335 1144.53 335H1165.48C1174.58 335 1180 329.575 1180 320.475V314.75V299.525C1180 290.425 1174.58 285 1165.48 285ZM1175.93 311.25C1173.98 309.575 1170.83 309.575 1168.88 311.25L1158.48 320.175C1156.53 321.85 1153.38 321.85 1151.43 320.175L1150.58 319.475C1148.8 317.925 1145.98 317.775 1143.98 319.125L1134.63 325.4C1134.08 324 1133.75 322.375 1133.75 320.475V299.525C1133.75 292.475 1137.48 288.75 1144.53 288.75H1165.48C1172.53 288.75 1176.25 292.475 1176.25 299.525V311.525L1175.93 311.25Z" fill="white"/>
<path d="M1120.45 414.525L1120.4 414.575C1119.72 413.1 1119.3 411.425 1119.12 409.575C1119.3 411.4 1119.77 413.05 1120.45 414.525Z" fill="white"/>
<path d="M1136.5 392.95C1139.79 392.95 1142.45 390.286 1142.45 387C1142.45 383.714 1139.79 381.05 1136.5 381.05C1133.21 381.05 1130.55 383.714 1130.55 387C1130.55 390.286 1133.21 392.95 1136.5 392.95Z" fill="white"/>
<path d="M1154.48 372H1133.53C1124.43 372 1119 377.425 1119 386.525V407.475C1119 410.2 1119.47 412.575 1120.4 414.575C1122.55 419.325 1127.15 422 1133.53 422H1154.48C1163.58 422 1169 416.575 1169 407.475V401.75V386.525C1169 377.425 1163.58 372 1154.48 372ZM1164.93 398.25C1162.98 396.575 1159.83 396.575 1157.88 398.25L1147.48 407.175C1145.53 408.85 1142.38 408.85 1140.43 407.175L1139.58 406.475C1137.8 404.925 1134.98 404.775 1132.98 406.125L1123.63 412.4C1123.08 411 1122.75 409.375 1122.75 407.475V386.525C1122.75 379.475 1126.48 375.75 1133.53 375.75H1154.48C1161.53 375.75 1165.25 379.475 1165.25 386.525V398.525L1164.93 398.25Z" fill="white"/>
<defs>
<linearGradient id="paint0_linear_2628_1073" x1="196.75" y1="119.5" x2="196.75" y2="217.5" gradientUnits="userSpaceOnUse">
<stop stop-color="#1FE58D"/>
<stop offset="1" stop-color="#7CF8A4"/>
</linearGradient>
<linearGradient id="paint1_linear_2628_1073" x1="196.25" y1="315.75" x2="196.25" y2="217.75" gradientUnits="userSpaceOnUse">
<stop stop-color="#1FE58D"/>
<stop offset="1" stop-color="#7CF8A4"/>
</linearGradient>
<linearGradient id="paint2_linear_2628_1073" x1="986.25" y1="119.5" x2="986.25" y2="217.5" gradientUnits="userSpaceOnUse">
<stop stop-color="#1FE58D"/>
<stop offset="1" stop-color="#7CF8A4"/>
</linearGradient>
<linearGradient id="paint3_linear_2628_1073" x1="986.75" y1="315.75" x2="986.75" y2="217.75" gradientUnits="userSpaceOnUse">
<stop stop-color="#1FE58D"/>
<stop offset="1" stop-color="#7CF8A4"/>
</linearGradient>
<linearGradient id="paint4_linear_2628_1073" x1="1145.5" y1="2.92498" x2="1145.5" y2="60.1449" gradientUnits="userSpaceOnUse">
<stop stop-color="#00EFD1"/>
<stop offset="1" stop-color="#00ACEA"/>
</linearGradient>
<linearGradient id="paint5_linear_2628_1073" x1="1145.5" y1="2.92495" x2="1145.5" y2="60.1449" gradientUnits="userSpaceOnUse">
<stop stop-color="#00EFD1"/>
<stop offset="1" stop-color="#00ACEA"/>
</linearGradient>
<clipPath id="clip0_2628_1073">
<rect width="54" height="54" fill="white" transform="translate(11 280)"/>
</clipPath>
</defs>
</svg>
