<svg width="33" height="34" viewBox="0 0 33 34" fill="none" xmlns="http://www.w3.org/2000/svg">
<path d="M11.6855 0.882071C11.5454 0.945789 11.2778 0.996763 11.0866 0.996763C10.5514 1.00951 9.25153 1.77412 8.51241 2.51325C7.87523 3.13768 7.72231 3.40529 7.25079 4.5777C7.09787 4.96001 6.94495 5.0747 6.28228 5.31683C5.44121 5.64816 4.39624 6.50198 3.78455 7.36854C3.36401 7.99297 2.95622 9.16538 2.95622 9.77707C2.95622 10.1339 2.81604 10.3633 2.15338 11.0769C0.636893 12.7208 -0.000284686 14.6706 0.343791 16.7096C0.432996 17.2958 0.636893 18.0476 0.777072 18.379C1.1084 19.1436 1.1084 19.1818 0.777072 19.87C0.624149 20.1758 0.432996 20.8894 0.343791 21.4502C-0.0512589 23.8587 0.904507 26.2927 2.79055 27.7327C3.04542 27.9239 3.3895 28.4464 3.70809 29.0835C4.95696 31.6577 7.48018 33.2634 10.2838 33.2634C11.9787 33.2634 13.1128 32.8939 13.8647 32.0783C14.9479 30.9059 15.0626 30.3961 15.0626 26.8407V23.9479H13.5589H12.0551L11.6091 24.4067C11.0611 24.9929 10.5259 25.2222 9.74853 25.2222C8.78002 25.2222 8.25753 25.0184 7.73505 24.4449C6.86849 23.4764 6.67733 22.4059 7.17433 21.3355C7.97718 19.6151 10.1436 19.22 11.5581 20.5199L12.0933 21.0169H13.5843H15.0626L15.0371 17.729L14.9989 14.454L13.5716 14.4157L12.1443 14.3775L11.7875 14.7853C10.9209 15.7538 9.36622 16.0087 8.27028 15.3715C7.21256 14.7471 6.65185 13.307 7.03415 12.1601C7.35274 11.1916 8.6271 10.1849 9.53189 10.1849C10.3092 10.1849 11.0356 10.4907 11.5836 11.0387L12.1443 11.5867H13.5971H15.0626V7.40677C15.0626 3.94052 15.0244 3.12494 14.8587 2.64068C14.6293 1.95253 14.0686 1.31535 13.4951 1.07322C12.9344 0.84384 11.9914 0.741892 11.6855 0.882071Z" fill="white"/>
<path d="M19.8924 0.920202C19.064 1.16233 18.567 1.55738 18.1975 2.30925L17.8661 2.97191V10.0318V17.0918L19.4718 17.0535L21.0775 17.0026L21.4471 16.582C21.9059 16.0723 21.9568 15.3714 21.5618 15.1547C21.2432 14.9891 20.7589 14.2372 20.5423 13.5745C20.058 12.0963 21.5618 10.1848 23.2057 10.1848C23.8684 10.1848 24.7222 10.5671 25.2192 11.0896C26.3024 12.2365 26.2896 13.7784 25.1809 14.9126C24.8114 15.2822 24.7094 15.5116 24.6202 16.1487C24.4036 17.7035 23.6517 18.7484 22.2499 19.4366C21.549 19.7807 21.3706 19.8061 19.6885 19.8571L17.8661 19.8953V24.8271C17.8661 30.6127 17.9044 30.7911 18.9876 32.0017C19.5993 32.6771 20.2619 32.9957 21.4853 33.1869C23.2439 33.4672 25.0663 33.0594 26.6719 32.04C27.7551 31.3391 28.5962 30.3705 29.2079 29.1089C29.5775 28.3188 29.8451 27.962 30.3293 27.5797C31.0047 27.0445 31.8458 25.8848 32.2026 25.031C32.3173 24.7506 32.4957 24.0625 32.5849 23.5018C32.7761 22.3166 32.6104 21.004 32.1262 19.8699L31.8458 19.2199L32.1772 18.2387C32.6869 16.7604 32.7761 15.9066 32.5722 14.6832C32.4703 14.1098 32.2918 13.4216 32.1899 13.1668C31.9095 12.4786 31.1067 11.3572 30.495 10.7582C30.1509 10.4396 29.9725 10.1465 29.9725 9.92989C29.9725 9.39466 29.6412 8.33695 29.2589 7.63605C28.7619 6.73126 27.615 5.71178 26.6465 5.32947C25.9965 5.0746 25.8309 4.94716 25.6652 4.5776C25.2064 3.51989 25.028 3.22678 24.4546 2.58961C23.4988 1.54464 22.5813 1.08587 20.8609 0.818254C20.657 0.792767 20.211 0.830998 19.8924 0.920202Z" fill="white"/>
</svg>
