<svg width="34" height="34" viewBox="0 0 34 34" fill="none" xmlns="http://www.w3.org/2000/svg">
<g clip-path="url(#clip0_2628_2024)">
<path d="M13.3376 0.904541H3.20605C1.9025 0.904541 0.842102 1.96494 0.842102 3.26849V9.34743C0.842102 10.6512 1.9025 11.7116 3.20605 11.7116H13.3376C14.6414 11.7116 15.7018 10.6512 15.7018 9.34743V3.26849C15.7018 1.96494 14.6414 0.904541 13.3376 0.904541Z" fill="white"/>
<path d="M13.3376 14.4133H3.20605C1.9025 14.4133 0.842102 15.4737 0.842102 16.7775V30.9617C0.842102 32.2653 1.9025 33.3257 3.20605 33.3257H13.3376C14.6414 33.3257 15.7018 32.2653 15.7018 30.9617V16.7775C15.7018 15.4737 14.6414 14.4133 13.3376 14.4133Z" fill="white"/>
<path d="M30.8992 22.5186H20.7676C19.4638 22.5186 18.4034 23.579 18.4034 24.8828V30.9617C18.4034 32.2652 19.4638 33.3256 20.7676 33.3256H30.8992C32.2027 33.3256 33.2631 32.2652 33.2631 30.9617V24.8828C33.2631 23.579 32.2027 22.5186 30.8992 22.5186Z" fill="white"/>
<path d="M30.8992 0.904541H20.7676C19.4638 0.904541 18.4034 1.96494 18.4034 3.26849V17.4527C18.4034 18.7565 19.4638 19.8169 20.7676 19.8169H30.8992C32.2027 19.8169 33.2631 18.7565 33.2631 17.4527V3.26849C33.2631 1.96494 32.2027 0.904541 30.8992 0.904541Z" fill="white"/>
</g>
<defs>
<clipPath id="clip0_2628_2024">
<rect width="32.421" height="32.421" fill="white" transform="translate(0.842056 0.904541)"/>
</clipPath>
</defs>
</svg>
