<svg width="34" height="34" viewBox="0 0 34 34" fill="none" xmlns="http://www.w3.org/2000/svg">
<path d="M25.001 13.6675V9.842C25.001 5.36252 21.3591 1.71509 16.8741 1.71509C12.3946 1.71509 8.74716 5.36252 8.74716 9.842V13.6675C6.87213 13.8242 5.39697 15.4075 5.39697 17.3202V21.8809C5.39697 27.7437 10.1628 32.5151 16.0256 32.5151H17.7223C23.5851 32.5151 28.3509 27.7437 28.3509 21.8809V17.3202C28.3509 15.4073 26.876 13.8242 25.001 13.6675ZM12.2649 9.842C12.5175 3.73471 21.2308 3.7361 21.4833 9.842V13.6516H12.2649L12.2649 9.842ZM15.5881 23.5077C13.6914 22.2703 14.6168 19.2457 16.8741 19.2658C19.1315 19.2469 20.0582 22.2688 18.1602 23.5077C18.0143 23.6049 17.9225 23.7778 17.9225 23.9562V25.8528C17.8873 27.2334 15.8624 27.2361 15.8259 25.8528V23.9562C15.8259 23.7779 15.734 23.605 15.5881 23.5077Z" fill="white"/>
</svg>
