<svg width="33" height="34" viewBox="0 0 33 34" fill="none" xmlns="http://www.w3.org/2000/svg">
<g clip-path="url(#clip0_2628_2069)">
<path d="M16.4632 1.71509C7.52477 1.71509 0.252729 8.25981 0.252729 16.3045C0.252729 19.1165 1.14215 21.8404 2.82912 24.1958C2.50977 27.7281 1.65386 30.3504 0.411052 31.5927C0.246785 31.757 0.205719 32.0082 0.309466 32.2157C0.401325 32.401 0.590448 32.5151 0.79308 32.5151C0.817936 32.5151 0.842792 32.5134 0.868188 32.5097C1.08703 32.4789 6.17065 31.7472 9.84773 29.6247C11.9356 30.4671 14.1597 30.894 16.4632 30.894C25.4017 30.894 32.6738 24.3493 32.6738 16.3045C32.6738 8.25981 25.4017 1.71509 16.4632 1.71509ZM8.89834 18.466C7.70632 18.466 6.73693 17.4966 6.73693 16.3045C6.73693 15.1125 7.70632 14.1431 8.89834 14.1431C10.0903 14.1431 11.0597 15.1125 11.0597 16.3045C11.0597 17.4966 10.0903 18.466 8.89834 18.466ZM16.4632 18.466C15.2712 18.466 14.3018 17.4966 14.3018 16.3045C14.3018 15.1125 15.2712 14.1431 16.4632 14.1431C17.6553 14.1431 18.6246 15.1125 18.6246 16.3045C18.6246 17.4966 17.6553 18.466 16.4632 18.466ZM24.0281 18.466C22.8361 18.466 21.8667 17.4966 21.8667 16.3045C21.8667 15.1125 22.8361 14.1431 24.0281 14.1431C25.2202 14.1431 26.1895 15.1125 26.1895 16.3045C26.1895 17.4966 25.2202 18.466 24.0281 18.466Z" fill="white"/>
</g>
<defs>
<clipPath id="clip0_2628_2069">
<rect width="32.421" height="32.421" fill="white" transform="translate(0.252686 0.904541)"/>
</clipPath>
</defs>
</svg>
