<svg width="34" height="34" viewBox="0 0 34 34" fill="none" xmlns="http://www.w3.org/2000/svg">
<g clip-path="url(#clip0_2628_2012)">
<path d="M30.0262 11.1102L28.6831 1.70744C28.5727 0.936558 27.6252 0.616211 27.071 1.17041L25.1147 3.12669C22.5991 1.60917 19.7431 0.810547 16.8064 0.810547C7.97501 0.810547 0.884616 7.72281 0.663875 16.5468C0.651843 17.0292 1.00246 17.4428 1.47921 17.5115L5.27482 18.0541C5.84066 18.1367 6.36706 17.6924 6.35921 17.1006C6.2805 11.2768 10.9842 6.50956 16.8064 6.50956C18.2163 6.50956 19.6095 6.79615 20.8971 7.34433L19.0113 9.23007C18.4606 9.78079 18.7732 10.7312 19.5484 10.8422L28.9512 12.1853C29.5707 12.2787 30.1151 11.7399 30.0262 11.1102Z" fill="white"/>
<path d="M32.2685 16.6037L28.4757 16.062C27.9857 15.9999 27.3914 16.4198 27.3914 17.0842C27.3914 22.8453 22.7043 27.5324 16.9432 27.5324C15.5408 27.5324 14.154 27.2485 12.8712 26.7059L14.6967 24.8804C15.2474 24.3297 14.9348 23.3793 14.1596 23.2683L4.75683 21.9242C4.13925 21.836 3.59234 22.3656 3.68175 22.9993L5.02481 32.4022C5.13537 33.1739 6.08204 33.4921 6.63694 32.9392L8.64052 30.9366C11.144 32.4402 13.9982 33.2314 16.9432 33.2314C25.732 33.2314 32.8214 26.3534 33.0839 17.573C33.0978 17.0898 32.7472 16.6723 32.2685 16.6037Z" fill="white"/>
</g>
<defs>
<clipPath id="clip0_2628_2012">
<rect width="32.421" height="32.421" fill="white" transform="translate(0.66333 0.810547)"/>
</clipPath>
</defs>
</svg>
