<svg width="34" height="34" viewBox="0 0 34 34" fill="none" xmlns="http://www.w3.org/2000/svg">
<g clip-path="url(#clip0_2628_1996)">
<path d="M15.9444 0.92451C14.5893 1.32977 13.5825 2.31127 13.1392 3.66003C13.0886 3.81834 13.0253 4.29959 13.0063 4.73018L12.9683 5.51538L12.2717 5.80666C11.2902 6.22459 10.657 6.59186 9.7325 7.28207L9.15627 7.70633L8.49771 7.37705C7.71252 6.97812 7.31359 6.87681 6.4904 6.88314C5.32527 6.88947 4.48308 7.23774 3.65356 8.06093C3.02667 8.68149 2.66573 9.34005 2.51376 10.1822C2.34278 11.0877 2.45676 11.8729 2.88736 12.7784C3.19764 13.4433 3.85619 14.1335 4.57806 14.5515L5.05298 14.8238L4.97699 15.3367C4.87568 16.0016 4.87568 18.0469 4.97699 18.7117L5.05931 19.2247L4.57806 19.4969C3.98917 19.8326 3.2293 20.5798 2.95068 21.1053C2.61507 21.7512 2.4631 22.3528 2.4631 23.0683C2.45676 23.8345 2.54542 24.2335 2.88102 24.93C3.36227 25.9368 4.38176 26.7663 5.49624 27.0576C5.94582 27.1716 7.02864 27.1843 7.50355 27.0766C7.68719 27.0323 8.13678 26.8487 8.49771 26.665L9.15627 26.3294L9.63752 26.703C10.4607 27.3362 11.2966 27.8175 12.2717 28.2354L12.9683 28.5267L13.0063 29.3119C13.0569 30.2111 13.1076 30.4137 13.4622 31.1103C13.9624 32.0791 14.9946 32.8833 16.0457 33.1366C16.565 33.2569 17.5401 33.2569 18.0531 33.1366C19.1549 32.877 20.1933 32.0474 20.6999 31.0216C20.9849 30.4327 21.0609 30.1351 21.0989 29.3119L21.1368 28.5267L21.8334 28.2354C22.8149 27.8175 23.4481 27.4502 24.3726 26.76L24.9552 26.3294L25.5757 26.646C25.924 26.8233 26.3736 27.007 26.5826 27.0576C27.0765 27.1843 28.1023 27.1779 28.6025 27.0513C29.717 26.7663 30.7238 25.9558 31.2304 24.9363C31.8257 23.7269 31.8067 22.3718 31.1861 21.1687C30.8885 20.5924 30.1096 19.8072 29.4954 19.4653L29.0458 19.2183L29.1281 18.7054C29.2294 18.0405 29.2294 15.9952 29.1281 15.3303L29.0458 14.8174L29.5271 14.5451C30.116 14.2095 30.8758 13.4623 31.1544 12.9368C31.4331 12.4048 31.6104 11.7716 31.6547 11.1701C31.7877 9.25773 30.4706 7.45304 28.5772 6.97812C28.039 6.84515 27.0828 6.84515 26.5509 6.98446C26.3229 7.04145 25.8734 7.23141 25.5504 7.40238L24.9615 7.71266L24.4486 7.32006C23.5494 6.62985 22.5869 6.10428 21.2508 5.5597C21.1115 5.50271 21.1052 5.46472 21.1052 4.85683C21.1052 4.08429 20.9912 3.60938 20.6556 2.95716C20.187 2.05798 19.3828 1.3551 18.4267 1.01316C17.8188 0.791533 16.5396 0.747207 15.9444 0.92451ZM18.471 11.8603C20.3327 12.3985 21.6498 13.7156 22.2197 15.609C22.3653 16.0902 22.3906 16.2802 22.3906 17.021C22.3906 17.7619 22.3653 17.9519 22.2197 18.4331C21.6498 20.3265 20.358 21.6182 18.4646 22.1881C17.9834 22.3338 17.7934 22.3591 17.0526 22.3591C16.3117 22.3591 16.1217 22.3338 15.6405 22.1881C13.7471 21.6182 12.4554 20.3265 11.8855 18.4331C11.7398 17.9519 11.7145 17.7619 11.7145 17.021C11.7145 16.2802 11.7398 16.0902 11.8855 15.609C12.5313 13.4497 14.2157 12.0059 16.451 11.6766C16.9069 11.607 17.9264 11.702 18.471 11.8603Z" fill="white"/>
</g>
<defs>
<clipPath id="clip0_2628_1996">
<rect width="32.421" height="32.421" fill="white" transform="translate(0.842056 0.810547)"/>
</clipPath>
</defs>
</svg>
