<svg width="60" height="60" viewBox="0 0 60 60" fill="none" xmlns="http://www.w3.org/2000/svg">
<path d="M29.456 54.9902C29.8562 54.9902 30.4813 54.8399 31.1066 54.5149C45.3356 47.0627 49.9121 43.3366 49.9121 34.359V15.5034C49.9121 12.9277 48.8116 12.1024 46.7112 11.2271C43.7853 10.0268 34.4326 6.62579 31.5317 5.6255C30.8565 5.40043 30.1562 5.27539 29.456 5.27539C28.7558 5.27539 28.0556 5.42544 27.4054 5.6255C24.4796 6.57577 15.1268 10.0518 12.2009 11.2271C10.1253 12.0774 9 12.9277 9 15.5034V34.359C9 43.3366 13.8264 46.6376 27.8056 54.5149C28.4557 54.8651 29.0559 54.9902 29.456 54.9902ZM18.1777 30.9579C18.1777 30.6579 18.3277 30.2827 18.6028 29.9577L32.732 12.2274C33.8073 10.877 35.608 11.7773 34.9577 13.4528L30.3063 25.9565H39.0338C39.709 25.9565 40.2092 26.4315 40.2092 27.1069C40.2092 27.407 40.0592 27.7821 39.7841 28.1071L25.6549 45.8374C24.5796 47.1878 22.8041 46.2874 23.4293 44.637L28.1056 32.1083H19.3531C18.7029 32.1083 18.1777 31.6331 18.1777 30.9579Z" fill="white"/>
</svg>
