<svg xmlns="http://www.w3.org/2000/svg" viewBox="0 0 500 500"><g id="freepik--background-complete--inject-71"><rect x="416.78" y="398.49" width="33.12" height="0.25" style="fill:#ebebeb"></rect><rect x="322.53" y="401.21" width="8.69" height="0.25" style="fill:#ebebeb"></rect><rect x="396.59" y="389.21" width="19.19" height="0.25" style="fill:#ebebeb"></rect><rect x="52.46" y="390.89" width="43.19" height="0.25" style="fill:#ebebeb"></rect><rect x="104.56" y="390.89" width="6.33" height="0.25" style="fill:#ebebeb"></rect><rect x="131.47" y="395.11" width="93.68" height="0.25" style="fill:#ebebeb"></rect><path d="M237,337.8H43.92a5.71,5.71,0,0,1-5.71-5.71V60.66A5.71,5.71,0,0,1,43.92,55H237a5.71,5.71,0,0,1,5.71,5.71V332.09A5.71,5.71,0,0,1,237,337.8ZM43.92,55.2a5.47,5.47,0,0,0-5.46,5.46V332.09a5.47,5.47,0,0,0,5.46,5.46H237a5.47,5.47,0,0,0,5.46-5.46V60.66A5.47,5.47,0,0,0,237,55.2Z" style="fill:#ebebeb"></path><path d="M453.31,337.8H260.21a5.72,5.72,0,0,1-5.71-5.71V60.66A5.72,5.72,0,0,1,260.21,55h193.1A5.71,5.71,0,0,1,459,60.66V332.09A5.71,5.71,0,0,1,453.31,337.8ZM260.21,55.2a5.47,5.47,0,0,0-5.46,5.46V332.09a5.47,5.47,0,0,0,5.46,5.46h193.1a5.47,5.47,0,0,0,5.46-5.46V60.66a5.47,5.47,0,0,0-5.46-5.46Z" style="fill:#ebebeb"></path><rect y="382.4" width="500" height="0.25" style="fill:#ebebeb"></rect><polygon points="314.72 171.9 169.02 171.9 177.71 72.6 323.41 72.6 314.72 171.9" style="fill:#f5f5f5"></polygon><rect x="185.97" y="154.22" width="79.09" height="0.78" style="fill:#e0e0e0"></rect><path d="M266.76,139.82H187l0-.43,4.81-54.92H271.6l0,.43ZM187.83,139H266l4.7-53.78H192.53Z" style="fill:#e0e0e0"></path><path d="M190.23,166h-2.15a3.06,3.06,0,0,1-3.1-3.39l.19-2.15a3.7,3.7,0,0,1,3.62-3.33h2.15a3.06,3.06,0,0,1,3.1,3.39l-.19,2.15A3.7,3.7,0,0,1,190.23,166Zm-1.44-8.09a2.9,2.9,0,0,0-2.84,2.61l-.19,2.15a2.34,2.34,0,0,0,.59,1.81,2.3,2.3,0,0,0,1.73.74h2.15a2.91,2.91,0,0,0,2.85-2.61l.18-2.15a2.34,2.34,0,0,0-.59-1.81,2.29,2.29,0,0,0-1.73-.74Z" style="fill:#e0e0e0"></path><path d="M226.4,149.65H186.12l.37-4.27h40.28ZM187,148.87h38.71l.24-2.71H187.21Z" style="fill:#e0e0e0"></path><path d="M264.61,163.71h-16l.37-4.27H265Zm-15.19-.78H263.9l.24-2.71H249.66Z" style="fill:#e0e0e0"></path><path d="M265.9,149.65h-4.28l.37-4.27h4.28Zm-3.43-.78h2.71l.24-2.71h-2.71Z" style="fill:#e0e0e0"></path><path d="M260,149.65h-4.27l.37-4.27h4.28Zm-3.42-.78h2.71l.23-2.71h-2.7Z" style="fill:#e0e0e0"></path><path d="M254.07,149.65H249.8l.37-4.27h4.27Zm-3.42-.78h2.7l.24-2.71h-2.7Z" style="fill:#e0e0e0"></path><path d="M272,80.33h-60l.33-3.78h60Zm-59.18-.78h58.46l.2-2.22H213Z" style="fill:#e0e0e0"></path><path d="M208,80.58H192l.37-4.27h16Zm-15.19-.79h14.48l.24-2.7H193.08Z" style="fill:#e0e0e0"></path><path d="M309.65,102.43H281.46l1.42-16.19h28.19Zm-27.34-.78h26.62L310.22,87H283.59Z" style="fill:#e0e0e0"></path><path d="M307,132.84H278.8l1.42-16.2h28.19Zm-27.34-.78h26.62l1.28-14.64H280.93Z" style="fill:#e0e0e0"></path><path d="M304.33,163.25H276.14l1.42-16.2h28.19ZM277,162.47h26.62l1.29-14.64H278.27Z" style="fill:#e0e0e0"></path><rect x="279.95" y="93.94" width="32.63" height="0.78" transform="translate(-9.38 151.35) rotate(-28.23)" style="fill:#e0e0e0"></rect><polygon points="309.09 102.38 283.04 86.96 283.43 86.29 309.49 101.7 309.09 102.38" style="fill:#e0e0e0"></polygon><rect x="277.29" y="124.35" width="32.63" height="0.78" transform="translate(-24.12 153.29) rotate(-28.15)" style="fill:#e0e0e0"></rect><rect x="293.21" y="109.6" width="0.78" height="30.28" transform="translate(36.75 313.92) rotate(-59.39)" style="fill:#e0e0e0"></rect><path d="M276.11,163.54l1.47-16.75L291,154.7l14.19-7.6.37.69-13.77,7.37,12.43,7.36-.4.67-12.84-7.59Zm2.14-15.45L277,162.17l13.13-7Z" style="fill:#e0e0e0"></path><rect x="179.3" y="111.75" width="99.97" height="0.78" transform="translate(-24.05 143.28) rotate(-33.07)" style="fill:#e0e0e0"></rect><rect x="228.9" y="66.08" width="0.78" height="92.12" transform="translate(3.12 230.46) rotate(-53.68)" style="fill:#e0e0e0"></rect><polygon points="372.48 382.95 292.31 382.95 303.61 253.73 383.78 253.73 372.48 382.95" style="fill:#f5f5f5"></polygon><path d="M318.52,377.18H299l1.2-13.73h19.53Zm-18.66-.79h17.93l1.07-12.15H300.92Z" style="fill:#e0e0e0"></path><path d="M342.29,377.18H322.76l1.2-13.73h19.53Zm-18.67-.79h17.94l1.06-12.15H324.69Z" style="fill:#e0e0e0"></path><path d="M366.05,377.18H346.53l1.19-13.73h19.54Zm-18.66-.79h17.94l1.06-12.15H348.45Z" style="fill:#e0e0e0"></path><rect x="302.26" y="343.94" width="66.27" height="0.79" style="fill:#e0e0e0"></rect><path d="M347.44,325.43H303.6l.44-5.06h43.84Zm-43-.79h42.25l.3-3.47H304.77Z" style="fill:#e0e0e0"></path><path d="M367.76,357.72H349.58l.43-5h18.18Zm-17.32-.8H367l.3-3.4H350.74Z" style="fill:#e0e0e0"></path><path d="M369.47,338.19h-6.91l.6-6.91h6.91Zm-6.05-.79h5.32l.46-5.32h-5.31Z" style="fill:#e0e0e0"></path><path d="M339.42,338.19h-6.91l.6-6.91H340Zm-6.05-.79h5.32l.46-5.32h-5.31Z" style="fill:#e0e0e0"></path><path d="M309.37,338.19h-6.91l.6-6.91H310Zm-6.05-.79h5.32l.46-5.32h-5.31Z" style="fill:#e0e0e0"></path><path d="M329.47,265.75H308.82l.47-5.33h20.64ZM309.69,265h19.05l.33-3.75H310Z" style="fill:#e0e0e0"></path><path d="M307.22,359.1h-1.74a4.35,4.35,0,0,1-4.4-4.83l.15-1.73a5.3,5.3,0,0,1,5.18-4.76h1.73a4.4,4.4,0,0,1,3.29,1.41,4.47,4.47,0,0,1,1.12,3.42l-.15,1.73A5.31,5.31,0,0,1,307.22,359.1Zm-.81-10.53a4.5,4.5,0,0,0-4.39,4l-.15,1.73a3.58,3.58,0,0,0,3.61,4h1.74a4.51,4.51,0,0,0,4.39-4l.15-1.73a3.58,3.58,0,0,0-3.62-4Z" style="fill:#e0e0e0"></path><path d="M371.3,316.15H304.38l0-.43,4-46h66.93l0,.43Zm-66.06-.8h65.33l3.93-44.88H309.17Z" style="fill:#e0e0e0"></path><rect x="339.48" y="254.35" width="0.79" height="77.12" transform="translate(-97.44 393.26) rotate(-53.68)" style="fill:#e0e0e0"></rect><polygon points="305.03 316.08 304.59 315.42 374.29 270.14 374.72 270.8 305.03 316.08" style="fill:#e0e0e0"></polygon><polygon points="317.92 377.1 300.32 364.17 300.79 363.53 318.39 376.46 317.92 377.1" style="fill:#e0e0e0"></polygon><rect x="297.5" y="369.92" width="23.71" height="0.8" transform="translate(-151.95 228.77) rotate(-33.07)" style="fill:#e0e0e0"></rect><polygon points="341.69 377.1 324.09 364.17 324.56 363.53 342.16 376.46 341.69 377.1" style="fill:#e0e0e0"></polygon><rect x="321.27" y="369.92" width="23.71" height="0.8" transform="translate(-148.12 241.84) rotate(-33.08)" style="fill:#e0e0e0"></rect><polygon points="365.45 377.1 347.85 364.17 348.32 363.53 365.93 376.46 365.45 377.1" style="fill:#e0e0e0"></polygon><rect x="345.04" y="369.92" width="23.71" height="0.8" transform="translate(-144.27 254.81) rotate(-33.08)" style="fill:#e0e0e0"></rect><path d="M396.77,102.43a22.53,22.53,0,0,0-1-6.56l5.75-5.06-3.62-6.27L390.67,87a22.64,22.64,0,0,0-11.36-6.56l-1.51-7.51h-7.24l-1.5,7.51A22.6,22.6,0,0,0,357.7,87l-7.26-2.45-3.62,6.27,5.75,5.06a22.67,22.67,0,0,0,0,13.12l-5.75,5.06,3.62,6.27,7.26-2.45a22.6,22.6,0,0,0,11.36,6.56l1.5,7.51h7.24l1.51-7.51a22.64,22.64,0,0,0,11.36-6.56l7.26,2.45,3.62-6.27L395.8,109A22.58,22.58,0,0,0,396.77,102.43Zm-22.59,12.19a11.74,11.74,0,1,1,11.74-11.74A11.74,11.74,0,0,1,374.18,114.62Z" style="fill:#ebebeb"></path><path d="M148.73,292.48a41,41,0,0,0,4-11.39l13.58-3.27-.51-13.19L152,262.41a41.07,41.07,0,0,0-12.72-20.23l3.95-13.39-11.67-6.16-8.81,10.83a41.17,41.17,0,0,0-23.9.91l-9.61-10.13-11.18,7,5,13.05A41.19,41.19,0,0,0,71.9,265.47l-13.57,3.26.5,13.19,13.79,2.22a41.25,41.25,0,0,0,12.73,20.25l-4,13.38,11.68,6.16,8.82-10.82a41.22,41.22,0,0,0,23.89-.93l9.61,10.13,11.18-7-5-13A40.9,40.9,0,0,0,148.73,292.48Zm-46.78.45A21.4,21.4,0,1,1,130.86,284,21.39,21.39,0,0,1,102,292.93Z" style="fill:#ebebeb"></path><path d="M396,257.35l7.84,4.34a2.6,2.6,0,0,1,.79.59,1.11,1.11,0,0,1,.19.67,1.24,1.24,0,0,1-.36.88,1.2,1.2,0,0,1-.85.37,2.25,2.25,0,0,1-1-.36l-10.12-5.62a1,1,0,0,1,0-1.74l10.12-5.63a2.31,2.31,0,0,1,.95-.34,1.2,1.2,0,0,1,.86.36,1.22,1.22,0,0,1,.36.88,1.05,1.05,0,0,1-.19.66,2.6,2.6,0,0,1-.79.59Z" style="fill:#ebebeb"></path><path d="M416.16,249.24,408.4,266a2.31,2.31,0,0,1-.53.81,1.12,1.12,0,0,1-.74.25,1.19,1.19,0,0,1-.86-.35,1.11,1.11,0,0,1-.36-.8,2.45,2.45,0,0,1,.28-.94L414,248.23a2.5,2.5,0,0,1,.52-.82,1.19,1.19,0,0,1,.74-.24,1.18,1.18,0,0,1,.85.34,1.09,1.09,0,0,1,.35.8A2.46,2.46,0,0,1,416.16,249.24Z" style="fill:#ebebeb"></path><path d="M425.92,257.35,418.08,253a2.6,2.6,0,0,1-.79-.59,1.05,1.05,0,0,1-.19-.66,1.22,1.22,0,0,1,.36-.88,1.2,1.2,0,0,1,.86-.36,2.31,2.31,0,0,1,.95.34l10.12,5.63a1,1,0,0,1,0,1.74l-10.12,5.62a2.27,2.27,0,0,1-.95.36,1.2,1.2,0,0,1-.87-.38,1.22,1.22,0,0,1-.35-.88,1.09,1.09,0,0,1,.19-.66,2.6,2.6,0,0,1,.79-.59Z" style="fill:#ebebeb"></path></g><g id="freepik--Graphics--inject-71"><path d="M113.55,186.34h-37A5.73,5.73,0,0,1,70.74,180l7.74-88.46a7,7,0,0,1,6.81-6.27h9.62a1.63,1.63,0,0,1,1.65,1.57v.3a2.26,2.26,0,0,0,2.3,2.19H108A2.9,2.9,0,0,0,110.79,87l.07-.3a1.88,1.88,0,0,1,1.82-1.49h9.63a5.79,5.79,0,0,1,4.32,1.86,5.85,5.85,0,0,1,1.48,4.49l-7.75,88.47A7,7,0,0,1,113.55,186.34ZM85.29,86.25a6,6,0,0,0-5.82,5.35l-7.74,88.47a4.74,4.74,0,0,0,4.8,5.27h37a6,6,0,0,0,5.82-5.36l7.74-88.46a4.86,4.86,0,0,0-1.22-3.74,4.79,4.79,0,0,0-3.58-1.53h-9.63a.89.89,0,0,0-.84.7l-.07.3A3.91,3.91,0,0,1,108,90.31H98.87a3.24,3.24,0,0,1-3.3-3.15v-.3a.63.63,0,0,0-.65-.61Z" style="fill:#000000"></path><rect x="78.27" y="99.14" width="48.63" height="1" style="fill:#000000"></rect><rect x="112.68" y="85.25" width="9.62" height="1" style="fill:#000000"></rect><path d="M113.26,140.47H84.88l2.48-28.38h28.38Zm-27.29-1h26.37l2.31-26.38H88.28Z" style="fill:#000000"></path><path d="M113.6,172.52H78.82L79.74,162h34.78Zm-33.69-1h32.77l.75-8.53H80.65Z" style="fill:#000000"></path><path d="M90.72,155.06A2.74,2.74,0,0,1,88,152a3.28,3.28,0,0,1,3.21-2.94,2.74,2.74,0,0,1,2.06.89,2.78,2.78,0,0,1,.7,2.14h0A3.28,3.28,0,0,1,90.72,155.06Zm.44-5a2.27,2.27,0,0,0-2.21,2,1.74,1.74,0,0,0,.45,1.38,1.77,1.77,0,0,0,1.32.56,2.27,2.27,0,0,0,2.21-2h0a1.84,1.84,0,0,0-.45-1.38A1.77,1.77,0,0,0,91.16,150.09Z" style="fill:#000000"></path><path d="M97.91,155.06a2.72,2.72,0,0,1-2.76-3,3.27,3.27,0,0,1,3.2-2.94,2.75,2.75,0,0,1,2.77,3A3.29,3.29,0,0,1,97.91,155.06Zm.44-5a2.27,2.27,0,0,0-2.21,2,1.74,1.74,0,0,0,1.77,1.94,2.27,2.27,0,0,0,2.21-2h0a1.74,1.74,0,0,0-1.77-1.94Z" style="fill:#000000"></path><path d="M105.11,155.06a2.78,2.78,0,0,1-2.07-.88,2.81,2.81,0,0,1-.7-2.15,3.28,3.28,0,0,1,3.2-2.94,2.71,2.71,0,0,1,2.06.89,2.75,2.75,0,0,1,.71,2.14h0A3.28,3.28,0,0,1,105.11,155.06Zm.43-5a2.27,2.27,0,0,0-2.21,2,1.81,1.81,0,0,0,.45,1.38,1.77,1.77,0,0,0,1.33.56,2.26,2.26,0,0,0,2.2-2h0a1.74,1.74,0,0,0-1.77-1.94Z" style="fill:#000000"></path><rect x="354.25" y="286.54" width="48.63" height="1" style="fill:#000000"></rect><path d="M389.5,373.74h-37a5.74,5.74,0,0,1-5.8-6.35l7.74-88.47a7,7,0,0,1,6.82-6.27h9.62a1.62,1.62,0,0,1,1.64,1.58l0,.3a2.25,2.25,0,0,0,2.29,2.19H384a2.91,2.91,0,0,0,2.78-2.28l.06-.3a1.92,1.92,0,0,1,1.83-1.49h9.62a5.76,5.76,0,0,1,4.32,1.86,5.82,5.82,0,0,1,1.48,4.5l-7.74,88.46A7,7,0,0,1,389.5,373.74ZM361.25,273.65a6,6,0,0,0-5.82,5.36l-7.74,88.46a4.82,4.82,0,0,0,1.22,3.74,4.76,4.76,0,0,0,3.58,1.53h37a6,6,0,0,0,5.82-5.35l7.74-88.47a4.74,4.74,0,0,0-4.8-5.27h-9.62a.91.91,0,0,0-.85.7l-.06.3a3.93,3.93,0,0,1-3.76,3.07h-9.15a3.24,3.24,0,0,1-3.29-3.15l0-.3a.62.62,0,0,0-.64-.62Z" style="fill:#000000"></path><path d="M395.71,300.44H359.17a2.65,2.65,0,0,1-2.67-2.93,3.16,3.16,0,0,1,3.08-2.84h36.55a2.65,2.65,0,0,1,2,.86,2.7,2.7,0,0,1,.69,2.07A3.17,3.17,0,0,1,395.71,300.44Zm-36.13-4.77a2.15,2.15,0,0,0-2.09,1.93,1.67,1.67,0,0,0,.43,1.3,1.63,1.63,0,0,0,1.25.54h36.54a2.15,2.15,0,0,0,2.09-1.93,1.71,1.71,0,0,0-.42-1.3,1.66,1.66,0,0,0-1.25-.54Z" style="fill:#000000"></path><path d="M394.88,310H358.33a2.65,2.65,0,0,1-2-.86,2.68,2.68,0,0,1-.68-2.06,3.16,3.16,0,0,1,3.09-2.84h36.54a2.63,2.63,0,0,1,2.67,2.92A3.15,3.15,0,0,1,394.88,310Zm-36.13-4.76a2.14,2.14,0,0,0-2.09,1.92,1.73,1.73,0,0,0,.42,1.31,1.69,1.69,0,0,0,1.25.53h36.55A2.15,2.15,0,0,0,397,307a1.7,1.7,0,0,0-.43-1.31,1.66,1.66,0,0,0-1.25-.53Z" style="fill:#000000"></path><path d="M394,319.48H357.5a2.63,2.63,0,0,1-2.67-2.92,3.17,3.17,0,0,1,3.09-2.84h36.54a2.65,2.65,0,0,1,2.67,2.93A3.16,3.16,0,0,1,394,319.48Zm-36.12-4.76a2.15,2.15,0,0,0-2.09,1.93,1.64,1.64,0,0,0,1.67,1.83H394a2.14,2.14,0,0,0,2.09-1.92,1.64,1.64,0,0,0-1.67-1.84Z" style="fill:#000000"></path><path d="M391.76,345.58H355.22a2.65,2.65,0,0,1-2.67-2.93,3.15,3.15,0,0,1,3.08-2.83h36.55a2.63,2.63,0,0,1,2.67,2.92A3.17,3.17,0,0,1,391.76,345.58Zm-36.13-4.76a2.15,2.15,0,0,0-2.09,1.92A1.67,1.67,0,0,0,354,344a1.63,1.63,0,0,0,1.25.54h36.54a2.15,2.15,0,0,0,2.09-1.93,1.67,1.67,0,0,0-.42-1.3,1.65,1.65,0,0,0-1.25-.53Z" style="fill:#000000"></path><path d="M390.93,355.1H354.38a2.64,2.64,0,0,1-2-.85,2.71,2.71,0,0,1-.69-2.07,3.17,3.17,0,0,1,3.09-2.84h36.54a2.65,2.65,0,0,1,2.67,2.92A3.15,3.15,0,0,1,390.93,355.1Zm-36.13-4.76a2.14,2.14,0,0,0-2.09,1.92,1.73,1.73,0,0,0,.42,1.31,1.69,1.69,0,0,0,1.25.53h36.55a2.14,2.14,0,0,0,2.09-1.92,1.7,1.7,0,0,0-.43-1.31,1.66,1.66,0,0,0-1.25-.53Z" style="fill:#000000"></path><path d="M390.09,364.62H353.55a2.63,2.63,0,0,1-2.67-2.92,3.17,3.17,0,0,1,3.09-2.84h36.54a2.65,2.65,0,0,1,2.67,2.93A3.16,3.16,0,0,1,390.09,364.62ZM354,359.86a2.15,2.15,0,0,0-2.09,1.93,1.64,1.64,0,0,0,1.67,1.83h36.54a2.16,2.16,0,0,0,2.1-1.92,1.67,1.67,0,0,0-.43-1.3,1.65,1.65,0,0,0-1.25-.54Z" style="fill:#000000"></path><path d="M413.56,193.9h-37a5.76,5.76,0,0,1-4.32-1.85,5.86,5.86,0,0,1-1.48-4.5l7.74-88.47a7,7,0,0,1,6.82-6.26h9.62a1.62,1.62,0,0,1,1.65,1.57v.3a2.26,2.26,0,0,0,2.3,2.19H408a2.91,2.91,0,0,0,2.78-2.27l.07-.31a1.87,1.87,0,0,1,1.82-1.48h9.62a5.72,5.72,0,0,1,5.8,6.35l-7.74,88.47A7,7,0,0,1,413.56,193.9ZM385.3,93.82a6,6,0,0,0-5.82,5.35l-7.74,88.47a4.74,4.74,0,0,0,4.8,5.26h37a6,6,0,0,0,5.82-5.35l7.74-88.47a4.74,4.74,0,0,0-4.81-5.26h-9.62a.9.9,0,0,0-.85.69l-.06.31A3.94,3.94,0,0,1,408,97.88h-9.14a3.24,3.24,0,0,1-3.3-3.15v-.3a.63.63,0,0,0-.65-.61Z" style="fill:#000000"></path><rect x="378.27" y="106.71" width="48.63" height="1" style="fill:#000000"></rect><path d="M415.92,183.57H376.56L379,155.19H418.4Zm-38.27-1H415l2.31-26.38H380Z" style="fill:#000000"></path><rect x="396.98" y="146.78" width="1" height="45.19" transform="translate(21.95 383.06) rotate(-52.72)" style="fill:#000000"></rect><rect x="372.94" y="168.88" width="49.09" height="1" transform="translate(-26.92 250.43) rotate(-33.89)" style="fill:#000000"></rect><path d="M421.07,124.74H381.71l.92-10.52H422Zm-38.27-1h37.35l.75-8.52H383.55Z" style="fill:#000000"></path><rect x="381.68" y="118.98" width="40.33" height="1" transform="translate(-16.85 98.35) rotate(-13.67)" style="fill:#000000"></rect><rect x="401.35" y="100.12" width="1" height="38.71" transform="translate(187.18 479.58) rotate(-75.76)" style="fill:#000000"></rect><path d="M419.87,138.43H380.51l.92-10.53h39.36Zm-38.27-1H419l.75-8.53H382.35Z" style="fill:#000000"></path><rect x="380.49" y="132.67" width="40.33" height="1" transform="translate(-20.12 98.46) rotate(-13.67)" style="fill:#000000"></rect><rect x="400.15" y="113.81" width="1" height="38.71" transform="translate(173.01 488.74) rotate(-75.76)" style="fill:#000000"></rect><path d="M418.67,152.12H379.31l.92-10.53h39.36Zm-38.27-1h37.36l.74-8.53H381.15Z" style="fill:#000000"></path><rect x="379.29" y="146.35" width="40.33" height="1" transform="translate(-23.39 98.56) rotate(-13.67)" style="fill:#000000"></rect><rect x="398.95" y="127.5" width="1" height="38.71" transform="translate(158.84 497.9) rotate(-75.76)" style="fill:#000000"></rect><path d="M407.88,239.39a16,16,0,1,1,16-16A16,16,0,0,1,407.88,239.39Zm0-31a15,15,0,1,0,15,15A15,15,0,0,0,407.88,208.41Z" style="fill:#000000"></path><path d="M405.12,232.65l-7.46-9.86.8-.61,6.26,8.29a44.57,44.57,0,0,1,16.74-23l2.23-1.57.57.82L422,208.31a43.51,43.51,0,0,0-16.64,23.38Z" style="fill:#000000"></path></g><g id="freepik--Device--inject-71"><path d="M297.17,107.79h-26L245,407.1h26a24.26,24.26,0,0,0,23.7-21.79l22.38-255.73A19.66,19.66,0,0,0,297.17,107.79Z" style="fill:#263238"></path><path d="M265.67,407.1h-107a19.65,19.65,0,0,1-19.88-21.79l22.37-255.73a24.26,24.26,0,0,1,23.7-21.79h107a19.65,19.65,0,0,1,19.89,21.79L289.37,385.31A24.27,24.27,0,0,1,265.67,407.1Z" style="fill:#000000"></path><path d="M291.41,112.79H263.6a4,4,0,0,0-3.86,3.16l-.19.87a9.86,9.86,0,0,1-9.44,7.72H223.67a7.94,7.94,0,0,1-8.09-7.72l0-.87a3.26,3.26,0,0,0-3.32-3.16H184.42a18.7,18.7,0,0,0-18.26,16.79L143.79,385.31a15.14,15.14,0,0,0,15.32,16.79h107a18.71,18.71,0,0,0,18.27-16.79l22.37-255.73A15.14,15.14,0,0,0,291.41,112.79Z" style="fill:#fff"></path><g style="opacity:0.2"><path d="M231.2,115.62a2.36,2.36,0,0,1-2.31,2.13,1.92,1.92,0,0,1-1.94-2.13,2.36,2.36,0,0,1,2.31-2.12A1.92,1.92,0,0,1,231.2,115.62Z"></path><path d="M246.45,113.5h-7.28a2.36,2.36,0,0,0-2.31,2.12,1.91,1.91,0,0,0,1.93,2.13h7.29a2.36,2.36,0,0,0,2.31-2.13A1.91,1.91,0,0,0,246.45,113.5Z"></path></g><polygon points="178.25 124.5 180.5 124.5 180.7 122.25 178.45 122.25 178.25 124.5" style="fill:#263238"></polygon><polygon points="182.95 122.25 182.75 124.5 185 124.5 185.2 122.25 185.39 120 183.14 120 182.95 122.25" style="fill:#263238"></polygon><polygon points="187.84 117.75 187.64 120 187.45 122.25 187.25 124.5 189.5 124.5 189.7 122.25 189.89 120 190.09 117.75 187.84 117.75" style="fill:#263238"></polygon><path d="M284.58,117.9l-.14,1.65h-1.1l-.29,3.3h1.1L284,124.5h9.9l.57-6.6Zm4,4.95h-3.3l.29-3.3h3.3Z" style="fill:#263238"></path><polygon points="280.1 296.25 135.38 296.25 147.56 157.09 292.27 157.09 280.1 296.25" style="fill:#263238;opacity:0.8"></polygon><polygon points="276.27 292.06 131.56 292.06 143.73 152.9 288.45 152.9 276.27 292.06" style="fill:#000000"></polygon><g style="opacity:0.8"><polygon points="276.27 292.06 131.56 292.06 143.73 152.9 288.45 152.9 276.27 292.06" style="fill:#fff"></polygon><path d="M276.73,292.56H131l.05-.55L143.28,152.4H289Zm-144.63-1H275.81L287.9,153.4H144.19Z" style="fill:#000000"></path></g><polygon points="268.22 253.73 146.32 253.73 154.11 164.67 276.01 164.67 268.22 253.73" style="fill:#fff;opacity:0.8"></polygon><path d="M268.68,254.23H145.77l7.88-90.06H276.56Zm-121.82-1h120.9l7.7-88.06H154.57Z" style="fill:#000000"></path><rect x="210.66" y="136.82" width="1" height="144.75" transform="translate(-83.67 246.94) rotate(-52.03)" style="fill:#000000"></rect><line x1="146.32" y1="253.73" x2="276.01" y2="164.67" style="fill:#fff"></line><rect x="132.5" y="208.7" width="157.33" height="1" transform="translate(-81.35 156.38) rotate(-34.5)" style="fill:#000000"></rect><path d="M193.58,266.77a5.12,5.12,0,0,1-5,4.6,4.15,4.15,0,0,1-4.2-4.6,5.13,5.13,0,0,1,5-4.6A4.15,4.15,0,0,1,193.58,266.77Z" style="fill:#000000"></path><path d="M210.72,266.77a5.12,5.12,0,0,1-5,4.6,4.15,4.15,0,0,1-4.19-4.6,5.12,5.12,0,0,1,5-4.6A4.14,4.14,0,0,1,210.72,266.77Z" style="fill:#000000"></path><path d="M227.87,266.77a5.12,5.12,0,0,1-5,4.6,4.14,4.14,0,0,1-4.19-4.6,5.12,5.12,0,0,1,5-4.6A4.15,4.15,0,0,1,227.87,266.77Z" style="fill:#000000"></path><polygon points="192.46 370.45 124.7 370.45 130.4 305.29 198.16 305.29 192.46 370.45" style="fill:#000000"></polygon><g style="opacity:0.8"><polygon points="192.46 370.45 124.7 370.45 130.4 305.29 198.16 305.29 192.46 370.45" style="fill:#fff"></polygon><path d="M192.92,371H124.15l5.79-66.16h68.77Zm-67.67-1H192l5.61-64.16H130.86Z" style="fill:#000000"></path></g><polygon points="188.69 352.5 131.61 352.5 135.26 310.8 192.34 310.8 188.69 352.5" style="fill:#fff"></polygon><path d="M189.15,353H131.07l3.73-42.7h58.08Zm-57-1h56.07l3.56-40.7H135.72Z" style="fill:#000000"></path><line x1="135.26" y1="310.8" x2="188.69" y2="352.5" style="fill:#fff"></line><rect x="161.47" y="297.76" width="1" height="67.78" transform="translate(-199.13 255.28) rotate(-52.03)" style="fill:#000000"></rect><line x1="131.61" y1="352.5" x2="192.34" y2="310.8" style="fill:#fff"></line><rect x="125.14" y="331.15" width="73.67" height="1" transform="translate(-159.35 150.05) rotate(-34.5)" style="fill:#000000"></rect><path d="M153.74,358.61a2.39,2.39,0,0,1-2.34,2.15,1.93,1.93,0,0,1-2-2.15,2.4,2.4,0,0,1,2.34-2.16A2,2,0,0,1,153.74,358.61Z" style="fill:#000000"></path><path d="M161.77,358.61a2.4,2.4,0,0,1-2.34,2.15,1.94,1.94,0,0,1-2-2.15,2.41,2.41,0,0,1,2.34-2.16A2,2,0,0,1,161.77,358.61Z" style="fill:#000000"></path><path d="M169.8,358.61a2.4,2.4,0,0,1-2.34,2.15,1.94,1.94,0,0,1-2-2.15,2.4,2.4,0,0,1,2.34-2.16A2,2,0,0,1,169.8,358.61Z" style="fill:#000000"></path><polygon points="269.41 370.45 201.65 370.45 207.35 305.29 275.11 305.29 269.41 370.45" style="fill:#000000"></polygon><g style="opacity:0.8"><polygon points="269.41 370.45 201.65 370.45 207.35 305.29 275.11 305.29 269.41 370.45" style="fill:#fff"></polygon><path d="M269.87,371H201.11l5.79-66.16h68.76Zm-67.67-1H269l5.62-64.16H207.81Z" style="fill:#000000"></path></g><polygon points="265.64 352.5 208.56 352.5 212.21 310.8 269.29 310.8 265.64 352.5" style="fill:#fff"></polygon><path d="M266.1,353H208l3.73-42.7h58.09Zm-57-1h56.07l3.56-40.7H212.67Z" style="fill:#000000"></path><line x1="212.21" y1="310.8" x2="265.64" y2="352.5" style="fill:#fff"></line><rect x="238.43" y="297.76" width="1" height="67.78" transform="translate(-169.52 315.94) rotate(-52.03)" style="fill:#000000"></rect><line x1="208.56" y1="352.5" x2="269.29" y2="310.8" style="fill:#fff"></line><rect x="202.09" y="331.15" width="73.67" height="1" transform="translate(-145.82 193.64) rotate(-34.5)" style="fill:#000000"></rect><path d="M230.69,358.61a2.39,2.39,0,0,1-2.34,2.15,1.93,1.93,0,0,1-2-2.15,2.4,2.4,0,0,1,2.34-2.16A1.94,1.94,0,0,1,230.69,358.61Z" style="fill:#000000"></path><path d="M238.72,358.61a2.39,2.39,0,0,1-2.34,2.15,1.93,1.93,0,0,1-2-2.15,2.4,2.4,0,0,1,2.34-2.16A1.94,1.94,0,0,1,238.72,358.61Z" style="fill:#000000"></path><path d="M246.75,358.61a2.39,2.39,0,0,1-2.34,2.15,1.94,1.94,0,0,1-2-2.15,2.41,2.41,0,0,1,2.35-2.16A2,2,0,0,1,246.75,358.61Z" style="fill:#000000"></path><polygon points="268.2 147.13 196.58 147.13 197.42 137.53 269.04 137.53 268.2 147.13" style="fill:#000000"></polygon><rect x="177.6" y="144.98" width="11.07" height="1" style="fill:#263238"></rect><rect x="177.92" y="141.24" width="11.07" height="1" style="fill:#263238"></rect><rect x="178.25" y="137.5" width="11.07" height="1" style="fill:#263238"></rect><g style="opacity:0.2"><path d="M223.75,124.54,149.89,399.17a15.52,15.52,0,0,0,9.22,2.93h5.78l74.64-277.56Z" style="fill:#fff"></path><path d="M291.41,112.79H263.6a4,4,0,0,0-3.86,3.16l-.19.87a9.88,9.88,0,0,1-9.1,7.71L175.8,402.1h56.94l74-275.17A15.07,15.07,0,0,0,291.41,112.79Z" style="fill:#fff"></path></g><rect x="165.9" y="131.85" width="140.53" height="1.5" style="fill:#000000"></rect></g></svg>