<svg width="1758" height="1319" viewBox="0 0 1758 1319" fill="none" xmlns="http://www.w3.org/2000/svg">
<path d="M637.218 9.99024C626.941 15.6998 614.95 23.9788 610.097 28.5465L601.533 37.1108L600.676 286.05C599.82 556.971 599.82 554.116 615.807 573.243C620.089 578.382 678.613 613.782 761.402 661.171L899.575 740.821L899.86 757.093C899.86 766.228 899.289 773.651 898.147 773.651C897.291 773.651 891.867 770.796 885.872 767.37L875.023 761.375L861.891 767.656C854.754 771.082 841.051 779.075 831.63 785.07C817.071 794.491 814.216 797.631 814.216 804.197C814.216 808.765 816.5 815.046 819.355 818.186C821.924 821.612 855.04 842.166 892.723 863.577C930.407 885.274 989.501 919.531 1024.04 939.515C1127.67 999.18 1115.97 993.471 1128.82 988.903C1134.81 986.905 1139.09 986.334 1138.24 987.761C1137.09 989.474 1138.81 991.473 1141.66 992.614C1144.52 993.756 1148.51 996.326 1150.51 998.324C1154.51 1002.32 1159.65 1000.89 1159.65 996.04C1159.65 994.613 1157.36 993.471 1154.51 993.471C1151.94 993.471 1148.23 991.187 1146.52 988.332C1143.66 983.765 1145.37 981.766 1159.93 972.345C1188.48 953.789 1186.48 941.513 1151.37 920.959C1138.81 913.536 1124.53 902.974 1119.68 897.549C1111.12 887.558 1095.41 859.58 1097.7 857.582C1098.27 857.011 1146.23 883.846 1204.18 917.533C1262.42 950.934 1312.67 979.482 1316.38 980.624C1324.37 983.194 1353.77 969.205 1369.48 955.502L1380.89 945.51L1381.47 901.832C1382.04 877.566 1382.32 855.584 1382.32 852.729C1382.32 849.874 1383.46 848.161 1384.89 849.018C1388.89 851.587 1396.88 847.59 1394.88 844.45C1393.74 843.023 1390.89 842.166 1388.03 843.023C1384.61 843.879 1382.32 842.452 1381.47 839.026C1380.61 835.886 1380.89 833.602 1382.04 833.602C1383.18 833.602 1414.3 851.016 1451.12 872.427C1498.8 900.119 1519.35 910.682 1523.92 909.54C1527.35 908.683 1536.2 903.83 1543.9 898.691L1557.89 889.27L1558.75 841.024C1559.32 807.909 1558.46 791.636 1556.18 789.067C1554.47 786.783 1541.91 778.789 1528.2 771.082C1514.79 763.374 1476.82 741.392 1443.7 722.55L1383.75 688.007L1382.32 560.111C1380.61 399.671 1386.03 414.231 1310.95 371.123C1288.11 357.991 1250.43 336.295 1226.74 322.591C1203.33 308.888 1150.51 278.342 1109.69 254.933C1068.86 231.238 977.796 178.709 906.997 137.886C683.18 8.56281 668.05 -0.00158413 661.769 -0.00158413C658.629 -0.00158413 647.495 4.56611 637.218 9.99024ZM672.903 11.4176C673.759 12.845 667.193 17.9837 658.344 22.8369C644.355 30.8303 641.5 31.6867 635.22 28.8319C626.655 24.8352 627.797 23.1223 646.353 13.416C658.914 6.56442 669.477 5.99348 672.903 11.4176ZM645.782 43.6769C657.487 50.5285 698.025 73.9379 735.709 95.6344C773.392 117.331 831.916 151.018 865.602 170.716C979.509 236.376 1018.05 258.644 1141.09 329.728C1208.75 368.839 1275.84 407.665 1290.11 415.944C1311.81 428.505 1318.09 433.929 1324.37 444.777L1332.36 458.195V706.563C1332.36 843.023 1331.51 959.213 1330.08 964.066C1326.08 980.624 1339.5 987.476 1118.25 859.295C1094.84 845.592 1054.31 822.183 1028.33 807.338C1002.35 792.493 956.956 765.943 926.981 748.814C897.291 731.4 838.767 697.713 797.087 673.733C610.097 565.821 622.658 574.1 614.094 555.258C608.955 544.41 608.67 530.707 608.67 293.187C608.67 125.61 609.526 40.5366 611.525 36.8254C616.092 28.8319 622.087 29.9739 645.782 43.6769ZM739.42 50.243C740.847 51.0994 708.874 68.5137 705.733 68.5137C704.306 68.5137 699.167 66.2299 694.314 63.0896L685.464 57.6655L702.022 47.6737L718.58 37.3964L728.572 43.3914C733.996 46.8172 738.849 49.672 739.42 50.243ZM795.089 81.0749C820.497 95.6344 871.027 124.753 906.997 145.593C1000.92 199.835 1115.4 266.066 1155.37 289.19C1174.21 300.038 1218.74 325.732 1254.43 346.286C1290.4 366.841 1318.66 384.541 1317.23 385.683C1316.09 386.539 1308.1 391.392 1299.53 396.245L1283.83 404.81L1195.33 353.423C1146.8 325.446 1088.85 291.76 1066.87 279.198C1044.88 266.352 964.664 220.104 888.441 176.14C812.218 131.89 741.989 91.6377 732.283 85.9281C722.291 80.5039 714.298 75.3653 714.298 74.2233C714.298 72.5105 742.846 54.8106 746.557 54.5252C747.699 54.2397 769.681 66.2299 795.089 81.0749ZM1348.92 401.67C1354.63 405.381 1359.48 409.378 1359.48 410.805C1359.48 412.232 1352.35 417.657 1343.5 422.795C1330.36 430.218 1326.37 431.36 1322.66 428.505C1320.09 426.792 1312.67 421.653 1306.1 417.371C1299.25 413.089 1293.82 409.092 1293.82 408.236C1293.82 407.379 1301.25 402.811 1310.38 397.673C1328.08 387.967 1327.22 387.967 1348.92 401.67ZM1370.9 441.637C1370.9 443.064 1364.34 447.632 1356.63 451.914C1339.21 461.621 1337.5 457.338 1354.63 447.061C1367.19 439.353 1370.9 438.211 1370.9 441.637ZM1454.83 736.538L1525.92 777.362L1512.5 784.214C1505.08 787.925 1497.37 790.78 1495.66 790.209C1493.66 789.638 1466.82 774.793 1435.71 757.093L1379.47 724.834V709.132C1379.47 700.568 1380.32 694.002 1381.75 694.573C1382.89 695.144 1415.72 714.271 1454.83 736.538ZM1387.46 747.387C1388.6 761.09 1393.74 763.945 1393.74 750.812C1393.74 735.682 1405.16 741.962 1405.73 757.664C1406.3 771.367 1410.87 774.222 1410.87 760.519C1410.87 750.241 1411.16 750.241 1417.44 754.238C1421.72 757.378 1424.29 762.517 1425.43 771.082L1427.14 783.643L1427.43 772.794C1428 761.375 1428.57 760.804 1436.85 765.086C1440.85 767.37 1442.27 771.082 1442.27 779.36C1442.27 785.641 1443.42 790.78 1444.56 790.78C1445.7 790.78 1446.27 786.212 1445.7 780.788C1444.56 770.796 1444.56 770.796 1451.98 773.936C1458.26 777.077 1459.4 779.075 1459.4 789.923C1459.4 797.631 1460.54 801.913 1462.26 800.771C1463.97 799.915 1465.11 795.062 1465.11 790.494C1465.11 782.786 1465.68 782.215 1470.82 785.07C1475.1 787.354 1476.53 791.065 1476.53 799.344C1476.53 805.625 1477.96 810.763 1479.39 810.763C1481.1 810.763 1482.24 806.767 1482.24 802.199C1482.24 797.346 1483.1 793.634 1484.52 793.634C1485.67 793.634 1493.66 797.917 1502.22 803.055L1517.93 812.476L1518.78 857.297C1519.07 881.848 1518.78 902.117 1518.21 902.117C1517.35 902.117 1509.08 897.549 1499.65 891.84L1482.24 881.563V863.292C1482.24 840.453 1476.82 838.74 1475.96 861.293L1475.67 877.851L1473.68 865.005C1471.96 852.158 1469.39 853.3 1467.11 867.859C1466.54 871.856 1465.68 868.716 1465.11 860.722L1464.26 846.448L1462.26 857.868L1460.26 869.287L1459.69 857.011C1459.4 842.166 1453.98 841.024 1453.12 855.584L1452.84 866.432L1451.69 856.44C1449.98 839.882 1447.13 836.742 1445.13 849.303C1443.13 860.151 1443.13 859.866 1442.56 844.165C1442.27 824.466 1436.85 822.183 1435.99 841.31L1435.71 855.013L1433.71 842.166L1431.71 829.32L1431.42 840.168C1430.57 854.727 1425.14 851.016 1424.86 835.6L1424.29 823.61L1422.29 835.029L1420.29 846.448L1419.72 835.886C1419.15 821.612 1414.3 819.328 1412.87 832.745C1412.01 842.737 1411.73 842.452 1411.44 829.891C1410.87 813.904 1406.02 811.905 1404.3 827.036C1403.73 833.031 1403.16 828.463 1402.88 817.044C1402.31 792.207 1396.88 791.351 1396.03 815.902L1395.74 832.174L1393.74 819.328L1391.74 806.481L1391.46 817.329C1390.6 832.174 1385.18 828.178 1384.89 812.762C1384.61 803.912 1384.04 802.484 1382.89 807.338C1381.75 811.049 1380.89 795.918 1380.89 773.936C1380.89 748.243 1382.04 733.969 1383.75 734.54C1385.46 735.111 1386.89 740.821 1387.46 747.387ZM918.416 752.525C924.411 756.522 925.553 759.377 925.553 771.082C925.553 808.765 960.667 853.3 990.643 853.585C1001.21 853.585 1013.2 839.311 1015.48 824.181C1017.76 809.336 1018.62 808.765 1027.47 815.046C1032.89 819.042 1033.75 822.468 1034.61 852.729C1035.46 882.133 1036.32 888.414 1043.17 902.688C1052.88 923.528 1072.58 944.654 1091.7 954.931C1110.54 964.923 1119.68 972.916 1119.68 979.768C1119.68 982.623 1119.11 984.906 1118.25 984.906C1117.68 984.906 1098.84 974.058 1076.29 961.212C1053.73 948.079 988.645 910.396 931.548 877.566C874.452 844.735 825.921 815.046 823.637 811.62C815.643 799.915 822.78 799.63 842.479 811.049C865.317 824.181 876.736 827.036 888.155 822.183C902.715 816.187 906.712 806.767 907.854 775.649C908.425 760.519 909.566 747.958 910.423 747.958C910.994 747.958 914.705 749.956 918.416 752.525ZM889.583 777.362L900.431 784.214L878.164 797.346L855.611 810.192L841.908 802.77C834.485 798.773 829.346 794.491 830.774 793.064C835.056 788.781 869.885 770.796 874.167 770.796C876.451 770.796 883.302 773.936 889.583 777.362ZM980.366 787.925L1008.34 803.626V816.758C1008.34 823.895 1006.63 831.889 1004.63 834.744C1001.21 839.311 1000.06 839.597 990.928 835.6C978.938 830.747 960.953 811.334 953.816 795.347C948.392 783.643 946.679 769.369 950.676 771.367C951.818 771.652 965.235 779.36 980.366 787.925ZM1539.91 786.783L1548.76 791.351L1536.77 798.488C1526.2 804.768 1523.64 805.054 1516.21 802.199C1511.65 800.201 1507.93 797.917 1507.93 796.775C1507.93 795.062 1527.35 782.501 1530.2 782.215C1530.77 782.215 1535.05 784.214 1539.91 786.783ZM899.86 797.631C899.86 799.63 897.291 804.768 893.865 809.05C889.297 814.76 885.586 816.473 876.736 816.473C870.741 816.473 865.602 815.616 865.602 814.189C865.602 812.191 893.865 793.92 897.862 793.634C899.004 793.634 899.86 795.347 899.86 797.631ZM952.674 810.763C951.818 812.191 948.963 813.618 946.679 813.618C944.395 813.618 943.253 812.191 944.11 810.763C944.966 809.05 947.821 807.909 950.105 807.909C952.389 807.909 953.53 809.05 952.674 810.763ZM982.649 838.455C989.216 842.737 993.212 846.734 991.499 847.305C987.217 848.732 962.666 837.313 962.666 833.887C962.666 828.749 970.088 830.461 982.649 838.455ZM1550.76 858.724C1550.76 862.15 1528.49 872.142 1526.2 869.858C1525.35 869.001 1529.34 865.576 1535.63 862.435C1547.62 856.155 1550.76 855.298 1550.76 858.724ZM1093.99 875.567C1093.99 878.422 1054.02 900.119 1052.31 898.406C1050.59 896.978 1087.99 873.569 1091.99 873.569C1093.13 873.569 1093.99 874.425 1093.99 875.567ZM1549.9 883.561C1548.19 887.558 1531.63 899.262 1527.35 899.262C1525.92 899.262 1525.06 896.978 1525.06 894.124C1525.06 890.983 1529.63 886.701 1537.34 882.99C1550.18 876.709 1552.47 876.709 1549.9 883.561ZM1370.9 892.696C1370.9 895.837 1342.36 911.252 1342.36 908.112C1342.36 905.543 1364.62 890.983 1368.9 890.698C1370.05 890.698 1370.9 891.554 1370.9 892.696ZM1115.68 903.259C1119.11 906.685 1116.54 909.254 1096.56 920.673C1076.29 932.378 1072.86 933.52 1069.15 930.094C1065.72 926.383 1068.01 924.099 1087.42 912.68C1099.7 905.543 1109.97 899.548 1110.54 899.548C1111.12 899.262 1113.4 900.975 1115.68 903.259ZM1137.95 920.959C1145.09 924.956 1151.65 929.238 1152.22 930.38C1153.08 931.522 1143.95 938.088 1131.96 944.939L1110.26 957.215L1094.84 949.221C1086.56 944.654 1079.71 940.086 1079.71 939.23C1079.71 937.517 1119.39 914.107 1122.82 913.822C1123.96 913.536 1130.53 916.962 1137.95 920.959ZM1370.33 944.083C1365.48 950.078 1345.21 964.923 1341.78 964.923C1340.64 964.923 1339.5 958.642 1339.5 950.934C1339.5 936.946 1339.5 936.946 1356.06 927.239L1372.33 917.533L1373.19 928.667C1373.76 934.662 1372.33 941.513 1370.33 944.083ZM1166.78 939.23C1168.5 942.084 1148.8 955.787 1133.95 962.068C1129.39 964.066 1123.39 964.637 1120.54 963.781C1116.83 962.354 1120.82 958.642 1136.81 949.221C1159.36 936.089 1163.93 934.662 1166.78 939.23Z" fill="white"/>
<path d="M622.943 58.809C618.376 70.5137 619.232 513.294 623.8 522.429C627.511 529.852 642.927 538.987 928.408 703.71C968.375 726.834 1018.62 755.667 1039.75 767.943C1252.71 891.556 1307.24 922.102 1312.38 921.531C1318.09 920.675 1318.09 918.391 1318.95 687.437L1319.52 454.2L1313.24 447.063C1309.52 443.351 1252.71 408.808 1186.77 370.839C1120.82 332.87 1018.62 273.776 959.811 239.804C901.002 205.831 821.923 160.155 784.24 138.458C746.557 116.762 700.88 90.4973 682.894 79.9346C627.511 47.6753 627.226 47.3898 622.943 58.809ZM746.557 125.326C803.367 158.156 865.887 194.127 885.586 205.546C905.284 216.965 950.961 243.229 986.931 264.07C1023.19 284.91 1082.28 319.167 1118.25 340.007C1154.51 360.847 1212.18 394.249 1246.72 413.947L1309.52 450.203L1310.38 679.158L1310.95 908.399L1294.68 898.978C1285.54 893.84 1251.29 874.141 1218.17 855.014C1185.34 835.887 1127.96 802.771 1091.13 781.646C1054.3 760.235 967.519 710.276 898.432 670.308C829.346 630.341 742.845 580.382 706.304 559.256C659.77 532.707 638.645 519.004 636.932 514.436C635.505 510.725 634.363 410.807 634.363 284.91C634.363 87.6425 634.934 62.5203 638.645 63.9477C640.929 64.8041 689.46 92.4957 746.557 125.326Z" fill="white"/>
<path d="M694.314 176.999C688.89 182.423 688.604 186.42 688.604 308.32C688.604 443.638 688.604 445.065 703.735 459.625C713.156 469.045 781.1 508.156 787.952 508.156C790.807 508.156 795.66 506.443 798.8 504.16C803.939 500.163 804.224 495.31 805.081 419.943C805.937 346.86 807.079 333.442 812.789 342.863C813.93 344.29 816.214 345.147 817.927 344.576C819.926 344.005 822.495 346.289 824.208 349.429C825.921 352.569 830.203 356.852 833.629 358.564C837.34 360.277 840.195 362.847 839.909 364.274C839.624 365.701 840.766 367.129 842.479 367.7C854.469 371.697 827.348 342.292 813.93 336.582L805.937 333.442L805.081 286.909C804.224 240.375 804.224 240.375 795.66 228.1C788.808 218.393 778.531 210.971 748.555 193.557C727.43 181.281 707.732 171.289 705.162 171.289C702.308 171.289 697.454 173.859 694.314 176.999ZM742.56 198.695C778.816 219.535 786.81 225.53 793.661 238.377C797.944 245.8 798.515 261.501 799.371 365.701C800.227 489.029 799.371 499.592 788.808 499.592C785.668 499.592 766.826 490.456 746.843 479.037C719.151 463.336 709.159 455.913 703.164 447.063L695.742 435.644L694.885 311.746C694.029 184.707 694.6 179.854 705.162 179.854C707.446 179.854 724.29 188.418 742.56 198.695Z" fill="white"/>
<path d="M707.732 196.124C706.59 196.98 705.733 205.259 705.733 214.395C705.733 229.811 706.304 231.523 715.154 237.804C737.707 254.647 745.701 253.791 745.701 233.807C745.701 217.249 741.418 209.541 727.715 201.548C714.869 193.84 710.872 192.698 707.732 196.124ZM726.859 208.685C736.28 214.109 737.136 215.537 737.136 228.669C737.136 236.377 736.565 242.657 735.709 242.657C734.852 242.657 729.143 239.517 722.862 235.52C712.299 228.954 711.443 227.241 711.443 215.537C711.443 208.4 712.585 202.69 714.012 202.69C715.725 202.69 721.435 205.259 726.859 208.685Z" fill="white"/>
<path d="M750.553 221.819C747.413 224.673 748.269 250.938 751.41 257.218C753.123 260.073 760.545 265.783 768.253 269.494C784.525 278.058 788.522 275.774 788.522 258.36C788.522 240.089 785.667 234.665 772.821 226.957C760.26 219.82 753.979 218.107 750.553 221.819ZM770.251 234.38C779.101 239.804 779.958 241.517 779.958 254.363V268.352L769.395 261.786C759.689 255.791 758.547 253.507 757.69 241.517C757.119 234.38 757.69 228.385 758.832 228.385C759.974 228.385 765.113 230.954 770.251 234.38Z" fill="white"/>
<path d="M707.731 247.512C704.306 250.652 705.733 281.484 709.444 285.766C713.726 291.476 733.425 302.609 738.563 302.609C743.131 302.609 745.7 296.329 745.7 284.053C745.7 268.637 741.418 261.215 727.715 252.936C714.012 245.228 710.872 244.371 707.731 247.512Z" fill="white"/>
<path d="M750.554 273.205C749.412 274.062 748.556 282.341 748.556 291.476C748.556 306.892 749.127 308.605 757.977 314.885C781.386 332.585 788.523 330.872 788.523 308.605C788.523 292.618 783.384 284.624 768.539 276.916C756.549 270.921 753.409 270.065 750.554 273.205ZM770.252 285.766C776.247 289.192 780.244 294.045 780.244 297.757C780.529 301.182 781.1 306.892 781.386 310.603C782.242 319.453 778.531 320.88 769.396 315.171C757.406 307.748 754.265 302.61 754.265 290.62C754.265 278.058 756.835 277.487 770.252 285.766Z" fill="white"/>
<path d="M709.445 298.896C706.59 299.752 705.733 311.171 705.733 342.574C705.733 378.83 706.59 385.682 710.872 390.535C718.295 398.814 776.533 431.644 782.242 430.502C786.524 429.646 787.095 424.793 787.952 388.822C788.237 364.556 787.381 346 785.668 342.574C781.386 334.295 715.44 296.612 709.445 298.896ZM733.14 317.166C746.272 324.589 748.555 327.158 748.555 334.295C748.555 347.142 736.851 357.419 723.433 356.277L712.87 355.421L712.014 331.726C711.443 315.454 712.299 308.316 714.583 308.316C716.296 308.316 724.861 312.313 733.14 317.166ZM780.244 346.285C780.244 347.998 780.815 355.421 780.815 362.272L781.386 374.548L755.692 375.119C741.704 375.69 725.717 376.832 720.864 378.259C711.728 380.258 711.443 379.972 711.443 371.408C711.443 362.558 711.728 362.558 725.432 362.558C737.707 362.558 740.562 361.416 746.843 353.708C750.839 348.855 754.265 342.86 754.265 340.005C754.265 337.15 755.122 334.295 755.978 333.153C758.547 330.584 779.958 342.003 780.244 346.285Z" fill="white"/>
<path d="M707.732 404.526C706.59 405.382 705.733 413.661 705.733 422.796C705.733 438.212 706.304 439.925 715.154 446.206C738.564 463.905 745.701 462.193 745.701 439.925C745.701 423.938 740.562 415.945 725.717 408.237C713.727 402.242 710.587 401.385 707.732 404.526ZM727.43 417.087C736.28 422.511 737.136 424.224 737.136 437.07C737.136 444.778 736.565 451.059 735.709 451.059C734.852 451.059 729.143 447.919 722.862 443.922C712.299 437.356 711.443 435.643 711.443 423.938C711.443 409.379 713.727 408.522 727.43 417.087Z" fill="white"/>
<path d="M750.553 430.22C747.413 433.074 748.269 459.339 751.41 465.619C755.977 473.613 781.1 485.888 785.382 481.606C789.664 477.324 789.379 450.489 785.096 444.779C780.243 439.069 761.687 428.221 756.548 428.221C754.265 428.221 751.41 429.078 750.553 430.22Z" fill="white"/>
<path d="M912.707 333.156C882.16 345.717 875.88 355.708 878.449 385.969C879.591 397.389 881.304 408.522 882.731 411.377C884.729 415.088 883.017 417.087 874.167 421.369L862.747 426.793V466.475V506.157L838.196 538.702C824.779 556.687 814.216 573.53 814.787 576.099C815.929 581.524 824.493 582.095 864.175 578.669L887.013 576.67L904.142 587.519L921.271 598.081L922.698 615.781C924.697 638.905 936.116 651.181 961.238 656.605C967.804 657.747 970.088 660.031 971.23 666.597C972.372 674.019 974.085 675.161 983.506 676.018C995.781 677.16 1001.78 673.448 1003.2 664.598C1003.77 660.602 1008.34 657.176 1018.91 653.179C1035.46 647.184 1048.31 634.052 1048.31 623.489C1048.31 619.207 1050.02 616.638 1052.59 616.638C1054.88 616.638 1056.87 615.21 1056.87 613.783C1056.87 612.07 1054.88 610.928 1052.59 610.928C1049.45 610.928 1048.31 607.217 1048.31 595.512C1048.31 581.238 1048.88 580.096 1056.87 576.67C1061.73 574.672 1068.86 569.248 1072.58 564.68C1079.71 556.401 1079.71 555.83 1079.71 496.736C1079.71 437.356 1079.71 437.356 1072.58 428.792C1068.58 423.938 1052.02 412.234 1035.75 402.813L1006.34 385.684L1004.92 371.41C1003.2 354.281 1000.35 350.57 978.653 336.296C964.093 326.875 959.811 325.448 945.822 325.733C935.831 325.733 923.555 328.588 912.707 333.156ZM972.087 339.151C976.94 344.289 977.511 346.573 975.227 350.57C963.237 369.697 911.85 363.131 918.131 343.433C920.986 334.868 930.977 331.157 949.248 332.014C961.524 332.87 967.233 334.583 972.087 339.151ZM911.279 356.279C911.279 367.413 912.707 371.41 918.702 377.12C924.982 383.115 928.693 383.971 946.964 383.971C965.235 383.971 968.946 383.115 975.227 377.12C980.651 371.981 982.649 367.128 982.649 359.134C982.649 346.859 986.075 345.431 992.356 354.567C999.207 364.273 998.065 375.692 989.215 383.971C978.367 393.963 964.664 397.96 942.682 397.96C897.291 397.96 871.597 373.123 893.865 350.855C906.426 338.294 911.279 339.722 911.279 356.279ZM947.821 369.983C953.53 371.695 951.817 379.689 945.537 379.689C937.258 379.689 919.844 371.981 919.844 368.27C919.844 365.7 936.972 366.557 947.821 369.983ZM905.57 398.245C910.137 400.529 921.842 403.384 931.263 404.526L948.392 406.239V417.087V428.221H934.689C926.124 428.221 916.132 425.651 908.424 421.654C897.005 416.23 895.578 414.232 894.721 404.526C893.579 392.535 894.15 392.25 905.57 398.245ZM1049.45 418.514C1057.16 423.082 1066.01 430.219 1069.15 434.501C1078.29 446.777 1072.58 453.057 1031.75 476.752C999.493 495.594 993.498 497.878 977.796 499.02C968.09 499.591 955.529 498.734 949.248 496.736C934.403 491.883 882.446 461.336 874.167 452.486C865.888 443.636 868.172 433.645 880.447 425.937C888.726 420.513 890.154 420.513 897.576 424.224C905.284 428.221 905.57 428.506 901.002 435.643C896.434 442.209 896.72 443.066 901.573 448.49C911.279 459.338 960.953 485.317 971.516 485.317C978.082 485.317 990.357 479.893 1009.48 468.759C1040.32 451.059 1045.74 445.349 1040.89 437.641C1038.32 433.359 1012.91 416.516 1004.35 413.09C1002.92 412.805 1002.92 408.237 1004.06 403.098L1006.06 393.677L1020.62 401.956C1028.9 406.524 1041.74 413.947 1049.45 418.514ZM1026.9 434.216C1032.61 437.641 1036.61 441.638 1036.32 443.066C1035.75 444.778 1024.61 452.201 1011.77 459.623L988.359 473.612V449.061C988.359 429.077 989.215 423.938 993.498 420.798C998.636 417.087 997.209 416.516 1026.9 434.216ZM981.507 456.769C981.222 474.754 980.365 478.18 976.369 479.036C971.801 479.893 971.23 477.323 971.23 455.912C971.23 439.069 972.372 431.075 974.941 430.219C980.365 428.221 981.793 433.93 981.507 456.769ZM928.979 445.349C929.835 451.63 931.263 452.486 942.682 452.486C954.101 452.486 955.529 451.63 956.385 445.349C958.098 433.645 962.666 431.646 962.666 442.78C962.666 451.059 961.238 453.628 955.529 456.198C951.532 458.196 945.537 459.623 942.682 459.623C939.827 459.623 933.832 458.196 929.835 456.198C924.126 453.628 922.698 451.059 922.698 442.78C922.698 431.646 927.266 433.645 928.979 445.349ZM1068.58 558.971C1066.01 562.967 1065.72 562.111 1065.44 554.403C1065.44 544.411 1061.16 542.127 1058.3 550.692C1055.73 559.542 1037.46 573.816 1029.18 573.816C1022.05 573.816 1003.2 564.109 999.207 558.4C995.496 552.976 996.638 533.563 1001.49 523.571C1007.49 510.724 1024.04 496.736 1032.89 496.736C1036.61 496.736 1044.88 499.876 1051.16 503.873C1057.45 507.87 1063.15 511.01 1064.01 511.01C1064.87 511.01 1065.44 501.018 1065.44 488.742C1065.44 476.467 1066.3 465.333 1067.72 464.191C1070.86 460.765 1071.72 553.261 1068.58 558.971ZM916.418 487.886L942.682 503.016V551.263C942.682 577.812 942.111 599.509 941.255 599.509C940.398 599.509 930.121 594.085 918.131 587.519L896.434 575.243L908.995 572.959C926.695 569.533 931.834 563.253 931.834 545.839C931.548 517.576 907.282 488.171 884.159 488.171C877.592 488.171 877.022 487.03 877.022 476.467C877.022 465.048 877.022 464.762 883.588 468.759C887.013 471.043 901.858 479.607 916.418 487.886ZM892.437 496.165C893.294 497.592 885.3 507.013 874.738 517.005C853.612 537.56 839.909 548.979 844.477 542.413C857.894 523.286 875.88 500.447 879.305 497.307C884.444 493.31 890.154 492.739 892.437 496.165ZM909.566 507.87C914.419 513.294 914.134 513.579 903.571 520.431C862.177 546.41 845.619 556.687 844.477 556.687C843.335 556.687 871.597 529.566 891.296 511.581C903 500.733 903.286 500.733 909.566 507.87ZM962.666 555.259C962.666 603.22 962.38 605.219 956.956 605.219C951.532 605.219 951.246 603.22 951.246 555.259C951.246 507.299 951.532 505.3 956.956 505.3C962.38 505.3 962.666 507.299 962.666 555.259ZM921.271 553.547C917.56 556.687 856.752 571.532 854.754 569.533C852.185 567.25 854.183 566.393 884.159 558.685C914.705 550.977 925.553 549.55 921.271 553.547ZM1036.61 604.077C1034.61 606.646 1027.76 611.214 1021.47 614.639C1004.63 623.489 966.091 623.204 949.248 614.354C942.397 610.928 936.972 607.502 936.972 606.931C936.972 606.36 943.824 607.788 952.103 610.072C974.085 616.067 992.07 612.926 1017.19 598.652C1038.03 586.662 1038.32 586.662 1039.17 593.228C1039.75 596.94 1038.6 601.793 1036.61 604.077ZM947.821 621.205C952.674 623.489 964.95 626.344 974.656 627.486L992.641 629.484V640.904V652.323L978.367 651.466C970.659 650.895 958.383 647.755 951.246 644.329C939.827 638.62 938.4 636.907 937.543 627.201C936.972 621.491 937.258 616.638 937.829 616.638C938.4 616.638 942.968 618.636 947.821 621.205Z" fill="white"/>
<path d="M1015.19 512.435C1003.77 524.711 997.78 542.982 1002.35 552.973C1006.63 562.394 1010.34 560.967 1012.62 548.691C1015.19 534.417 1026.33 515.861 1035.18 511.008C1045.17 505.869 1044.6 502.443 1033.75 502.443C1027.18 502.443 1022.05 505.298 1015.19 512.435Z" fill="white"/>
<path d="M1031.18 522.144C1019.48 534.42 1014.91 548.123 1018.05 560.969C1020.9 572.103 1035.18 570.676 1047.17 558.115C1056.87 547.552 1060.87 535.276 1059.16 520.717C1058.59 514.151 1056.87 512.152 1050.31 511.581C1043.74 510.725 1039.75 513.009 1031.18 522.144Z" fill="white"/>
<path d="M845.619 375.405C845.619 377.975 847.047 379.688 848.759 379.117C850.472 378.546 851.9 376.833 851.9 375.405C851.9 373.978 850.472 372.265 848.759 371.694C847.047 371.123 845.619 372.836 845.619 375.405Z" fill="white"/>
<path d="M850.472 381.402C847.903 384.257 851.043 388.254 855.611 388.254C858.18 388.254 859.037 386.541 858.18 383.972C856.467 379.404 853.327 378.548 850.472 381.402Z" fill="white"/>
<path d="M854.184 395.104C854.184 397.674 856.182 399.672 858.751 399.672C861.321 399.672 862.748 398.244 862.177 396.246C860.464 391.107 854.184 390.251 854.184 395.104Z" fill="white"/>
<path d="M857.609 405.953C859.322 411.092 865.603 411.948 865.603 407.095C865.603 404.526 863.604 402.528 861.035 402.528C858.466 402.528 857.038 403.955 857.609 405.953Z" fill="white"/>
<path d="M859.893 418.23C859.893 420.513 861.891 422.512 864.175 422.512C866.459 422.512 868.457 420.513 868.457 418.23C868.457 415.946 866.459 413.947 864.175 413.947C861.891 413.947 859.893 415.946 859.893 418.23Z" fill="white"/>
<path d="M1122.53 435.928C1107.69 443.636 1101.98 456.768 1103.12 481.034C1103.98 497.878 1105.98 505.015 1116.25 525.284C1122.82 538.701 1128.24 550.977 1128.24 552.69C1128.24 554.117 1131.1 556.687 1134.52 558.114C1139.38 560.112 1143.09 567.249 1149.08 585.235C1153.37 598.652 1160.5 619.207 1165.36 631.197C1171.92 648.611 1173.35 655.748 1172.21 666.882L1170.5 680.871L1194.48 694.288C1220.74 709.419 1223.88 709.99 1233.3 703.424C1238.15 700.283 1239.58 696.287 1239.58 687.151C1239.87 680.585 1241.58 672.021 1243.86 668.024C1246.43 663.171 1247.86 652.037 1248.15 634.337C1248.15 609.786 1247.58 607.217 1241.01 600.651C1237.01 596.654 1233.87 592.657 1233.87 591.801C1233.87 590.659 1230.45 586.376 1226.45 582.094C1219.31 574.672 1219.03 572.673 1218.46 543.269C1218.17 514.15 1217.6 511.01 1208.46 492.453C1187.34 449.917 1147.09 423.367 1122.53 435.928ZM1133.1 445.92C1135.38 451.344 1134.52 453.628 1127.67 459.909C1120.54 466.76 1119.68 469.615 1119.68 485.887C1119.68 506.442 1127.39 525.569 1142.52 541.842C1152.22 552.69 1152.8 553.832 1146.8 553.832C1141.66 553.832 1127.1 534.419 1119.68 517.861C1106.26 489.028 1105.98 463.334 1118.82 448.204C1127.39 437.927 1129.39 437.641 1133.1 445.92ZM1161.07 466.475C1167.64 470.471 1176.2 478.465 1180.49 484.46C1189.62 497.592 1197.33 516.148 1195.9 520.43C1195.33 522.429 1192.48 517.005 1189.91 508.726C1183.91 491.026 1167.64 472.47 1155.36 469.329C1149.94 467.902 1144.52 468.759 1139.95 471.328C1133.67 474.754 1132.53 477.894 1131.67 490.17C1130.81 507.298 1136.81 522.143 1151.37 536.132C1156.51 540.985 1159.93 545.838 1159.08 546.695C1158.22 547.551 1152.22 542.412 1145.94 535.275C1126.25 513.008 1119.68 481.891 1131.38 467.046C1138.52 457.91 1145.94 457.625 1161.07 466.475ZM1165.93 482.747C1173.92 488.457 1185.34 509.297 1185.34 518.432C1185.34 521.287 1181.06 527.282 1175.63 531.564L1165.64 539.558L1156.51 531.85C1139.66 517.576 1131.38 488.171 1141.38 478.179C1146.51 473.041 1153.94 474.468 1165.93 482.747ZM1196.19 541.271C1191.91 545.553 1191.34 545.553 1188.2 539.558C1183.91 531.279 1190.19 526.14 1196.76 532.421C1200.19 536.132 1200.19 537.274 1196.19 541.271ZM1183.63 544.125C1184.48 546.695 1185.34 558.685 1185.34 570.961C1185.34 583.236 1186.77 594.37 1188.2 595.226C1189.91 596.368 1191.05 592.657 1191.05 586.091C1191.34 575.814 1191.62 575.528 1195.33 580.667C1197.62 583.807 1199.61 591.23 1199.61 597.225C1199.61 603.22 1201.04 608.073 1202.47 608.073C1204.18 608.073 1205.32 605.504 1205.32 602.078C1205.32 598.938 1206.75 597.225 1208.18 598.081C1209.89 598.938 1211.03 604.933 1211.03 610.928C1211.03 616.923 1212.46 622.918 1213.89 623.774C1215.6 624.631 1216.74 622.918 1216.74 619.778C1216.74 612.641 1221.03 611.784 1223.59 618.35C1226.45 625.487 1225.59 666.882 1222.45 674.875C1219.03 684.582 1215.6 684.296 1197.05 672.877C1183.06 664.598 1181.06 662.314 1178.2 649.468C1176.2 641.474 1172.49 630.055 1169.64 623.774C1161.36 605.218 1148.51 562.396 1151.37 562.396C1155.08 562.396 1165.64 584.378 1167.64 597.225C1171.35 619.207 1175.35 608.358 1176.2 573.815C1176.78 542.127 1179.35 532.706 1183.63 544.125ZM1167.93 562.967V575.243L1163.07 565.822C1159.08 557.543 1159.08 556.116 1162.5 553.832C1164.79 552.119 1167.07 550.977 1167.64 550.977C1167.93 550.977 1168.21 556.401 1167.93 562.967ZM1209.61 569.819C1213.03 573.244 1213.32 575.243 1210.75 578.383C1206.18 583.807 1204.47 583.522 1199.9 576.385C1196.76 571.246 1196.76 569.819 1200.19 567.82C1205.04 564.68 1204.18 564.394 1209.61 569.819ZM1224.45 589.802C1225.31 592.086 1224.74 595.512 1222.74 597.51C1220.45 599.794 1218.17 599.223 1214.17 594.655C1211.03 591.515 1209.32 587.804 1210.18 586.947C1213.6 583.522 1222.74 585.235 1224.45 589.802ZM1236.73 606.646C1239.58 610.071 1239.58 611.784 1236.73 615.21C1233.87 618.921 1232.44 618.636 1228.16 612.926C1225.31 609.5 1223.59 605.789 1224.45 604.647C1226.45 600.936 1233.02 602.078 1236.73 606.646ZM1238.73 658.603C1236.16 661.172 1233.02 662.314 1231.87 661.172C1230.73 660.03 1231.59 658.032 1233.87 656.605C1241.01 652.037 1243.86 653.464 1238.73 658.603ZM1219.6 695.716C1219.6 701.14 1218.17 700.569 1196.47 688.008C1169.07 671.735 1170.5 664.884 1198.19 680.3C1209.89 686.866 1219.6 694.003 1219.6 695.716Z" fill="white"/>
<path d="M1122.54 563.823C1122.54 566.393 1123.96 568.105 1125.68 567.535C1127.39 566.964 1128.82 565.251 1128.82 563.823C1128.82 562.396 1127.39 560.683 1125.68 560.112C1123.96 559.541 1122.54 561.254 1122.54 563.823Z" fill="white"/>
<path d="M1116.83 574.957C1116.83 577.241 1114.83 579.811 1112.26 580.667C1109.97 581.523 1108.83 583.522 1109.69 585.235C1112.26 589.517 1116.83 588.66 1116.83 583.807C1116.83 581.523 1117.97 579.525 1119.39 579.525C1120.82 579.525 1122.54 577.527 1123.68 575.243C1124.53 572.674 1123.68 570.961 1121.11 570.961C1118.82 570.961 1116.83 572.674 1116.83 574.957Z" fill="white"/>
<path d="M1092.27 598.936C1085.99 604.931 1079.43 609.499 1077.71 608.928C1076 608.357 1073.72 608.928 1072.86 610.641C1072 612.068 1068.29 612.639 1065.15 611.783C1060.59 610.355 1059.44 611.212 1060.3 614.067C1061.16 616.35 1063.73 617.492 1065.72 617.207C1068.01 616.636 1072 615.779 1074.57 615.209C1082 613.781 1091.13 608.072 1091.13 605.217C1091.13 603.504 1091.99 602.647 1093.42 602.647C1099.41 603.789 1103.12 601.791 1101.69 598.365C1100.84 596.367 1101.69 594.654 1103.41 594.939C1107.4 595.225 1109.97 590.086 1106.26 588.944C1105.12 588.373 1098.84 592.941 1092.27 598.936Z" fill="white"/>
<path d="M940.399 735.399C940.97 741.394 946.108 745.676 968.09 758.237C995.496 774.224 1002.63 775.366 1002.63 765.374C1002.63 761.092 995.496 755.382 975.798 743.678C945.252 725.692 938.971 724.265 940.399 735.399Z" fill="white"/>
<path d="M436.239 113.049C435.383 115.618 434.526 248.938 434.526 409.663C434.526 683.725 434.812 701.995 439.665 707.419C442.234 710.56 495.334 742.534 557.283 778.219C619.232 813.904 678.612 848.161 688.89 854.156C706.018 863.863 708.873 864.719 715.439 861.864C725.146 857.297 726.002 853.015 725.146 812.191L724.289 777.933L624.371 720.266C569.559 688.578 521.883 662.884 518.743 663.17C513.034 663.741 513.034 661.743 512.463 408.236C511.892 267.779 511.035 151.303 510.464 149.59C509.322 146.45 444.233 108.481 440.236 108.481C439.094 108.481 437.096 110.48 436.239 113.049ZM483.058 140.455L504.469 153.016L505.326 180.422L506.182 208.114L493.05 200.977C485.913 196.98 480.203 194.696 480.203 196.409C480.203 197.837 483.344 200.406 487.34 202.119C491.908 204.117 493.906 206.972 492.764 209.827C491.908 212.111 492.193 214.109 493.621 214.109C495.048 214.109 498.759 216.107 501.9 218.677C507.038 222.959 507.038 222.959 501.043 220.104C493.05 216.107 492.764 216.107 492.479 222.388C492.193 225.243 495.048 229.239 499.045 231.238C502.756 233.522 505.326 235.52 504.469 236.376C503.898 237.233 501.043 236.091 498.474 233.807C494.477 230.667 493.335 230.667 492.479 233.522C491.622 235.235 489.91 236.376 488.482 235.235C487.055 234.378 485.913 234.949 485.913 236.662C485.913 238.375 490.766 242.086 496.761 245.226C502.471 248.367 506.182 250.936 505.04 251.221C503.613 251.221 500.187 249.794 497.047 248.367C490.195 244.655 489.91 247.796 496.761 252.934C501.329 256.646 501.329 256.931 495.905 254.933C490.766 253.22 490.481 253.505 494.477 258.358C497.047 261.499 497.332 262.926 495.334 261.499C489.053 257.788 491.337 264.639 498.189 269.492L504.469 274.345L498.189 271.205C493.621 269.207 491.622 269.207 491.622 271.205C491.622 272.633 492.764 274.06 493.906 274.06C495.334 274.06 498.759 276.058 501.9 278.628C504.755 280.911 501.9 280.055 495.334 276.629C488.482 273.203 482.487 270.92 481.345 271.776C480.489 272.918 483.629 275.773 488.482 278.342C493.335 280.626 497.332 283.481 497.332 284.337C497.332 285.194 496.19 285.194 494.763 284.337C493.335 283.481 492.479 286.05 492.479 289.761C492.479 293.758 493.335 296.898 494.192 296.898C495.334 296.898 498.759 298.897 501.9 301.466C507.038 305.748 507.038 305.748 501.043 302.893C493.335 299.182 490.766 298.897 493.05 302.322C493.906 303.75 492.479 306.89 490.195 309.174C486.484 313.171 487.055 314.313 495.905 319.737C501.329 323.163 505.897 326.588 505.897 327.445C505.897 328.301 502.756 326.874 499.045 324.304C492.193 320.022 491.908 320.022 492.479 326.303C492.764 329.729 494.763 334.296 497.332 336.295C501.043 339.149 500.758 339.435 495.905 337.722C490.766 336.009 490.481 336.295 494.477 341.148C497.047 344.288 497.332 345.716 495.334 344.288C493.335 343.146 491.622 343.432 491.622 345.145C491.622 346.857 495.048 349.998 499.616 352.282C503.898 354.565 506.182 356.564 504.755 356.849C503.327 356.849 497.903 353.994 492.479 350.854C487.055 347.428 481.916 345.43 481.06 346.572C480.203 347.428 483.629 350.283 488.482 353.138C493.621 355.993 499.901 359.99 502.471 361.988C506.753 365.128 506.467 365.414 501.043 362.844C497.618 361.131 494.192 359.704 493.621 359.704C491.622 359.704 493.05 375.12 495.334 378.831C496.761 381.115 496.19 382.543 493.906 382.543C491.908 382.543 493.335 385.397 497.332 388.538L504.469 394.247L495.048 389.68C482.773 383.684 479.632 386.254 491.337 392.534C500.472 397.102 503.613 400.813 495.905 397.958C492.764 396.531 491.908 398.529 492.193 406.523C492.479 412.232 493.335 416.8 494.477 416.8C495.334 416.8 498.759 418.799 501.9 421.368C507.038 425.65 507.038 425.65 501.043 422.795C492.193 418.228 490.481 418.799 494.763 424.508C498.474 429.361 498.474 429.361 491.052 424.508C482.487 419.084 480.203 418.513 480.203 421.939C480.203 423.081 485.913 427.077 493.05 431.074C499.901 434.785 505.326 438.497 504.469 439.068C503.898 439.639 500.758 438.782 497.618 436.784C493.621 434.785 491.622 434.785 491.622 436.784C491.622 438.211 492.764 439.639 493.906 439.639C495.334 439.639 498.759 441.637 501.9 444.206C507.038 448.489 507.038 448.489 501.043 445.634C497.618 443.921 494.192 442.493 493.621 442.493C491.622 442.493 493.05 458.195 495.619 461.906C497.618 465.046 496.761 465.332 491.908 462.763C488.197 460.479 485.913 460.479 485.913 462.192C485.913 463.904 489.91 467.045 494.477 469.614C499.33 472.183 503.042 474.753 503.042 475.609C503.042 476.18 500.472 475.609 497.332 473.896C490.195 470.185 489.91 473.325 496.761 478.464C500.187 481.319 500.472 482.175 497.332 481.033C493.906 479.891 492.764 481.89 492.479 489.598C492.479 495.022 493.05 499.59 494.192 499.59C495.334 499.59 498.759 501.588 501.9 504.157C504.755 506.727 501.329 505.299 493.906 501.017C486.198 497.02 480.203 495.022 480.203 496.449C480.203 498.162 484.2 501.302 488.768 503.872C493.621 506.441 497.332 509.01 497.332 509.867C497.332 510.723 496.19 510.438 494.477 509.581C493.05 508.725 491.622 509.01 491.622 510.438C491.622 511.865 494.763 514.72 498.759 516.718C502.756 518.717 505.326 521.001 504.469 521.857C503.898 522.713 501.329 521.572 498.759 519.573C496.19 517.575 493.335 517.004 492.193 518.146C491.052 519.288 491.622 521.001 493.335 521.572C495.048 522.143 499.045 524.712 501.9 526.996C507.038 530.992 507.038 531.278 501.043 528.423C492.479 524.141 491.908 524.426 492.764 532.134C493.335 536.988 492.479 538.7 489.91 537.558C487.055 536.417 487.055 538.129 490.481 544.981C492.764 549.549 497.332 554.402 500.472 555.258C503.613 556.4 505.611 557.828 505.04 558.684C504.184 559.255 500.758 558.684 497.618 556.686C490.481 552.974 489.624 556.115 496.761 561.253C501.329 564.965 501.329 565.25 495.905 563.537C491.052 562.11 491.337 562.681 497.332 568.105C503.898 573.815 503.898 573.815 498.189 570.96C493.335 568.676 491.622 568.676 491.622 570.96C491.622 572.958 489.339 573.529 485.913 572.387C476.492 569.247 479.347 573.244 493.05 581.237C505.611 588.374 511.321 594.084 500.472 588.089C492.479 583.806 490.481 584.663 494.763 590.087C497.618 593.227 497.618 594.084 495.334 592.656C489.91 589.516 491.052 594.084 496.761 598.366C501.329 602.077 501.329 602.363 496.761 600.65C493.906 599.793 491.622 600.364 491.622 602.077C491.622 603.79 492.764 605.217 493.906 605.217C495.334 605.217 498.759 607.216 501.9 609.785C507.038 614.067 507.038 614.067 501.043 611.212C494.763 608.072 485.913 609.785 485.913 614.067C485.913 615.495 487.055 616.637 488.197 616.637C489.624 616.637 493.05 618.635 496.19 620.919C501.614 625.201 501.614 625.201 495.905 623.203C490.766 621.49 490.481 621.775 494.477 626.628C497.047 629.769 497.332 631.196 495.334 629.769C493.335 628.627 491.622 628.912 491.622 630.625C491.622 632.338 495.048 635.478 499.616 637.762C503.898 640.046 506.182 642.044 505.04 642.33C503.613 642.33 500.187 640.902 497.047 639.475C490.195 635.764 489.91 638.904 496.761 644.043C501.329 647.754 501.329 648.039 495.905 646.327C491.052 644.899 491.337 645.47 497.332 650.894L504.469 657.175L493.621 651.18C481.631 644.614 480.203 644.043 480.203 647.469C480.203 648.61 485.913 652.607 493.05 656.604C500.187 660.601 505.897 665.168 505.897 667.167C505.897 670.307 497.047 674.875 458.221 692.574L443.091 699.426V663.741C443.091 628.341 443.091 627.77 449.086 630.911C457.65 635.764 458.792 632.624 450.228 626.914C446.231 624.345 443.091 619.491 443.091 616.351C443.091 611.498 443.947 611.212 449.086 613.782C452.226 615.78 455.652 616.351 456.508 615.495C457.365 614.638 454.795 612.354 450.513 610.642C445.66 608.358 443.091 604.932 443.091 600.364C443.091 593.798 443.376 593.798 450.228 598.366C454.795 601.221 457.365 601.792 457.365 599.793C457.365 598.08 454.225 594.94 450.228 593.227C445.66 591.229 443.091 587.803 443.091 583.235C443.091 576.669 443.376 576.669 450.228 581.237C454.225 583.806 457.365 584.663 457.365 583.235C457.365 581.808 454.225 578.668 450.228 576.669C446.231 574.671 443.091 570.389 443.091 567.534C443.091 562.11 447.373 560.682 450.228 565.25C452.512 568.676 457.365 568.961 457.365 565.821C457.365 564.394 454.225 561.824 450.228 560.111C445.946 558.113 443.091 554.402 443.091 550.976C443.091 546.123 443.947 545.552 448.515 548.121C455.366 551.547 457.365 551.832 457.365 548.692C457.365 547.265 454.225 544.695 450.228 542.983C445.946 540.984 443.091 537.273 443.091 533.847C443.091 528.709 443.947 528.423 449.086 530.992C457.936 535.846 459.078 532.134 450.513 526.71C446.517 523.855 443.091 519.288 443.091 516.147C443.091 511.58 443.947 511.294 449.086 513.864C457.65 518.717 458.792 515.576 450.228 509.867C446.231 507.298 443.091 502.73 443.091 499.59C443.091 494.165 443.376 493.88 450.228 498.448C454.795 501.302 457.365 501.873 457.365 499.875C457.365 498.162 454.225 495.022 450.228 493.309C445.66 491.311 443.091 487.885 443.091 483.317C443.091 476.751 443.376 476.751 450.228 481.319C454.795 484.174 457.365 484.745 457.365 482.746C457.365 481.033 454.225 477.893 450.228 476.18C446.231 474.467 443.091 470.756 443.091 467.616C443.091 461.621 444.233 461.335 451.941 465.332C454.795 467.045 457.365 467.33 457.365 465.903C457.365 464.475 454.225 461.621 450.228 459.622C446.231 457.624 443.091 453.342 443.091 450.487C443.091 445.063 447.373 443.635 450.228 448.203C452.512 451.629 457.365 451.914 457.365 448.774C457.365 447.347 454.225 444.777 450.228 443.064C445.946 441.066 443.091 437.355 443.091 433.929C443.091 429.076 443.947 428.505 448.515 431.074C455.366 434.5 457.365 434.785 457.365 431.645C457.365 430.218 454.225 427.648 450.228 425.936C445.946 423.937 443.091 420.226 443.091 416.8C443.091 411.662 443.947 411.376 449.086 413.945C457.936 418.799 459.078 415.087 450.513 409.663C446.517 406.808 443.091 402.241 443.091 399.1C443.091 394.533 443.947 394.247 449.086 396.817C457.65 401.67 458.792 398.529 450.228 392.82C446.231 390.25 443.091 385.683 443.091 382.543C443.091 377.118 443.376 376.833 450.228 381.401C454.795 384.255 457.365 384.826 457.365 382.828C457.365 381.115 454.225 377.975 450.228 376.262C445.66 374.264 443.091 370.838 443.091 366.27C443.091 359.704 443.376 359.704 450.228 364.272C454.225 366.841 457.365 367.698 457.365 366.27C457.365 364.843 454.225 361.702 450.228 359.704C446.231 357.706 443.091 353.423 443.091 350.569C443.091 344.574 444.233 344.288 451.941 348.285C454.795 349.998 457.365 350.283 457.365 348.856C457.365 347.428 454.225 344.859 450.228 343.146C445.946 341.148 443.091 337.437 443.091 334.011C443.091 328.016 447.373 326.303 450.228 331.156C452.512 334.582 457.365 334.867 457.365 331.727C457.365 330.3 454.225 327.73 450.228 326.017C445.946 324.019 443.091 320.308 443.091 316.882C443.091 311.743 443.947 311.458 449.086 314.027C457.936 318.88 459.078 315.169 450.513 309.745C446.517 306.89 443.091 302.322 443.091 299.182C443.091 294.614 443.947 294.329 449.086 296.898C457.65 301.752 458.792 298.611 450.228 292.902C446.231 290.332 443.091 285.479 443.091 282.339C443.091 277.2 443.947 276.915 447.373 279.769C449.657 281.482 453.083 282.624 455.081 281.768C457.365 280.911 455.652 278.913 451.084 276.915C445.66 274.345 443.091 270.92 443.091 266.352C443.091 259.786 443.376 259.786 450.228 264.354C454.795 267.208 457.365 267.779 457.365 265.781C457.365 264.068 454.225 260.928 450.228 259.215C446.231 257.502 443.091 253.791 443.091 250.651C443.091 244.655 444.233 244.37 451.941 248.367C454.795 250.08 457.365 250.365 457.365 248.938C457.365 247.51 454.225 244.655 450.228 242.657C446.231 240.659 443.091 236.376 443.091 233.522C443.091 227.527 444.233 227.241 451.941 231.238C454.795 232.951 457.365 233.236 457.365 231.809C457.365 230.381 454.225 227.812 450.228 226.099C445.946 224.101 443.091 220.39 443.091 216.964C443.091 210.969 447.373 209.256 450.228 214.109C452.512 217.535 457.365 217.82 457.365 214.68C457.365 213.253 454.225 210.683 450.228 208.97C445.946 206.972 443.091 203.261 443.091 199.835C443.091 194.696 443.947 194.411 449.086 196.98C457.936 201.833 459.078 198.122 450.513 192.698C446.517 189.843 443.091 185.275 443.091 182.135C443.091 177.567 443.947 177.282 449.086 179.851C457.65 184.704 458.792 181.564 450.228 175.855C443.376 171.287 443.091 169.86 443.091 143.881V116.475L452.512 122.184C457.365 125.325 471.353 133.603 483.058 140.455ZM592.968 709.989C622.944 727.403 662.34 750.242 680.896 760.804C699.167 771.082 713.726 781.073 712.584 782.501C711.728 783.928 710.301 784.785 709.159 783.928C706.018 782.215 536.157 684.581 533.588 683.154C531.019 681.726 534.159 676.017 536.728 677.444C537.87 678.015 563.278 692.86 592.968 709.989ZM594.395 735.111C624.942 752.811 660.912 773.651 674.045 781.359L698.31 795.062L698.881 815.902C699.167 827.036 698.31 837.028 696.883 837.884C694.599 839.597 488.768 722.264 480.489 714.842C476.777 711.702 479.632 709.418 497.618 701.139L518.743 691.147L528.735 697.142C534.159 700.282 563.849 717.411 594.395 735.111ZM716.296 837.028C715.725 847.019 715.439 839.597 715.439 820.755C715.439 801.914 715.725 793.92 716.296 802.77C716.867 811.905 716.867 827.321 716.296 837.028Z" fill="white"/>
<path d="M499.901 703.137C482.487 710.845 481.916 711.416 487.34 715.698C495.619 721.979 689.746 833.602 692.315 833.602C693.457 833.602 694.314 825.037 693.743 814.474L692.886 795.347L668.62 781.359C655.203 773.651 616.092 751.098 581.263 731.114L518.458 694.858L499.901 703.137Z" fill="white"/>
<path d="M41.991 617.779C5.44947 638.905 2.0237 641.76 1.16726 649.753C0.310821 659.745 -26.2389 643.473 228.981 790.781C378.858 877.281 465.359 927.24 513.89 955.503C536.443 968.635 556.998 979.198 559.567 978.912C562.137 978.912 582.406 968.35 604.388 955.503C638.645 935.234 644.355 930.952 645.211 924.1C646.068 917.819 644.07 915.25 633.792 909.255C613.238 896.979 373.434 758.236 167.888 639.761C123.924 614.639 86.526 593.799 85.0986 594.084C83.3857 594.084 63.973 604.933 41.991 617.779ZM101.656 609.786C108.793 613.783 115.359 618.065 116.216 619.492C117.072 620.92 111.077 625.487 103.084 629.77C95.0904 634.337 89.9517 638.334 91.3791 638.905C93.092 639.476 101.371 635.765 110.221 630.911C119.071 625.773 126.208 622.918 126.208 624.345C126.208 626.058 123.067 628.628 119.071 630.341C115.074 632.053 111.934 634.908 111.934 636.336C111.934 638.049 116.501 636.621 121.926 633.195C127.635 630.055 132.774 628.057 133.63 628.913C134.487 629.77 131.346 632.624 126.208 635.194C121.069 637.763 117.643 640.618 118.5 641.189C119.356 642.045 123.924 640.618 129.063 638.049C134.201 635.479 138.769 634.052 139.625 634.908C140.482 635.765 137.912 638.049 133.63 639.761C129.634 641.76 126.208 644.329 126.208 645.756C126.208 649.182 127.35 648.611 139.625 642.045L150.474 636.05L141.909 643.473C132.203 651.752 133.916 652.893 146.477 646.327C151.33 644.044 155.898 642.616 156.754 643.473C157.611 644.044 152.472 647.755 145.62 651.181C139.054 654.606 135.058 658.032 136.771 658.603C138.769 659.46 145.049 657.176 150.759 653.75C156.183 650.324 161.322 648.04 162.178 648.897C163.035 649.753 161.036 652.037 157.611 653.75C154.185 655.463 152.186 657.747 152.757 658.603C153.614 659.174 158.182 657.747 163.32 655.177C168.459 652.608 173.027 651.181 173.883 652.037C174.739 652.608 171.314 655.463 166.175 658.032C161.036 660.601 157.611 663.456 158.467 664.027C159.323 664.884 163.891 663.456 169.03 660.887C174.168 658.318 178.736 656.89 179.593 657.747C180.449 658.603 177.88 660.887 173.598 662.6C169.601 664.598 166.175 667.168 166.175 668.595C166.175 670.022 171.314 668.309 177.594 665.169C183.875 662.029 189.013 660.316 189.013 661.743C189.013 663.171 185.588 665.74 181.591 667.738C177.309 669.451 174.739 671.735 175.596 672.592C176.452 673.448 181.02 672.021 186.159 669.451C201.289 661.458 199.005 666.882 183.589 675.446C175.596 679.729 169.03 684.296 169.03 685.724C169.03 687.151 177.594 683.44 188.443 677.445C199.005 671.735 205.857 668.88 203.858 671.735C201.575 674.305 197.578 677.159 194.438 678.016C191.297 679.158 189.584 680.871 190.441 682.298C191.297 683.725 196.15 682.298 201.289 679.443C213.565 671.735 218.703 672.306 206.713 679.729C195.009 687.437 196.721 690.006 208.997 683.725C214.136 681.156 218.703 679.729 219.56 680.585C220.416 681.442 217.847 683.725 213.565 685.438C209.568 687.437 206.142 690.006 206.142 691.433C206.142 694.859 207.284 694.288 219.56 687.722L230.408 681.727L221.844 689.15C212.137 697.428 213.85 698.57 226.411 692.004C231.265 689.72 235.832 688.293 236.689 689.15C237.545 689.72 232.977 693.146 226.411 696.572C219.845 699.712 214.707 703.709 214.707 705.422C214.707 706.849 220.416 704.851 227.553 700.569C234.69 696.572 241.542 693.717 242.398 694.574C243.255 695.716 240.685 697.999 236.403 699.712C232.407 701.711 228.981 704.28 228.981 705.707C228.981 709.133 230.408 708.562 241.827 701.996C247.537 698.57 252.676 696.572 253.532 697.428C254.389 698.285 251.248 701.14 246.11 703.709C240.971 706.278 237.545 709.133 238.402 709.704C239.258 710.561 243.826 709.133 248.964 706.564C254.103 703.995 258.671 702.567 259.527 703.424C260.384 704.28 257.814 706.564 253.532 708.277C249.535 710.275 246.11 712.844 246.11 714.272C246.11 715.699 251.534 713.986 258.385 710.846L270.375 704.851L262.096 711.702C257.529 715.699 254.959 720.267 255.816 721.98C256.958 723.693 255.816 725.977 253.532 726.833C250.963 727.689 248.964 729.688 248.964 731.401C248.964 732.828 256.101 729.973 264.951 725.12C273.516 719.981 281.509 716.556 282.366 717.698C283.222 718.554 280.653 720.838 276.371 722.551C272.374 724.549 268.948 727.118 268.948 728.546C268.948 731.972 270.09 731.401 282.366 724.835L293.214 718.84L284.649 726.262C274.943 734.541 276.656 735.683 289.217 729.117C294.07 726.833 298.638 725.406 299.494 726.262C300.351 727.118 297.782 729.402 293.499 731.115C289.503 733.114 286.077 735.683 286.077 736.825C286.077 741.678 297.782 742.249 306.06 737.967C319.478 731.115 319.193 734.541 306.06 741.963C299.78 745.389 294.641 749.671 294.641 751.099C294.641 752.526 300.351 750.528 307.488 746.246C314.625 742.249 321.476 739.394 322.333 740.251C323.189 741.392 320.62 743.676 316.338 745.389C312.341 747.388 308.915 749.957 308.915 751.384C308.915 752.812 314.054 751.099 320.335 747.959C326.615 744.818 331.754 743.105 331.754 744.533C331.754 745.96 328.328 748.529 324.331 750.528C320.049 752.241 317.48 754.525 318.336 755.381C319.193 756.237 323.76 754.81 328.899 752.241C334.038 749.671 338.605 747.959 339.176 748.815C339.747 749.386 337.178 751.67 333.181 753.668C320.905 760.234 325.473 762.804 338.32 756.523L350.31 750.528L342.031 757.379C337.463 761.376 334.894 765.944 335.75 767.657C336.892 769.37 335.75 771.653 333.467 772.51C330.897 773.366 328.899 775.365 328.899 777.078C328.899 778.505 336.036 775.65 344.886 770.797C353.45 765.658 361.444 762.233 362.3 763.374C363.157 764.231 360.587 766.515 356.305 768.228C352.308 770.226 348.883 772.795 348.883 774.223C348.883 777.649 350.025 777.078 362.3 770.511L373.148 764.516L364.584 771.939C355.163 779.932 357.447 781.645 368.866 775.079C380 768.799 382.855 770.226 372.292 776.792C360.587 784.5 362.3 787.069 374.576 780.789C385.995 774.794 389.421 777.363 378.287 783.358C367.724 789.068 375.147 789.353 386.281 783.358C399.413 776.792 399.127 780.218 385.995 787.64C379.714 791.066 374.576 795.348 374.576 796.776C374.576 798.203 380.285 796.205 387.422 791.923C394.559 787.926 401.411 785.071 402.267 785.927C403.124 787.069 400.555 789.353 396.272 791.066C392.276 793.064 388.85 795.634 388.85 797.061C388.85 798.489 394.274 796.776 401.126 793.635L413.116 787.64L405.408 794.206C394.274 803.627 395.416 805.911 407.406 798.774C413.116 795.634 418.254 793.635 419.111 794.492C419.967 795.348 416.827 798.203 411.688 800.772C406.55 803.342 403.409 806.197 404.266 807.053C405.122 807.909 410.261 805.911 415.971 802.771C421.395 799.345 425.962 797.632 425.962 799.06C425.962 800.201 422.822 803.056 418.825 805.055C414.829 807.053 411.688 809.908 411.688 811.335C411.688 814.761 413.116 814.19 424.82 807.338C430.815 803.913 434.527 802.485 433.385 804.484C432.243 806.482 426.248 810.479 419.967 813.619C413.972 816.759 408.833 820.756 408.833 822.469C408.833 824.182 415.971 821.327 424.82 816.474C433.385 811.335 441.093 807.909 441.949 808.48C442.52 809.337 439.951 811.621 435.954 813.619C423.678 820.185 428.246 822.754 441.093 816.474L453.083 810.479L444.519 817.901C435.098 825.609 437.382 827.322 448.801 820.756C459.935 814.476 462.789 815.903 452.227 822.469C440.522 830.177 442.235 832.746 454.51 826.466C459.649 823.896 464.217 822.469 465.073 823.325C465.93 824.182 463.36 826.466 459.078 828.179C455.081 830.177 451.656 832.746 451.656 834.459C451.656 835.887 456.223 834.459 461.933 831.033C467.357 827.608 473.638 825.038 475.35 825.038C477.349 825.038 473.352 828.464 466.786 832.461C459.935 836.458 454.51 841.025 454.51 842.453C454.51 843.88 460.22 841.882 467.357 837.599C474.494 833.603 481.346 830.748 482.202 831.604C483.058 832.746 480.489 835.03 476.207 836.743C472.21 838.741 468.784 841.311 468.784 843.024C468.784 844.451 473.352 842.738 479.062 839.598C492.194 831.89 495.049 833.603 482.487 841.882C471.925 848.448 477.634 850.161 488.768 843.595C499.902 837.314 502.757 838.741 492.194 845.307C479.633 853.301 482.773 855.87 495.905 848.448C501.329 845.022 505.897 843.309 505.897 844.736C505.897 845.878 502.757 848.733 498.76 850.732C486.484 857.298 491.052 859.867 503.899 853.586C513.89 848.448 515.032 848.448 509.894 852.73C506.468 855.585 499.616 860.152 494.478 863.007C489.339 865.862 485.913 868.717 486.77 869.573C487.626 870.43 495.334 867.004 504.184 861.865C513.319 857.012 521.027 853.586 521.598 854.157C522.455 855.014 519.885 857.298 515.889 859.296C503.899 865.577 507.895 868.431 520.171 862.151C533.874 855.014 535.301 857.012 522.455 865.006C511.892 871.572 517.602 872.714 528.735 866.433C539.869 860.152 542.724 861.58 532.161 868.146C520.456 875.854 522.169 878.423 534.445 872.143C539.584 869.573 544.151 867.86 544.722 868.717C545.293 869.288 542.724 871.572 538.727 873.57C534.73 875.568 531.59 878.709 531.59 880.136C531.59 881.563 536.158 879.851 541.867 876.71C547.577 873.284 553.001 871.001 553.572 871.857C554.429 872.428 549.575 876.139 543.295 879.851C537.014 883.562 531.59 887.273 531.59 888.415C531.59 891.841 532.732 891.27 546.15 883.562C561.28 874.997 568.132 874.141 555 882.42C542.438 890.699 545.864 892.983 558.996 885.275C572.128 877.567 574.983 879.28 562.422 887.559C551.859 894.125 557.569 895.837 568.703 889.271C579.836 882.991 582.691 884.418 572.128 890.984C560.424 898.692 562.137 901.262 574.412 894.981C579.551 892.412 584.119 890.699 584.69 891.555C585.261 892.126 582.691 894.41 578.694 896.408C566.419 902.974 570.986 905.544 583.833 899.263C593.825 894.125 594.967 894.125 589.828 898.407C586.402 901.262 579.551 905.829 574.412 908.684C569.274 911.539 565.848 914.394 566.419 915.25C567.275 916.107 575.554 912.681 584.69 907.542L601.533 898.407L618.091 908.113C626.941 913.252 634.363 918.39 634.363 919.247C634.363 920.103 617.52 930.666 596.965 942.656L559.282 964.638L543.295 955.788C521.313 943.513 521.027 943.227 531.876 937.518C537.3 934.948 539.869 932.093 538.156 931.523C536.158 930.666 531.59 932.379 528.164 934.663C520.171 940.372 513.319 940.372 509.037 935.519C506.753 932.379 507.61 930.952 513.034 928.382C517.031 926.669 520.171 923.529 520.171 921.816C520.171 920.103 515.603 921.531 510.179 924.956C501.9 930.095 499.331 930.381 493.907 927.526L487.626 924.1L496.191 917.534C505.04 910.111 502.186 907.828 492.765 914.965C485.628 920.389 479.062 920.389 474.494 914.965C471.639 911.539 472.496 910.111 478.491 907.542C482.487 905.544 485.913 902.974 485.913 901.547C485.913 898.121 484.2 898.692 474.209 904.687C467.357 908.97 463.646 909.541 459.649 907.542C452.512 903.831 453.083 900.691 461.933 896.694C466.215 894.981 468.784 892.412 467.642 891.555C466.501 890.413 461.362 891.841 455.938 894.696C447.659 899.263 445.66 899.549 440.522 895.837C434.812 891.841 435.098 891.555 443.377 886.702C454.796 880.136 451.941 877.567 440.236 883.562C431.672 888.129 417.398 887.559 417.398 882.705C417.398 881.563 421.395 878.423 426.248 875.568C431.386 872.714 434.527 869.859 433.956 869.002C433.099 868.146 427.675 870.43 422.251 873.57C413.687 878.709 410.832 878.994 405.693 876.425L399.413 872.999L407.692 866.147C417.112 858.44 415.114 857.012 404.551 863.864C399.984 866.718 394.845 867.86 390.277 866.718C381.142 864.435 381.142 861.294 390.277 856.441C394.274 854.443 397.414 851.302 397.414 849.875C397.414 848.448 392.847 849.875 387.137 853.301C378.858 858.154 376.003 858.725 370.865 856.156C364.869 852.73 364.869 852.73 373.434 846.164C382.855 838.456 380.856 837.314 368.581 843.88C360.302 847.877 348.883 847.02 348.883 842.167C348.883 841.025 352.308 837.885 356.305 835.03C367.153 828.179 362.3 826.18 351.166 833.032C343.173 837.885 340.889 838.456 335.18 835.316L328.328 831.604L338.034 825.609C343.173 822.183 345.457 819.329 342.887 819.329C340.604 819.329 336.036 821.327 332.896 823.611C326.044 828.75 322.904 828.75 316.052 823.896C310.914 820.185 311.199 819.9 320.049 815.332C325.188 812.477 328.899 809.622 328.042 809.051C327.186 808.195 322.333 809.622 317.48 812.192C308.63 816.759 294.641 816.188 294.641 811.05C294.641 809.908 297.782 807.338 301.778 805.626C305.775 803.913 308.915 800.772 308.915 799.06C308.915 797.347 304.348 798.774 298.923 802.2C290.93 807.053 288.075 807.624 282.937 805.055L276.656 801.629L284.935 794.777C294.641 787.069 292.357 785.927 279.796 792.493C272.659 796.205 269.804 796.49 263.524 793.635L256.101 790.21L265.522 785.642C270.375 783.073 274.658 780.218 274.658 778.79C274.658 775.365 273.23 775.936 262.667 781.931C254.389 786.784 252.39 787.069 246.395 783.929L239.258 779.932L249.25 775.079C254.674 772.224 257.529 769.37 255.53 768.799C253.818 768.228 248.964 769.655 244.682 772.51C238.687 776.507 236.118 776.792 229.837 773.937L222.415 770.511L231.55 764.802C236.689 761.662 240.4 758.236 239.544 757.379C238.687 756.523 233.548 758.521 228.41 761.662C220.131 766.8 218.132 767.086 212.137 763.945L205.286 760.234L212.994 755.096C222.986 748.529 220.416 746.246 209.283 752.241C202.146 755.667 199.005 755.952 194.152 753.383C188.157 750.242 188.157 749.957 193.296 746.246C196.15 744.247 199.862 741.963 201.575 741.392C203.287 740.822 203.858 739.109 202.717 737.967C201.575 736.825 196.436 738.538 191.297 741.678C183.018 746.817 181.305 747.102 176.452 743.391C170.743 739.394 170.743 739.394 176.452 735.112C179.307 732.828 182.733 730.83 184.16 730.83C185.302 730.83 186.159 729.402 186.159 727.689C186.159 726.262 181.02 727.689 175.025 731.115C165.033 736.539 163.32 736.825 157.896 733.114C152.186 729.117 152.186 728.831 160.751 723.978C172.17 717.127 169.315 714.843 157.611 720.838C149.903 724.835 147.048 725.12 140.767 722.265L133.345 718.84L142.766 714.272C147.619 711.702 151.901 708.848 151.901 707.42C151.901 703.995 150.474 704.565 139.34 711.132C130.204 716.27 128.492 716.556 123.353 712.844C117.358 708.848 117.643 708.562 126.779 702.567C138.198 695.43 133.345 694.574 119.071 701.425C109.935 705.707 108.508 705.707 104.797 701.996C100.8 697.999 101.085 697.143 107.652 693.717C111.648 691.719 114.789 688.579 114.789 687.151C114.789 685.724 110.221 687.151 104.511 690.577C96.8033 695.145 93.092 696.001 88.8098 693.717C81.3873 689.72 81.9583 686.866 90.5227 682.869C94.5194 681.156 97.6597 678.016 97.6597 676.303C97.6597 674.59 93.092 676.017 87.3824 679.443C78.818 684.867 76.2486 685.438 69.9681 682.583L62.5456 679.158L71.681 673.448C76.8196 670.308 80.5309 666.882 79.6744 666.026C78.818 665.169 73.6793 667.168 68.5407 670.308C61.6891 674.59 57.6924 675.446 53.9812 673.448C47.4151 669.451 47.9861 666.882 56.265 662.314C59.9763 660.316 62.5456 657.461 61.6891 656.319C61.1182 655.177 55.9795 656.605 50.5554 659.745L40.8491 665.74L25.1476 656.319C16.5832 651.181 10.0172 646.327 10.8736 645.471C14.2994 641.76 82.2437 602.649 85.0986 602.363C86.8114 602.363 94.2339 605.789 101.656 609.786ZM277.512 712.273C277.512 714.557 260.098 722.836 258.385 721.409C257.529 720.552 260.669 717.983 265.237 715.414C273.516 710.846 277.512 709.99 277.512 712.273ZM303.491 733.684C297.211 739.109 291.786 741.107 291.786 737.967C291.786 736.539 306.346 728.26 308.915 728.26C309.772 728.26 307.202 730.83 303.491 733.684ZM349.454 762.518C344.315 765.944 339.462 767.942 338.605 767.086C337.749 766.229 340.604 763.66 345.171 761.091C357.162 754.525 360.302 755.667 349.454 762.518Z" fill="white"/>
<path d="M1654.96 893.266C1588.44 932.092 1485.67 991.472 1431.14 1022.59L1381.47 1051.14L1371.76 1046.57C1366.34 1044 1361.2 1042 1359.77 1042C1358.63 1042 1344.07 1049.71 1327.8 1059.13L1298.11 1076.26L1292.97 1069.12C1281.26 1053.42 1257.28 1065.98 1260.42 1086.25C1262.42 1097.96 1264.99 1095.96 1204.47 1130.22C1184.48 1141.63 1167.36 1152.48 1165.93 1154.48C1164.79 1156.48 1159.93 1159.62 1155.08 1161.62C1147.09 1164.76 1144.8 1164.47 1131.38 1156.19C1123.11 1151.63 1115.11 1148.49 1113.4 1149.34C1108.55 1152.48 1113.11 1170.18 1120.25 1175.89C1124.25 1179.32 1126.82 1184.74 1127.1 1190.17C1127.39 1196.73 1126.82 1198.45 1124.25 1196.45C1122.25 1194.73 1117.68 1194.16 1113.68 1195.02C1108.55 1196.16 1107.69 1195.88 1111.12 1193.59C1114.54 1191.31 1114.54 1190.45 1110.26 1188.74C1107.69 1187.88 1103.69 1188.17 1101.69 1189.88C1099.13 1192.16 1091.99 1191.02 1077.43 1186.74C1059.44 1181.6 1056.3 1181.32 1054.02 1184.74C1050.31 1190.45 1050.59 1192.16 1055.45 1197.02C1059.16 1200.73 1058.87 1201.59 1054.88 1203.3C1050.59 1204.73 1050.59 1205.58 1054.02 1207.58C1056.3 1209.01 1060.01 1209.01 1063.15 1207.3C1066.58 1205.58 1068.29 1205.58 1068.29 1207.58C1068.29 1209.01 1067.15 1210.44 1065.44 1210.44C1064.01 1210.44 1063.44 1212.15 1064.3 1214.43C1065.44 1217.29 1063.73 1217.86 1058.02 1216.72C1052.31 1215.57 1050.88 1216.43 1051.74 1219.29C1052.59 1221.57 1056.02 1223 1059.44 1222.71C1062.87 1222.14 1065.15 1223 1064.3 1224.42C1063.44 1225.85 1064.3 1228.14 1066.3 1229.85C1075.14 1237.27 1161.07 1284.66 1165.64 1284.66C1168.21 1284.66 1171.35 1286.66 1172.21 1289.23C1173.35 1292.08 1175.92 1292.94 1179.63 1291.8C1183.63 1290.66 1185.34 1291.23 1184.77 1293.8C1184.2 1296.37 1186.77 1297.22 1192.48 1296.94C1199.04 1296.37 1199.9 1296.94 1196.76 1298.93C1193.05 1301.5 1193.05 1302.07 1196.76 1304.64C1199.9 1306.64 1201.9 1306.07 1204.47 1302.65C1207.61 1298.65 1209.32 1298.36 1215.89 1301.5C1220.45 1303.5 1224.17 1304.64 1224.17 1304.07C1224.45 1303.79 1227.31 1305.5 1230.45 1308.36C1233.59 1311.21 1237.87 1312.64 1240.72 1311.5C1244.15 1310.07 1245.01 1310.92 1243.58 1314.35C1242.44 1317.78 1243.58 1318.92 1247.86 1318.92C1251.29 1318.92 1253.86 1317.49 1253.86 1315.78C1253.86 1314.06 1256.43 1313.49 1260.42 1314.92C1271.56 1318.63 1302.39 1318.06 1302.39 1314.35C1302.39 1312.64 1304.39 1311.21 1306.96 1311.5C1309.52 1311.5 1312.38 1310.07 1312.95 1308.07C1313.81 1306.36 1312.95 1304.64 1311.24 1304.64C1309.52 1304.64 1305.81 1302.65 1302.96 1300.08C1296.39 1294.08 1207.04 1242.69 1201.04 1241.27C1189.91 1238.98 1198.19 1234.7 1213.6 1234.7C1223.02 1234.7 1231.59 1233.84 1232.73 1232.7C1233.87 1231.28 1233.3 1230.42 1231.3 1230.42C1229.3 1230.42 1228.45 1229.28 1229.3 1227.85C1230.16 1226.71 1234.16 1226.14 1238.15 1226.99C1245.29 1228.14 1248.15 1223.57 1241.87 1221C1239.87 1220.14 1242.44 1219.86 1247.58 1220.14C1253 1220.71 1258.14 1222.43 1258.99 1223.85C1260.14 1225.57 1279.55 1237.84 1302.39 1250.97C1325.23 1264.11 1347.21 1277.24 1351.2 1279.81C1358.06 1284.37 1359.2 1284.37 1363.19 1280.38C1368.9 1274.95 1372.9 1274.95 1378.61 1280.38C1380.89 1282.66 1384.03 1284.09 1385.46 1283.23C1389.46 1280.66 1388.6 1276.1 1383.75 1276.1C1378.04 1276.1 1368.05 1265.82 1368.05 1260.11C1368.05 1252.4 1362.05 1243.84 1344.64 1225.85C1334.93 1215.86 1328.37 1206.72 1329.22 1205.01C1330.36 1203.3 1328.37 1200.73 1324.37 1199.3C1316.38 1196.16 1312.09 1191.02 1315.23 1188.17C1316.09 1187.31 1318.09 1188.17 1319.52 1190.17C1320.94 1192.74 1323.8 1193.31 1326.94 1192.16C1332.08 1190.17 1332.08 1189.88 1327.22 1186.17C1323.51 1183.6 1322.94 1182.17 1325.8 1181.32C1327.8 1180.46 1330.94 1181.89 1332.65 1184.17C1334.36 1186.45 1337.22 1187.6 1338.93 1186.45C1343.78 1183.6 1343.21 1179.6 1338.07 1178.46C1334.65 1177.89 1334.93 1176.75 1339.79 1173.89C1342.93 1171.61 1344.92 1171.32 1343.78 1173.04C1342.93 1174.75 1344.07 1177.03 1346.64 1177.89C1352.63 1180.17 1355.77 1177.03 1351.49 1172.75C1348.92 1170.18 1351.49 1167.33 1362.91 1160.19C1375.47 1152.48 1378.04 1151.63 1381.75 1155.05C1383.75 1157.34 1386.89 1158.48 1388.32 1157.62C1392.6 1154.77 1391.17 1150.48 1386.03 1150.48C1381.75 1150.48 1381.47 1149.91 1385.18 1147.63C1387.75 1146.2 1390.6 1146.2 1392.88 1148.2C1394.88 1149.63 1398.88 1150.2 1401.45 1149.06C1406.3 1147.34 1406.3 1147.06 1401.16 1143.06C1396.88 1140.21 1396.6 1139.07 1399.74 1139.07C1402.02 1139.07 1405.45 1140.49 1407.16 1142.21C1409.16 1144.2 1411.44 1143.92 1414.58 1140.78C1419.15 1135.92 1432.28 1134.21 1429.71 1138.78C1428.86 1140.21 1429.71 1141.92 1431.71 1142.49C1436.56 1144.49 1442.56 1141.92 1440.56 1138.78C1439.7 1137.35 1441.7 1136.21 1445.13 1136.21C1448.27 1136.21 1451.69 1134.5 1452.55 1132.21C1453.41 1129.93 1455.98 1128.79 1457.97 1129.36C1459.97 1130.22 1462.54 1129.36 1463.97 1127.36C1465.11 1125.36 1464.83 1123.36 1463.4 1122.79C1461.69 1122.22 1460.83 1117.94 1461.69 1113.37C1462.54 1107.38 1460.83 1103.09 1455.12 1097.67C1451.12 1093.39 1447.98 1089.68 1448.55 1089.11C1449.7 1087.96 1520.49 1046.85 1610.71 994.898C1752.02 913.536 1757.73 910.11 1757.73 902.402C1757.73 896.407 1753.45 892.981 1734.03 881.562C1720.9 874.139 1707.48 867.859 1704.06 868.144C1700.63 868.144 1678.65 879.563 1654.96 893.266ZM1727.47 885.273C1738.6 891.839 1747.74 898.12 1747.74 899.262C1747.74 900.403 1744.31 902.687 1740.31 904.686C1733.75 907.54 1730.89 906.969 1717.48 899.262C1708.91 894.694 1702.06 891.554 1702.06 892.695C1702.06 894.123 1707.77 898.12 1714.91 901.831C1722.04 905.542 1727.75 909.824 1727.75 911.252C1727.75 912.965 1723.19 911.252 1717.48 908.111C1711.77 904.686 1706.34 902.402 1705.77 903.258C1704.92 903.829 1708.63 906.684 1714.05 909.539C1719.19 912.108 1722.04 914.963 1720.05 915.534C1718.33 916.105 1713.48 914.677 1709.2 911.823C1705.2 909.253 1701.2 907.826 1700.06 908.682C1699.21 909.824 1701.77 912.108 1706.06 913.821C1710.05 915.819 1713.48 918.389 1713.48 919.816C1713.48 923.242 1712.05 922.671 1700.06 916.105L1689.21 909.824L1697.78 917.247C1707.2 925.526 1704.34 927.81 1694.07 920.387C1690.64 918.103 1686.07 916.39 1684.36 916.961C1682.65 917.532 1685.22 919.816 1690.07 921.814C1695.21 924.098 1699.21 926.668 1699.21 928.095C1699.21 931.806 1698.35 931.521 1684.65 923.527C1668.09 914.106 1662.95 914.392 1678.65 923.813C1692.35 932.092 1693.21 936.374 1679.51 929.522C1668.66 923.813 1663.81 923.813 1674.37 929.522C1678.65 931.806 1682.08 934.947 1682.08 936.659C1682.08 938.372 1677.51 936.945 1672.08 933.519C1666.66 930.093 1662.09 928.666 1662.09 930.093C1662.09 931.521 1665.52 934.376 1670.09 936.374C1676.37 939.514 1676.94 940.371 1672.94 941.227C1670.09 942.084 1667.8 943.796 1667.8 945.224C1667.8 946.651 1662.66 945.224 1656.38 942.084C1642.68 934.947 1641.54 936.374 1654.39 944.653C1668.94 954.074 1657.24 951.504 1641.54 941.798C1633.54 937.23 1626.69 933.805 1625.84 934.376C1625.27 935.232 1630.98 939.514 1638.97 944.082C1646.96 948.364 1653.53 952.932 1653.53 954.074C1653.53 957.5 1652.1 956.929 1640.11 950.363L1629.26 944.367L1637.83 951.79C1647.53 960.354 1645.82 961.211 1632.69 954.93C1624.7 950.933 1624.41 950.933 1628.98 954.645C1631.83 956.929 1635.83 959.498 1637.54 960.069C1639.25 960.64 1639.83 962.353 1638.68 963.495C1637.54 964.637 1632.12 962.638 1626.69 959.212C1620.98 955.787 1616.42 954.359 1616.42 955.787C1616.42 957.214 1619.84 959.783 1623.84 961.782C1628.12 963.495 1630.69 965.778 1629.83 966.635C1628.98 967.491 1624.41 966.064 1619.56 963.78C1607.28 957.214 1604.71 958.356 1615.85 965.208C1629.83 974.343 1624.41 975.199 1609.28 966.349C1601.86 962.067 1595.29 959.498 1594.43 960.069C1593.58 960.925 1598.72 964.637 1605.57 968.062C1614.13 972.63 1616.42 974.914 1612.99 975.77C1610.14 976.341 1607.85 978.054 1607.85 979.482C1607.85 980.909 1604.14 980.338 1599.29 977.769C1587.58 971.774 1584.73 972.345 1595.01 979.196C1599.86 982.336 1601.86 984.906 1599.29 984.906C1596.72 984.906 1591.86 982.907 1588.44 980.338C1584.73 977.769 1581.02 976.627 1580.16 977.483C1579.3 978.34 1581.87 980.623 1586.16 982.336C1590.15 984.335 1593.58 986.904 1593.58 988.331C1593.58 991.757 1592.15 991.186 1581.02 984.62C1575.31 981.194 1570.74 979.767 1570.74 981.194C1570.74 982.907 1574.16 985.477 1578.16 987.475C1582.44 989.188 1585.01 991.472 1584.16 992.614C1583.3 993.47 1575.31 990.044 1566.46 985.191C1546.76 974.057 1545.62 976.056 1565.32 988.046C1581.3 998.038 1582.44 1003.46 1566.46 994.041C1561.03 990.615 1556.47 988.902 1556.47 990.33C1556.47 991.472 1559.89 994.327 1564.46 996.325C1568.74 998.323 1570.74 1000.61 1568.74 1001.18C1567.03 1001.75 1562.17 1000.32 1557.89 997.467C1553.9 994.898 1549.9 993.47 1549.04 994.327C1548.19 995.183 1551.33 998.038 1556.47 1000.61C1561.6 1003.18 1565.03 1006.03 1564.17 1006.6C1563.32 1007.46 1558.75 1006.03 1553.61 1003.46C1548.47 1000.89 1543.9 999.18 1543.33 1000.04C1542.76 1000.61 1545.33 1002.89 1549.33 1004.89C1553.32 1006.89 1556.47 1010.03 1556.47 1011.46C1556.47 1012.88 1551.9 1011.46 1546.19 1008.03C1532.77 1000.04 1530.2 1000.32 1540.76 1008.89C1548.76 1015.45 1548.76 1015.74 1543.05 1017.45C1539.34 1018.59 1533.06 1017.45 1527.35 1014.88L1517.93 1010.03L1526.49 1017.45C1535.63 1025.16 1533.06 1027.73 1523.35 1020.59C1520.49 1018.31 1515.93 1016.59 1513.64 1016.59C1511.36 1016.59 1512.79 1018.59 1517.35 1020.88C1521.64 1023.16 1525.06 1026.3 1525.06 1028.01C1525.06 1029.73 1520.21 1028.3 1514.5 1024.87L1503.65 1018.59L1512.22 1026.01C1521.92 1034.29 1520.21 1035.44 1507.65 1028.87C1502.79 1026.59 1498.23 1024.87 1497.66 1025.73C1497.09 1026.3 1499.65 1028.58 1503.65 1030.58C1507.65 1032.58 1510.79 1035.44 1510.79 1036.86C1510.79 1038.29 1503.65 1035.44 1494.8 1030.58C1486.24 1025.44 1478.53 1022.02 1477.67 1022.59C1477.1 1023.45 1483.38 1027.73 1491.38 1032.3C1501.65 1037.72 1504.79 1040.86 1501.65 1041.43C1498.8 1042 1496.51 1043.71 1496.51 1045.14C1496.51 1046.57 1491.09 1045.14 1484.52 1042L1472.25 1036.01L1480.24 1042.29C1487.38 1047.71 1487.66 1048.57 1483.38 1051.99C1479.39 1054.85 1476.53 1054.56 1468.25 1050L1457.97 1044.29L1466.54 1051.71C1477.39 1061.13 1473.39 1061.13 1457.4 1051.99C1450.84 1048 1445.13 1045.71 1445.13 1046.85C1445.13 1048.28 1449.7 1051.71 1455.12 1054.56C1460.54 1057.7 1465.11 1061.13 1465.11 1062.84C1465.11 1064.27 1460.54 1062.56 1454.83 1059.42C1449.12 1055.99 1443.7 1053.71 1443.13 1054.56C1442.27 1055.13 1445.98 1058.27 1451.41 1060.84C1458.55 1064.84 1459.69 1066.27 1455.98 1067.12C1453.12 1067.7 1450.84 1069.41 1450.84 1071.12C1450.84 1072.55 1446.27 1071.12 1440.56 1067.98C1434.85 1064.55 1429.43 1062.27 1428.86 1063.13C1428 1063.7 1431.71 1066.55 1437.13 1069.41C1442.27 1071.98 1445.13 1074.83 1443.13 1075.4C1441.42 1075.97 1436.56 1074.55 1432.28 1071.69C1428.28 1069.12 1424.29 1067.7 1423.15 1068.55C1422.29 1069.69 1424.86 1071.98 1429.14 1073.69C1433.14 1075.69 1436.56 1078.26 1436.56 1079.69C1436.56 1083.4 1434.85 1082.54 1419.43 1073.12C1411.44 1068.27 1404.3 1064.84 1403.45 1065.7C1402.59 1066.55 1405.73 1069.41 1410.58 1071.98C1420.58 1077.12 1422.29 1080.54 1413.72 1077.69C1409.16 1076.26 1408.3 1076.83 1410.01 1080.83C1411.44 1084.82 1410.87 1085.11 1405.73 1082.25C1402.02 1080.26 1399.45 1079.97 1399.45 1081.68C1399.45 1083.11 1401.16 1085.11 1403.16 1085.97C1404.88 1086.82 1402.88 1087.11 1398.02 1086.25C1391.74 1085.11 1390.6 1085.39 1393.74 1087.39C1396.03 1089.11 1396.88 1091.1 1395.74 1092.25C1394.88 1093.39 1391.74 1092.53 1388.89 1090.25C1384.61 1086.82 1384.32 1086.82 1386.03 1091.68C1387.75 1095.67 1387.18 1096.53 1383.75 1095.1C1374.33 1091.39 1369.76 1090.53 1376.04 1093.67C1379.47 1095.67 1382.32 1098.24 1382.32 1099.67C1382.32 1102.81 1380.32 1102.52 1372.9 1098.53C1366.91 1095.39 1366.91 1095.67 1370.9 1100.53C1374.9 1105.38 1374.61 1105.66 1368.62 1104.24C1363.19 1102.81 1362.62 1103.09 1365.48 1106.52C1369.48 1111.37 1366.91 1111.66 1358.63 1107.09C1352.63 1104.24 1352.63 1104.24 1356.63 1109.09C1360.63 1113.94 1360.34 1114.23 1352.35 1112.52C1347.78 1111.66 1345.5 1111.37 1347.49 1112.23C1349.21 1113.09 1350.92 1115.08 1350.92 1116.51C1350.92 1117.94 1345.78 1116.51 1339.5 1113.37C1323.8 1105.38 1321.51 1106.23 1335.22 1115.08C1345.78 1121.94 1346.07 1122.22 1338.36 1120.51C1331.51 1119.08 1330.65 1119.37 1333.22 1122.51C1335.5 1125.65 1335.22 1127.36 1330.94 1129.93C1327.51 1131.93 1324.94 1132.21 1323.8 1130.5C1322.94 1128.79 1320.66 1127.65 1318.95 1127.65C1317.23 1127.65 1317.52 1129.64 1319.8 1132.21C1323.23 1136.5 1322.94 1136.78 1317.23 1135.07C1312.09 1133.36 1311.24 1133.93 1312.95 1138.21C1314.95 1143.06 1314.66 1143.06 1307.24 1138.21C1296.96 1131.64 1293.54 1132.21 1302.39 1139.07L1309.52 1145.06L1300.96 1143.35C1296.39 1142.49 1294.11 1142.78 1296.11 1143.63C1297.82 1144.49 1299.53 1146.49 1299.53 1147.92C1299.53 1149.63 1296.96 1149.34 1293.54 1147.63C1290.4 1145.63 1286.97 1145.06 1285.83 1145.92C1284.97 1146.77 1285.83 1147.63 1287.54 1147.63C1289.54 1147.63 1290.97 1149.06 1290.97 1150.77C1290.97 1152.48 1288.4 1153.05 1284.69 1151.91C1280.12 1150.77 1279.26 1151.06 1282.12 1152.77C1284.4 1154.48 1284.69 1156.19 1282.97 1157.34C1281.26 1158.19 1279.26 1157.91 1278.12 1156.19C1277.27 1154.77 1274.98 1153.34 1273.27 1153.34C1271.27 1153.34 1271.27 1154.48 1273.27 1157.05C1275.55 1159.62 1274.98 1161.62 1270.98 1164.19C1267.56 1166.19 1264.99 1166.47 1263.85 1164.76C1262.99 1163.05 1260.71 1161.9 1258.99 1161.9C1257.28 1161.9 1257.57 1163.9 1259.85 1166.47C1263.28 1170.75 1262.99 1171.04 1257.28 1169.33C1252.14 1167.61 1251.29 1168.18 1253 1172.18C1254.43 1176.18 1253.86 1176.46 1247.86 1173.32C1241.29 1169.61 1241.29 1169.9 1245.29 1174.75C1249.29 1179.6 1249 1179.89 1241.01 1178.18C1236.44 1177.32 1234.16 1177.03 1236.16 1177.89C1237.87 1178.75 1239.58 1180.75 1239.58 1182.17C1239.58 1183.6 1235.87 1183.03 1231.02 1180.46C1219.6 1174.46 1217.6 1175.04 1225.59 1182.17L1232.44 1187.88L1225.31 1186.17C1219.31 1184.74 1219.03 1185.03 1223.31 1187.6C1225.88 1189.31 1228.16 1192.16 1228.16 1193.88C1228.16 1195.59 1224.74 1194.73 1220.74 1191.88C1216.74 1189.31 1212.75 1187.88 1211.89 1188.45C1211.32 1189.31 1213.6 1191.59 1217.31 1193.59C1220.74 1195.3 1226.74 1199.3 1230.45 1201.87L1236.73 1207.01L1226.16 1213.29C1219.6 1217 1213.32 1218.71 1209.04 1217.57C1202.47 1215.86 1188.2 1221.57 1179.06 1229.85C1175.06 1233.27 1174.78 1234.99 1177.35 1238.13C1181.63 1243.27 1195.05 1250.4 1201.04 1250.4C1203.33 1250.4 1215.03 1255.83 1226.74 1262.39C1245.29 1272.67 1248.15 1275.52 1248.15 1282.09C1248.15 1287.23 1250.72 1291.8 1256.14 1295.79C1265.28 1302.93 1268.13 1303.5 1205.32 1282.95C1163.64 1269.53 1148.51 1262.68 1115.4 1243.84C1093.42 1230.99 1074.86 1220.43 1074.29 1219.86C1073.43 1219.29 1076.57 1215.29 1080.85 1210.72L1088.85 1202.44L1082 1197.59L1075.43 1192.74L1082.57 1194.73C1086.56 1195.88 1096.27 1199.3 1103.98 1202.16C1111.97 1205.3 1119.68 1207.58 1121.68 1207.58C1123.39 1207.58 1137.09 1200.44 1152.22 1191.88C1167.07 1183.31 1181.63 1176.18 1184.48 1176.18C1187.34 1176.18 1194.76 1173.04 1201.04 1169.61C1207.32 1165.9 1249.86 1141.35 1295.25 1115.08C1340.93 1088.82 1380.61 1064.27 1383.75 1060.84C1386.89 1057.13 1449.12 1019.73 1522.21 977.483C1595.29 935.518 1665.23 894.979 1677.79 887.557C1690.36 880.134 1702.06 873.854 1703.77 873.854C1705.49 873.568 1716.05 878.992 1727.47 885.273ZM1367.76 1053.14C1372.33 1055.99 1373.76 1055.13 1323.8 1083.97C1206.75 1152.2 1187.91 1162.19 1182.49 1160.48C1179.35 1159.62 1176.78 1157.91 1176.78 1156.76C1176.78 1153.91 1354.34 1051.14 1359.48 1050.85C1361.77 1050.85 1365.48 1051.71 1367.76 1053.14ZM1272.98 1077.4C1269.56 1082.54 1266.13 1085.68 1265.85 1084.25C1264.42 1081.11 1273.27 1067.7 1276.69 1067.7C1278.12 1067.7 1276.41 1071.98 1272.98 1077.4ZM1288.11 1074.83C1288.11 1075.69 1285.54 1078.83 1282.4 1081.97C1278.69 1085.68 1276.69 1086.25 1276.69 1083.97C1276.69 1081.97 1278.12 1078.83 1280.12 1076.83C1283.55 1073.4 1288.11 1072.26 1288.11 1074.83ZM1437.71 1093.96C1454.55 1105.09 1455.98 1108.23 1448.27 1115.94C1443.41 1120.79 1438.56 1121.94 1423.15 1121.94C1404.02 1121.94 1402.88 1122.51 1360.91 1146.49C1337.5 1159.91 1315.23 1173.61 1311.81 1176.75C1304.96 1183.03 1303.24 1193.02 1308.1 1197.87C1312.38 1202.16 1280.12 1219.86 1271.84 1217.57C1268.13 1216.72 1265.28 1214.15 1265.28 1211.86C1265.28 1209.86 1258.99 1204.44 1251.29 1199.87C1236.44 1191.59 1236.73 1184.46 1251.57 1192.16C1256.43 1194.73 1259.57 1195.02 1259.57 1193.31C1259.57 1191.59 1257.57 1189.6 1255.28 1188.74C1249.29 1186.45 1249.86 1182.74 1256.71 1180.46C1260.42 1179.32 1265.56 1180.46 1269.56 1183.03C1273.55 1185.6 1276.69 1186.45 1276.69 1185.03C1276.69 1183.31 1274.7 1181.03 1272.13 1179.6C1269.27 1177.89 1268.13 1175.61 1269.56 1173.32C1271.56 1170.18 1277.84 1170.47 1289.54 1174.75C1294.68 1176.46 1294.68 1175.89 1288.68 1170.75L1282.12 1165.04L1288.11 1161.9C1292.97 1159.33 1295.54 1159.62 1300.96 1163.05C1308.95 1168.18 1310.95 1168.76 1310.95 1165.33C1310.95 1163.9 1308.1 1161.62 1304.67 1159.91L1298.11 1157.05L1304.67 1153.62C1309.24 1151.06 1312.38 1151.06 1316.95 1153.34C1320.09 1155.05 1324.08 1156.19 1326.08 1155.34C1328.08 1154.77 1326.65 1152.77 1322.94 1150.77C1316.66 1147.34 1316.38 1147.06 1321.23 1143.35C1325.8 1140.21 1327.8 1140.21 1334.65 1143.92C1339.21 1146.2 1343.5 1147.34 1344.35 1146.77C1344.92 1145.92 1342.93 1143.63 1339.21 1141.63C1333.22 1138.49 1332.93 1138.21 1338.07 1134.5C1342.35 1131.36 1344.35 1131.36 1351.2 1135.07C1360.05 1139.64 1362.91 1135.64 1354.63 1130.79C1350.06 1128.22 1350.06 1127.36 1353.77 1124.79C1358.06 1121.94 1360.91 1122.22 1372.33 1126.22C1377.18 1127.93 1377.18 1127.36 1371.47 1122.79L1364.91 1117.37L1371.47 1114.23C1376.61 1111.94 1379.47 1112.23 1383.75 1115.08C1389.74 1119.65 1393.74 1120.22 1393.74 1116.8C1393.74 1115.37 1390.89 1113.09 1387.46 1111.37L1380.89 1108.52L1387.46 1105.09C1392.31 1102.52 1395.45 1102.52 1402.31 1106.23C1406.87 1108.8 1410.87 1109.38 1410.87 1107.95C1410.87 1106.52 1408.3 1104.24 1405.16 1103.38C1402.02 1102.52 1399.45 1100.53 1399.45 1099.1C1399.45 1094.82 1413.72 1092.25 1417.44 1095.96C1419.15 1097.67 1422.57 1099.1 1425.14 1099.1C1428.28 1099.1 1427.71 1097.67 1422.86 1093.96C1419.15 1091.1 1417.15 1087.96 1418.29 1086.82C1421.43 1083.68 1422.86 1084.25 1437.71 1093.96ZM1154.22 1169.9C1160.22 1168.18 1167.36 1167.9 1170.21 1168.76C1174.21 1170.47 1172.78 1172.18 1162.79 1177.61C1150.51 1184.74 1150.51 1184.74 1143.09 1179.32C1138.81 1176.46 1132.81 1171.04 1129.67 1167.33L1123.96 1160.76L1133.67 1166.76C1141.66 1171.61 1144.8 1172.18 1154.22 1169.9ZM1337.22 1226.71C1348.06 1237.27 1356.63 1246.98 1356.63 1248.12C1356.63 1249.26 1351.49 1247.55 1345.21 1244.41C1336.93 1240.13 1330.36 1238.7 1322.94 1239.55C1314.66 1240.7 1308.95 1239.27 1298.39 1233.27L1284.69 1225.28L1292.68 1220.14C1297.25 1217.57 1303.53 1213.58 1306.67 1211.58C1309.81 1209.58 1313.52 1207.87 1315.23 1207.87C1316.66 1207.58 1326.65 1216.14 1337.22 1226.71ZM1348.92 1255.26C1365.76 1265.82 1358.34 1268.39 1340.93 1258.11C1332.36 1252.97 1325.23 1248.12 1325.23 1246.98C1325.23 1243.84 1337.5 1248.12 1348.92 1255.26ZM1289.54 1299.22C1290.97 1300.65 1289.54 1301.79 1285.26 1301.79C1276.12 1301.79 1253.86 1288.37 1253.86 1282.95C1253.86 1279.24 1257.57 1280.38 1270.41 1287.52C1279.26 1292.65 1287.83 1297.79 1289.54 1299.22Z" fill="white"/>
<path d="M268.663 944.367C219.56 974.343 222.986 970.346 223.842 996.039L224.699 1017.74L283.793 1051.71L343.173 1085.39L381.713 1063.13C402.838 1050.57 421.966 1039.15 424.535 1037.43C430.244 1033.15 432.814 1017.45 430.53 1001.18L428.532 988.617L370.294 955.215C338.32 936.945 310.343 922.1 308.344 922.385C306.346 922.385 288.361 932.377 268.663 944.367ZM365.44 960.925C394.845 977.768 419.396 991.757 419.967 992.328C420.538 992.899 417.683 994.612 413.687 996.61C407.692 999.465 404.551 998.608 391.99 991.757C381.142 985.476 378.002 982.336 379.143 978.625C380.285 974.343 378.858 973.486 370.294 973.486C363.442 973.486 352.594 969.204 337.463 960.64C313.197 946.936 309.201 945.795 299.494 951.219C292.357 954.93 271.517 956.072 273.801 952.646C276.37 948.649 304.348 930.95 308.344 930.95C310.628 930.664 336.321 944.367 365.44 960.925ZM327.472 962.638L343.458 972.059L330.326 974.914C311.77 978.91 316.909 981.765 338.891 979.767C349.168 979.196 357.447 979.481 357.447 980.909C357.447 982.336 351.452 985.762 344.6 988.902C329.755 994.897 329.184 1000.04 343.458 1001.75C352.308 1002.89 351.452 1003.18 336.321 1006.03C326.901 1007.74 318.907 1010.6 318.336 1012.6C317.48 1014.6 322.333 1018.59 328.899 1022.02C338.034 1026.59 343.458 1027.73 354.021 1026.3C368.295 1024.3 367.724 1026.01 350.881 1035.15C342.887 1039.43 342.031 1038.86 298.638 1014.31C274.372 1000.61 254.959 988.331 255.245 987.189C256.101 984.62 306.06 953.788 309.486 953.502C310.343 953.502 318.622 957.785 327.472 962.638ZM265.237 964.922C271.517 964.922 264.951 972.344 254.103 978.054C246.11 982.336 234.69 981.194 234.69 976.341C234.69 972.63 258.956 958.927 259.813 962.067C260.384 963.78 262.953 964.922 265.237 964.922ZM374.861 990.615L381.713 996.039L365.44 996.325C356.305 996.325 348.883 995.754 348.883 994.897C348.883 993.47 363.442 985.191 366.297 984.905C367.439 984.905 371.15 987.475 374.861 990.615ZM258.1 1012.31C258.671 1024.3 258.1 1027.44 255.245 1026.3C252.961 1025.44 250.677 1024.87 250.106 1024.87C249.535 1024.87 248.964 1017.74 248.964 1009.17C248.964 996.896 249.821 994.041 252.961 995.183C255.53 996.325 257.243 1002.32 258.1 1012.31ZM400.269 1004.6C400.269 1012.88 347.455 1024.59 336.892 1018.88C330.612 1015.45 330.612 1015.45 336.036 1013.45C339.176 1012.31 351.166 1009.74 362.586 1007.74C374.29 1005.46 384.282 1002.32 385.139 1000.32C386.28 997.467 387.993 997.467 393.418 999.75C397.129 1001.46 400.269 1003.75 400.269 1004.6ZM423.107 1016.02C423.107 1025.44 421.68 1030.58 419.111 1031.44C415.97 1032.58 414.829 1029.73 413.972 1020.3C413.116 1008.31 415.4 1002.03 420.824 1002.03C421.966 1002.03 423.107 1008.31 423.107 1016.02ZM290.645 1016.59C302.349 1022.87 313.197 1030.58 314.625 1033.44C317.48 1038.86 318.622 1061.99 316.052 1061.99C315.481 1061.99 303.777 1055.42 290.359 1047.71L266.093 1033.15V1019.16C266.093 1011.17 266.95 1004.89 267.806 1004.89C268.948 1004.89 279.225 1010.03 290.645 1016.59ZM400.269 1031.15C400.269 1042 399.413 1045.14 397.414 1042C393.703 1036.29 393.703 1016.31 397.414 1016.31C399.127 1016.31 400.269 1023.16 400.269 1031.15ZM340.318 1059.13C340.318 1074.55 339.176 1075.69 329.47 1068.84C324.331 1065.41 323.189 1061.7 323.189 1050.28V1036.01L331.754 1040.57C339.462 1044.57 340.318 1046.28 340.318 1059.13Z" fill="white"/>
<path d="M780.244 945.227C766.255 947.511 748.841 955.79 695.741 984.909C616.092 1028.59 606.386 1033.16 596.68 1031.73C588.401 1030.3 579.836 1034.01 534.445 1059.13C474.494 1092.25 474.494 1092.25 474.494 1099.1C474.494 1101.96 470.783 1105.67 466.215 1107.67C436.525 1119.94 419.967 1147.35 434.527 1160.48C438.809 1164.48 443.377 1165.33 455.081 1164.19C467.642 1163.05 478.776 1158.2 520.171 1135.07C547.577 1119.66 576.696 1102.81 584.404 1097.67C602.104 1086.25 620.375 1075.69 708.588 1026.3C761.973 996.614 781.671 984.052 791.377 973.775C805.937 958.359 817.071 944.942 817.071 943.229C817.071 941.516 797.087 942.372 780.244 945.227ZM793.09 954.933C785.953 960.358 781.1 960.358 778.816 954.933C777.674 951.508 779.673 950.651 787.952 950.651C797.944 950.937 798.229 951.222 793.09 954.933ZM762.829 961.214C762.829 964.64 629.224 1039.15 622.944 1039.15C611.525 1039.15 628.939 1027.16 686.606 996.043C747.984 962.641 762.829 955.79 762.829 961.214ZM768.539 970.349C768.539 971.491 729.143 994.901 680.896 1022.02C598.678 1068.27 593.254 1071.12 589.543 1065.99C586.117 1061.42 586.688 1060.28 595.252 1055.99C600.391 1053.14 606.386 1047.43 608.67 1042.86L612.667 1034.87L613.809 1042.58C614.38 1047.14 615.236 1050.57 615.807 1050.57C617.234 1050.57 717.723 996.328 744.273 980.912C769.966 966.353 768.539 966.924 768.539 970.349ZM600.105 1038.58C600.105 1040.01 595.823 1043.43 590.399 1046.29C583.833 1049.71 581.264 1053.14 582.12 1055.99C583.262 1059.7 582.977 1059.7 580.693 1056.56C578.694 1053.71 576.696 1053.42 571.843 1055.99C568.417 1057.99 566.704 1060.85 567.561 1062.56C568.703 1064.56 568.417 1064.84 566.133 1063.7C564.42 1062.56 547.863 1069.98 528.735 1080.26C497.618 1097.67 483.058 1102.81 483.058 1096.82C483.058 1095.39 506.468 1081.4 535.301 1065.41C582.406 1039.15 600.105 1032.01 600.105 1038.58ZM582.977 1072.55C582.691 1080.26 582.691 1080.26 578.694 1075.12C574.698 1069.7 575.269 1064.84 580.407 1064.84C581.835 1064.84 582.977 1068.27 582.977 1072.55ZM574.412 1081.97C574.412 1085.4 477.349 1139.92 475.065 1137.64C474.209 1136.78 476.207 1133.64 479.633 1130.5C487.055 1123.65 487.341 1121.08 481.631 1115.09C475.636 1109.09 476.207 1108.81 486.77 1109.66C493.907 1110.52 503.899 1105.95 531.59 1090.82C563.849 1072.84 567.561 1071.12 570.986 1075.41C572.699 1077.98 574.412 1080.83 574.412 1081.97ZM472.781 1115.09C478.491 1117.37 478.776 1123.08 473.638 1127.36C470.497 1129.65 468.499 1129.08 464.217 1124.51C459.649 1119.66 459.649 1118.23 463.075 1116.23C468.213 1112.8 467.357 1113.09 472.781 1115.09ZM461.647 1130.22C461.647 1136.5 443.662 1146.49 439.665 1142.49C434.241 1137.07 444.804 1124.22 453.939 1125.37C458.222 1125.94 461.647 1127.93 461.647 1130.22ZM468.784 1141.92C468.784 1143.35 467.642 1144.78 466.215 1144.78C464.788 1144.78 461.076 1145.63 458.222 1146.49C453.654 1147.92 453.654 1147.63 458.507 1143.64C465.073 1138.5 468.784 1137.93 468.784 1141.92Z" fill="white"/>
<path d="M898.433 993.472C859.322 998.04 824.493 1016.6 812.789 1039.15C807.364 1050 804.795 1081.69 808.506 1097.67C810.79 1107.66 810.79 1112.23 808.792 1112.8C803.368 1114.52 805.366 1119.08 811.361 1119.08C814.501 1119.08 817.071 1119.94 817.071 1121.08C817.071 1122.51 821.353 1125.93 826.492 1128.79C859.893 1148.49 869.599 1153.34 875.023 1153.34C878.164 1153.34 879.876 1154.2 879.02 1155.34C877.878 1156.2 878.449 1158.77 879.876 1160.48C881.875 1163.05 878.735 1167.33 868.457 1175.89C851.328 1190.17 838.196 1196.16 823.066 1196.16C812.789 1196.16 811.647 1195.31 810.79 1188.46C809.648 1177.61 797.373 1171.04 787.381 1175.61C779.958 1179.03 779.673 1179.32 780.529 1205.3C781.1 1225.85 782.242 1231.56 785.382 1230.99C787.381 1230.71 790.807 1232.42 793.09 1235.27C796.802 1240.13 797.373 1240.13 801.369 1234.99C805.081 1229.85 805.937 1229.85 812.503 1234.42C818.213 1238.13 821.067 1238.41 826.492 1235.84C831.63 1233.56 835.056 1233.56 839.624 1235.84C846.19 1239.56 852.47 1237.56 849.901 1232.99C848.759 1231.56 851.328 1230.42 855.325 1230.42C859.322 1230.42 862.748 1229.28 862.748 1227.85C862.748 1226.42 865.888 1224.43 869.885 1223.57C873.881 1222.43 876.451 1220.43 875.594 1219C874.738 1217.29 876.451 1216.15 879.591 1216.15C882.731 1216.15 886.157 1214.72 887.013 1213.29C887.87 1211.58 887.299 1210.44 885.586 1210.44C883.873 1210.44 883.302 1209.01 884.159 1207.58C885.586 1205.3 887.299 1205.58 889.868 1207.58C892.152 1209.58 895.578 1209.87 897.291 1208.72C899.86 1207.3 899.289 1205.87 895.863 1203.01C891.296 1199.87 891.296 1199.3 896.72 1195.59C900.146 1193.31 901.858 1190.45 900.431 1189.03C899.289 1187.88 900.717 1187.6 903.571 1188.46C907.568 1189.88 909.281 1188.74 910.423 1184.46C911.565 1181.03 913.563 1179.32 916.132 1180.18C922.413 1182.75 926.41 1179.32 922.699 1174.75C920.415 1171.9 921.557 1169.61 928.123 1165.05C936.973 1158.48 941.255 1157.34 938.4 1161.91C936.116 1165.62 944.11 1168.76 948.392 1166.19C950.676 1164.76 950.676 1163.05 948.106 1160.19C944.395 1155.62 948.677 1154.77 953.245 1159.34C955.243 1161.33 957.527 1161.05 960.382 1157.91C962.951 1155.62 968.661 1152.77 972.943 1151.91C977.511 1151.06 979.509 1151.34 977.796 1152.2C972.087 1154.77 973.514 1159.05 980.08 1159.05C984.933 1159.05 985.504 1157.91 983.791 1152.77C982.078 1147.06 982.364 1146.77 986.361 1150.2C992.927 1155.34 1001.78 1152.2 996.923 1146.2C993.783 1142.49 994.64 1142.21 1002.35 1143.63C1011.2 1145.35 1014.91 1141.35 1007.77 1137.93C1005.77 1137.07 1007.49 1136.78 1011.48 1137.64C1020.33 1139.35 1023.76 1136.78 1019.76 1131.64C1017.48 1129.08 1018.91 1126.51 1024.33 1122.22C1028.61 1118.8 1033.18 1116.23 1034.61 1116.23C1036.03 1116.23 1036.61 1115.09 1035.46 1113.66C1034.61 1111.95 1035.18 1105.38 1036.61 1098.53C1041.17 1079.12 1035.75 1045.71 1026.33 1032.3C1005.77 1003.75 951.532 987.191 898.433 993.472ZM979.795 1008.03C992.927 1012.88 1002.63 1019.17 1013.48 1029.44C1027.76 1043.15 1028.33 1044.29 1028.33 1058.56C1028.33 1071.98 1027.18 1074.83 1016.91 1085.97C994.925 1109.95 959.811 1120.8 912.136 1118.23C879.591 1116.8 860.178 1111.38 841.051 1098.24C821.924 1085.4 815.643 1075.69 815.643 1059.42C815.643 1035.15 838.196 1014.6 877.022 1004.32C904.142 996.898 954.387 998.896 979.795 1008.03ZM861.606 1126.51C871.598 1147.35 858.18 1141.35 847.332 1119.94C841.337 1107.95 841.622 1107.09 849.33 1110.8C852.756 1112.52 858.18 1119.65 861.606 1126.51ZM1014.05 1117.66C1007.2 1125.08 977.511 1140.49 974.941 1138.21C974.37 1137.35 980.651 1133.64 988.93 1129.65C997.209 1125.65 1007.2 1119.37 1011.2 1115.37C1020.33 1106.24 1022.9 1108.24 1014.05 1117.66ZM891.296 1123.65C919.844 1127.08 919.558 1126.79 906.997 1137.64C900.717 1143.06 893.58 1147.35 891.01 1147.63C886.157 1147.63 873.881 1135.36 868.457 1125.08C865.031 1118.8 865.317 1118.23 871.598 1120.23C875.309 1121.08 884.159 1122.79 891.296 1123.65ZM945.537 1137.07C945.537 1148.49 944.966 1149.63 934.974 1153.06C928.979 1155.34 912.421 1168.76 894.436 1186.17C877.593 1202.16 860.178 1217.29 855.325 1219.86C842.193 1226.71 827.063 1228.42 815.929 1224.71C806.793 1221.86 805.652 1220.43 805.652 1211.29C805.652 1203.59 806.793 1201.59 810.505 1202.44C813.074 1203.01 816.214 1206.44 817.356 1210.44C819.355 1217.29 819.355 1217.29 819.64 1211.01C819.926 1202.16 828.49 1202.73 828.49 1211.86C828.49 1215.86 829.917 1219 831.345 1219C833.058 1219 834.2 1215 834.2 1210.44C834.2 1201.02 841.337 1198.16 843.62 1206.73C844.762 1210.72 845.048 1210.44 845.333 1205.87C845.619 1198.16 854.183 1194.16 854.469 1201.3C854.754 1204.44 855.611 1203.59 856.753 1199.3C859.322 1189.88 864.746 1188.46 866.459 1196.73C867.315 1201.87 867.886 1201.3 868.172 1194.16C868.457 1186.17 874.167 1177.04 874.167 1184.46C874.167 1186.17 875.594 1187.6 877.022 1187.6C878.735 1187.6 879.876 1185.31 879.305 1182.46C878.735 1179.32 880.162 1177.61 883.588 1177.89C887.013 1178.18 888.441 1176.46 888.441 1171.61C888.441 1168.19 889.868 1164.19 891.296 1163.33C893.009 1162.48 894.15 1164.47 894.15 1168.19C894.15 1173.32 894.721 1173.9 897.005 1170.47C898.433 1168.19 899.86 1163.05 900.146 1159.05C900.146 1155.05 901.002 1153.63 901.858 1155.34C904.142 1161.62 908.424 1159.34 908.424 1152.2C908.424 1148.2 909.852 1144.21 911.279 1143.35C912.992 1142.49 914.134 1143.92 914.134 1146.49C914.134 1152.77 918.702 1148.49 920.7 1140.49C921.842 1135.36 922.128 1135.36 922.413 1141.07C922.984 1150.77 928.408 1149.06 928.408 1139.35C928.408 1134.5 929.836 1129.93 931.263 1129.08C932.976 1127.93 934.118 1130.5 934.118 1134.78C934.118 1139.07 935.26 1141.64 936.973 1140.49C938.685 1139.64 939.827 1135.64 939.827 1131.64C939.827 1127.93 941.255 1124.79 942.682 1124.79C944.395 1124.79 945.537 1130.22 945.537 1137.07ZM795.66 1187.88C798.229 1191.88 799.085 1222.14 796.516 1223.57C795.66 1224.14 792.805 1223.85 790.236 1223C783.955 1220.71 783.384 1184.74 789.665 1184.74C791.948 1184.74 794.803 1186.17 795.66 1187.88Z" fill="white"/>
<path d="M894.151 1014.31C837.911 1027.16 823.352 1069.98 867.601 1093.96C919.273 1121.94 1002.63 1100.53 1002.63 1059.13C1002.63 1043.72 987.788 1027.16 966.948 1019.45C947.25 1012.03 914.42 1009.74 894.151 1014.31ZM954.102 1022.3C970.945 1026.59 986.647 1037.44 992.642 1048.28C997.78 1058.28 998.066 1059.13 993.498 1068.84C986.647 1082.83 970.374 1092.82 945.823 1097.67C911.28 1105.09 873.882 1096.24 857.324 1077.4C846.19 1065.13 845.905 1053.99 855.896 1042C874.167 1020.59 915.847 1012.03 954.102 1022.3Z" fill="white"/>
<path d="M894.151 1027.44C863.604 1038.29 854.183 1059.7 872.169 1077.69C899.004 1104.52 962.38 1099.67 978.367 1069.69L984.077 1059.13L978.367 1048.57C966.377 1026.59 925.553 1016.31 894.151 1027.44ZM925.553 1034.87C921.842 1038.86 918.131 1041.15 917.275 1040.29C916.418 1039.43 918.702 1036.29 922.413 1033.15C931.834 1025.44 933.547 1026.3 925.553 1034.87ZM891.296 1035.44C891.296 1036.86 888.441 1040.86 885.301 1044.86L879.591 1051.99L884.159 1042.57C888.441 1034.01 891.296 1030.87 891.296 1035.44ZM957.813 1054.56C972.372 1061.7 974.085 1067.12 964.664 1075.12C953.816 1084.25 935.831 1088.54 914.991 1086.82C885.301 1084.54 865.603 1069.69 878.164 1059.13C893.294 1046.86 936.687 1044.29 957.813 1054.56Z" fill="white"/>
</svg>
