<svg width="1823" height="1397" viewBox="0 0 1823 1397" fill="none" xmlns="http://www.w3.org/2000/svg">
<path d="M1762.32 1204H970.676C956.519 1204 945 1192.49 945 1178.33V25.6642C945 11.5121 956.519 0 970.676 0H1762.32C1776.48 0 1788 11.5121 1788 25.6642V1178.33C1788 1192.49 1776.48 1204 1762.32 1204ZM970.676 1.09456C957.122 1.09456 946.095 12.1172 946.095 25.6642V1178.33C946.095 1191.88 957.122 1202.91 970.676 1202.91H1762.32C1775.88 1202.91 1786.91 1191.88 1786.91 1178.33V25.6642C1786.91 12.1172 1775.88 1.09456 1762.32 1.09456H970.676Z" fill="black"/>
<path d="M849.354 1204H58.6436C44.5028 1204 33 1192.49 33 1178.33V25.6642C33 11.5121 44.5028 0 58.6436 0H849.354C863.495 0 875 11.5121 875 25.6642V1178.33C875 1192.49 863.495 1204 849.354 1204ZM58.6436 1.09456C45.1074 1.09456 34.0937 12.1172 34.0937 25.6642V1178.33C34.0937 1191.88 45.1074 1202.91 58.6436 1202.91H849.354C862.893 1202.91 873.906 1191.88 873.906 1178.33V25.6642C873.906 12.1172 862.893 1.09456 849.354 1.09456H58.6436Z" fill="black"/>
<path d="M1823 1225.3H0V1226.21H1823V1225.3Z" fill="black"/>
<path d="M246.952 1277.31H188.397V1278.22H246.952V1277.31Z" fill="black"/>
<path d="M816.275 1267.43H621.105V1268.34H816.275V1267.43Z" fill="#E0E0E0"/>
<path d="M382.766 1311.18H250.598V1312.09H382.766V1311.18Z" fill="black"/>
<path d="M1536.94 1266.95H1379.47V1267.86H1536.94V1266.95Z" fill="black"/>
<path d="M1592.51 1266.95H1569.43V1267.86H1592.51V1266.95Z" fill="black"/>
<path d="M1349.39 1289.67H1152.91V1290.58H1349.39V1289.67Z" fill="black"/>
<path d="M690.272 1060.66C688.008 1049.73 683.681 1039.58 677.762 1030.56L688.537 1017.55L665.501 994.511L652.485 1005.28C643.467 999.369 633.314 995.039 622.394 992.776L620.814 976H588.236L586.655 992.776C575.735 995.04 565.581 999.369 556.564 1005.28L543.549 994.511L520.512 1017.55L531.286 1030.56C525.368 1039.58 521.041 1049.73 518.776 1060.66L502 1062.24V1094.81L518.776 1096.39C521.041 1107.31 525.368 1117.47 531.286 1126.48L520.512 1139.5L543.549 1162.54L556.564 1151.76C565.581 1157.68 575.735 1162.01 586.655 1164.27L588.236 1181.05H620.814L622.394 1164.27C633.314 1162.01 643.467 1157.68 652.485 1151.76L665.501 1162.54L688.537 1139.5L677.762 1126.49C683.681 1117.47 688.008 1107.31 690.272 1096.39L707.047 1094.81V1062.24L690.272 1060.66ZM648.628 1078.52C648.628 1102.88 628.882 1122.63 604.524 1122.63C580.167 1122.63 560.421 1102.88 560.421 1078.52C560.421 1054.17 580.167 1034.42 604.524 1034.42C628.882 1034.42 648.628 1054.17 648.628 1078.52Z" fill="#E0E0E0"/>
<path d="M366.364 655.617C364.796 648.055 361.8 641.024 357.702 634.781L365.162 625.769L349.212 609.817L340.199 617.277C333.955 613.181 326.925 610.183 319.364 608.616L318.269 597H295.711L294.617 608.616C287.056 610.184 280.024 613.181 273.781 617.277L264.769 609.817L248.818 625.769L256.278 634.781C252.181 641.024 249.184 648.055 247.616 655.617L236 656.712V679.269L247.616 680.364C249.184 687.925 252.181 694.955 256.278 701.199L248.818 710.211L264.769 726.162L273.781 718.701C280.024 722.8 287.056 725.796 294.617 727.363L295.711 738.98H318.269L319.364 727.365C326.925 725.798 333.955 722.8 340.199 718.701L349.212 726.162L365.162 710.211L357.702 701.2C361.8 694.955 364.796 687.925 366.364 680.364L377.979 679.269V656.712L366.364 655.617ZM337.528 667.99C337.528 684.855 323.856 698.528 306.99 698.528C290.124 698.528 276.452 684.855 276.452 667.99C276.452 651.124 290.124 637.452 306.99 637.452C323.856 637.452 337.528 651.124 337.528 667.99Z" fill="#E0E0E0"/>
<path d="M1446 301.75V220H1496.12V300.267C1496.12 322.988 1504.82 331.478 1518.84 331.478C1532.85 331.478 1541.56 322.988 1541.56 300.267V220H1590.82V301.75C1590.82 346.342 1564.07 372.039 1518.41 372.039C1472.76 372.039 1446 346.342 1446 301.75Z" fill="black"/>
<path d="M1613.76 220H1663.87V368.64H1613.76V220Z" fill="black"/>
<path d="M96 176.779V63H165.743V174.708C165.743 206.333 177.859 218.149 197.362 218.149C216.867 218.149 228.983 206.333 228.983 174.708V63H297.546V176.779C297.546 238.835 260.311 274.598 196.773 274.598C133.235 274.598 96 238.835 96 176.779Z" fill="black"/>
<path d="M457.434 269.868L421.674 214.603L386.804 269.868H307.306L382.074 165.549L309.966 63H388.279L423.447 115.014L457.728 63H532.793L460.979 162.89L537.226 269.868H457.434Z" fill="black"/>
<path d="M1514.2 557.033C1512.27 547.74 1508.59 539.1 1503.56 531.427L1512.72 520.353L1493.12 500.751L1482.05 509.918C1474.37 504.884 1465.73 501.201 1456.44 499.274L1455.1 485H1427.38L1426.03 499.274C1416.74 501.201 1408.1 504.884 1400.43 509.918L1389.35 500.751L1369.75 520.353L1378.92 531.428C1373.88 539.1 1370.2 547.74 1368.27 557.033L1354 558.379V586.098L1368.27 587.444C1370.2 596.735 1373.88 605.373 1378.92 613.047L1369.75 624.122L1389.35 643.724L1400.43 634.555C1408.1 639.592 1416.74 643.273 1426.03 645.2L1427.38 659.475H1455.1L1456.44 645.201C1465.73 643.275 1474.37 639.592 1482.05 634.555L1493.12 643.724L1512.72 624.122L1503.56 613.048C1508.59 605.373 1512.27 596.735 1514.2 587.444L1528.47 586.098V558.379L1514.2 557.033ZM1478.77 572.238C1478.77 592.963 1461.96 609.765 1441.24 609.765C1420.51 609.765 1403.71 592.963 1403.71 572.238C1403.71 551.512 1420.51 534.71 1441.24 534.71C1461.96 534.71 1478.77 551.512 1478.77 572.238Z" fill="black"/>
<path opacity="0.8" d="M1514.2 557.033C1512.27 547.74 1508.59 539.1 1503.56 531.427L1512.72 520.353L1493.12 500.751L1482.05 509.918C1474.37 504.884 1465.73 501.201 1456.44 499.274L1455.1 485H1427.38L1426.03 499.274C1416.74 501.201 1408.1 504.884 1400.43 509.918L1389.35 500.751L1369.75 520.353L1378.92 531.428C1373.88 539.1 1370.2 547.74 1368.27 557.033L1354 558.379V586.098L1368.27 587.444C1370.2 596.735 1373.88 605.373 1378.92 613.047L1369.75 624.122L1389.35 643.724L1400.43 634.555C1408.1 639.592 1416.74 643.273 1426.03 645.2L1427.38 659.475H1455.1L1456.44 645.201C1465.73 643.275 1474.37 639.592 1482.05 634.555L1493.12 643.724L1512.72 624.122L1503.56 613.048C1508.59 605.373 1512.27 596.735 1514.2 587.444L1528.47 586.098V558.379L1514.2 557.033ZM1478.77 572.238C1478.77 592.963 1461.96 609.765 1441.24 609.765C1420.51 609.765 1403.71 592.963 1403.71 572.238C1403.71 551.512 1420.51 534.71 1441.24 534.71C1461.96 534.71 1478.77 551.512 1478.77 572.238Z" fill="#D7D7D7"/>
<path opacity="0.8" d="M659.754 454.624C657.545 443.965 653.321 434.055 647.545 425.253L658.061 412.551L635.578 390.067L622.874 400.582C614.073 394.808 604.163 390.583 593.505 388.373L591.963 372H560.166L558.623 388.373C547.965 390.583 538.055 394.808 529.255 400.582L516.552 390.067L494.067 412.551L504.583 425.255C498.807 434.055 494.584 443.965 492.373 454.624L476 456.168V487.962L492.373 489.506C494.584 500.164 498.807 510.072 504.583 518.874L494.067 531.577L516.552 554.061L529.255 543.543C538.055 549.321 547.965 553.544 558.623 555.754L560.166 572.127H591.963L593.505 555.755C604.163 553.546 614.073 549.321 622.874 543.543L635.578 554.061L658.061 531.577L647.545 518.875C653.321 510.072 657.545 500.164 659.754 489.506L676.126 487.962V456.168L659.754 454.624ZM619.109 472.064C619.109 495.836 599.838 515.109 576.064 515.109C552.29 515.109 533.019 495.836 533.019 472.064C533.019 448.292 552.291 429.019 576.064 429.019C599.837 429.019 619.109 448.291 619.109 472.064Z" fill="#D7D7D7"/>
<path d="M1368.41 92.4418C1367.03 85.8053 1364.4 79.6352 1360.8 74.1556L1367.35 66.2471L1353.35 52.2483L1345.44 58.795C1339.96 55.2001 1333.79 52.5695 1327.16 51.1938L1326.2 41H1306.4L1305.44 51.1938C1298.81 52.5698 1292.64 55.2001 1287.16 58.795L1279.25 52.2483L1265.25 66.2471L1271.8 74.1564C1268.2 79.6352 1265.57 85.8053 1264.19 92.4418L1254 93.4029V113.198L1264.19 114.16C1265.57 120.795 1268.2 126.964 1271.8 132.444L1265.25 140.353L1279.25 154.352L1287.16 147.803C1292.64 151.401 1298.81 154.03 1305.44 155.406L1306.4 165.6H1326.2L1327.16 155.407C1333.79 154.031 1339.96 151.401 1345.44 147.803L1353.35 154.352L1367.35 140.353L1360.8 132.445C1364.4 126.964 1367.03 120.795 1368.41 114.16L1378.6 113.198V93.4029L1368.41 92.4418ZM1343.1 103.3C1343.1 118.101 1331.1 130.1 1316.3 130.1C1301.5 130.1 1289.5 118.101 1289.5 103.3C1289.5 88.4997 1301.5 76.5 1316.3 76.5C1331.1 76.5 1343.1 88.499 1343.1 103.3Z" fill="#8E8E8E"/>
<path d="M707.804 152.906H1115.2C1171.96 152.906 1218.05 198.995 1218.05 255.763V1318.61C1218.05 1361.87 1182.94 1396.98 1139.68 1396.98H671.717C634.866 1396.98 604.948 1367.07 604.948 1330.21V255.763C604.948 198.995 651.036 152.906 707.804 152.906Z" fill="black"/>
<path d="M1117.9 182.164H705.095C663.46 182.164 629.708 215.916 629.708 257.551V1292.34C629.708 1333.97 663.46 1367.72 705.095 1367.72H1117.9C1159.54 1367.72 1193.29 1333.97 1193.29 1292.34V257.551C1193.29 215.916 1159.54 182.164 1117.9 182.164Z" fill="white"/>
<path d="M1018.59 237.449H786.719V251.944H1018.59V237.449Z" stroke="black" stroke-miterlimit="10"/>
<path d="M1106.1 228.867C1106.1 231.964 1103.62 234.474 1100.56 234.474C1097.49 234.474 1095.01 231.964 1095.01 228.867C1095.01 225.772 1097.49 223.262 1100.56 223.262C1103.62 223.262 1106.1 225.772 1106.1 228.867Z" fill="black"/>
<path d="M1106.1 243.13C1106.1 246.225 1103.62 248.735 1100.56 248.735C1097.49 248.735 1095.01 246.225 1095.01 243.13C1095.01 240.033 1097.49 237.523 1100.56 237.523C1103.62 237.523 1106.1 240.033 1106.1 243.13Z" fill="black"/>
<path d="M1106.1 257.391C1106.1 260.487 1103.62 262.997 1100.56 262.997C1097.49 262.997 1095.01 260.487 1095.01 257.391C1095.01 254.295 1097.49 251.785 1100.56 251.785C1103.62 251.785 1106.1 254.295 1106.1 257.391Z" fill="black"/>
<path d="M722.473 232.793L711.846 243L722.473 253.465" stroke="black" stroke-linecap="round" stroke-linejoin="round"/>
<path d="M1147.9 341.773H676.832V425.024H1147.9V341.773Z" stroke="black" stroke-miterlimit="10"/>
<path d="M629.534 299.777H1195.83" stroke="black" stroke-miterlimit="10"/>
<path d="M1147.9 464.984H676.832V703.117H1147.9V464.984Z" stroke="black" stroke-miterlimit="10"/>
<path d="M676.832 703.116L825.158 583.501C830.452 579.232 837.823 578.761 843.607 582.323L920.822 629.874L1021.71 551.931C1027.6 547.379 1035.67 547.002 1041.95 550.986L1147.9 618.168" stroke="black" stroke-miterlimit="10"/>
<path d="M917.877 564.795C934.171 564.795 947.38 551.45 947.38 534.989C947.38 518.528 934.171 505.184 917.877 505.184C901.583 505.184 888.375 518.528 888.375 534.989C888.375 551.45 901.583 564.795 917.877 564.795Z" stroke="black" stroke-miterlimit="10"/>
<path d="M781.556 739.012H676.832V763.224H781.556V739.012Z" stroke="black" stroke-miterlimit="10"/>
<path d="M1147.9 791.473H676.832V807.614H1147.9V791.473Z" stroke="black" stroke-miterlimit="10"/>
<path d="M1147.9 827.793H676.832V843.935H1147.9V827.793Z" stroke="black" stroke-miterlimit="10"/>
<path d="M886.819 864.109H676.832V880.251H886.819V864.109Z" stroke="black" stroke-miterlimit="10"/>
<path d="M1147.9 1159.71H676.832V1175.85H1147.9V1159.71Z" stroke="black" stroke-miterlimit="10"/>
<path d="M1147.9 1196.02H676.832V1212.17H1147.9V1196.02Z" stroke="black" stroke-miterlimit="10"/>
<path d="M886.819 1232.34H676.832V1248.49H886.819V1232.34Z" stroke="black" stroke-miterlimit="10"/>
<path d="M875.691 917.004H676.732V1118.01H875.691V917.004Z" stroke="black" stroke-miterlimit="10"/>
<path d="M676.732 1118.01L875.691 917.004" stroke="black" stroke-miterlimit="10"/>
<path d="M875.038 1118.01L676.079 917.004" stroke="black" stroke-miterlimit="10"/>
<path d="M1138.42 918.832H939.461V1119.83H1138.42V918.832Z" stroke="black" stroke-miterlimit="10"/>
<path d="M939.461 1119.83L1138.42 918.832" stroke="black" stroke-miterlimit="10"/>
<path d="M1137.77 1119.83L938.807 918.832" stroke="black" stroke-miterlimit="10"/>
</svg>
