<svg width="407" height="375" viewBox="0 0 407 375" fill="none" xmlns="http://www.w3.org/2000/svg">
<path d="M334.95 250.281L335.67 251.481C336.479 252.826 337.655 253.912 339.06 254.611L340.32 255.231L339.12 255.951C337.773 256.762 336.686 257.942 335.99 259.351L335.37 260.601L334.65 259.401C333.838 258.059 332.662 256.974 331.26 256.271L330 255.651L331.2 254.931C332.547 254.125 333.633 252.948 334.33 251.541L334.95 250.281Z" fill="black"/>
<path d="M362.74 116L363.46 117.2C364.27 118.547 365.45 119.634 366.86 120.33L368.11 120.95L366.91 121.67C365.568 122.479 364.485 123.656 363.79 125.06L363.17 126.32L362.45 125.12C361.64 123.773 360.459 122.686 359.05 121.99L357.8 121.37L358.99 120.65C360.334 119.841 361.42 118.665 362.12 117.26L362.74 116Z" fill="black"/>
<path d="M354.9 82L355.42 82.87C356.009 83.8538 356.87 84.6457 357.9 85.15L358.82 85.61L357.94 86.13C356.959 86.722 356.168 87.5826 355.66 88.61L355.21 89.53L354.68 88.65C354.088 87.6688 353.227 86.8776 352.2 86.37L351.29 85.92L352.16 85.39C353.144 84.8011 353.936 83.9397 354.44 82.91L354.9 82Z" fill="black"/>
<path d="M380.18 87.4219L380.48 87.9219C380.819 88.4819 381.312 88.933 381.9 89.2219L382.43 89.4819L381.93 89.7819C381.357 90.1151 380.895 90.6088 380.6 91.2019L380.34 91.7319L380.04 91.2319C379.703 90.6667 379.21 90.2116 378.62 89.9219L378.1 89.6619L378.6 89.3619C379.16 89.0224 379.611 88.5296 379.9 87.9419L380.18 87.4219Z" fill="black"/>
<path d="M361.49 231.379L361.79 231.889C362.129 232.449 362.622 232.9 363.21 233.189L363.73 233.449L363.23 233.749C362.667 234.088 362.212 234.58 361.92 235.169L361.66 235.699L361.36 235.189C361.02 234.629 360.528 234.178 359.94 233.889L359.42 233.629L359.92 233.329C360.483 232.99 360.937 232.497 361.23 231.909L361.49 231.379Z" fill="black"/>
<path d="M304.65 291.539C304.883 291.699 305.063 291.923 305.168 292.184C305.274 292.446 305.3 292.733 305.242 293.009C305.185 293.285 305.048 293.538 304.848 293.736C304.647 293.934 304.393 294.069 304.116 294.123C303.839 294.177 303.553 294.148 303.292 294.039C303.032 293.931 302.81 293.748 302.653 293.514C302.497 293.279 302.413 293.004 302.412 292.722C302.412 292.44 302.494 292.164 302.65 291.929C302.754 291.77 302.889 291.633 303.046 291.527C303.204 291.421 303.381 291.348 303.568 291.311C303.754 291.275 303.946 291.276 304.132 291.316C304.318 291.355 304.494 291.431 304.65 291.539Z" fill="#E0E0E0"/>
<path d="M375.08 232.448C375.136 232.726 375.108 233.013 375 233.275C374.893 233.537 374.71 233.761 374.475 233.918C374.24 234.076 373.963 234.16 373.68 234.161C373.397 234.161 373.12 234.078 372.885 233.921C372.649 233.764 372.466 233.54 372.357 233.279C372.249 233.017 372.22 232.73 372.275 232.452C372.331 232.175 372.467 231.92 372.667 231.719C372.867 231.519 373.122 231.383 373.4 231.328C373.771 231.254 374.156 231.331 374.471 231.541C374.786 231.751 375.005 232.077 375.08 232.448Z" fill="#E0E0E0"/>
<path d="M314.41 294.389C314.419 294.436 314.419 294.484 314.41 294.531C314.401 294.577 314.382 294.622 314.356 294.661C314.329 294.7 314.295 294.734 314.256 294.761C314.216 294.787 314.172 294.805 314.125 294.814C314.079 294.824 314.031 294.824 313.984 294.814C313.937 294.805 313.893 294.786 313.854 294.76C313.814 294.734 313.78 294.7 313.754 294.66C313.728 294.62 313.709 294.576 313.7 294.529C313.682 294.435 313.701 294.338 313.755 294.258C313.808 294.178 313.891 294.123 313.985 294.104C314.079 294.086 314.177 294.106 314.257 294.159C314.336 294.212 314.392 294.295 314.41 294.389Z" fill="#E0E0E0"/>
<path d="M314.22 253.628C314.238 253.722 314.219 253.82 314.165 253.9C314.112 253.979 314.029 254.035 313.935 254.053C313.841 254.072 313.743 254.052 313.663 253.999C313.584 253.945 313.529 253.862 313.51 253.768C313.5 253.721 313.499 253.672 313.509 253.624C313.518 253.577 313.536 253.532 313.563 253.491C313.591 253.451 313.625 253.417 313.666 253.391C313.707 253.364 313.752 253.346 313.8 253.338C313.847 253.329 313.894 253.33 313.941 253.34C313.987 253.35 314.031 253.369 314.07 253.396C314.109 253.423 314.143 253.457 314.168 253.497C314.194 253.537 314.212 253.581 314.22 253.628Z" fill="#E0E0E0"/>
<path d="M373.57 261.689C373.579 261.735 373.578 261.783 373.568 261.83C373.558 261.876 373.539 261.92 373.512 261.959C373.485 261.998 373.451 262.031 373.411 262.057C373.371 262.083 373.327 262.1 373.28 262.109C373.234 262.119 373.186 262.12 373.14 262.111C373.094 262.102 373.05 262.084 373.01 262.058C372.971 262.032 372.938 261.998 372.912 261.959C372.886 261.919 372.868 261.875 372.86 261.829C372.85 261.782 372.849 261.734 372.857 261.687C372.866 261.64 372.884 261.595 372.91 261.555C372.936 261.515 372.97 261.481 373.009 261.454C373.049 261.427 373.093 261.408 373.14 261.399C373.187 261.388 373.236 261.388 373.284 261.397C373.331 261.406 373.376 261.425 373.417 261.452C373.457 261.479 373.491 261.514 373.517 261.555C373.544 261.595 373.562 261.641 373.57 261.689Z" fill="#E0E0E0"/>
<path d="M375.22 244.109C375.23 244.155 375.231 244.202 375.222 244.249C375.214 244.295 375.196 244.339 375.169 244.378C375.143 244.417 375.109 244.451 375.07 244.477C375.031 244.503 374.986 244.52 374.94 244.529C374.893 244.539 374.845 244.54 374.798 244.531C374.751 244.522 374.706 244.505 374.666 244.479C374.626 244.453 374.592 244.419 374.565 244.379C374.538 244.34 374.519 244.295 374.51 244.249C374.5 244.201 374.499 244.152 374.509 244.105C374.518 244.057 374.536 244.012 374.563 243.972C374.591 243.932 374.625 243.897 374.666 243.871C374.707 243.845 374.752 243.827 374.8 243.819C374.847 243.81 374.894 243.811 374.941 243.82C374.987 243.83 375.031 243.849 375.07 243.876C375.109 243.903 375.143 243.938 375.168 243.977C375.194 244.017 375.212 244.062 375.22 244.109Z" fill="#E0E0E0"/>
<path d="M331.205 330.232L331.395 329.832L331.505 329.612C331.505 329.522 331.565 329.422 331.605 329.322C331.696 329.083 331.763 328.835 331.805 328.582C331.805 328.442 331.865 328.292 331.885 328.132V327.632C331.9 327.446 331.9 327.258 331.885 327.072C331.885 326.872 331.885 326.672 331.885 326.462C331.772 325.496 331.537 324.549 331.185 323.642C330.186 321.159 328.81 318.845 327.105 316.782C324.89 314.025 322.43 311.475 319.755 309.162C316.525 306.337 313.1 303.744 309.505 301.402C305.389 298.701 301.088 296.291 296.635 294.192C294.285 293.092 291.825 292.062 289.265 291.132C286.653 290.174 283.98 289.389 281.265 288.782C278.468 288.119 275.599 287.807 272.725 287.852C271.258 287.881 269.805 288.134 268.415 288.602C267.722 288.844 267.066 289.181 266.465 289.602C265.871 290.04 265.366 290.587 264.975 291.212C264.619 291.862 264.382 292.569 264.275 293.302C264.2 294.032 264.22 294.768 264.335 295.492C264.603 296.934 265.088 298.326 265.775 299.622C267.121 302.154 268.781 304.505 270.715 306.622C272.565 308.693 274.546 310.644 276.645 312.462C278.645 314.252 280.785 315.902 282.895 317.462C286.887 320.344 291.077 322.94 295.435 325.232C299.23 327.244 303.163 328.985 307.205 330.442C310.534 331.647 313.964 332.551 317.455 333.142C320.093 333.631 322.791 333.716 325.455 333.392C326.42 333.26 327.365 333.004 328.265 332.632C328.465 332.562 328.635 332.452 328.815 332.372C328.983 332.293 329.143 332.199 329.295 332.092L329.725 331.812L330.075 331.522C330.275 331.363 330.459 331.186 330.625 330.992C330.695 330.912 330.765 330.842 330.825 330.762L330.965 330.562L331.235 330.192L330.985 330.572L330.845 330.782L330.645 331.012C330.48 331.207 330.3 331.387 330.105 331.552L329.745 331.842L329.325 332.132C329.168 332.236 329.004 332.329 328.835 332.412C328.655 332.492 328.485 332.602 328.285 332.682C327.383 333.061 326.435 333.32 325.465 333.452C322.803 333.796 320.104 333.721 317.465 333.232C313.97 332.654 310.536 331.756 307.205 330.552C303.16 329.101 299.223 327.363 295.425 325.352C291.059 323.068 286.861 320.475 282.865 317.592C280.755 316.062 278.655 314.412 276.595 312.592C274.49 310.773 272.506 308.819 270.655 306.742C268.699 304.608 267.019 302.236 265.655 299.682C264.965 298.369 264.476 296.96 264.205 295.502C264.085 294.758 264.065 294.001 264.145 293.252C264.247 292.5 264.492 291.773 264.865 291.112C265.266 290.465 265.785 289.898 266.395 289.442C267.015 289.024 267.688 288.687 268.395 288.442C269.803 287.976 271.272 287.723 272.755 287.692C275.642 287.645 278.524 287.958 281.335 288.622C284.051 289.236 286.723 290.027 289.335 290.992C291.895 291.922 294.335 292.992 296.715 294.062C301.174 296.167 305.478 298.587 309.595 301.302C313.193 303.647 316.618 306.247 319.845 309.082C322.521 311.405 324.981 313.965 327.195 316.732C328.894 318.808 330.267 321.132 331.265 323.622C331.61 324.536 331.839 325.491 331.945 326.462C331.945 326.672 331.945 326.882 331.945 327.082C331.96 327.268 331.96 327.456 331.945 327.642C331.945 327.822 331.945 327.992 331.945 328.152C331.945 328.312 331.885 328.462 331.855 328.602C331.81 328.855 331.739 329.103 331.645 329.342C331.645 329.442 331.585 329.542 331.545 329.622L331.425 329.852L331.205 330.232Z" fill="#E0E0E0"/>
<path d="M336.625 303.059C336.625 303.059 336.575 302.919 336.495 302.629C336.495 302.559 336.495 302.479 336.425 302.389L336.315 302.109C336.222 301.873 336.108 301.646 335.975 301.429C335.895 301.309 335.825 301.169 335.735 301.039L335.425 300.639C335.316 300.488 335.192 300.347 335.055 300.219C334.922 300.066 334.778 299.923 334.625 299.789C333.893 299.138 333.079 298.583 332.205 298.139C329.81 296.955 327.246 296.145 324.605 295.739C321.112 295.161 317.575 294.896 314.035 294.949C309.747 294.98 305.466 295.314 301.225 295.949C296.356 296.67 291.544 297.732 286.825 299.129C284.335 299.879 281.825 300.739 279.285 301.749C276.705 302.771 274.193 303.956 271.765 305.299C269.234 306.67 266.883 308.35 264.765 310.299C263.694 311.299 262.778 312.451 262.045 313.719C261.698 314.366 261.435 315.055 261.265 315.769C261.102 316.492 261.092 317.24 261.235 317.967C261.378 318.694 261.671 319.383 262.095 319.989C262.527 320.586 263.034 321.124 263.605 321.589C264.763 322.489 266.051 323.207 267.425 323.719C270.124 324.713 272.935 325.368 275.795 325.669C278.553 325.983 281.329 326.12 284.105 326.079C286.825 326.079 289.485 325.889 292.105 325.619C296.997 325.134 301.849 324.306 306.625 323.139C310.794 322.096 314.884 320.759 318.865 319.139C322.157 317.84 325.323 316.244 328.325 314.369C330.613 312.987 332.674 311.26 334.435 309.249C335.071 308.514 335.606 307.697 336.025 306.819C336.116 306.634 336.196 306.444 336.265 306.249C336.337 306.08 336.397 305.907 336.445 305.729L336.575 305.229C336.575 305.079 336.625 304.919 336.645 304.779C336.69 304.529 336.706 304.274 336.695 304.019C336.7 303.92 336.7 303.819 336.695 303.719V303.469C336.695 303.179 336.645 303.019 336.645 303.019L336.705 303.469V303.719V304.019C336.733 304.272 336.733 304.527 336.705 304.779C336.705 304.929 336.705 305.079 336.645 305.239C336.585 305.399 336.555 305.559 336.515 305.739C336.467 305.92 336.407 306.097 336.335 306.269C336.27 306.464 336.193 306.654 336.105 306.839C335.683 307.719 335.152 308.542 334.525 309.289C332.764 311.316 330.7 313.056 328.405 314.449C325.405 316.334 322.238 317.941 318.945 319.249C314.96 320.868 310.867 322.204 306.695 323.249C301.911 324.446 297.049 325.304 292.145 325.819C289.555 326.089 286.895 326.249 284.145 326.279C281.362 326.331 278.579 326.194 275.815 325.869C272.939 325.56 270.113 324.888 267.405 323.869C266.014 323.349 264.709 322.62 263.535 321.709C262.949 321.235 262.431 320.684 261.995 320.069C261.569 319.439 261.267 318.733 261.105 317.989C260.965 317.243 260.965 316.476 261.105 315.729C261.279 314.997 261.548 314.291 261.905 313.629C262.642 312.341 263.569 311.171 264.655 310.159C266.772 308.209 269.123 306.529 271.655 305.159C274.092 303.822 276.614 302.646 279.205 301.639C281.735 300.639 284.265 299.759 286.755 299.019C291.49 297.621 296.319 296.561 301.205 295.849C305.452 295.208 309.74 294.874 314.035 294.849C317.579 294.8 321.121 295.074 324.615 295.669C327.265 296.084 329.835 296.904 332.235 298.099C333.106 298.551 333.916 299.112 334.645 299.769C334.805 299.899 334.935 300.069 335.075 300.199C335.204 300.335 335.324 300.479 335.435 300.629C335.545 300.769 335.655 300.909 335.745 301.039C335.835 301.169 335.905 301.309 335.985 301.439C336.119 301.654 336.23 301.882 336.315 302.119C336.357 302.214 336.394 302.311 336.425 302.409L336.495 302.649C336.585 302.919 336.625 303.059 336.625 303.059Z" fill="#E0E0E0"/>
<path d="M316.645 274.551L316.225 274.381L315.995 274.291L315.705 274.211C315.461 274.135 315.209 274.084 314.955 274.061L314.495 274.011H313.985C313.802 273.996 313.618 273.996 313.435 274.011C313.23 274.02 313.026 274.043 312.825 274.081C311.869 274.266 310.94 274.565 310.055 274.971C307.653 276.145 305.444 277.679 303.505 279.521C300.903 281.918 298.526 284.549 296.405 287.381C293.821 290.798 291.481 294.393 289.405 298.141C286.99 302.43 284.882 306.884 283.095 311.471C282.165 313.891 281.295 316.421 280.545 319.031C279.775 321.697 279.174 324.409 278.745 327.151C278.279 329.989 278.168 332.875 278.415 335.741C278.534 337.196 278.871 338.625 279.415 339.981C279.709 340.656 280.092 341.288 280.555 341.861C281.039 342.419 281.622 342.884 282.275 343.231C282.94 343.547 283.66 343.734 284.395 343.781C285.131 343.811 285.868 343.74 286.585 343.571C287.997 343.206 289.345 342.629 290.585 341.861C293.025 340.339 295.266 338.518 297.255 336.441C299.205 334.459 301.025 332.355 302.705 330.141C304.345 327.971 305.845 325.761 307.225 323.561C309.821 319.377 312.12 315.016 314.105 310.511C315.85 306.592 317.317 302.555 318.495 298.431C319.474 295.031 320.143 291.551 320.495 288.031C320.805 285.364 320.704 282.666 320.195 280.031C319.998 279.077 319.679 278.153 319.245 277.281C319.155 277.098 319.055 276.921 318.945 276.751C318.856 276.585 318.752 276.428 318.635 276.281L318.325 275.881C318.225 275.751 318.115 275.651 318.015 275.541C317.844 275.354 317.652 275.186 317.445 275.041C317.355 274.971 317.285 274.901 317.205 274.851L316.995 274.721L316.615 274.491L317.005 274.711L317.215 274.831C317.295 274.881 317.375 274.951 317.465 275.021C317.672 275.166 317.864 275.334 318.035 275.521C318.135 275.621 318.255 275.731 318.355 275.851L318.675 276.261C318.791 276.405 318.895 276.559 318.985 276.721C319.097 276.89 319.197 277.067 319.285 277.251C319.739 278.122 320.075 279.05 320.285 280.011C320.803 282.645 320.914 285.343 320.615 288.011C320.264 291.54 319.594 295.031 318.615 298.441C317.443 302.573 315.98 306.616 314.235 310.541C312.256 315.056 309.957 319.424 307.355 323.611C305.985 325.821 304.485 328.031 302.835 330.201C301.167 332.432 299.353 334.55 297.405 336.541C295.408 338.63 293.157 340.461 290.705 341.991C289.443 342.769 288.071 343.353 286.635 343.721C285.902 343.894 285.148 343.968 284.395 343.941C283.624 343.911 282.869 343.717 282.179 343.372C281.489 343.028 280.881 342.539 280.395 341.941C279.917 341.359 279.523 340.713 279.225 340.021C278.659 338.649 278.305 337.199 278.175 335.721C277.926 332.844 278.04 329.948 278.515 327.101C278.935 324.35 279.54 321.63 280.325 318.961C281.075 316.341 281.935 313.811 282.875 311.381C284.672 306.825 286.788 302.4 289.205 298.141C291.304 294.39 293.664 290.792 296.265 287.371C298.401 284.542 300.788 281.912 303.395 279.511C305.351 277.672 307.577 276.145 309.995 274.981C310.88 274.57 311.815 274.274 312.775 274.101C312.985 274.101 313.195 274.101 313.385 274.031C313.571 274.016 313.759 274.016 313.945 274.031H314.465L314.915 274.081C315.168 274.116 315.419 274.17 315.665 274.241L315.955 274.331L316.195 274.421L316.645 274.551Z" fill="#E0E0E0"/>
<path d="M305.013 313.678C306.772 310.267 305.433 306.075 302.022 304.316C298.61 302.557 294.418 303.896 292.659 307.307C290.9 310.719 292.239 314.911 295.651 316.67C299.062 318.429 303.254 317.09 305.013 313.678Z" fill="#E0E0E0"/>
<path d="M322.304 176.957L309.794 222.957L271.794 233.457C271.177 233.664 270.658 234.092 270.339 234.659C270.019 235.226 269.921 235.892 270.064 236.527L311.644 225.837L313.064 225.387L362.354 212.187L367.864 190.387L374.974 164.787C375.117 164.453 375.166 164.086 375.116 163.726C375.066 163.366 374.92 163.026 374.691 162.744C374.463 162.461 374.162 162.246 373.821 162.121C373.479 161.997 373.111 161.967 372.754 162.037L323.624 175.527C323.297 175.628 323.003 175.813 322.772 176.064C322.54 176.315 322.379 176.623 322.304 176.957Z" fill="black"/>
<path d="M324.864 178.445L313.484 220.365L358.144 208.105L368.134 166.785L324.864 178.445Z" fill="#FAFAFA"/>
<path d="M372.754 162.036C372.767 162.115 372.767 162.196 372.754 162.276C372.704 162.466 372.654 162.696 372.594 162.986C372.434 163.636 372.214 164.546 371.944 165.696C371.344 168.086 370.494 171.496 369.444 175.696C367.274 184.236 364.264 196.076 360.854 209.446V209.596H360.704L353.554 211.526L315.064 221.796L303.384 224.846L300.204 225.656L299.374 225.846L299.084 225.896C299.17 225.853 299.261 225.82 299.354 225.796L300.174 225.556L303.334 224.656L314.964 221.436L353.414 211.016L360.574 209.096L360.384 209.286C363.854 195.926 366.924 184.096 369.144 175.576C370.254 171.356 371.144 167.966 371.794 165.576C372.104 164.436 372.354 163.576 372.534 162.886C372.614 162.606 372.674 162.376 372.734 162.196C372.794 162.016 372.754 162.036 372.754 162.036Z" fill="#E0E0E0"/>
<path d="M48.7231 276.68L48.2031 278.07C48.0443 278.501 47.9774 278.96 48.0067 279.418C48.036 279.876 48.1608 280.323 48.3731 280.73L76.6631 334.88C76.8689 335.274 77.1521 335.623 77.4958 335.904C77.8395 336.186 78.2365 336.396 78.6631 336.52L80.2631 336.95C80.6239 337.052 80.9996 337.089 81.3731 337.06L114.373 334.46C115.161 334.396 115.899 334.049 116.451 333.483C117.002 332.917 117.33 332.17 117.373 331.38C117.404 330.783 117.273 330.189 116.993 329.66L86.9931 273.72C86.6923 273.161 86.2351 272.702 85.6775 272.398C85.12 272.095 84.486 271.96 83.8531 272.01L51.5731 274.56C50.9443 274.602 50.3408 274.824 49.8352 275.2C49.3296 275.576 48.9434 276.09 48.7231 276.68Z" fill="black"/>
<path d="M50.793 275.909L80.813 332.029L114.823 329.349L85.033 273.219L50.793 275.909Z" fill="white"/>
<path d="M84.2731 318.491C85.1845 318.119 86.1852 318.025 87.1499 318.22C88.1146 318.415 89.0003 318.89 89.6962 319.586C90.392 320.282 90.8669 321.168 91.0615 322.133C91.256 323.097 91.1616 324.098 90.7899 325.009C90.4182 325.921 89.7859 326.702 88.9721 327.255C88.1583 327.809 87.1993 328.11 86.2152 328.121C85.2311 328.132 84.2657 327.852 83.4399 327.316C82.6142 326.781 81.9648 326.014 81.5731 325.111C81.3081 324.5 81.1678 323.842 81.1605 323.176C81.1531 322.51 81.2789 321.85 81.5304 321.233C81.7819 320.616 82.1541 320.056 82.6251 319.585C83.0961 319.114 83.6564 318.742 84.2731 318.491Z" fill="black"/>
<path d="M86.303 320.77L86.173 321.68C86.1627 321.734 86.1722 321.79 86.1997 321.838C86.2273 321.885 86.271 321.922 86.323 321.94L86.493 322.01C86.493 322.01 86.803 322.1 86.703 322.38C86.603 322.66 86.123 323.83 86.123 323.83C86.123 323.83 85.993 324.17 85.743 324.05L85.493 323.95C85.4491 323.935 85.4018 323.934 85.3572 323.946C85.3126 323.959 85.2728 323.984 85.243 324.02L84.613 324.81C84.5797 324.851 84.5615 324.902 84.5615 324.955C84.5615 325.008 84.5797 325.059 84.613 325.1L84.853 325.32C84.892 325.367 84.9442 325.402 85.003 325.42C85.1597 325.466 85.3263 325.466 85.483 325.42C85.9196 325.166 86.3 324.826 86.6009 324.42C86.9017 324.014 87.1168 323.552 87.233 323.06C87.773 321.49 87.233 320.9 87.143 320.75C87.0324 320.632 86.8835 320.558 86.723 320.54H86.573C86.5401 320.537 86.5071 320.541 86.4757 320.551C86.4443 320.561 86.4152 320.577 86.3901 320.599C86.365 320.62 86.3444 320.646 86.3295 320.676C86.3145 320.705 86.3055 320.737 86.303 320.77Z" fill="white"/>
<path d="M97.4732 324.91C96.731 324.263 96.1964 323.411 95.9363 322.461C95.6763 321.512 95.7024 320.506 96.0114 319.571C96.3205 318.637 96.8986 317.814 97.6734 317.206C98.4482 316.599 99.3852 316.233 100.367 316.156C101.348 316.079 102.331 316.293 103.191 316.772C104.051 317.251 104.751 317.973 105.202 318.848C105.654 319.724 105.837 320.712 105.728 321.691C105.62 322.67 105.225 323.594 104.593 324.35C104.166 324.86 103.642 325.279 103.051 325.584C102.46 325.889 101.814 326.073 101.151 326.125C100.488 326.177 99.821 326.097 99.1895 325.888C98.558 325.679 97.9745 325.347 97.4732 324.91Z" fill="#E0E0E0"/>
<path d="M98.5733 322.079L99.4533 321.789C99.506 321.773 99.5516 321.74 99.5826 321.694C99.6135 321.649 99.6279 321.594 99.6233 321.539V321.359C99.6144 321.32 99.6134 321.28 99.6202 321.241C99.627 321.202 99.6416 321.165 99.663 321.131C99.6844 321.098 99.7122 321.069 99.7449 321.046C99.7775 321.023 99.8144 321.007 99.8533 320.999C100.063 320.999 101.413 320.879 101.413 320.879C101.413 320.879 101.773 320.879 101.783 321.129V321.389C101.787 321.435 101.805 321.479 101.836 321.513C101.867 321.547 101.908 321.571 101.953 321.579L102.953 321.799C103.005 321.81 103.058 321.801 103.104 321.775C103.15 321.75 103.185 321.708 103.203 321.659L103.303 321.349C103.318 321.29 103.318 321.228 103.303 321.169C103.272 321.012 103.203 320.864 103.103 320.739C102.682 320.457 102.207 320.265 101.708 320.174C101.209 320.083 100.697 320.095 100.203 320.209C98.5633 320.419 98.2033 321.149 98.2033 321.319C98.1536 321.472 98.1536 321.636 98.2033 321.789L98.2933 321.949C98.3186 321.999 98.36 322.039 98.4108 322.063C98.4616 322.086 98.5188 322.092 98.5733 322.079Z" fill="white"/>
<path d="M82.9528 296.869C84.2228 295.979 84.6028 294.189 83.7328 292.269C82.6028 289.759 79.7328 287.999 77.3928 288.329C75.0528 288.659 74.0428 290.979 75.1828 293.479C75.6248 294.427 76.2737 295.264 77.0819 295.929C77.89 296.594 78.8369 297.068 79.8528 297.319C73.7428 299.319 77.3228 306.319 77.3228 306.319L94.0628 305.009C94.0628 305.009 89.9028 296.889 82.9528 296.869Z" fill="#878787"/>
<path d="M102.703 310.718C102.703 310.988 96.7027 311.668 89.2527 312.258C81.8027 312.848 75.7427 313.108 75.7227 312.848C75.7027 312.588 81.7227 311.848 89.1727 311.308C96.6227 310.768 102.683 310.458 102.703 310.718Z" fill="#878787"/>
<path d="M40.1196 329.379L41.2096 331.199C42.4314 333.262 44.2232 334.929 46.3696 335.999L48.2796 336.939L46.4596 337.999C44.412 339.225 42.7625 341.017 41.7096 343.159L40.7596 345.059L39.6696 343.239C38.4377 341.196 36.6473 339.548 34.5096 338.489L32.5996 337.549L34.4296 336.449C36.4697 335.218 38.1173 333.432 39.1796 331.299L40.1196 329.379Z" fill="#EBEBEB"/>
<path d="M344.52 0L345.61 1.82C346.842 3.86295 348.632 5.51105 350.77 6.57L352.67 7.51L350.85 8.6C348.807 9.83191 347.159 11.6223 346.1 13.76L345.16 15.67L344.07 13.85C342.844 11.8024 341.052 10.1528 338.91 9.1L337 8.16L338.82 7.06C340.868 5.83382 342.517 4.0419 343.57 1.9L344.52 0Z" fill="#EBEBEB"/>
<path d="M357.05 28.25L358 29.83C359.069 31.6053 360.623 33.0381 362.48 33.96L364.14 34.78L362.56 35.78C360.781 36.8504 359.348 38.4088 358.43 40.27L357.61 41.92L356.67 40.29C355.599 38.5119 354.041 37.0784 352.18 36.16L350.52 35.39L352.1 34.39C353.875 33.3205 355.308 31.7662 356.23 29.91L357.05 28.25Z" fill="#EBEBEB"/>
<path d="M19.0004 308.809L19.7704 310.099C20.641 311.544 21.9076 312.71 23.4204 313.459L24.7704 314.129L23.4804 314.899C22.0346 315.769 20.8686 317.036 20.1204 318.549L19.4504 319.899L18.6804 318.609C17.7991 317.161 16.5223 315.995 15.0004 315.249L13.6504 314.579L14.9404 313.809C16.3862 312.938 17.5522 311.671 18.3004 310.159L19.0004 308.809Z" fill="#EBEBEB"/>
<path d="M349.79 322.93L350.57 324.22C351.435 325.67 352.703 326.838 354.22 327.58L355.56 328.25L354.27 329.03C352.827 329.899 351.661 331.162 350.91 332.67L350.25 334.02L349.47 332.73C348.599 331.284 347.332 330.118 345.82 329.37L344.47 328.71L345.76 327.93C347.21 327.065 348.378 325.797 349.12 324.28L349.79 322.93Z" fill="#EBEBEB"/>
<path d="M91.33 42L92.1 43.29C92.9706 44.7358 94.2372 45.9018 95.75 46.65L97.1 47.32L95.81 48.09C94.3599 48.9686 93.1935 50.2462 92.45 51.77L91.78 53.12L91 51.77C90.1268 50.3263 88.8609 49.161 87.35 48.41L86 47.77L87.29 46.99C88.7337 46.1168 89.8991 44.8509 90.65 43.34L91.33 42Z" fill="#EBEBEB"/>
<path d="M393.71 189.621L394.49 190.911C395.358 192.359 396.626 193.526 398.14 194.271L399.49 194.941L398.2 195.711C396.752 196.579 395.585 197.846 394.84 199.361L394.17 200.711L393.39 199.421C392.521 197.978 391.258 196.813 389.75 196.061L388.4 195.401L389.69 194.621C391.134 193.748 392.299 192.482 393.05 190.971L393.71 189.621Z" fill="#EBEBEB"/>
<path d="M5.99973 47.1602L6.77972 48.4402C7.6445 49.8907 8.91274 51.0581 10.4297 51.8002L11.7697 52.4702L10.4897 53.2502C9.03922 54.1149 7.87174 55.3832 7.12973 56.9001L6.45972 58.2402L5.70972 57.0002C4.83915 55.5544 3.57249 54.3883 2.05973 53.6402L0.719727 52.9801L1.99973 52.2001C3.45065 51.3328 4.62072 50.0656 5.36972 48.5502L5.99973 47.1602Z" fill="#EBEBEB"/>
<path d="M406.88 373.998C406.88 374.138 318.14 374.258 208.71 374.258C99.2795 374.258 10.5195 374.108 10.5195 373.998C10.5195 373.888 99.2295 373.738 208.71 373.738C318.19 373.738 406.88 373.818 406.88 373.998Z" fill="#263238"/>
<path d="M146.15 98.2695L146.87 99.4695C147.677 100.816 148.854 101.903 150.26 102.6L151.52 103.22L150.32 103.94C148.984 104.733 147.899 105.887 147.19 107.27L146.57 108.53L145.85 107.33C145.04 105.982 143.86 104.896 142.45 104.2L141.2 103.58L142.4 102.86C143.742 102.05 144.825 100.874 145.52 99.4695L146.15 98.2695Z" fill="black"/>
<path d="M184.36 87L184.66 87.5C185 88.06 185.492 88.5111 186.08 88.8L186.61 89.06L186.11 89.37C185.542 89.7007 185.083 90.1909 184.79 90.78L184.53 91.31L184.23 90.81C183.886 90.2442 183.386 89.7894 182.79 89.5L182.29 89.27L182.8 88.97C183.36 88.6305 183.811 88.1377 184.1 87.55L184.36 87Z" fill="black"/>
<path d="M127.09 112.531L127.39 113.031C127.724 113.591 128.209 114.046 128.79 114.341L129.31 114.601L128.81 114.901C128.25 115.241 127.799 115.734 127.51 116.321L127.25 116.841L126.94 116.341C126.605 115.779 126.116 115.324 125.53 115.031L125 114.771L125.5 114.471C126.058 114.132 126.506 113.639 126.79 113.051L127.09 112.531Z" fill="black"/>
<path d="M165.89 74.6063C159.05 70.6863 151.89 67.1163 144.2 65.4163C143.133 65.1243 142.021 65.0294 140.92 65.1363C140.37 65.1995 139.844 65.3919 139.383 65.6978C138.923 66.0037 138.541 66.4144 138.27 66.8963C137.61 68.2663 138.27 69.8963 139.08 71.1663C140.93 73.9663 143.7 75.9963 146.49 77.8463C154.14 82.9163 162.35 87.0463 170.49 91.1663C169.49 85.3263 167.41 80.3163 165.84 74.6063" fill="#999999"/>
<path d="M218.33 89.6761C220.57 97.2361 223.26 104.756 227.64 111.306C228.212 112.257 228.954 113.095 229.83 113.776C230.268 114.114 230.782 114.342 231.326 114.439C231.871 114.537 232.432 114.501 232.96 114.336C234.38 113.806 235.06 112.186 235.32 110.696C235.92 107.396 235.32 104.006 234.59 100.746C232.59 91.7461 229.49 83.1361 226.42 74.4961C223.13 79.4261 221.14 84.4961 218.33 89.6761Z" fill="#999999"/>
<path d="M165.79 74.4459C165.79 74.4459 166.32 126.796 195.7 127.826C225.08 128.856 226.31 74.8259 226.31 74.4459C226.31 74.4459 222.84 66.6459 196.05 66.9459C169.26 67.2459 165.79 74.4459 165.79 74.4459Z" fill="#999999"/>
<path d="M204.809 95.2345C204.663 97.233 203.928 99.1433 202.697 100.724C201.465 102.304 199.792 103.484 197.89 104.114C195.988 104.744 193.941 104.795 192.01 104.262C190.078 103.728 188.348 102.634 187.039 101.118C185.729 99.601 184.899 97.7301 184.653 95.7415C184.407 93.7529 184.756 91.7359 185.656 89.9458C186.557 88.1557 187.967 86.6727 189.711 85.6846C191.454 84.6965 193.451 84.2475 195.449 84.3945C198.128 84.5915 200.618 85.844 202.373 87.8768C204.129 89.9095 205.005 92.556 204.809 95.2345Z" fill="#263238"/>
<path d="M202.069 95.037C201.963 96.4927 201.427 97.8841 200.529 99.0352C199.631 100.186 198.413 101.045 197.027 101.504C195.641 101.962 194.151 101.999 192.744 101.611C191.337 101.222 190.077 100.425 189.123 99.3198C188.169 98.2149 187.564 96.852 187.385 95.4034C187.206 93.9548 187.46 92.4856 188.116 91.1815C188.772 89.8775 189.799 88.7972 191.069 88.0773C192.339 87.3574 193.794 87.0301 195.249 87.137C197.2 87.2828 199.014 88.1964 200.292 89.6773C201.571 91.1582 202.21 93.0856 202.069 95.037Z" fill="white"/>
<path d="M198.51 96.3873C198.454 95.9832 198.43 95.5752 198.44 95.1673C198.44 94.3973 198.44 93.3174 198.44 91.9874L198.52 92.1273L194.69 89.9173H194.9L191.07 92.0673C190.97 92.2473 191.21 91.8373 191.19 91.8773V93.0073C191.19 93.3773 191.19 93.7573 191.19 94.1273C191.19 94.8573 191.19 95.5673 191.19 96.2573L191.09 96.0673L194.84 98.3573H194.67C195.84 97.7273 196.81 97.2273 197.49 96.8773C197.842 96.6771 198.21 96.5065 198.59 96.3673C198.275 96.6055 197.94 96.8162 197.59 96.9973C196.95 97.3873 195.99 97.9973 194.79 98.6473L194.71 98.6973L194.63 98.6473L190.83 96.4373L190.72 96.3773V96.2473C190.72 95.5573 190.72 94.8473 190.72 94.1173C190.72 93.7473 190.72 93.3773 190.72 92.9973V91.9173C190.72 91.9173 190.94 91.5473 190.83 91.7173L194.68 89.5873L194.79 89.5273L194.89 89.5873L198.64 91.8873H198.73V91.9773C198.73 93.3573 198.65 94.4673 198.61 95.2273C198.612 95.6163 198.579 96.0046 198.51 96.3873Z" fill="#999999"/>
<path d="M165.66 74.4072C165.66 74.4072 165.72 74.4072 165.82 74.4072L166.26 74.5572L167.97 75.1572L169.19 75.5972L170.68 76.0572C171.74 76.3772 172.94 76.7872 174.31 77.0572L176.44 77.5972C177.18 77.7872 177.96 77.9272 178.77 78.0972C180.37 78.4672 182.12 78.7172 183.94 79.0172C191.899 80.162 199.981 80.162 207.94 79.0172C209.77 78.7272 211.51 78.4772 213.11 78.1072C213.92 77.9272 214.7 77.7872 215.44 77.6072L217.57 77.0572C218.94 76.7372 220.14 76.3272 221.21 76.0572C221.74 75.8972 222.21 75.7572 222.69 75.6072L223.92 75.1672L225.62 74.5672L226.06 74.4172L226.22 74.3672C226.22 74.3672 226.17 74.3672 226.07 74.4372L225.63 74.6072L223.94 75.2372L222.72 75.6972C222.27 75.8572 221.72 75.9972 221.24 76.1772C220.18 76.4972 218.98 76.9172 217.61 77.2472L215.48 77.8072C214.74 77.9972 213.96 78.1472 213.15 78.3272C211.54 78.6972 209.8 78.9572 207.97 79.2572C199.99 80.4305 191.881 80.4305 183.9 79.2572C182.06 78.9572 180.32 78.6972 178.71 78.3172C177.91 78.1472 177.12 77.9972 176.38 77.8072L174.25 77.2472C172.88 76.9172 171.69 76.4972 170.62 76.1672L169.14 75.6972L167.92 75.2372L166.23 74.5972L165.79 74.4272L165.66 74.4072Z" fill="#263238"/>
<g opacity="0.3">
<path d="M165.79 74.4465C165.79 74.4465 169.26 67.2565 196.05 66.9465C222.84 66.6365 226.31 74.4465 226.31 74.4465C226.31 74.4465 199.29 87.7765 165.79 74.4465Z" fill="black"/>
</g>
<path d="M175 111.704C174.979 111.68 174.962 111.653 174.95 111.624L174.82 111.394L174.33 110.474L173.99 109.814L173.61 109.004C173.34 108.424 173.04 107.764 172.74 107.004L172.26 105.834L171.79 104.554C171.44 103.674 171.15 102.704 170.79 101.694C170.16 99.6941 169.55 97.4041 169.01 95.0041C168.47 92.6041 168.08 90.3041 167.76 88.1941C167.44 86.0841 167.23 84.1941 167.11 82.5841C167.03 81.7841 166.98 81.0641 166.94 80.4241C166.9 79.7841 166.87 79.2341 166.85 78.7841V77.7841V77.4141C166.85 77.4141 166.85 77.4141 166.85 77.5141V77.7741C166.85 78.0341 166.85 78.3741 166.93 78.7741C167.01 79.1741 166.99 79.7741 167.05 80.4041C167.11 81.0341 167.16 81.7641 167.24 82.5641C167.39 84.1641 167.64 86.0541 167.94 88.1641C168.24 90.2741 168.68 92.5541 169.2 94.9541C169.72 97.3541 170.35 99.5941 170.96 101.624C171.3 102.624 171.58 103.624 171.96 104.484L172.42 105.774L172.89 106.944C173.17 107.694 173.47 108.354 173.73 108.944L174.09 109.764L174.42 110.434L174.87 111.364L174.98 111.604L175 111.704Z" fill="white"/>
<path d="M189.16 124.297C189.002 124.291 188.845 124.271 188.69 124.237C188.266 124.169 187.848 124.069 187.44 123.937C186.831 123.754 186.236 123.527 185.66 123.257C184.964 122.916 184.295 122.522 183.66 122.077C183.024 121.625 182.426 121.124 181.87 120.577C181.417 120.126 180.999 119.642 180.62 119.127C180.36 118.788 180.126 118.43 179.92 118.057C179.832 117.925 179.759 117.784 179.7 117.637C179.7 117.637 180.07 118.197 180.7 119.037C181.09 119.53 181.511 119.997 181.96 120.437C182.517 120.969 183.112 121.46 183.74 121.907C184.376 122.348 185.044 122.739 185.74 123.077C186.304 123.353 186.885 123.594 187.48 123.797C188.5 124.137 189.16 124.257 189.16 124.297Z" fill="white"/>
<path d="M195.28 105.826H194.999C194.819 105.826 194.539 105.826 194.189 105.826C193.199 105.809 192.215 105.651 191.269 105.356C189.854 104.927 188.534 104.231 187.379 103.306C185.94 102.194 184.806 100.736 184.08 99.0684C183.355 97.4007 183.062 95.5767 183.229 93.7658C183.296 92.9776 183.436 92.1974 183.649 91.4358C183.846 90.7808 184.093 90.1422 184.389 89.5258C184.824 88.6287 185.383 87.7972 186.049 87.0558C186.226 86.8563 186.413 86.666 186.609 86.4858C186.749 86.3558 186.819 86.2958 186.829 86.3058C186.839 86.3158 186.559 86.5858 186.109 87.1158C185.472 87.8625 184.94 88.6937 184.53 89.5858C184.24 90.1979 184.002 90.8335 183.819 91.4858C183.617 92.2351 183.487 93.0018 183.429 93.7758C183.269 95.5549 183.558 97.3458 184.269 98.9845C184.98 100.623 186.091 102.057 187.499 103.156C188.107 103.639 188.756 104.068 189.439 104.436C190.043 104.74 190.668 105.001 191.309 105.216C192.246 105.515 193.217 105.693 194.199 105.746C194.889 105.826 195.28 105.806 195.28 105.826Z" fill="white"/>
<path d="M194.01 20.0156C194.01 20.0156 168.39 19.7056 164.39 41.9156C160.39 64.1256 182 64.5056 188.23 64.9156C191.06 65.1056 197.1 65.1256 202.43 65.0256C214.24 64.8256 222.58 62.5356 225.43 51.5856C225.769 50.2993 225.983 48.9832 226.07 47.6556C226.76 35.6556 218.63 19.4256 194.01 20.0156Z" fill="#999999"/>
<path d="M212.59 53.8065L175.38 54.3865C174.449 54.401 173.524 54.2312 172.658 53.8866C171.793 53.5421 171.004 53.0297 170.338 52.3791C169.671 51.7284 169.14 50.9523 168.775 50.0954C168.41 49.2385 168.218 48.3179 168.21 47.3865C168.18 45.5131 168.896 43.7045 170.199 42.3583C171.502 41.012 173.286 40.2381 175.16 40.2065L212.39 39.6765C213.321 39.6633 214.246 39.834 215.112 40.1789C215.977 40.5238 216.766 41.036 217.433 41.6863C218.1 42.3366 218.632 43.1121 218.999 43.9684C219.365 44.8247 219.559 45.745 219.57 46.6765C219.586 48.5465 218.86 50.3466 217.552 51.6829C216.244 53.0192 214.46 53.7828 212.59 53.8065Z" fill="#263238"/>
<path d="M183.1 46.6656C183.013 47.1068 182.798 47.5125 182.481 47.8314C182.164 48.1502 181.76 48.3677 181.319 48.4564C180.879 48.545 180.421 48.5008 180.006 48.3294C179.59 48.158 179.235 47.867 178.985 47.4934C178.735 47.1198 178.602 46.6803 178.602 46.2308C178.602 45.7813 178.735 45.3418 178.985 44.9683C179.235 44.5947 179.591 44.3038 180.006 44.1324C180.422 43.961 180.879 43.9169 181.32 44.0056C181.907 44.1239 182.425 44.4701 182.758 44.9685C183.092 45.4669 183.214 46.077 183.1 46.6656Z" fill="white"/>
<path d="M209.1 46.2457C209.014 46.6867 208.8 47.0923 208.483 47.4113C208.167 47.7303 207.763 47.9482 207.323 48.0376C206.883 48.127 206.426 48.0837 206.01 47.9133C205.595 47.7429 205.239 47.453 204.988 47.0803C204.737 46.7076 204.603 46.2689 204.602 45.8197C204.6 45.3705 204.732 44.931 204.981 44.5568C205.229 44.1827 205.583 43.8907 205.998 43.7178C206.413 43.5449 206.869 43.499 207.31 43.5857C207.9 43.7018 208.419 44.047 208.755 44.5456C209.09 45.0443 209.215 45.6557 209.1 46.2457Z" fill="white"/>
<path d="M189.62 45.6176C189.79 45.6176 189.7 46.4276 190.2 47.4876C190.486 48.0915 190.895 48.6294 191.4 49.0676C191.998 49.5894 192.741 49.9172 193.53 50.0076C194.324 50.0654 195.117 49.8768 195.8 49.4676C196.378 49.128 196.878 48.6716 197.27 48.1276C197.95 47.1776 198.01 46.3876 198.18 46.3976C198.35 46.4076 198.31 46.5976 198.31 46.9776C198.287 47.5115 198.147 48.0339 197.9 48.5076C197.528 49.2229 196.981 49.832 196.31 50.2776C195.467 50.8489 194.456 51.1201 193.44 51.0476C192.426 50.9396 191.481 50.4879 190.76 49.7676C190.179 49.2188 189.748 48.5302 189.51 47.7676C189.347 47.2577 189.302 46.7173 189.38 46.1876C189.45 45.7876 189.55 45.6076 189.62 45.6176Z" fill="white"/>
<path d="M190.77 21.6758H190.68H190.41C190.17 21.6758 189.82 21.6758 189.41 21.7558C188.137 21.8822 186.875 22.0927 185.63 22.3858C183.785 22.8227 181.989 23.4459 180.27 24.2458C178.161 25.2323 176.185 26.4823 174.39 27.9658C171.141 30.6816 168.552 34.1013 166.82 37.9658C166.295 39.1305 165.85 40.33 165.49 41.5558C165.35 41.9958 165.28 42.3358 165.21 42.5558L165.13 42.8158V42.9058C165.13 42.9058 165.13 42.9058 165.13 42.8158L165.19 42.5458C165.24 42.3158 165.3 41.9658 165.43 41.5458C165.745 40.3069 166.153 39.0935 166.65 37.9158C167.405 36.1536 168.347 34.4773 169.46 32.9158C173.33 27.5089 179.059 23.7202 185.55 22.2758C186.814 21.994 188.098 21.8069 189.39 21.7158C189.84 21.7158 190.2 21.7158 190.39 21.7158H190.75L190.77 21.6758Z" fill="white"/>
<path d="M165.71 52.405C165.545 52.1594 165.42 51.8894 165.34 51.605C165.107 50.9551 164.933 50.2858 164.82 49.605C164.714 48.9069 164.671 48.2008 164.69 47.495C164.684 47.2018 164.718 46.9092 164.79 46.625C164.86 46.625 164.79 47.965 165.03 49.625C165.27 51.285 165.77 52.385 165.71 52.405Z" fill="white"/>
<path d="M206.44 38.3776C206.44 38.4376 201.54 38.4876 195.5 38.4876C189.46 38.4876 184.55 38.4876 184.55 38.3776C184.55 38.2676 189.45 38.2776 195.5 38.2776C201.55 38.2776 206.44 38.3276 206.44 38.3776Z" fill="white"/>
<path d="M187.759 63.3359C187.759 63.3359 187.699 63.3359 187.579 63.3359H187.049C186.809 63.3359 186.529 63.3359 186.199 63.3359C185.869 63.3359 185.489 63.3359 185.069 63.3359C184.094 63.3277 183.119 63.2676 182.149 63.1559C180.962 63.0179 179.784 62.8143 178.619 62.5459C177.457 62.2816 176.312 61.9477 175.189 61.5459C174.273 61.2143 173.375 60.8337 172.499 60.4059C172.119 60.2259 171.789 60.0459 171.499 59.8859C171.209 59.7259 170.959 59.5959 170.759 59.4759L170.299 59.1959L170.149 59.0859C170.149 59.0859 170.209 59.0859 170.319 59.1559L170.799 59.3959C170.999 59.5059 171.249 59.6459 171.549 59.7859C171.849 59.9259 172.179 60.1059 172.549 60.2659C173.299 60.6159 174.209 60.9959 175.239 61.3659C176.362 61.7571 177.503 62.0909 178.659 62.3659C179.818 62.6333 180.989 62.8402 182.169 62.9859C183.249 63.1159 184.239 63.1859 185.069 63.2059C185.479 63.2059 185.859 63.2059 186.189 63.2059H187.749L187.759 63.3359Z" fill="white"/>
<path d="M219.08 77.6455H218.99L218.7 77.7555L217.59 78.1555C217.11 78.3255 216.52 78.5255 215.82 78.7355C215.12 78.9455 214.33 79.2055 213.45 79.4255L212.06 79.7955L210.54 80.1455C209.54 80.3955 208.36 80.5955 207.17 80.8255C204.577 81.2638 201.964 81.5708 199.34 81.7455C196.719 81.8796 194.092 81.8796 191.47 81.7455C190.26 81.6655 189.11 81.6055 188.04 81.4855L186.49 81.3255L185.06 81.1255C184.15 81.0155 183.34 80.8555 182.62 80.7355C181.9 80.6155 181.29 80.4855 180.79 80.3755L179.64 80.1155L179.34 80.0455H179.24C179.24 80.0455 179.24 80.0455 179.35 80.0455L179.65 80.0955L180.81 80.3155C181.31 80.4155 181.92 80.5355 182.64 80.6355C183.36 80.7355 184.17 80.9055 185.08 81.0055L186.51 81.1855C187 81.2455 187.51 81.2855 188.05 81.3355C189.12 81.4455 190.27 81.5055 191.47 81.5755C193.89 81.6755 196.55 81.6755 199.33 81.5155C202.11 81.3555 204.75 81.0055 207.13 80.6155C208.32 80.3955 209.45 80.2055 210.5 79.9555C211.02 79.8355 211.5 79.7355 212.02 79.6155L213.41 79.2655C214.3 79.0555 215.09 78.8055 215.78 78.6055C216.47 78.4055 217.08 78.2155 217.57 78.0555L218.69 77.6955L218.98 77.6055L219.08 77.6455Z" fill="white"/>
<g opacity="0.3">
<path d="M325.577 11.6026V115.205C323.8 126.049 318.222 136.7 308.771 146.48C305.362 149.987 301.685 153.224 297.775 156.163C293.955 158.985 289.98 161.59 285.867 163.966C270.198 173.041 251.64 179.427 231.921 183.172C228.784 183.775 225.615 184.308 222.414 184.773V80.7377C244.581 77.1525 265.468 70.5503 282.962 60.9231C304.674 48.9191 317.918 34.1061 322.72 18.6129C323.631 16.3232 324.372 13.9693 324.936 11.5706C324.961 11.5036 325.007 11.4463 325.067 11.407C325.126 11.3677 325.197 11.3484 325.268 11.352C325.34 11.3556 325.408 11.3818 325.463 11.4268C325.519 11.4719 325.558 11.5335 325.577 11.6026Z" fill="#616161"/>
</g>
<path d="M221.957 185.266V80.3586L222.317 80.3026C244.997 76.6373 265.884 69.8031 282.721 60.536C303.616 49.0281 317.293 34.5032 322.255 18.5379V18.1778H322.399C323.252 15.988 323.952 13.7419 324.495 11.4555C324.567 11.3048 324.685 11.1804 324.831 11.0997C324.977 11.019 325.145 10.986 325.311 11.0054C325.476 11.0248 325.632 11.0956 325.756 11.2079C325.879 11.3202 325.965 11.4684 326 11.6316V115.202C324.167 126.462 318.461 137.066 309.05 146.773C305.625 150.297 301.93 153.548 297.998 156.496C294.166 159.334 290.174 161.949 286.042 164.331C270.725 173.19 252.527 179.688 231.968 183.593C228.839 184.193 225.63 184.729 222.445 185.194L221.957 185.266ZM222.813 81.0628V184.297C225.822 183.857 228.847 183.345 231.808 182.785C252.271 178.888 270.381 172.437 285.618 163.578C289.715 161.212 293.677 158.621 297.486 155.816C301.377 152.901 305.037 149.69 308.434 146.213C317.725 136.609 323.351 126.206 325.152 115.162V12.3758C324.602 14.538 323.915 16.663 323.095 18.738C318.061 34.9274 304.249 49.6283 283.138 61.2482C266.276 70.5233 245.469 77.3736 222.813 81.0628Z" fill="#616161"/>
<path d="M246.437 158.938C246.21 158.938 245.992 158.847 245.832 158.687C245.671 158.526 245.581 158.308 245.581 158.081V96.8929C245.588 96.7097 245.653 96.5334 245.767 96.3895C245.88 96.2457 246.037 96.1417 246.213 96.0926C251.279 94.7321 255.953 93.2836 260.498 91.6511C260.629 91.5999 260.772 91.5826 260.911 91.6008C261.051 91.6189 261.184 91.672 261.298 91.7551C261.412 91.834 261.505 91.9393 261.569 92.062C261.633 92.1846 261.667 92.321 261.666 92.4594V153.648C261.664 153.823 261.608 153.994 261.507 154.136C261.405 154.279 261.263 154.388 261.098 154.448C256.497 156.097 251.783 157.561 246.693 158.93C246.609 158.943 246.523 158.945 246.437 158.938ZM247.294 97.5491V156.961C251.727 155.753 255.88 154.456 259.93 153.016V93.6438C255.872 95.0602 251.743 96.3647 247.294 97.5491Z" fill="white"/>
<path d="M273.967 149.103C273.802 149.106 273.64 149.059 273.503 148.967C273.382 148.89 273.282 148.783 273.214 148.657C273.145 148.531 273.11 148.39 273.11 148.247V87.0581C273.109 86.8904 273.155 86.7257 273.245 86.5837C273.334 86.4418 273.462 86.3286 273.615 86.2578C277.647 84.4507 281.581 82.434 285.403 80.2158C286.275 79.7517 287.083 79.2555 287.859 78.7673C287.988 78.6846 288.138 78.6406 288.291 78.6406C288.445 78.6406 288.595 78.6846 288.724 78.7673C288.858 78.8395 288.971 78.9467 289.05 79.0777C289.129 79.2088 289.171 79.3587 289.172 79.5116V140.7C289.172 140.846 289.135 140.99 289.063 141.118C288.992 141.245 288.889 141.352 288.764 141.428C287.963 141.932 287.123 142.461 286.227 142.933C282.354 145.174 278.366 147.209 274.279 149.031C274.18 149.074 274.074 149.099 273.967 149.103ZM274.823 87.6183V146.926C278.168 145.382 281.641 143.581 285.403 141.42C286.123 141.044 286.795 140.62 287.459 140.22V81.0001C287.059 81.2402 286.659 81.4722 286.227 81.6963C282.185 84.0571 278.44 85.9617 274.823 87.6183Z" fill="white"/>
<path d="M301.44 132.27C301.315 132.272 301.192 132.244 301.079 132.19C300.928 132.12 300.8 132.006 300.712 131.864C300.623 131.722 300.579 131.557 300.583 131.39V70.2253C300.584 70.0998 300.612 69.9759 300.666 69.8625C300.72 69.7491 300.798 69.6489 300.895 69.5691C303.413 67.4882 305.818 65.2737 308.098 62.9349C310.655 60.3474 312.995 57.5529 315.092 54.5801C315.196 54.4299 315.345 54.3169 315.518 54.2575C315.691 54.1981 315.878 54.1955 316.052 54.25C316.226 54.3045 316.379 54.4133 316.487 54.5605C316.595 54.7078 316.653 54.8857 316.653 55.0683V116.257C316.652 116.433 316.599 116.606 316.501 116.753C314.357 119.798 311.969 122.664 309.362 125.324C307.029 127.703 304.571 129.958 302 132.078C301.841 132.205 301.643 132.273 301.44 132.27ZM302.296 70.6495V129.573C304.377 127.789 306.337 125.964 308.13 124.123C310.609 121.595 312.884 118.874 314.932 115.985V57.6932C313.198 59.9405 311.328 62.0787 309.33 64.0953C307.099 66.3942 304.748 68.5739 302.288 70.6255L302.296 70.6495Z" fill="white"/>
<g opacity="0.3">
<path d="M232.753 169.547L267.557 105.254L295.39 141.418C295.39 141.418 283.658 158.208 232.753 169.547Z" fill="#616161"/>
</g>
<g opacity="0.3">
<path d="M168.107 173.413C136.329 171.717 105.422 164.17 81.0541 150.782C53.6689 135.697 39.7362 116.01 39.2721 96.2515V94.2829L39 27.6846C39 22.931 47.3708 36.4075 64.9047 50.2281C65.3208 50.5642 65.7049 50.8764 66.1611 51.2045C67.1374 51.9567 68.1377 52.693 69.1781 53.4292C73.0107 56.144 76.9973 58.6343 81.1181 60.8877C105.422 74.2442 136.185 81.7827 167.843 83.5033L168.107 173.413Z" fill="#616161"/>
</g>
<path d="M39.9127 27.7825C41.6838 29.3 43.3496 30.9364 44.8984 32.6802C50.9474 39.2265 57.4742 45.3146 64.4249 50.8943C64.729 51.1423 65.0411 51.3824 65.3612 51.6225L65.6893 51.8866C66.6256 52.6068 67.618 53.3431 68.7384 54.1354C72.5943 56.8604 76.6021 59.364 80.7424 61.6339C103.95 74.4381 134.52 82.4408 167.003 84.3134L167.259 172.511C134.928 170.662 104.502 162.692 81.4866 150.023C55.2858 135.579 40.6009 116.492 40.1288 96.2374V94.2688L39.8807 27.7825M39.5126 26.7422C39.1845 26.7422 39.0244 27.0543 39.0244 27.7185L39.2725 94.3008V96.2694C39.7367 116.028 53.6773 135.715 81.0545 150.8C105.391 164.204 136.329 171.751 168.108 173.447L167.843 83.5052C136.193 81.7846 105.423 74.2461 81.1505 60.8896C77.0298 58.6362 73.0431 56.1459 69.2105 53.4311C68.1702 52.6949 67.1698 51.9586 66.1935 51.2064C65.7694 50.8783 65.3932 50.5662 64.9371 50.23C49.852 38.3461 41.5373 26.7422 39.5126 26.7422Z" fill="#616161"/>
<path d="M137.377 160.645H137.265C137 160.645 111.256 156.915 86.2075 144.199C57.5099 129.634 46.2421 107.059 46.1301 106.827C46.0705 106.71 46.0403 106.581 46.0421 106.451V89.1648C46.0403 88.9889 46.0966 88.8173 46.2021 88.6766L65.0164 62.0757C65.1076 61.9524 65.2294 61.8551 65.3697 61.7933C65.5101 61.7315 65.6642 61.7075 65.8167 61.7236C65.968 61.7387 66.1124 61.7943 66.2349 61.8844C66.3574 61.9745 66.4534 62.0959 66.5129 62.2358L89.8567 116.654L87.816 106.619C87.7842 106.455 87.8005 106.285 87.863 106.13C87.9255 105.976 88.0315 105.842 88.1682 105.746L107.022 92.5019C107.117 92.4308 107.227 92.3817 107.343 92.3582C107.46 92.3347 107.58 92.3373 107.695 92.3659C107.81 92.3906 107.92 92.4389 108.016 92.5077C108.113 92.5766 108.194 92.6645 108.255 92.766L138.153 142.991C138.232 143.124 138.273 143.276 138.273 143.431V159.788C138.275 159.901 138.254 160.014 138.212 160.119C138.17 160.224 138.107 160.319 138.027 160.399C137.947 160.479 137.852 160.542 137.747 160.584C137.642 160.626 137.53 160.647 137.417 160.645H137.377ZM47.7466 106.227C48.835 108.315 60.1268 129.026 86.9597 142.655C109.007 153.858 131.591 157.972 136.496 158.772V143.663L107.191 94.4306L89.5846 106.827L93.1298 124.433C93.1503 124.629 93.1024 124.826 92.9941 124.991C92.8857 125.156 92.7237 125.279 92.5354 125.338C92.3471 125.398 92.1441 125.39 91.9608 125.317C91.7774 125.244 91.625 125.109 91.5293 124.937L65.5366 64.3565L47.7546 89.4529L47.7466 106.227Z" fill="white"/>
<path d="M137.048 109.969C136.511 109.966 135.975 109.913 135.448 109.809C130.286 108.801 126.093 103.151 126.093 97.2212C126.04 95.7885 126.304 94.3618 126.867 93.0433C127.43 91.7248 128.278 90.5471 129.35 89.5947C130.228 88.8635 131.259 88.3398 132.368 88.0627C133.476 87.7856 134.633 87.7621 135.752 87.9941C140.906 89.0025 145.099 94.6524 145.099 100.582C145.153 102.015 144.889 103.442 144.326 104.761C143.763 106.08 142.914 107.257 141.842 108.209C140.5 109.34 138.803 109.964 137.048 109.969ZM134.159 89.5947C132.8 89.583 131.479 90.0505 130.43 90.9151C129.555 91.7088 128.866 92.6851 128.411 93.7749C127.956 94.8648 127.747 96.0413 127.797 97.2212C127.797 102.375 131.374 107.265 135.8 108.129C136.67 108.317 137.572 108.307 138.438 108.099C139.303 107.891 140.111 107.491 140.801 106.928C141.676 106.135 142.365 105.158 142.82 104.069C143.275 102.979 143.485 101.802 143.434 100.622C143.434 95.4686 139.865 90.579 135.432 89.7147C135.012 89.6337 134.586 89.5908 134.159 89.5867V89.5947Z" fill="white"/>
<g opacity="0.3">
<path d="M45.2588 48.0362C45.2588 48.0362 53.0614 61.7448 69.1948 67.7067V59.9602C53.7256 52.6457 45.2588 38.9531 45.2588 38.9531V48.0362Z" fill="#616161"/>
</g>
<g opacity="0.3">
<path d="M45.2588 62.0713C45.2588 62.0713 53.0614 75.7799 69.1948 81.7419V73.9953C53.7256 66.6809 45.2588 52.9883 45.2588 52.9883V62.0713Z" fill="#616161"/>
</g>
<g opacity="0.3">
<path d="M45.2588 76.1104C45.2588 76.1104 53.0614 89.819 69.1948 95.781V88.0344C53.7256 80.7199 45.2588 67.0273 45.2588 67.0273V76.1104Z" fill="#616161"/>
</g>
<path d="M37 93L51 276L85 273.5L114.5 329.5L327 106.5L37 93Z" fill="url(#paint0_linear_2831_10541)"/>
<defs>
<linearGradient id="paint0_linear_2831_10541" x1="184.5" y1="155.5" x2="184.5" y2="341.5" gradientUnits="userSpaceOnUse">
<stop stop-color="white" stop-opacity="0"/>
<stop offset="1" stop-color="#949494"/>
</linearGradient>
</defs>
</svg>
