<svg width="2270" height="1451" viewBox="0 0 2270 1451" fill="none" xmlns="http://www.w3.org/2000/svg">
<path d="M903.069 1293.49C937.569 1293.49 934.235 1284.16 937.569 1265.49C937.569 1178.16 937.569 994.795 937.569 959.995C937.569 925.195 914.569 903.828 903.069 897.495L579.069 707.495C564.093 698.713 553.454 700.844 546.145 707.495M903.069 1293.49C858.269 1271.09 656.069 1153.16 560.569 1096.99C551.235 1091.99 532.569 1075.09 532.569 1047.49C532.569 1019.89 532.569 830.328 532.569 738.995C533.644 729.09 537.641 715.233 546.145 707.495M903.069 1293.49L1024.57 1237.5C1027.9 1235.83 1034.77 1228 1035.57 1210C1036.37 1192 1035.9 994.162 1035.57 897.495C1034.24 883.328 1025.77 851.896 1002.57 839.496C979.369 827.096 955.902 812.663 947.069 806.996L941.569 803.996M941.569 803.996V822.996M941.569 803.996C941.569 801.341 941.569 794.762 941.569 783.497M941.569 822.996V844.496C937.069 853.163 919.069 866.396 883.069 849.996C883.069 842.198 883.069 832.95 883.069 822.996M941.569 822.996C952.402 829.163 967.569 845.997 941.569 863.997C917.466 880.684 877.893 866.432 867.069 853.109M755.069 547.496C832.269 576.696 872.569 678.663 883.069 725.996C883.069 732.318 883.069 740.592 883.069 749.999M755.069 547.496C703.469 521.896 687.235 562.496 685.569 585.996V655.497M755.069 547.496C757.902 592.018 787.469 694.848 883.069 749.999M865.069 849.996C864.402 842.996 867.069 827.795 883.069 822.996M865.069 849.996C865.543 851.018 866.217 852.061 867.069 853.109M865.069 849.996L867.069 853.109M883.069 822.996C883.069 806.475 883.069 788.009 883.069 770.997M624.569 676.997C624.569 685.393 624.569 693.233 624.569 699.997C654.569 725.597 677.735 710.664 685.569 699.997V678.997M624.569 676.997C614.235 682.831 599.769 698.497 624.569 714.497C651.769 724.897 673.569 720.497 681.069 716.997C694.902 710.497 715.169 693.797 685.569 678.997M624.569 676.997C624.569 671.205 624.569 665.148 624.569 658.997M685.569 678.997V655.497M546.145 707.495L624.569 658.997M624.569 658.997C624.569 631.364 624.569 601.853 624.569 585.996C626.735 555.497 646.869 492.497 710.069 484.497C726.78 482.382 743.721 484.788 760.069 490.015M685.569 655.497L883.069 770.997M883.069 770.997C883.069 763.634 883.069 756.542 883.069 749.999M422.069 1152C376.069 1078.5 311.496 903.141 441.569 885.497C600.069 863.997 680.569 1136 662.569 1196.5M364.069 1133C415.069 1265.49 629.769 1388.9 586.569 1124.5M402.569 1279.5C393.069 1133 215.269 961.297 180.069 1142.5M203.569 1152C274.069 1188 364.069 1402.5 203.569 1365C169.652 1341.89 102.697 1278.71 105.546 1210.5M105.546 1210.5C105.553 1210.33 105.561 1210.16 105.569 1210L105.546 1210.5ZM133.069 1394C141.069 1312 45.5686 1210.5 5.06856 1287C1.35421 1302.18 0.143553 1339.58 23.7253 1371M23.7253 1371C24.4807 1372 25.2615 1373 26.0686 1374C27.6686 1376 25.1731 1372.83 23.7253 1371ZM1708.07 1210.5L1699.42 1215.88M1699.42 1215.88L1652.57 1245L1597.07 1279.5L1699.42 1215.88ZM941.569 783.497C941.569 770.725 941.569 751.928 941.569 725.996C941.569 677.196 890.569 596.663 865.069 562.497C846.434 540.921 805.544 504.555 760.069 490.015M941.569 783.497L1562.07 1144C1598.61 1162.35 1628.58 1170.69 1652.57 1171.31M760.069 490.015C764.506 478.283 776.822 460.6 798.086 452.999M798.086 452.999C810.362 448.61 825.621 447.582 844.069 452.999C845.35 438.011 848.348 426.003 852.632 416.499M798.086 452.999L852.632 416.499M852.632 416.499C858.235 404.065 866.038 395.917 875.069 390.989M875.069 390.989C902.248 376.159 940.559 390.499 963.569 404.999C946.569 388.999 1016.07 310.499 1067.57 351.997C1103.17 285.997 1176.74 287.497 1209.07 296.497C1275.4 326.164 1414.37 425.597 1439.57 585.996C1580.77 630.795 1603.4 782.738 1597.07 853.109C1733.33 934.092 1787.42 1174.81 1652.57 1171.31M875.069 390.989L991.569 318.999C1004.07 310.999 1034.77 299.099 1057.57 315.499C1095.57 292.299 1110.74 282.499 1113.57 280.499C1122.24 275.332 1144.07 266.799 1162.07 273.999C1193.27 252.8 1230.07 230.834 1244.57 222.501C1301.74 201.667 1445.27 231.801 1562.07 519.001C1671.95 541.797 1713.18 682.498 1720.07 749.999L1715.07 779.5C1772.07 819.708 1877.97 931.699 1845.57 1058C1812.37 1103.6 1747.07 1144 1718.57 1158.5C1709.4 1162.71 1683.37 1171.17 1652.57 1171.31M922.069 0V23.75M922.069 23.75V47.5L921.819 25.5M922.069 23.75L940.069 35.5L921.819 25.5M903.569 15.5L921.819 25.5M477.319 206L499.694 216.5M522.069 227L499.694 216.5M499.694 216.5V193M499.694 193V216V239V193ZM1869.07 687V662.5M1869.07 662.5V638L1868.32 663.25M1869.07 662.5L1891.07 673.5L1868.32 663.25M1845.57 653L1868.32 663.25M1699.57 377.5V356.25M1699.57 356.25V335L1701.32 357M1699.57 356.25L1720.07 368.5L1701.32 357M1682.57 345.5L1701.32 357M2177.77 1010L2173.07 1003L2136.07 1022.5L2155.57 1058L2194.57 1035L2189.87 1028M2177.77 1010L2187.07 1003M2177.77 1010L2189.87 1028M2187.07 1003L2199.57 1022.5M2187.07 1003C2173.15 969.695 2183.45 909.209 2246.95 965.5M2199.57 1022.5L2189.87 1028M2199.57 1022.5C2273.57 1090.1 2279.57 1001 2248.07 966.5M2248.07 966.5C2247.69 966.163 2247.32 965.829 2246.95 965.5M2248.07 966.5L2246.95 965.5M700.569 929.997C697.013 897.997 755.069 883.497 771.569 963.497C777.569 1011 708.291 999.497 700.569 929.997ZM114.569 1047.49L196.569 997.955L210.569 989.497L114.569 1047.49ZM180.069 973.497L216.069 951.188L322.069 885.497L180.069 973.497ZM567.569 1365L513.569 1395L459.569 1425L567.569 1365ZM450.569 1404.5L410.569 1426.25L370.569 1448L450.569 1404.5ZM422.069 547.496L477.319 515.997L532.569 484.497L422.069 547.496ZM477.319 462.997L531.944 434.497L586.569 405.997L477.319 462.997ZM1192.07 1096.99L1243.57 1066L1295.07 1035L1192.07 1096.99ZM1582.07 1237.5L1532.82 1265.5L1483.57 1293.49L1582.07 1237.5ZM2205.57 1006.5C2187.07 983.5 2199.57 925 2246.95 983.5C2262.74 1003 2251.57 1066 2205.57 1006.5Z" stroke="white" stroke-width="6"/>
</svg>
