<svg width="136" height="72" viewBox="0 0 136 72" fill="none" xmlns="http://www.w3.org/2000/svg">
<path d="M6.64446 61.6099H0.79731L7.3851 41.6516H14.7915L21.3793 61.6099H15.5321L11.1663 47.1479H11.0103L6.64446 61.6099ZM5.55299 53.7357H16.5456V57.7897H5.55299V53.7357ZM24.4276 67.2231V46.6412H29.768V49.2529H29.885C30.0799 48.7461 30.3657 48.2816 30.7426 47.8593C31.1194 47.4305 31.5872 47.0894 32.1459 46.8361C32.7046 46.5762 33.3543 46.4463 34.0949 46.4463C35.0824 46.4463 36.0212 46.7094 36.9113 47.2356C37.8079 47.7619 38.5355 48.5902 39.0942 49.7207C39.6595 50.8511 39.9421 52.3194 39.9421 54.1255C39.9421 55.8537 39.6725 57.2862 39.1332 58.4232C38.6005 59.5601 37.8858 60.4079 36.9893 60.9667C36.0992 61.5254 35.1214 61.8048 34.0559 61.8048C33.3543 61.8048 32.7273 61.6911 32.1751 61.4637C31.6294 61.2298 31.1616 60.9147 30.7718 60.5184C30.3885 60.1156 30.0929 59.6608 29.885 59.1541H29.807V67.2231H24.4276ZM29.6901 54.1255C29.6901 54.8532 29.7843 55.4834 29.9727 56.0161C30.1676 56.5423 30.4405 56.9516 30.7913 57.244C31.1486 57.5299 31.5742 57.6728 32.0679 57.6728C32.5617 57.6728 32.9807 57.5331 33.3251 57.2537C33.6759 56.9679 33.9423 56.5618 34.1242 56.0356C34.3126 55.5028 34.4068 54.8662 34.4068 54.1255C34.4068 53.3849 34.3126 52.7514 34.1242 52.2252C33.9423 51.6924 33.6759 51.2864 33.3251 51.007C32.9807 50.7212 32.5617 50.5782 32.0679 50.5782C31.5742 50.5782 31.1486 50.7212 30.7913 51.007C30.4405 51.2864 30.1676 51.6924 29.9727 52.2252C29.7843 52.7514 29.6901 53.3849 29.6901 54.1255ZM43.2438 67.2231V46.6412H48.5842V49.2529H48.7012C48.8961 48.7461 49.1819 48.2816 49.5587 47.8593C49.9356 47.4305 50.4033 47.0894 50.9621 46.8361C51.5208 46.5762 52.1705 46.4463 52.9111 46.4463C53.8986 46.4463 54.8374 46.7094 55.7275 47.2356C56.624 47.7619 57.3517 48.5902 57.9104 49.7207C58.4756 50.8511 58.7583 52.3194 58.7583 54.1255C58.7583 55.8537 58.4886 57.2862 57.9494 58.4232C57.4167 59.5601 56.702 60.4079 55.8054 60.9667C54.9154 61.5254 53.9376 61.8048 52.8721 61.8048C52.1705 61.8048 51.5435 61.6911 50.9913 61.4637C50.4456 61.2298 49.9778 60.9147 49.588 60.5184C49.2047 60.1156 48.9091 59.6608 48.7012 59.1541H48.6232V67.2231H43.2438ZM48.5063 54.1255C48.5063 54.8532 48.6005 55.4834 48.7889 56.0161C48.9838 56.5423 49.2566 56.9516 49.6075 57.244C49.9648 57.5299 50.3903 57.6728 50.8841 57.6728C51.3779 57.6728 51.7969 57.5331 52.1412 57.2537C52.4921 56.9679 52.7584 56.5618 52.9403 56.0356C53.1288 55.5028 53.223 54.8662 53.223 54.1255C53.223 53.3849 53.1288 52.7514 52.9403 52.2252C52.7584 51.6924 52.4921 51.2864 52.1412 51.007C51.7969 50.7212 51.3779 50.5782 50.8841 50.5782C50.3903 50.5782 49.9648 50.7212 49.6075 51.007C49.2566 51.2864 48.9838 51.6924 48.7889 52.2252C48.6005 52.7514 48.5063 53.3849 48.5063 54.1255ZM62.06 61.6099V46.6412H67.4394V61.6099H62.06ZM64.7497 45.0819C64.022 45.0819 63.3983 44.8415 62.8786 44.3608C62.3589 43.88 62.099 43.3018 62.099 42.6261C62.099 41.9504 62.3589 41.3722 62.8786 40.8915C63.3983 40.4107 64.022 40.1703 64.7497 40.1703C65.4838 40.1703 66.1075 40.4107 66.6208 40.8915C67.1405 41.3722 67.4004 41.9504 67.4004 42.6261C67.4004 43.3018 67.1405 43.88 66.6208 44.3608C66.1075 44.8415 65.4838 45.0819 64.7497 45.0819ZM76.062 58.0626L76.101 51.6697H76.8027L80.4279 46.6412H86.47L80.3889 54.4763H78.8687L76.062 58.0626ZM71.2284 61.6099V41.6516H76.6078V61.6099H71.2284ZM80.4669 61.6099L77.0366 55.6848L80.5448 51.8646L86.6259 61.6099H80.4669ZM95.5141 61.8827C93.8899 61.8827 92.4996 61.5611 91.3431 60.918C90.1867 60.2683 89.2999 59.3652 88.6827 58.2088C88.0655 57.0458 87.7569 55.6977 87.7569 54.1645C87.7569 52.6312 88.0655 51.2864 88.6827 50.13C89.2999 48.967 90.1867 48.064 91.3431 47.4208C92.4996 46.7711 93.8899 46.4463 95.5141 46.4463C97.1383 46.4463 98.5286 46.7711 99.685 47.4208C100.841 48.064 101.728 48.967 102.346 50.13C102.963 51.2864 103.271 52.6312 103.271 54.1645C103.271 55.6977 102.963 57.0458 102.346 58.2088C101.728 59.3652 100.841 60.2683 99.685 60.918C98.5286 61.5611 97.1383 61.8827 95.5141 61.8827ZM95.5531 57.9067C96.0078 57.9067 96.4009 57.754 96.7322 57.4486C97.0636 57.1433 97.3202 56.708 97.5021 56.1428C97.684 55.5776 97.775 54.9051 97.775 54.1255C97.775 53.3394 97.684 52.667 97.5021 52.1082C97.3202 51.543 97.0636 51.1077 96.7322 50.8024C96.4009 50.497 96.0078 50.3444 95.5531 50.3444C95.0723 50.3444 94.6597 50.497 94.3154 50.8024C93.9711 51.1077 93.708 51.543 93.5261 52.1082C93.3441 52.667 93.2532 53.3394 93.2532 54.1255C93.2532 54.9051 93.3441 55.5776 93.5261 56.1428C93.708 56.708 93.9711 57.1433 94.3154 57.4486C94.6597 57.754 95.0723 57.9067 95.5531 57.9067ZM106.502 61.6099V46.6412H111.726V49.4868H111.882C112.155 48.4343 112.587 47.6644 113.178 47.1772C113.776 46.6899 114.474 46.4463 115.273 46.4463C115.507 46.4463 115.738 46.4657 115.965 46.5047C116.199 46.5372 116.423 46.5859 116.637 46.6509V51.2409C116.371 51.15 116.043 51.0817 115.653 51.0363C115.263 50.9908 114.929 50.9681 114.649 50.9681C114.123 50.9681 113.649 51.0882 113.227 51.3286C112.811 51.5625 112.483 51.8939 112.242 52.3226C112.002 52.7449 111.882 53.2419 111.882 53.8137V61.6099H106.502ZM124.829 53.19V61.6099H119.45V46.6412H124.556V49.4868H124.712C125.037 48.5382 125.608 47.7943 126.427 47.2551C127.252 46.7159 128.214 46.4463 129.312 46.4463C130.371 46.4463 131.29 46.6899 132.07 47.1772C132.856 47.6579 133.463 48.3206 133.892 49.1652C134.327 50.0098 134.542 50.9745 134.535 52.0595V61.6099H129.156V53.19C129.162 52.4493 128.974 51.8679 128.591 51.4456C128.214 51.0233 127.687 50.8121 127.012 50.8121C126.57 50.8121 126.183 50.9096 125.852 51.1045C125.527 51.2929 125.277 51.5658 125.102 51.9231C124.926 52.2739 124.835 52.6962 124.829 53.19Z" fill="black"/>
<path d="M68.7993 41.2839C68.7993 43.5995 66.9222 45.4766 64.6067 45.4766C62.2912 45.4766 60.4141 43.5995 60.4141 41.2839C60.4141 38.9684 62.2912 37.0913 64.6067 37.0913C66.9222 37.0913 68.7993 38.9684 68.7993 41.2839Z" fill="#DFA1FF"/>
<path d="M52.2958 0.0336914C52.495 0.184918 52.6824 0.343294 52.8579 0.510979C52.9084 0.558221 52.9609 0.603535 53.0145 0.64869C53.1057 0.725565 53.1917 0.804915 53.2768 0.885744C53.3252 0.931107 53.3744 0.975735 53.4242 1.02016C53.562 1.14333 53.6909 1.2709 53.8185 1.40034C53.8714 1.454 53.925 1.50719 53.9794 1.56002C54.2713 1.84385 54.5401 2.13567 54.779 2.44755C54.7895 2.46117 54.7999 2.47479 54.8107 2.48883C54.8307 2.51613 54.8496 2.54392 54.8674 2.57213C54.9416 2.68754 55.0359 2.74693 55.1736 2.81814C55.2139 2.83991 55.2542 2.86177 55.2943 2.88371C55.3136 2.89425 55.333 2.90479 55.3529 2.91565C55.4653 2.97919 55.5645 3.05305 55.6656 3.12677C55.6968 3.14762 55.7283 3.16836 55.7598 3.18895C55.9693 3.32937 56.1547 3.48295 56.3254 3.65133C56.3515 3.67669 56.3515 3.67669 56.3782 3.70256C56.6069 3.92937 56.7897 4.17036 56.915 4.44092C57.0852 4.80537 57.3493 5.13309 57.8026 5.3211C58.3952 5.56779 58.8394 5.9667 59.1532 6.41882C59.162 6.4305 59.1708 6.44219 59.1799 6.45422C59.2093 6.50736 59.2187 6.56095 59.2313 6.61779C59.2625 6.74675 59.3141 6.86118 59.3888 6.97956C59.3995 6.99648 59.4102 7.01341 59.4213 7.03085C59.503 7.15256 59.6026 7.25584 59.7188 7.35941C59.735 7.37431 59.7513 7.38921 59.768 7.40456C59.9534 7.56947 60.1648 7.70089 60.4059 7.81479C60.655 7.93759 60.8723 8.08918 61.0855 8.24573C61.1015 8.25725 61.1175 8.26877 61.134 8.28063C61.5713 8.60397 61.8735 9.01995 62.1224 9.43955C62.2435 9.37072 62.3619 9.29999 62.4788 9.22701C62.5955 9.15465 62.714 9.08527 62.8367 9.019C62.9721 8.94583 63.1024 8.86938 63.23 8.78837C63.2526 8.77439 63.2752 8.7604 63.2984 8.74598C64.2758 8.13384 64.8311 7.30405 64.975 6.34376C65.1107 5.31022 64.7239 4.25258 63.8705 3.44275C63.8078 3.38457 63.7431 3.32785 63.6777 3.27148C63.6669 3.26208 63.6561 3.25269 63.645 3.24301C63.2749 2.92144 62.8411 2.67086 62.3581 2.45751C62.3434 2.45092 62.3288 2.44433 62.3138 2.43754C61.5448 2.09264 60.6317 1.94531 59.7482 1.94991C59.718 1.94999 59.6878 1.95007 59.6567 1.95016C59.5831 1.95037 59.5096 1.95066 59.436 1.95104C59.489 1.91035 59.508 1.90758 59.5796 1.89741C59.5997 1.89454 59.6198 1.89167 59.6405 1.88871C59.6624 1.88577 59.6844 1.88284 59.707 1.87982C59.7298 1.87671 59.7526 1.8736 59.7761 1.8704C60.3738 1.79178 60.9673 1.76721 61.5724 1.76648C61.6014 1.76643 61.6304 1.76638 61.6603 1.76633C61.7987 1.76609 61.9371 1.76591 62.0755 1.76584C62.2163 1.76576 62.3572 1.76554 62.498 1.76507C65.3292 1.75586 65.3292 1.75586 66.3317 2.01661C66.368 2.026 66.368 2.026 66.405 2.03559C67.4576 2.31467 68.4727 2.83186 69.1919 3.48854C69.2086 3.50354 69.2086 3.50354 69.2255 3.51886C70.38 4.56389 70.9196 5.8834 70.8127 7.24538C70.6789 8.49357 69.8349 9.51268 68.7054 10.3761C68.6688 10.4041 68.6322 10.4323 68.5957 10.4604C68.4686 10.5581 68.3395 10.6527 68.2022 10.7419C68.1758 10.7595 68.1495 10.7771 68.1232 10.7948C67.959 10.9039 67.7916 11.0089 67.6202 11.1112C67.3389 11.2794 67.0647 11.4564 66.8011 11.6408C66.7632 11.6671 66.7252 11.6934 66.6869 11.7194C66.5415 11.8185 66.4034 11.9221 66.2669 12.0284C66.2271 12.0594 66.1873 12.0904 66.1474 12.1213C66.1215 12.1415 66.1215 12.1415 66.0951 12.162C66.047 12.1976 65.9984 12.231 65.9478 12.2643C65.8286 12.3438 65.7182 12.4296 65.6071 12.5157C65.5846 12.533 65.562 12.5504 65.5395 12.5678C65.4687 12.6223 65.398 12.677 65.3273 12.7316C65.2452 12.795 65.1631 12.8584 65.0808 12.9218C65.0483 12.9468 65.0159 12.972 64.9834 12.9971C64.8815 13.0756 64.7782 13.1509 64.6686 13.2231C64.5687 13.2914 64.4758 13.3653 64.3817 13.4382C64.3592 13.4555 64.3367 13.4729 64.3141 13.4902C64.2433 13.5448 64.1726 13.5995 64.1019 13.6541C64.0198 13.7175 63.9377 13.7809 63.8555 13.8442C63.8229 13.8693 63.7905 13.8945 63.758 13.9196C63.6561 13.9981 63.5528 14.0734 63.4433 14.1456C63.3434 14.2139 63.2504 14.2878 63.1563 14.3607C63.1338 14.378 63.1113 14.3954 63.0887 14.4127C63.0179 14.4673 62.9472 14.5219 62.8765 14.5766C62.7944 14.64 62.7123 14.7034 62.6301 14.7667C62.5976 14.7918 62.5651 14.817 62.5327 14.8421C62.4279 14.9228 62.3218 15.0007 62.2092 15.0749C61.5931 15.4822 61.1306 16.0225 61.062 16.6567C61.0202 17.3043 61.2663 17.8866 61.8352 18.3706C62.3146 18.7645 63.0309 19.03 63.7354 19.0487C64.564 19.06 65.2717 18.8682 65.8841 18.435C66.0511 18.31 66.1962 18.1717 66.3406 18.0314C66.5962 17.7868 66.8656 17.5535 67.1467 17.3261C67.2225 17.2648 67.2973 17.203 67.3715 17.1406C67.5613 16.9811 67.7523 16.8225 67.9445 16.6647C68.0648 16.5658 68.1844 16.4664 68.3034 16.3666C68.4066 16.2799 68.5104 16.1938 68.6142 16.1076C68.6733 16.0585 68.7323 16.0094 68.7913 15.9603C68.8149 15.9407 68.8385 15.9212 68.862 15.9016C68.8795 15.887 68.8795 15.887 68.8974 15.8722C69.027 15.7644 69.1566 15.6566 69.2862 15.5488C69.3037 15.5343 69.3037 15.5343 69.3215 15.5195C69.3451 15.4998 69.3687 15.4802 69.3923 15.4606C69.4507 15.4121 69.509 15.3635 69.5673 15.315C69.6936 15.2098 69.8203 15.105 69.9475 15.0005C70.0679 14.9017 70.1874 14.8023 70.3064 14.7024C70.4096 14.6158 70.5135 14.5297 70.6172 14.4435C70.6763 14.3944 70.7353 14.3453 70.7944 14.2962C70.8179 14.2766 70.8415 14.257 70.865 14.2374C70.8767 14.2277 70.8884 14.218 70.9004 14.208C70.9357 14.1787 70.9711 14.1493 71.0064 14.1199C71.0181 14.1102 71.0298 14.1005 71.0418 14.0905C71.0654 14.0709 71.089 14.0512 71.1126 14.0316C71.1709 13.9831 71.2293 13.9346 71.2876 13.886C71.4138 13.7808 71.5405 13.676 71.6677 13.5716C71.7669 13.4901 71.8657 13.4085 71.9638 13.3263C71.9834 13.3098 72.0031 13.2933 72.0234 13.2763C72.0659 13.2407 72.1082 13.2049 72.1504 13.1691C72.369 12.9844 72.6002 12.8097 72.8316 12.6347C73.0282 12.4859 73.2173 12.3385 73.3865 12.1709C73.4095 12.1496 73.4326 12.1284 73.4558 12.1073C73.7653 11.8216 74.0349 11.5056 74.2584 11.176C74.2662 11.1647 74.2739 11.1533 74.2819 11.1416C74.3391 11.0574 74.3934 10.9722 74.4469 10.8866C74.4552 10.8737 74.4635 10.8607 74.472 10.8474C74.7783 10.3647 74.9649 9.84427 75.0891 9.31746C75.0944 9.29507 75.0944 9.29507 75.0999 9.27224C75.1685 8.96181 75.1865 8.64933 75.1848 8.33504C75.1848 8.31735 75.1847 8.29967 75.1847 8.28144C75.1785 6.93151 74.578 5.62875 73.4808 4.57383C73.4637 4.55723 73.4466 4.54062 73.429 4.52352C73.111 4.21903 72.7507 3.9275 72.3496 3.68751C72.3239 3.67119 72.2982 3.65482 72.2726 3.6384C71.9112 3.40845 71.5152 3.21372 71.1045 3.03991C71.0722 3.02618 71.0401 3.01225 71.0082 2.99806C70.6732 2.8492 70.2958 2.78152 69.9224 2.71074C69.9224 2.69881 69.9224 2.68687 69.9224 2.67457C70.0313 2.69247 70.1402 2.71038 70.2524 2.72883C70.1435 2.69899 70.0346 2.66914 69.9224 2.63839C69.9302 2.62645 69.938 2.61451 69.946 2.60221C70.4493 2.73099 70.4493 2.73099 70.5045 2.74512C70.5424 2.7548 70.5802 2.76447 70.6181 2.77412C70.7155 2.79897 70.8128 2.82409 70.9099 2.8498C71.2242 2.93256 71.5423 3.002 71.8627 3.06927C72.0211 3.10254 72.1792 3.13622 72.3374 3.16994C72.3536 3.17339 72.3698 3.17684 72.3864 3.18039C73.7045 3.46144 75.0103 3.77294 76.3086 4.10353C76.3402 4.11156 76.3402 4.11156 76.3724 4.11975C77.8929 4.50655 79.3827 4.95626 80.8331 5.47824C80.8552 5.48616 80.8773 5.49408 80.9001 5.50224C81.1768 5.60136 81.4493 5.70513 81.7181 5.81623C81.7772 5.84061 81.8364 5.86472 81.8957 5.88882C82.232 6.02659 82.5574 6.17689 82.8817 6.33042C82.9421 6.35895 83.0025 6.38728 83.0631 6.4155C83.6067 6.6702 84.1242 6.96531 84.6035 7.28706C84.6207 7.29846 84.6379 7.30986 84.6556 7.32161C84.7013 7.35207 84.7467 7.38284 84.792 7.41367C84.8088 7.425 84.8255 7.43634 84.8428 7.44801C84.988 7.54722 85.1279 7.65005 85.2654 7.75556C85.3001 7.78217 85.335 7.80862 85.3699 7.83507C85.5176 7.94781 85.652 8.06627 85.7817 8.19147C85.8021 8.21005 85.8226 8.22856 85.8432 8.24693C86.1676 8.53725 86.4293 8.85526 86.6772 9.18632C86.6878 9.20037 86.6984 9.21442 86.7093 9.2289C87.1218 9.7833 87.3624 10.4006 87.5407 11.0206C87.8242 12.098 87.8242 12.098 88.5153 13.0391C88.5293 13.0516 88.5433 13.0641 88.5577 13.077C88.645 13.1494 88.7239 13.1877 88.8452 13.22C88.7903 13.2621 88.7554 13.2689 88.6814 13.2855C88.6577 13.2908 88.634 13.2961 88.6096 13.3016C88.5717 13.3099 88.5717 13.3099 88.533 13.3183C88.5073 13.324 88.4817 13.3297 88.4553 13.3355C88.2723 13.3753 88.09 13.4116 87.9026 13.437C87.8853 13.4394 87.8679 13.4418 87.85 13.4442C87.0086 13.5409 86.0849 13.1313 85.4283 12.7678C85.3887 12.744 85.3492 12.72 85.3104 12.6954C85.3982 12.806 85.4907 12.9118 85.5918 13.0154C85.7754 13.2047 85.9427 13.4027 86.1117 13.5998C86.1347 13.6266 86.1347 13.6266 86.1581 13.6539C86.4789 14.0274 86.7842 14.4072 87.0778 14.7937C87.0892 14.8085 87.1006 14.8234 87.1123 14.8388C87.3406 15.1383 87.5521 15.4447 87.7612 15.7523C87.7742 15.7714 87.7872 15.7905 87.8006 15.8102C88.6608 17.0804 89.3055 18.4769 89.2483 23.7937C89.1942 23.9228 89.138 24.0514 89.0801 24.1795C89.0717 24.1985 89.0632 24.2174 89.0545 24.2369C89.0471 24.2533 89.0397 24.2697 89.032 24.2866C88.9784 24.4282 88.9552 24.5677 88.9455 24.7146C88.9427 24.7506 88.94 24.7866 88.9372 24.8226C88.9332 24.8783 88.9292 24.9341 88.9253 24.9898C88.8901 25.4857 88.7783 25.9061 88.3503 26.2977C88.04 26.5903 87.9156 26.9003 87.959 27.2772C88.002 27.5775 88.1225 27.8527 88.2851 28.1265C88.3038 28.162 88.3178 28.1955 88.3268 28.2332C88.2778 28.2708 88.1761 28.2556 88.1088 28.2558C87.65 28.2547 87.2724 28.1278 86.9364 27.8895C86.9204 27.8786 86.9044 27.8678 86.8878 27.8566C86.1893 27.3571 85.8625 26.5542 85.7817 25.8455C85.731 25.904 85.7056 25.9611 85.6781 26.0272C85.6669 26.0537 85.6556 26.0802 85.6443 26.1067C85.6384 26.1207 85.6325 26.1347 85.6264 26.1491C85.1534 27.2653 84.5397 28.3685 83.7658 29.3819C83.7311 29.4277 83.6971 29.4737 83.6634 29.5198C83.387 29.8973 83.0884 30.2621 82.7728 30.6208C82.7606 30.6346 82.7485 30.6485 82.736 30.6627C82.4954 30.936 82.2466 31.2048 81.9848 31.4664C81.9689 31.4824 81.953 31.4983 81.9366 31.5148C81.8909 31.5605 81.8451 31.6062 81.7993 31.6518C81.7872 31.6639 81.7751 31.6759 81.7626 31.6883C81.4394 32.0091 81.1012 32.3218 80.7441 32.6207C80.6994 32.6583 80.6555 32.6964 80.6122 32.7349C80.4358 32.8903 80.2519 33.0399 80.0608 33.1847C80.0142 33.221 79.9704 33.258 79.9273 33.2967C79.7804 33.4281 79.618 33.5485 79.4465 33.6607C79.3798 33.7067 79.3172 33.7554 79.2542 33.8043C79.1637 33.8746 79.0722 33.9423 78.9741 34.0064C78.923 34.0404 78.8733 34.0755 78.8237 34.1108C78.701 34.1982 78.5753 34.2811 78.4448 34.3618C78.3825 34.4011 78.3226 34.442 78.263 34.4838C78.1703 34.5484 78.0752 34.6094 77.9768 34.6689C77.929 34.6979 77.8815 34.727 77.8341 34.7565C77.4703 34.9827 77.0933 35.1957 76.7124 35.4046C76.6642 35.4311 76.6161 35.4577 76.5681 35.4844C75.7598 35.9299 74.9009 36.3222 74.0228 36.6804C74.0011 36.6893 73.9794 36.6982 73.957 36.7073C72.2867 37.3913 70.5016 37.9137 66.0106 38.652C66.072 38.6049 66.1255 38.5967 66.2085 38.577C66.2402 38.5693 66.272 38.5616 66.3037 38.5538C66.3289 38.5477 66.3289 38.5477 66.3546 38.5415C67.2997 38.3108 68.1821 37.9531 68.9563 37.4762C68.9753 37.4647 68.9753 37.4647 68.9946 37.4529C69.133 37.3684 69.266 37.2801 69.3966 37.1886C69.4435 37.156 69.4912 37.1244 69.5395 37.093C69.6321 37.0311 69.7191 36.965 69.8061 36.8986C69.8197 36.8882 69.8333 36.8778 69.8474 36.8671C69.9478 36.7898 70.0421 36.7091 70.1345 36.6261C70.154 36.6086 70.154 36.6086 70.1739 36.5908C70.3794 36.4049 70.5697 36.2133 70.7472 36.0111C70.7638 35.9922 70.7638 35.9922 70.7808 35.973C70.9491 35.7807 71.1008 35.5827 71.2421 35.378C71.2502 35.3662 71.2584 35.3544 71.2668 35.3422C71.3241 35.2586 71.3781 35.174 71.4306 35.0886C71.4395 35.0743 71.4483 35.0599 71.4575 35.0451C72.3581 33.568 72.5163 31.7484 71.8077 30.2048C71.5654 29.6991 71.2661 29.2247 70.8415 28.7939C70.8316 28.7837 70.8217 28.7735 70.8114 28.763C70.64 28.5874 70.4505 28.4273 70.2524 28.2694C70.2346 28.255 70.2169 28.2406 70.1986 28.2258C70.0963 28.1447 69.9858 28.0733 69.871 28.0028C69.8294 27.9772 69.7883 27.951 69.7478 27.9243C69.4095 27.702 69.0217 27.5207 68.6264 27.3649C68.594 27.3522 68.594 27.3522 68.5609 27.3391C67.5172 26.9317 66.3927 26.7288 65.233 26.6414C65.2082 26.6395 65.1833 26.6376 65.1578 26.6357C64.8757 26.6172 64.5924 26.6189 64.3095 26.6188C64.2822 26.6188 64.2548 26.6188 64.2266 26.6188C63.8269 26.6191 63.4364 26.626 63.0414 26.6776C63.0049 26.6821 63.0049 26.6821 62.9676 26.6867C61.5713 26.862 60.2966 27.3419 59.0756 27.8712C58.8129 27.9842 58.5466 28.0831 58.2702 28.1749C58.1335 28.2205 58.0023 28.2675 57.8733 28.3248C57.7081 28.3952 57.5341 28.4423 57.3564 28.4909C56.9551 28.6007 56.5693 28.732 56.1841 28.8716C55.2749 29.2008 54.3374 29.4547 53.3326 29.5355C53.3125 29.5372 53.2924 29.5389 53.2717 29.5407C53.0401 29.5581 52.8081 29.558 52.5756 29.5581C52.5537 29.5582 52.5317 29.5582 52.5091 29.5582C50.8398 29.5567 49.2282 29.0848 47.9939 28.2192C47.9566 28.1931 47.9189 28.1674 47.8807 28.142C47.5914 27.9486 47.3403 27.7273 47.1114 27.4916C47.0967 27.4765 47.0967 27.4765 47.0817 27.4612C46.21 26.5664 45.738 25.479 45.7402 24.3623C45.7403 24.3492 45.7403 24.3362 45.7403 24.3227C45.7409 24.105 45.7527 23.8907 45.7918 23.675C45.7962 23.65 45.7962 23.65 45.8006 23.6246C45.9515 22.7879 46.3675 21.9874 47.0172 21.3054C47.0316 21.2902 47.0316 21.2902 47.0464 21.2747C47.2964 21.0139 47.5784 20.7798 47.8791 20.5531C47.9667 20.4869 48.0533 20.4213 48.133 20.3495C48.2636 20.2325 48.4103 20.1265 48.553 20.0183C48.6826 19.92 48.8107 19.8219 48.929 19.7153C49.0442 19.6164 49.1707 19.525 49.2936 19.4318C49.4619 19.3052 49.4619 19.3052 49.6204 19.1716C49.7498 19.0552 49.8959 18.9501 50.0376 18.8426C50.2114 18.712 50.2114 18.712 50.3752 18.5741C50.5043 18.4578 50.6502 18.353 50.7917 18.2457C50.9655 18.1151 50.9655 18.1151 51.1293 17.9772C51.2584 17.8609 51.4043 17.7561 51.5458 17.6488C51.7196 17.5182 51.7196 17.5182 51.8834 17.3803C52.0124 17.264 52.1584 17.1591 52.2999 17.0519C52.4295 16.9535 52.5576 16.8554 52.6759 16.7488C52.791 16.6499 52.9175 16.5585 53.0405 16.4653C53.2087 16.3388 53.2087 16.3388 53.3672 16.2051C53.4966 16.0887 53.6428 15.9836 53.7845 15.8761C53.9583 15.7455 53.9583 15.7455 54.1221 15.6076C54.2511 15.4914 54.3971 15.3865 54.5386 15.2792C54.7124 15.1486 54.7124 15.1486 54.8761 15.0107C55.0052 14.8945 55.1512 14.7896 55.2927 14.6823C55.4223 14.5839 55.5503 14.4859 55.6686 14.3793C55.7838 14.2804 55.9103 14.189 56.0332 14.0958C56.2015 13.9692 56.2015 13.9692 56.36 13.8355C56.4894 13.7191 56.6355 13.614 56.7773 13.5066C56.9511 13.376 56.9511 13.376 57.1148 13.2381C57.2439 13.1218 57.3899 13.0169 57.5313 12.9097C57.57 12.8803 57.6086 12.8509 57.6472 12.8215C57.6597 12.812 57.6722 12.8025 57.685 12.7928C57.7503 12.7427 57.8112 12.6917 57.8692 12.6366C57.934 12.5773 58.0042 12.5414 58.0895 12.5004C58.2987 12.3892 58.4787 12.2716 58.5343 12.0724C58.5889 11.7706 58.5792 11.4606 58.566 11.1568C58.5602 11.0117 58.5623 10.8999 58.6674 10.7748C58.6831 10.7558 58.6831 10.7558 58.6991 10.7364C58.71 10.7237 58.7208 10.7109 58.732 10.6978C58.743 10.6846 58.754 10.6713 58.7654 10.6577C58.7924 10.6254 58.8196 10.5932 58.8469 10.561C58.8329 10.5527 58.819 10.5443 58.8046 10.5357C58.5481 10.3732 58.4653 10.166 58.4271 9.91709C58.4176 9.82326 58.4193 9.72918 58.4197 9.63513C58.4196 9.61411 58.4196 9.59309 58.4195 9.57143C58.4195 9.55116 58.4195 9.53088 58.4196 9.51C58.4196 9.48253 58.4196 9.48253 58.4196 9.45452C58.4226 9.40537 58.4322 9.36085 58.4462 9.31293C58.4812 9.08805 58.3437 8.86388 58.187 8.67985C58.1492 8.64863 58.1096 8.61863 58.0692 8.58941C57.8353 8.41527 57.6066 8.24289 57.4143 8.04036C57.3861 8.01091 57.357 7.98208 57.3277 7.95328C56.9175 7.54211 56.5118 6.90136 56.5993 6.36795C56.601 6.22618 56.4813 6.14757 56.362 6.05142C56.3023 6.00159 56.2493 5.94798 56.1958 5.89426C56.1115 5.81102 56.0255 5.72927 55.9366 5.64894C55.9259 5.63929 55.9152 5.62963 55.9042 5.61968C55.8504 5.57115 55.7961 5.52295 55.7413 5.47506C55.1723 4.97456 54.7037 4.2662 54.7525 3.58421C54.7531 3.52164 54.7497 3.50992 54.6989 3.45674C54.6772 3.44261 54.6555 3.42848 54.6331 3.41392C54.3182 3.19337 54.1209 2.90598 53.9217 2.6203C53.9108 2.60467 53.8999 2.58904 53.8886 2.57294C53.7397 2.35755 53.6134 2.13599 53.4902 1.91147C53.3491 1.65436 53.1931 1.4073 53.0211 1.16132C52.9544 1.06528 52.8896 0.968507 52.8246 0.871752C52.788 0.817209 52.7514 0.76269 52.7147 0.708183C52.7074 0.69743 52.7002 0.686676 52.6927 0.675597C52.6468 0.607426 52.6005 0.539404 52.5539 0.471474C52.5229 0.426114 52.4919 0.380714 52.4609 0.335313C52.4391 0.303397 52.4171 0.271544 52.3951 0.239692C52.382 0.220537 52.369 0.201382 52.3555 0.181647C52.3439 0.164809 52.3324 0.147972 52.3204 0.130624C52.2958 0.087956 52.2958 0.087956 52.2958 0.0336914Z" fill="#E0A1FF"/>
</svg>
