<svg width="18" height="18" viewBox="0 0 18 18" fill="none" xmlns="http://www.w3.org/2000/svg">
<path fill-rule="evenodd" clip-rule="evenodd" d="M9 0C4.0275 0 0 4.02614 0 8.99695C0 12.9781 2.57625 16.3407 6.15375 17.5328C6.60375 17.6115 6.7725 17.3416 6.7725 17.1055C6.7725 16.8918 6.76125 16.1833 6.76125 15.4298C4.5 15.8459 3.915 14.8787 3.735 14.3726C3.63375 14.114 3.195 13.3155 2.8125 13.1018C2.4975 12.9331 2.0475 12.517 2.80125 12.5058C3.51 12.4945 4.01625 13.158 4.185 13.428C4.995 14.7887 6.28875 14.4064 6.80625 14.1702C6.885 13.5854 7.12125 13.1918 7.38 12.9669C5.3775 12.7419 3.285 11.9659 3.285 8.52461C3.285 7.5462 3.63375 6.73647 4.2075 6.10668C4.1175 5.88176 3.8025 4.95957 4.2975 3.72249C4.2975 3.72249 5.05125 3.48632 6.7725 4.64468C7.4925 4.44225 8.2575 4.34103 9.0225 4.34103C9.7875 4.34103 10.5525 4.44225 11.2725 4.64468C12.9938 3.47507 13.7475 3.72249 13.7475 3.72249C14.2425 4.95957 13.9275 5.88176 13.8375 6.10668C14.4113 6.73647 14.76 7.53495 14.76 8.52461C14.76 11.9772 12.6562 12.7419 10.6538 12.9669C10.98 13.248 11.2613 13.7878 11.2613 14.6313C11.2613 15.8346 11.25 16.8018 11.25 17.1055C11.25 17.3416 11.4187 17.6228 11.8688 17.5328C13.6554 16.9299 15.2079 15.782 16.3078 14.2508C17.4077 12.7195 17.9995 10.882 18 8.99695C18 4.02614 13.9725 0 9 0Z" fill="#4D4D4D"/>
</svg>
