<svg width="18" height="18" viewBox="0 0 18 18" fill="none" xmlns="http://www.w3.org/2000/svg">
<path d="M8.98438 0.0976562C13.8946 0.0976562 17.8758 4.07809 17.876 8.98828C17.876 13.8987 13.8947 17.8799 8.98438 17.8799C4.07418 17.8797 0.09375 13.8985 0.09375 8.98828C0.0939608 4.07822 4.07431 0.0978671 8.98438 0.0976562ZM9.71387 3.65137C9.56592 3.61824 9.41795 3.71101 9.38477 3.86133V3.86523L8.72852 6.95117C7.49089 6.97113 6.28617 7.35103 5.26074 8.04492C4.73914 7.55434 3.91735 7.57877 3.42676 8.10254C2.93617 8.62415 2.9606 9.44594 3.48438 9.93652C3.58607 10.0315 3.70271 10.1134 3.83301 10.1709C3.82412 10.3013 3.82412 10.4321 3.83301 10.5625C3.83329 12.5535 6.15388 14.1729 9.01562 14.1729C11.8773 14.1728 14.198 12.5557 14.1982 10.5625C14.2071 10.4321 14.2071 10.3013 14.1982 10.1709C14.6447 9.9476 14.9249 9.48769 14.916 8.98828C14.8895 8.27234 14.2885 7.713 13.5703 7.7373C13.2521 7.74842 12.9495 7.879 12.7197 8.09766C11.7075 7.40814 10.5181 7.03038 9.2959 7.00391L9.87305 4.23047L11.7764 4.62988C11.8293 5.11829 12.2665 5.47208 12.7549 5.41895C13.2432 5.366 13.5969 4.92874 13.5439 4.44043C13.4908 3.95202 13.0529 3.59822 12.5645 3.65137C12.2839 3.68013 12.0326 3.84384 11.8936 4.08691L9.71387 3.65137ZM6.83008 11.9854C6.91839 11.9126 7.04413 11.9125 7.13477 11.9854C7.66956 12.3765 8.32157 12.5759 8.98438 12.5449C9.64737 12.5803 10.3014 12.3895 10.8428 12.0029C10.94 11.9079 11.0991 11.9106 11.1943 12.0078C11.2893 12.105 11.2874 12.2634 11.1904 12.3584V12.3232C10.5584 12.7984 9.78446 13.0418 8.99316 13.0088C8.20202 13.0419 7.42902 12.7983 6.79688 12.3232C6.7129 12.2215 6.72833 12.0693 6.83008 11.9854ZM11.0312 9.01953C11.5218 9.01953 11.9219 9.41957 11.9219 9.91016C11.9415 10.4008 11.5589 10.814 11.0684 10.834H11.0244L11.0312 10.8008C10.5407 10.8008 10.1407 10.4006 10.1406 9.91016C10.1406 9.41957 10.5407 9.01954 11.0312 9.01953ZM6.91602 8.98828C7.40653 8.98828 7.80653 9.38841 7.80664 9.87891C7.80664 10.3695 7.4066 10.7695 6.91602 10.7695C6.4233 10.7649 6.02539 10.3695 6.02539 9.87891C6.0255 9.38844 6.42554 8.98833 6.91602 8.98828Z" fill="#4D4D4D"/>
</svg>
