<svg width="22" height="22" viewBox="0 0 22 22" fill="none" xmlns="http://www.w3.org/2000/svg">
<path d="M21.5141 5.67832C21.3879 5.21199 21.1418 4.78684 20.8002 4.44523C20.4586 4.10361 20.0335 3.85744 19.5671 3.73123C17.8599 3.26562 10.9888 3.26562 10.9888 3.26562C10.9888 3.26562 4.11745 3.27972 2.41022 3.74533C1.94388 3.87154 1.51874 4.11773 1.17714 4.45936C0.835539 4.80099 0.589395 5.22615 0.46322 5.6925C-0.0531788 8.72592 -0.253499 13.3482 0.477399 16.2602C0.603588 16.7266 0.849737 17.1517 1.19134 17.4933C1.53294 17.8349 1.95807 18.0811 2.4244 18.2073C4.13163 18.6729 11.0029 18.6729 11.0029 18.6729C11.0029 18.6729 17.874 18.6729 19.5811 18.2073C20.0475 18.0811 20.4726 17.835 20.8142 17.4933C21.1559 17.1517 21.402 16.7266 21.5282 16.2602C22.0729 13.2225 22.2407 8.60312 21.5141 5.67832Z" fill="#4D4D4D"/>
<path d="M8.8018 14.2711L14.5019 10.9695L8.8018 7.66797V14.2711Z" fill="#F5F5F5"/>
</svg>
