<svg width="36" height="37" viewBox="0 0 36 37" fill="none" xmlns="http://www.w3.org/2000/svg">
<rect y="0.804199" width="36" height="36" rx="8" fill="#E7E6F2"/>
<path d="M9 12.2243C9 11.647 9.20271 11.1708 9.60811 10.7957C10.0135 10.4205 10.5405 10.2329 11.1892 10.2329C11.8263 10.2329 12.3417 10.4176 12.7355 10.787C13.1409 11.168 13.3436 11.6644 13.3436 12.2762C13.3436 12.8303 13.1467 13.2921 12.7529 13.6615C12.3475 14.0424 11.8147 14.2329 11.1544 14.2329H11.1371C10.5 14.2329 9.98456 14.0424 9.59073 13.6615C9.19691 13.2805 9 12.8014 9 12.2243ZM9.22587 27.3758V15.8087H13.083V27.3758H9.22587ZM15.2201 27.3758H19.0772V20.9169C19.0772 20.5128 19.1236 20.2011 19.2162 19.9818C19.3784 19.5893 19.6245 19.2574 19.9546 18.9862C20.2847 18.7149 20.6988 18.5792 21.1969 18.5792C22.4942 18.5792 23.1429 19.4508 23.1429 21.1939V27.3758H27V20.7437C27 19.0352 26.5946 17.7394 25.7838 16.8563C24.973 15.9732 23.9015 15.5316 22.5695 15.5316C21.0753 15.5316 19.9112 16.1723 19.0772 17.4537V17.4883H19.0598L19.0772 17.4537V15.8087H15.2201C15.2432 16.1781 15.2548 17.3267 15.2548 19.2546C15.2548 21.1824 15.2432 23.8895 15.2201 27.3758Z" fill="#8D8BA7"/>
</svg>
