<svg width="36" height="36" viewBox="0 0 36 36" fill="none" xmlns="http://www.w3.org/2000/svg">
<rect width="36" height="36" rx="8" fill="#E7E6F2"/>
<g clip-path="url(#clip0_682_10210)">
<path d="M18.0022 8.99951H17.9978C13.0354 8.99951 9 13.036 9 17.9995C9 19.9683 9.6345 21.793 10.7134 23.2746L9.59175 26.6181L13.0511 25.5123C14.4742 26.455 16.1719 26.9995 18.0022 26.9995C22.9646 26.9995 27 22.9619 27 17.9995C27 13.0371 22.9646 8.99951 18.0022 8.99951Z" fill="#8D8BA7"/>
<path d="M23.2396 21.7085C23.0225 22.3216 22.1607 22.8301 21.4734 22.9786C21.0031 23.0787 20.3889 23.1586 18.3211 22.3013C15.6762 21.2056 13.973 18.518 13.8402 18.3436C13.7131 18.1692 12.7715 16.9205 12.7715 15.629C12.7715 14.3375 13.4274 13.7086 13.6917 13.4386C13.9089 13.217 14.2677 13.1157 14.612 13.1157C14.7234 13.1157 14.8235 13.1213 14.9135 13.1258C15.1779 13.1371 15.3106 13.1528 15.485 13.5702C15.7021 14.0933 16.2309 15.3848 16.2939 15.5176C16.358 15.6503 16.4221 15.8303 16.3321 16.0047C16.2477 16.1847 16.1735 16.2646 16.0407 16.4176C15.908 16.5706 15.782 16.6876 15.6492 16.8518C15.5277 16.9947 15.3905 17.1477 15.5435 17.4121C15.6965 17.6708 16.2252 18.5337 17.0037 19.2267C18.0084 20.1211 18.8229 20.4068 19.1142 20.5283C19.3314 20.6183 19.5901 20.597 19.7487 20.4282C19.9501 20.2111 20.1987 19.8511 20.4519 19.4967C20.6319 19.2425 20.8591 19.211 21.0976 19.301C21.3406 19.3853 22.6265 20.021 22.8909 20.1526C23.1552 20.2853 23.3296 20.3483 23.3937 20.4597C23.4567 20.5711 23.4567 21.0942 23.2396 21.7085Z" fill="#FAFAFA"/>
</g>
<defs>
<clipPath id="clip0_682_10210">
<rect width="18" height="18" fill="white" transform="translate(9 8.99951)"/>
</clipPath>
</defs>
</svg>
