<svg width="141" height="125" viewBox="0 0 141 125" fill="none" xmlns="http://www.w3.org/2000/svg">
<path fill-rule="evenodd" clip-rule="evenodd" d="M103.976 0.222527L33.7193 1.02042L0.136525 59.1876L32.3168 124.271L104.529 124.592L140.34 62.5647L103.976 0.222527ZM119.746 93.8391L137.17 63.6583L109.319 63.5343L91.6782 94.089L119.746 93.8391ZM118.47 96.0489L103.263 122.388L75.4111 122.264L90.4024 96.2988L118.47 96.0489ZM87.8508 96.3216L72.8792 122.253L34.9 122.084L49.5772 96.6624L87.8508 96.3216ZM47.6792 95.5531L33.076 120.847L16.0957 86.5046L29.8134 62.7448L47.6792 95.5531ZM31.1016 60.5136L48.9673 93.3219L66.9098 62.2447L48.8443 30.1171L48.6491 30.1204L31.1016 60.5136ZM28.5813 60.4822L14.9247 84.1362L2.62863 59.2678L15.6441 36.7244L28.5813 60.4822ZM16.9323 34.4932L29.8695 58.251L47.3677 27.9433L47.6195 27.939L34.3455 4.33262L16.9323 34.4932ZM50.853 94.4526L89.1266 94.1117L106.787 63.523L68.8079 63.3539L50.853 94.4526ZM106.451 61.3231L68.8195 61.1555L51.3427 30.0751L87.8655 29.4607L106.451 61.3231ZM86.5954 27.2834L50.118 27.897L36.2253 3.19047L72.303 2.78074L86.5954 27.2834ZM74.8313 2.75203L89.1157 27.241L116.918 26.7733L102.722 2.43528L74.8313 2.75203ZM118.188 28.9506L90.3858 29.4183L109.003 61.3345L137.151 61.4598L118.188 28.9506Z" fill="url(#paint0_linear_935_10600)"/>
<defs>
<linearGradient id="paint0_linear_935_10600" x1="31.838" y1="0.777144" x2="103.285" y2="128.282" gradientUnits="userSpaceOnUse">
<stop stop-color="white"/>
<stop offset="1" stop-color="#FFC700"/>
</linearGradient>
</defs>
</svg>
