<svg width="241" height="241" viewBox="0 0 241 241" fill="none" xmlns="http://www.w3.org/2000/svg">
<g opacity="0.6" filter="url(#filter0_d_935_10987)">
<path d="M12.7231 173.652C16.8212 178.561 22.4932 182.181 29.7573 183.503L45.0786 186.292C46.629 186.574 48.1968 186.715 49.7671 186.715H206.451C215.279 186.715 222.411 182.884 227.482 177.041C234.135 185.369 235.966 196.615 233.792 206.785C230.889 220.355 220.906 231.812 205.963 231.812H49.2798C47.7762 231.812 46.2748 231.676 44.7896 231.406L29.4683 228.617C13.3239 225.678 5.24252 210.892 5.30811 196.012C5.3441 187.858 7.82554 179.759 12.7231 173.652ZM159.857 141.548C165.815 140.534 171.904 141.699 177.258 144.884L219.16 169.814C222.146 171.591 224.674 173.75 226.768 176.182C221.867 181.893 214.965 185.614 206.451 185.614H49.7671C48.2632 185.614 46.7614 185.478 45.2759 185.208L29.9546 182.419C22.9154 181.138 17.4094 177.604 13.4429 172.792C17.4275 168.198 22.8686 164.861 29.7534 163.689L159.857 141.548ZM13.4409 127.172C17.4745 131.658 22.9091 134.946 29.7573 136.192L45.0786 138.981C46.629 139.263 48.1968 139.405 49.7671 139.405H206.451C215.149 139.405 222.201 135.684 227.256 129.986C234.489 138.389 236.528 150.064 234.278 160.587C233.111 166.042 230.799 171.154 227.482 175.319C225.34 172.861 222.762 170.674 219.723 168.867L177.822 143.937C172.25 140.622 165.895 139.402 159.671 140.461L29.5679 162.602C22.466 163.811 16.86 167.225 12.7446 171.91C8.08105 165.79 5.75912 157.816 5.79443 149.814C5.83099 141.533 8.39129 133.311 13.4409 127.172ZM160.343 95.3501C166.301 94.3362 172.391 95.5005 177.746 98.686L219.646 123.616C222.29 125.189 224.575 127.063 226.518 129.16C221.633 134.707 214.821 138.302 206.451 138.302H49.7671C48.2632 138.302 46.7614 138.166 45.2759 137.896L29.9546 135.108C23.3333 133.903 18.0695 130.704 14.1665 126.324C18.1289 121.869 23.4907 118.639 30.2397 117.491L160.343 95.3501ZM13.2104 80.1431C17.3084 85.0523 22.9799 88.6726 30.2437 89.9946L45.5649 92.7827C47.1153 93.0649 48.6832 93.2065 50.2534 93.2065H206.937C215.766 93.2065 222.898 89.3746 227.968 83.5317C234.622 91.8606 236.453 103.106 234.278 113.276C233.083 118.864 230.685 124.093 227.237 128.312C225.246 126.182 222.91 124.275 220.209 122.668L178.309 97.7388C172.737 94.4236 166.383 93.205 160.159 94.2642L30.0552 116.405C23.0723 117.593 17.5365 120.914 13.4409 125.478C8.31177 119.254 5.7574 110.893 5.79443 102.502C5.83051 94.3479 8.31288 86.2501 13.2104 80.1431ZM160.343 48.0386C166.301 47.0246 172.391 48.19 177.746 51.3755L219.646 76.3042C222.632 78.081 225.16 80.2408 227.254 82.6733C222.353 88.3838 215.451 92.105 206.937 92.105H50.2534C48.7496 92.105 47.2477 91.9691 45.7622 91.6987L30.4419 88.9097C23.4021 87.6284 17.8958 84.094 13.9292 79.2817C17.9138 74.6879 23.3554 71.3518 30.2397 70.1802L160.343 48.0386ZM160.831 1.84131C166.789 0.827479 172.878 1.99184 178.232 5.17725L220.133 30.1069C233.436 38.022 237.667 53.5079 234.765 67.0776C233.599 72.5328 231.285 77.6451 227.968 81.8101C225.826 79.3518 223.248 77.1647 220.209 75.3569L178.309 50.4282C172.737 47.1131 166.383 45.8934 160.159 46.9526L30.0552 69.0933C22.9534 70.3018 17.3473 73.7158 13.2319 78.3999C8.56848 72.2802 6.2455 64.307 6.28076 56.3052C6.34644 41.4249 14.5586 26.7335 30.7271 23.9819L160.831 1.84131Z" stroke="white" stroke-width="1.10204" shape-rendering="crispEdges"/>
</g>
<defs>
<filter id="filter0_d_935_10987" x="0.756348" y="0.934082" width="239.429" height="239.428" filterUnits="userSpaceOnUse" color-interpolation-filters="sRGB">
<feFlood flood-opacity="0" result="BackgroundImageFix"/>
<feColorMatrix in="SourceAlpha" type="matrix" values="0 0 0 0 0 0 0 0 0 0 0 0 0 0 0 0 0 0 127 0" result="hardAlpha"/>
<feOffset dy="4"/>
<feGaussianBlur stdDeviation="2"/>
<feComposite in2="hardAlpha" operator="out"/>
<feColorMatrix type="matrix" values="0 0 0 0 0 0 0 0 0 0 0 0 0 0 0 0 0 0 0.25 0"/>
<feBlend mode="normal" in2="BackgroundImageFix" result="effect1_dropShadow_935_10987"/>
<feBlend mode="normal" in="SourceGraphic" in2="effect1_dropShadow_935_10987" result="shape"/>
</filter>
</defs>
</svg>
