<svg width="10" height="11" viewBox="0 0 10 11" fill="none" xmlns="http://www.w3.org/2000/svg">
<path d="M4.80957 7.28564L2.58691 4.4292H7.03223L4.80957 7.28564Z" fill="#6A0DAD"/>
<path d="M4.80957 7.28564L4.05793 7.87051C4.23837 8.1024 4.51575 8.23803 4.80957 8.23803C5.10339 8.23803 5.38077 8.1024 5.56121 7.87051L4.80957 7.28564ZM2.58691 4.4292V3.47682C2.22313 3.47682 1.89112 3.68405 1.73133 4.01086C1.57154 4.33767 1.61187 4.72696 1.83527 5.01406L2.58691 4.4292ZM7.03223 4.4292L7.78387 5.01406C8.00727 4.72696 8.0476 4.33767 7.88781 4.01086C7.72802 3.68405 7.39601 3.47682 7.03223 3.47682V4.4292ZM4.80957 7.28564L5.56121 6.70078L3.33855 3.84433L2.58691 4.4292L1.83527 5.01406L4.05793 7.87051L4.80957 7.28564ZM2.58691 4.4292V5.38158H7.03223V4.4292V3.47682H2.58691V4.4292ZM7.03223 4.4292L6.28059 3.84433L4.05793 6.70078L4.80957 7.28564L5.56121 7.87051L7.78387 5.01406L7.03223 4.4292Z" fill="#6A0DAD"/>
</svg>
