<svg width="36" height="37" viewBox="0 0 36 37" fill="none" xmlns="http://www.w3.org/2000/svg">
<rect y="0.804199" width="36" height="36" rx="8" fill="#E7E6F2"/>
<path d="M18 9.8042C21.5951 9.8042 23.3928 9.804 24.6875 10.6606C25.2657 11.0432 25.761 11.5385 26.1436 12.1167C27.0002 13.4114 27 15.2091 27 18.8042C27 22.3993 27.0002 24.197 26.1436 25.4917C25.761 26.0699 25.2657 26.5652 24.6875 26.9478C23.3928 27.8044 21.5951 27.8042 18 27.8042C14.4049 27.8042 12.6072 27.8044 11.3125 26.9478C10.7343 26.5652 10.239 26.0699 9.85645 25.4917C8.9998 24.197 9 22.3993 9 18.8042C9 15.2091 8.9998 13.4114 9.85645 12.1167C10.239 11.5385 10.7343 11.0432 11.3125 10.6606C12.6072 9.804 14.4049 9.8042 18 9.8042ZM18 14.145C15.4268 14.145 13.3409 16.231 13.3408 18.8042C13.3408 21.3775 15.4267 23.4634 18 23.4634C20.5732 23.4633 22.6592 21.3775 22.6592 18.8042C22.6591 16.231 20.5732 14.1451 18 14.145ZM18 15.7212C19.7025 15.7213 21.0829 17.1017 21.083 18.8042C21.083 20.5068 19.7026 21.8871 18 21.8872C16.2973 21.8872 14.917 20.5069 14.917 18.8042C14.9171 17.1016 16.2974 15.7212 18 15.7212ZM22.8438 12.8159C22.2392 12.8159 21.7482 13.3061 21.748 13.9106C21.748 14.5153 22.2391 15.0054 22.8438 15.0054C23.4482 15.0051 23.9385 14.5151 23.9385 13.9106C23.9383 13.3063 23.4481 12.8162 22.8438 12.8159Z" fill="#8D8BA7"/>
</svg>
