<svg width="169" height="101" viewBox="0 0 169 101" fill="none" xmlns="http://www.w3.org/2000/svg">
<path fill-rule="evenodd" clip-rule="evenodd" d="M84.2903 0C61.8767 0 47.8756 11.1353 42.2701 33.4144C50.6742 22.2791 60.4817 18.1023 71.6842 20.884C78.0797 22.4724 82.6515 27.0862 87.7023 32.1874C95.9467 40.499 105.485 50.1216 126.31 50.1216C148.724 50.1216 162.725 38.9863 168.331 16.7072C159.927 27.8425 150.127 32.0193 138.916 29.2376C132.521 27.6493 127.949 23.0354 122.89 17.9342C114.654 9.61421 105.124 0 84.2903 0ZM42.2701 50.1216C19.8566 50.1216 5.85549 61.257 0.25 83.536C8.65403 72.3923 18.4615 68.2239 29.6641 71.0056C36.0596 72.594 40.6314 77.2078 45.6906 82.309C53.9265 90.6206 63.4651 100.243 84.2987 100.243C106.712 100.243 120.713 89.1079 126.319 66.8288C117.915 77.9642 108.107 82.141 96.9047 79.3592C90.5093 77.7709 85.9375 73.157 80.8866 68.0558C72.6339 59.7442 63.0953 50.1216 42.2701 50.1216Z" fill="black"/>
</svg>
