<svg width="32" height="32" viewBox="0 0 32 32" fill="none" xmlns="http://www.w3.org/2000/svg">
<path d="M24.413 6.66158C23.6804 4.75508 22.4151 3.12141 20.7439 1.92751C18.9787 0.666549 16.8959 0 14.7204 0C11.696 0 8.82813 1.31691 6.85212 3.61303C6.68708 3.80476 6.7087 4.09403 6.90049 4.25906C7.09228 4.4241 7.38142 4.40241 7.54652 4.21069C9.34839 2.11698 11.9631 0.916177 14.7204 0.916177C18.6911 0.916177 22.2686 3.42681 23.6225 7.1634C23.7116 7.40961 23.9482 7.57489 24.2119 7.57489C27.5992 7.57495 30.3558 10.3349 30.3558 13.7273C30.3558 15.308 29.7582 16.81 28.6731 17.9567C28.4992 18.1404 28.5072 18.4304 28.691 18.6043C28.8744 18.778 29.1644 18.7704 29.3386 18.5864C30.5854 17.2688 31.272 15.5432 31.272 13.7273C31.272 9.89727 28.2143 6.7689 24.413 6.66158Z" fill="#910800"/>
<path d="M16.063 27.9773V26.9972C16.063 26.7442 15.858 26.5391 15.605 26.5391C15.3519 26.5391 15.1469 26.7442 15.1469 26.9972V27.9773C14.4427 28.1773 13.9253 28.8257 13.9253 29.593C13.9253 30.5192 14.6788 31.2726 15.605 31.2726C16.5311 31.2726 17.2846 30.5192 17.2846 29.593C17.2846 28.8257 16.7672 28.1773 16.063 27.9773ZM15.605 30.3565C15.1839 30.3565 14.8415 30.014 14.8415 29.593C14.8415 29.172 15.1839 28.8295 15.605 28.8295C16.026 28.8295 16.3684 29.172 16.3684 29.593C16.3684 30.014 16.026 30.3565 15.605 30.3565Z" fill="#910800"/>
<path d="M11.7582 23.6074C11.5051 23.6074 11.3001 23.8125 11.3001 24.0655V26.5392C11.3001 26.7581 11.122 26.9362 10.9031 26.9362H10.0756C9.87561 26.2321 9.22726 25.7146 8.45993 25.7146C7.5338 25.7146 6.78027 26.4681 6.78027 27.3943C6.78027 28.3205 7.5338 29.0739 8.45993 29.0739C9.22726 29.0739 9.87561 28.5565 10.0756 27.8524H10.9031C11.6272 27.8524 12.2163 27.2633 12.2163 26.5392V24.0655C12.2163 23.8125 12.0112 23.6074 11.7582 23.6074ZM8.45993 28.1578C8.03892 28.1578 7.69645 27.8153 7.69645 27.3943C7.69645 26.9733 8.03892 26.6308 8.45993 26.6308C8.88094 26.6308 9.22341 26.9733 9.22341 27.3943C9.22341 27.8153 8.88094 28.1578 8.45993 28.1578Z" fill="#910800"/>
<path d="M26.5386 22.2941C25.7713 22.2941 25.1229 22.8116 24.9229 23.5157H24.0954C23.8765 23.5157 23.6984 23.3376 23.6984 23.1187V20.7664C24.4404 20.7658 24.8714 20.7644 24.8975 20.7619C25.8131 20.6735 26.6893 20.4113 27.5018 19.9823C27.7255 19.8642 27.8112 19.5871 27.6931 19.3633C27.5749 19.1396 27.2978 19.0539 27.0741 19.1721C26.3719 19.5428 25.615 19.7703 24.8239 19.8485C24.7219 19.8503 24.1471 19.851 23.2409 19.851C23.2407 19.851 23.2405 19.851 23.2403 19.851C23.2402 19.851 23.24 19.851 23.2398 19.851C19.6043 19.8508 10.6346 19.8377 5.41467 19.8291C4.54179 19.8275 3.71656 19.5917 3.02821 19.1474C1.70574 18.2939 0.916177 16.8451 0.916177 15.2719C0.916177 13.0169 2.52492 11.1067 4.74152 10.7298C5.03219 10.6802 5.24908 10.429 5.25721 10.1323C5.29849 8.63155 5.67944 7.20451 6.38954 5.8909C6.50986 5.66833 6.42692 5.39042 6.20441 5.2701C5.98172 5.14965 5.70387 5.23272 5.58361 5.45522C4.84175 6.82766 4.42733 8.31235 4.35043 9.87217C1.81543 10.4165 0 12.6499 0 15.2719C0 17.1577 0.946288 18.8942 2.53134 19.9172C3.36756 20.4569 4.36406 20.7433 5.41308 20.7452C6.1043 20.7464 6.80609 20.7475 7.51265 20.7487V23.1187C7.51265 23.3376 7.33454 23.5157 7.11564 23.5157H6.28815C6.08818 22.8116 5.43983 22.2941 4.6725 22.2941C3.74637 22.2941 2.99284 23.0476 2.99284 23.9738C2.99284 24.9 3.74637 25.6534 4.6725 25.6534C5.43983 25.6534 6.08818 25.136 6.28815 24.4319H7.11564C7.83972 24.4319 8.42883 23.8428 8.42883 23.1187V20.7501C9.38647 20.7517 10.3482 20.7531 11.2995 20.7545V21.9277C11.2995 22.1806 11.5046 22.3857 11.7576 22.3857C12.0106 22.3857 12.2157 22.1806 12.2157 21.9277V20.7559C13.2155 20.7573 14.1984 20.7587 15.1475 20.7599V24.8594C15.1475 25.1124 15.3525 25.3175 15.6055 25.3175C15.8586 25.3175 16.0636 25.1124 16.0636 24.8594V20.7611C17.0983 20.7623 18.0836 20.7634 18.9954 20.7644V26.5391C18.9954 27.2632 19.5845 27.8523 20.3086 27.8523H21.1361C21.336 28.5564 21.9844 29.0738 22.7517 29.0738C23.6779 29.0738 24.4314 28.3204 24.4314 27.3942C24.4314 26.468 23.6779 25.7145 22.7517 25.7145C21.9844 25.7145 21.336 26.232 21.1361 26.9361H20.3086C20.0897 26.9361 19.9116 26.758 19.9116 26.5391V20.7652C21.022 20.7661 21.9962 20.7667 22.7816 20.7667H22.7823V23.1187C22.7823 23.8428 23.3714 24.4319 24.0954 24.4319H24.9229C25.1229 25.136 25.7713 25.6534 26.5386 25.6534C27.4647 25.6534 28.2182 24.9 28.2182 23.9738C28.2182 23.0476 27.4647 22.2941 26.5386 22.2941ZM4.6725 24.7373C4.25149 24.7373 3.90902 24.3948 3.90902 23.9738C3.90902 23.5528 4.25149 23.2103 4.6725 23.2103C5.09351 23.2103 5.43598 23.5528 5.43598 23.9738C5.43598 24.3948 5.09351 24.7373 4.6725 24.7373ZM22.7517 26.6307C23.1727 26.6307 23.5152 26.9732 23.5152 27.3942C23.5152 27.8152 23.1727 28.1577 22.7517 28.1577C22.3307 28.1577 21.9882 27.8152 21.9882 27.3942C21.9882 26.9732 22.3307 26.6307 22.7517 26.6307ZM26.5386 24.7373C26.1176 24.7373 25.7751 24.3948 25.7751 23.9738C25.7751 23.5528 26.1176 23.2103 26.5386 23.2103C26.9596 23.2103 27.3021 23.5528 27.3021 23.9738C27.3021 24.3948 26.9596 24.7373 26.5386 24.7373Z" fill="#910800"/>
</svg>
