<svg width="32" height="32" viewBox="0 0 32 32" fill="none" xmlns="http://www.w3.org/2000/svg">
<g clip-path="url(#clip0_582_1393)">
<rect width="31.2722" height="31.2722" transform="translate(0.518555 0.0788574)" fill="white"/>
<path d="M24.9326 6.73946C24.1999 4.83296 22.9346 3.1993 21.2634 2.00539C19.4982 0.74443 17.4154 0.0778809 15.24 0.0778809C12.2155 0.0778809 9.34766 1.39479 7.37165 3.69092C7.20661 3.88264 7.22824 4.17191 7.42002 4.33694C7.61181 4.50198 7.90095 4.48029 8.06605 4.28857C9.86792 2.19486 12.4826 0.994058 15.24 0.994058C19.2106 0.994058 22.7881 3.50469 24.142 7.24128C24.2311 7.48749 24.4677 7.65277 24.7314 7.65277H24.7322C28.1196 7.65283 30.8754 10.4128 30.8754 13.8052C30.8754 15.3859 30.2778 16.8879 29.1927 18.0346C29.0187 18.2183 29.0267 18.5082 29.2105 18.6822C29.394 18.8558 29.6839 18.8483 29.8581 18.6643C31.1049 17.3467 31.7915 15.6211 31.7915 13.8052C31.7915 9.97515 28.7338 6.84678 24.9326 6.73946Z" fill="#910800"/>
<path d="M16.5826 28.0552V27.075C16.5826 26.822 16.3775 26.6169 16.1245 26.6169C15.8714 26.6169 15.6664 26.822 15.6664 27.075V28.0552C14.9623 28.2552 14.4448 28.9035 14.4448 29.6709C14.4448 30.5971 15.1983 31.3505 16.1245 31.3505C17.0506 31.3505 17.8041 30.5971 17.8041 29.6709C17.8041 28.9035 17.2867 28.2552 16.5826 28.0552ZM16.1245 30.4343C15.7035 30.4343 15.361 30.0919 15.361 29.6709C15.361 29.2499 15.7035 28.9074 16.1245 28.9074C16.5455 28.9074 16.888 29.2499 16.888 29.6709C16.888 30.0919 16.5455 30.4343 16.1245 30.4343Z" fill="#910800"/>
<path d="M12.2777 23.6851C12.0247 23.6851 11.8196 23.8902 11.8196 24.1431V26.6168C11.8196 26.8357 11.6415 27.0138 11.4226 27.0138H10.5951C10.3951 26.3097 9.74679 25.7923 8.97946 25.7923C8.05333 25.7923 7.2998 26.5457 7.2998 27.4719C7.2998 28.3981 8.05333 29.1516 8.97946 29.1516C9.74679 29.1516 10.3951 28.6341 10.5951 27.93H11.4226C12.1467 27.93 12.7358 27.3409 12.7358 26.6168V24.1431C12.7358 23.8902 12.5307 23.6851 12.2777 23.6851ZM8.97946 28.2354C8.55845 28.2354 8.21598 27.8929 8.21598 27.4719C8.21598 27.0509 8.55845 26.7084 8.97946 26.7084C9.40048 26.7084 9.74294 27.0509 9.74294 27.4719C9.74294 27.8929 9.40048 28.2354 8.97946 28.2354Z" fill="#910800"/>
<path d="M27.0581 22.3715C26.2908 22.3715 25.6424 22.889 25.4425 23.5931H24.615C24.3961 23.5931 24.218 23.415 24.218 23.1961V20.8438C24.9599 20.8432 25.3909 20.8417 25.4171 20.8392C26.3326 20.7509 27.2089 20.4887 28.0213 20.0597C28.2451 19.9416 28.3307 19.6645 28.2126 19.4407C28.0944 19.217 27.8173 19.1312 27.5937 19.2495C26.8914 19.6202 26.1345 19.8477 25.3435 19.9259C25.2415 19.9277 24.6667 19.9284 23.7604 19.9284C23.7602 19.9284 23.7601 19.9284 23.7599 19.9284C23.7597 19.9284 23.7595 19.9284 23.7593 19.9284C20.1239 19.9282 11.1541 19.9151 5.9342 19.9065C5.06132 19.9049 4.23609 19.6691 3.54774 19.2248C2.22527 18.3713 1.43571 16.9225 1.43571 15.3493C1.43571 13.0943 3.04445 11.1841 5.26105 10.8072C5.55172 10.7576 5.76861 10.5064 5.77674 10.2097C5.81803 8.70894 6.19897 7.2819 6.90907 5.96829C7.02939 5.74572 6.94645 5.46781 6.72394 5.34749C6.50125 5.22704 6.2234 5.31011 6.10314 5.53262C5.36128 6.90505 4.94686 8.38974 4.86997 9.94957C2.33497 10.4939 0.519531 12.7273 0.519531 15.3493C0.519531 17.2351 1.46582 18.9716 3.05087 19.9946C3.88709 20.5343 4.88359 20.8207 5.93261 20.8226C6.62383 20.8238 7.32562 20.8249 8.03218 20.826V23.1961C8.03218 23.415 7.85408 23.5931 7.63517 23.5931H6.80768C6.60771 22.889 5.95936 22.3715 5.19203 22.3715C4.2659 22.3715 3.51238 23.125 3.51238 24.0512C3.51238 24.9774 4.2659 25.7308 5.19203 25.7308C5.95936 25.7308 6.60771 25.2134 6.80768 24.5093H7.63517C8.35926 24.5093 8.94836 23.9202 8.94836 23.1961V20.8275C9.90601 20.829 10.8677 20.8305 11.819 20.8319V22.005C11.819 22.258 12.0241 22.4631 12.2771 22.4631C12.5302 22.4631 12.7352 22.258 12.7352 22.005V20.8333C13.735 20.8347 14.7179 20.8361 15.667 20.8373V24.9368C15.667 25.1898 15.872 25.3949 16.1251 25.3949C16.3781 25.3949 16.5832 25.1898 16.5832 24.9368V20.8384C17.6178 20.8397 18.6031 20.8408 19.5149 20.8417V26.6165C19.5149 27.3406 20.104 27.9297 20.8281 27.9297H21.6556C21.8556 28.6338 22.5039 29.1512 23.2713 29.1512C24.1974 29.1512 24.9509 28.3978 24.9509 27.4716C24.9509 26.5454 24.1974 25.7919 23.2713 25.7919C22.5039 25.7919 21.8556 26.3094 21.6556 27.0135H20.8281C20.6092 27.0135 20.4311 26.8354 20.4311 26.6165V20.8426C21.5416 20.8435 22.5157 20.8441 23.3011 20.8441H23.3018V23.1961C23.3018 23.9202 23.8909 24.5093 24.615 24.5093H25.4425C25.6424 25.2134 26.2908 25.7308 27.0581 25.7308C27.9842 25.7308 28.7378 24.9774 28.7378 24.0512C28.7378 23.125 27.9842 22.3715 27.0581 22.3715ZM5.19203 24.8147C4.77102 24.8147 4.42855 24.4722 4.42855 24.0512C4.42855 23.6302 4.77102 23.2877 5.19203 23.2877C5.61305 23.2877 5.95551 23.6302 5.95551 24.0512C5.95551 24.4722 5.61305 24.8147 5.19203 24.8147ZM23.2713 26.7081C23.6923 26.7081 24.0347 27.0506 24.0347 27.4716C24.0347 27.8926 23.6923 28.2351 23.2713 28.2351C22.8502 28.2351 22.5078 27.8926 22.5078 27.4716C22.5078 27.0506 22.8502 26.7081 23.2713 26.7081ZM27.0581 24.8147C26.6371 24.8147 26.2946 24.4722 26.2946 24.0512C26.2946 23.6302 26.6371 23.2877 27.0581 23.2877C27.4791 23.2877 27.8216 23.6302 27.8216 24.0512C27.8216 24.4722 27.4791 24.8147 27.0581 24.8147Z" fill="#910800"/>
</g>
<defs>
<clipPath id="clip0_582_1393">
<rect width="31.2722" height="31.2722" fill="white" transform="translate(0.518555 0.0788574)"/>
</clipPath>
</defs>
</svg>
