<svg width="31" height="32" viewBox="0 0 31 32" fill="none" xmlns="http://www.w3.org/2000/svg">
<path d="M7.39802 27.354H3.33008" stroke="#2600FF" stroke-width="0.916177" stroke-miterlimit="10" stroke-linecap="round" stroke-linejoin="round"/>
<path d="M5.35693 12.895H7.85034" stroke="#2600FF" stroke-width="0.916177" stroke-miterlimit="10" stroke-linecap="round" stroke-linejoin="round"/>
<path d="M5.35693 15.3367H7.85034" stroke="#2600FF" stroke-width="0.916177" stroke-miterlimit="10" stroke-linecap="round" stroke-linejoin="round"/>
<path d="M5.35693 17.7764H7.85034" stroke="#2600FF" stroke-width="0.916177" stroke-miterlimit="10" stroke-linecap="round" stroke-linejoin="round"/>
<path d="M2.87891 12.8953H3.14019" stroke="#2600FF" stroke-width="0.916177" stroke-miterlimit="10" stroke-linecap="round" stroke-linejoin="round"/>
<path d="M2.87891 15.3367H3.14019" stroke="#2600FF" stroke-width="0.916177" stroke-miterlimit="10" stroke-linecap="round" stroke-linejoin="round"/>
<path d="M2.87891 17.7764H3.14019" stroke="#2600FF" stroke-width="0.916177" stroke-miterlimit="10" stroke-linecap="round" stroke-linejoin="round"/>
<path d="M5.0249 0.536621V4.12553" stroke="#2600FF" stroke-width="0.916177" stroke-miterlimit="10" stroke-linecap="round" stroke-linejoin="round"/>
<path d="M0.617188 0.536377V3.00596C0.617188 3.42655 0.825831 3.70971 1.18021 3.93613C1.35282 4.04643 1.57081 4.12498 1.84175 4.12535C2.07635 4.12565 2.27247 4.07135 2.43458 3.98969C2.84759 3.78172 3.11096 3.46582 3.11096 3.0034V0.536377" stroke="#2600FF" stroke-width="0.916177" stroke-miterlimit="10" stroke-linecap="round" stroke-linejoin="round"/>
<path d="M14.7148 0.536377L17.2396 4.12529" stroke="#2600FF" stroke-width="0.916177" stroke-miterlimit="10" stroke-linecap="round" stroke-linejoin="round"/>
<path d="M17.062 0.536377L14.5337 4.12529" stroke="#2600FF" stroke-width="0.916177" stroke-miterlimit="10" stroke-linecap="round" stroke-linejoin="round"/>
<path d="M10.5874 0.536377V3.00596C10.5874 3.42655 10.796 3.70971 11.1504 3.93613C11.323 4.04643 11.541 4.12498 11.812 4.12535C12.0466 4.12565 12.2427 4.07135 12.4048 3.98969C12.8178 3.78172 13.0812 3.46582 13.0812 3.0034V0.536377" stroke="#2600FF" stroke-width="0.916177" stroke-miterlimit="10" stroke-linecap="round" stroke-linejoin="round"/>
<path d="M8.63731 0.536865L7.11963 4.12577" stroke="#2600FF" stroke-width="0.916177" stroke-miterlimit="10" stroke-linecap="round" stroke-linejoin="round"/>
<path d="M0.618164 7.06323H30.4048" stroke="#2600FF" stroke-width="0.916177" stroke-miterlimit="10" stroke-linecap="round" stroke-linejoin="round"/>
<path d="M27.2114 0.550293H30.4049" stroke="#2600FF" stroke-width="0.916177" stroke-miterlimit="10" stroke-linecap="round" stroke-linejoin="round"/>
<path d="M30.4049 2.33301H27.2114" stroke="#2600FF" stroke-width="0.916177" stroke-miterlimit="10" stroke-linecap="round" stroke-linejoin="round"/>
<path d="M30.4049 4.11475H27.2114" stroke="#2600FF" stroke-width="0.916177" stroke-miterlimit="10" stroke-linecap="round" stroke-linejoin="round"/>
<path d="M29.1831 30.8938H14.1791C13.5044 30.8938 12.9575 30.3469 12.9575 29.6722V11.233C12.9575 10.5584 13.5044 10.0115 14.1791 10.0115H29.1831C29.8577 10.0115 30.4046 10.5584 30.4046 11.233V29.6722C30.4046 30.3469 29.8577 30.8938 29.1831 30.8938Z" stroke="#2600FF" stroke-width="0.916177" stroke-miterlimit="10" stroke-linecap="round" stroke-linejoin="round"/>
<path d="M3.11255 23.8167H1.83973C1.16506 23.8167 0.618164 24.3635 0.618164 25.0382V29.6714C0.618164 30.3461 1.16506 30.893 1.83973 30.893H8.88855C9.56323 30.893 10.1101 30.3461 10.1101 29.6714V25.0382C10.1101 24.3635 9.56323 23.8167 8.88855 23.8167H5.25029" stroke="#2600FF" stroke-width="0.916177" stroke-miterlimit="10" stroke-linecap="round" stroke-linejoin="round"/>
<path d="M0.618164 15.3622V19.4384C0.618164 20.1131 1.16506 20.66 1.83973 20.66H8.88855C9.56323 20.66 10.1101 20.1131 10.1101 19.4384V11.233C10.1101 10.5584 9.56323 10.0115 8.88855 10.0115H1.83973C1.16506 10.0115 0.618164 10.5584 0.618164 11.233V13.2244" stroke="#2600FF" stroke-width="0.916177" stroke-miterlimit="10" stroke-linecap="round" stroke-linejoin="round"/>
<path d="M17.4619 18.7586C17.9384 20.6453 19.6466 22.0418 21.6813 22.0418C24.085 22.0418 26.0334 20.0934 26.0334 17.6897C26.0334 15.2861 24.085 13.3376 21.6813 13.3376C19.6466 13.3376 17.9384 14.7341 17.4619 16.6209" stroke="#2600FF" stroke-width="0.916177" stroke-miterlimit="10" stroke-linecap="round" stroke-linejoin="round"/>
<path d="M25.6589 27.7297H17.7037C16.9049 27.7297 16.2573 27.0822 16.2573 26.2833C16.2573 25.4845 16.9049 24.8369 17.7037 24.8369H25.6589C26.4577 24.8369 27.1053 25.4845 27.1053 26.2833C27.1053 27.0822 26.4577 27.7297 25.6589 27.7297Z" stroke="#2600FF" stroke-width="0.916177" stroke-miterlimit="10" stroke-linecap="round" stroke-linejoin="round"/>
</svg>
