<svg width="32" height="32" viewBox="0 0 32 32" fill="none" xmlns="http://www.w3.org/2000/svg">
<g clip-path="url(#clip0_582_1448)">
<path d="M30.5012 8.39643H29.3398C29.564 7.52985 29.5868 6.62343 29.4065 5.74667C29.2262 4.8699 28.8475 4.04605 28.2995 3.33826C27.7516 2.63048 27.0488 2.05755 26.2451 1.66338C25.4415 1.26921 24.5583 1.06428 23.6631 1.06428C22.768 1.06428 21.8848 1.26921 21.0811 1.66338C20.2775 2.05755 19.5747 2.63048 19.0267 3.33826C18.4788 4.04605 18.1001 4.8699 17.9198 5.74667C17.7395 6.62343 17.7623 7.52985 17.9865 8.39643H12.1357L5.65794 1.9187C5.38836 1.64693 5.06776 1.43107 4.71454 1.28351C4.36132 1.13596 3.98244 1.05961 3.59964 1.05884C3.21684 1.05808 2.83766 1.13292 2.48386 1.27907C2.13006 1.42522 1.8086 1.6398 1.53794 1.9105C1.26728 2.18119 1.05273 2.50268 0.906626 2.8565C0.760519 3.21031 0.685723 3.5895 0.68653 3.9723C0.687337 4.3551 0.763732 4.73397 0.911331 5.08717C1.05893 5.44037 1.27482 5.76095 1.54663 6.0305L1.76211 6.24549C1.07904 7.00672 0.699288 7.99228 0.69495 9.01504V27.4529C0.694436 27.9664 0.795195 28.4749 0.991459 28.9494C1.18772 29.4239 1.47564 29.8551 1.83873 30.2182C2.20182 30.5812 2.63295 30.8692 3.10745 31.0654C3.58194 31.2617 4.09049 31.3624 4.60397 31.3619H30.5012C30.6308 31.3619 30.7551 31.3104 30.8467 31.2188C30.9384 31.1272 30.9899 31.0029 30.9899 30.8733V8.88506C30.9899 8.75547 30.9384 8.63118 30.8467 8.53955C30.7551 8.44791 30.6308 8.39643 30.5012 8.39643ZM18.8069 6.35202C18.9511 5.11218 19.5643 3.97454 20.5207 3.1725C21.4771 2.37046 22.7042 1.96483 23.9502 2.03884C25.1962 2.11285 26.3666 2.66089 27.2214 3.57051C28.0761 4.48013 28.5503 5.68237 28.5467 6.93055C28.5506 8.02177 28.1846 9.0821 27.5084 9.93854C26.6402 11.0319 26.1476 12.3759 26.1036 13.7713H25.1263V10.8396H25.615C25.9049 10.8396 26.1883 10.7536 26.4294 10.5925C26.6704 10.4315 26.8583 10.2025 26.9693 9.93466C27.0802 9.6668 27.1092 9.37206 27.0527 9.08771C26.9961 8.80335 26.8565 8.54216 26.6515 8.33715C26.4465 8.13214 26.1853 7.99253 25.9009 7.93597C25.6166 7.87941 25.3218 7.90844 25.054 8.01939C24.7861 8.13034 24.5572 8.31822 24.3961 8.55929C24.235 8.80035 24.1491 9.08376 24.1491 9.37369V9.86232H23.1718V9.37369C23.1718 9.08376 23.0858 8.80035 22.9248 8.55929C22.7637 8.31822 22.5348 8.13034 22.2669 8.01939C21.9991 7.90844 21.7043 7.87941 21.42 7.93597C21.1356 7.99253 20.8744 8.13214 20.6694 8.33715C20.4644 8.54216 20.3248 8.80335 20.2682 9.08771C20.2117 9.37206 20.2407 9.6668 20.3516 9.93466C20.4626 10.2025 20.6505 10.4315 20.8915 10.5925C21.1326 10.7536 21.416 10.8396 21.7059 10.8396H22.1946V13.7713H21.2173C21.1674 12.3617 20.6657 11.0055 19.7861 9.90287C19.0085 8.89254 18.6571 7.61809 18.8069 6.35202ZM24.6377 16.7031C24.6377 16.9623 24.5347 17.2109 24.3515 17.3941C24.1682 17.5774 23.9196 17.6804 23.6604 17.6804C23.4013 17.6804 23.1527 17.5774 22.9694 17.3941C22.7862 17.2109 22.6832 16.9623 22.6832 16.7031H24.6377ZM21.7059 15.7258C21.5763 15.7258 21.4521 15.6744 21.3604 15.5827C21.2688 15.4911 21.2173 15.3668 21.2173 15.2372V14.7486H26.1036V15.2372C26.1036 15.3668 26.0521 15.4911 25.9605 15.5827C25.8688 15.6744 25.7445 15.7258 25.615 15.7258H21.7059ZM22.1946 9.86232H21.7059C21.6093 9.86232 21.5148 9.83366 21.4345 9.77997C21.3541 9.72628 21.2915 9.64996 21.2545 9.56068C21.2175 9.47139 21.2078 9.37315 21.2267 9.27836C21.2456 9.18358 21.2921 9.09651 21.3604 9.02818C21.4288 8.95984 21.5158 8.9133 21.6106 8.89445C21.7054 8.8756 21.8036 8.88527 21.8929 8.92225C21.9822 8.95924 22.0585 9.02187 22.1122 9.10222C22.1659 9.18258 22.1946 9.27705 22.1946 9.37369V9.86232ZM24.1491 13.7713H23.1718V10.8396H24.1491V13.7713ZM25.1263 9.86232V9.37369C25.1263 9.27705 25.155 9.18258 25.2087 9.10222C25.2624 9.02187 25.3387 8.95924 25.428 8.92225C25.5173 8.88527 25.6155 8.8756 25.7103 8.89445C25.8051 8.9133 25.8921 8.95984 25.9605 9.02818C26.0288 9.09651 26.0753 9.18358 26.0942 9.27836C26.1131 9.37315 26.1034 9.47139 26.0664 9.56068C26.0294 9.64996 25.9668 9.72628 25.8864 9.77997C25.8061 9.83366 25.7116 9.86232 25.615 9.86232H25.1263ZM15.1139 15.4854L13.7594 15.0794L14.7073 14.1315L15.1139 15.4854ZM12.6961 14.7603L11.4448 14.3851V13.2827H12.422C12.5516 13.2827 12.6759 13.2312 12.7675 13.1396C12.8592 13.048 12.9106 12.9237 12.9106 12.7941V11.8168H14.013L14.3883 13.0687L12.6961 14.7603ZM5.29489 8.39643L6.31417 7.37716L11.2425 12.3055H10.9561C10.8265 12.3055 10.7023 12.3569 10.6106 12.4486C10.519 12.5402 10.4675 12.6645 10.4675 12.7941V13.5686L5.29489 8.39643ZM4.60397 7.70551L3.82901 6.93055L6.55848 4.20108L7.33344 4.97604L4.60397 7.70551ZM12.422 10.8396C12.2924 10.8396 12.1681 10.8911 12.0765 10.9827C11.9849 11.0743 11.9334 11.1986 11.9334 11.3282V11.6145L7.00509 6.68624L8.02436 5.66696L13.197 10.8396H12.422ZM3.60228 2.04427C3.85585 2.04359 4.10702 2.0932 4.34128 2.19024C4.57554 2.28728 4.78822 2.42982 4.96702 2.60962L5.86756 3.51016L3.13809 6.23914L2.23755 5.3386C1.96756 5.06874 1.78369 4.72487 1.70918 4.35048C1.63468 3.97609 1.67289 3.58802 1.81899 3.23536C1.96509 2.8827 2.2125 2.58129 2.52994 2.36927C2.84737 2.15725 3.22056 2.04415 3.60228 2.04427ZM2.45401 6.93739L7.53574 12.0191V24.8671C7.47612 24.7997 7.41374 24.7345 7.34859 24.6716C6.98137 24.3055 6.54426 24.017 6.06327 23.8233C5.58227 23.6295 5.06722 23.5345 4.54876 23.5439C4.00196 23.5542 3.46341 23.6791 2.96792 23.9106C2.47242 24.142 2.03101 24.4749 1.67221 24.8876V9.01504C1.67495 8.25109 1.95245 7.51363 2.45401 6.93739ZM30.0126 30.3847H4.60397C4.21545 30.3847 3.83079 30.3075 3.47236 30.1576C3.11392 30.0077 2.78887 29.788 2.51608 29.5113C2.24329 29.2347 2.02821 28.9066 1.88334 28.5461C1.73847 28.1856 1.6667 27.7999 1.67221 27.4114C1.69664 26.6527 2.00892 25.9317 2.54563 25.3949C3.08235 24.8581 3.80325 24.5457 4.56195 24.5211H4.60397C5.38152 24.5211 6.12723 24.83 6.67704 25.3798C7.22685 25.9296 7.53574 26.6754 7.53574 27.4529C7.53574 27.5825 7.58722 27.7068 7.67885 27.7984C7.77049 27.8901 7.89477 27.9415 8.02436 27.9415C8.15396 27.9415 8.27824 27.8901 8.36988 27.7984C8.46151 27.7068 8.51299 27.5825 8.51299 27.4529V12.9964L10.6107 15.0941C10.6679 15.1513 10.7384 15.1934 10.8159 15.2167L15.7022 16.6826C15.7477 16.6961 15.7949 16.703 15.8424 16.7031C15.9186 16.7031 15.9937 16.6853 16.0617 16.6511C16.1298 16.6169 16.1889 16.5673 16.2344 16.5062C16.2799 16.4451 16.3104 16.3743 16.3237 16.2993C16.3369 16.2243 16.3324 16.1472 16.3105 16.0742L14.8446 11.188C14.8214 11.1105 14.7792 11.0399 14.722 10.9827L13.1129 9.37369H18.3344C18.5163 9.77233 18.7423 10.1493 19.0082 10.4975C19.7863 11.4652 20.2198 12.6646 20.2401 13.9062V15.2372C20.2401 15.626 20.3945 15.9988 20.6694 16.2738C20.9443 16.5487 21.3172 16.7031 21.7059 16.7031C21.7059 17.2215 21.9119 17.7186 22.2784 18.0851C22.6449 18.4517 23.1421 18.6576 23.6604 18.6576C24.1788 18.6576 24.676 18.4517 25.0425 18.0851C25.409 17.7186 25.615 17.2215 25.615 16.7031C26.0037 16.7031 26.3766 16.5487 26.6515 16.2738C26.9264 15.9988 27.0808 15.626 27.0808 15.2372V13.9038C27.0944 12.6811 27.5155 11.4979 28.2775 10.5415C28.5595 10.1813 28.7984 9.78936 28.9894 9.37369H30.0126V30.3847Z" fill="#8F7500"/>
<path d="M19.6835 25.8012C19.8164 25.5478 19.9264 25.283 20.0123 25.0101H20.7287C20.8583 25.0101 20.9825 24.9586 21.0742 24.867C21.1658 24.7753 21.2173 24.651 21.2173 24.5215V22.5669C21.2173 22.4373 21.1658 22.3131 21.0742 22.2214C20.9825 22.1298 20.8583 22.0783 20.7287 22.0783H20.0123C19.9264 21.8054 19.8164 21.5406 19.6835 21.2872L20.1912 20.78C20.2828 20.6884 20.3342 20.5641 20.3342 20.4346C20.3342 20.305 20.2828 20.1807 20.1912 20.0891L18.8089 18.7068C18.7172 18.6152 18.593 18.5637 18.4634 18.5637C18.3338 18.5637 18.2096 18.6152 18.1179 18.7068L17.6107 19.2135C17.3573 19.081 17.0925 18.9713 16.8196 18.8856V18.1693C16.8196 18.0397 16.7682 17.9154 16.6765 17.8238C16.5849 17.7321 16.4606 17.6807 16.331 17.6807H14.3765C14.2469 17.6807 14.1226 17.7321 14.031 17.8238C13.9394 17.9154 13.8879 18.0397 13.8879 18.1693V18.8856C13.615 18.9715 13.3503 19.0813 13.0968 19.214L12.5896 18.7068C12.4962 18.6185 12.3726 18.5693 12.2441 18.5693C12.1157 18.5693 11.992 18.6185 11.8987 18.7068L10.5164 20.0891C10.4247 20.1807 10.3733 20.305 10.3733 20.4346C10.3733 20.5641 10.4247 20.6884 10.5164 20.78L11.0235 21.2872C10.8908 21.5406 10.7809 21.8054 10.6952 22.0783H9.97886C9.84927 22.0783 9.72499 22.1298 9.63335 22.2214C9.54171 22.3131 9.49023 22.4373 9.49023 22.5669V24.5215C9.49023 24.651 9.54171 24.7753 9.63335 24.867C9.72499 24.9586 9.84927 25.0101 9.97886 25.0101H10.6952C10.7811 25.283 10.8911 25.5478 11.024 25.8012L10.5164 26.3084C10.4247 26.4 10.3733 26.5243 10.3733 26.6538C10.3733 26.7834 10.4247 26.9076 10.5164 26.9993L11.8987 28.3816C11.9903 28.4732 12.1146 28.5247 12.2441 28.5247C12.3737 28.5247 12.498 28.4732 12.5896 28.3816L13.0968 27.8744C13.3502 28.0071 13.615 28.117 13.8879 28.2028V28.9191C13.8879 29.0487 13.9394 29.173 14.031 29.2646C14.1226 29.3562 14.2469 29.4077 14.3765 29.4077H16.331C16.4606 29.4077 16.5849 29.3562 16.6765 29.2646C16.7682 29.173 16.8196 29.0487 16.8196 28.9191V28.2028C17.0926 28.1169 17.3573 28.0068 17.6107 27.8739L18.1179 28.3816C18.2113 28.4699 18.3349 28.5191 18.4634 28.5191C18.5919 28.5191 18.7155 28.4699 18.8089 28.3816L20.1912 26.9993C20.2828 26.9076 20.3342 26.7834 20.3342 26.6538C20.3342 26.5243 20.2828 26.4 20.1912 26.3084L19.6835 25.8012ZM19.1651 24.413C19.0672 24.8412 18.8976 25.2498 18.6632 25.6214C18.604 25.7151 18.5784 25.8262 18.5907 25.9364C18.6029 26.0466 18.6523 26.1493 18.7307 26.2277L19.1568 26.6538L18.4658 27.3447L18.0398 26.9187C17.9614 26.8403 17.8588 26.7909 17.7487 26.7786C17.6386 26.7663 17.5276 26.7917 17.4339 26.8507C17.0623 27.0855 16.6535 27.2552 16.225 27.3526C16.117 27.3771 16.0206 27.4377 15.9515 27.5242C15.8825 27.6108 15.8448 27.7182 15.8448 27.829V28.4305H14.8651V27.829C14.8651 27.7182 14.8275 27.6108 14.7584 27.5242C14.6894 27.4377 14.593 27.3771 14.485 27.3526C14.0565 27.2552 13.6477 27.0855 13.2761 26.8507C13.1824 26.7917 13.0714 26.7663 12.9613 26.7786C12.8512 26.7909 12.7486 26.8403 12.6702 26.9187L12.2441 27.3447L11.5532 26.6538L11.9793 26.2277C12.0577 26.1493 12.107 26.0466 12.1193 25.9364C12.1315 25.8262 12.106 25.7151 12.0467 25.6214C11.8124 25.2498 11.6427 24.8412 11.5449 24.413C11.5203 24.305 11.4598 24.2086 11.3732 24.1395C11.2867 24.0704 11.1792 24.0328 11.0685 24.0328H10.4675V23.0556H11.0685C11.1792 23.0556 11.2867 23.0179 11.3732 22.9489C11.4598 22.8798 11.5203 22.7834 11.5449 22.6754C11.6427 22.2472 11.8124 21.8386 12.0467 21.467C12.106 21.3733 12.1315 21.2622 12.1193 21.152C12.107 21.0418 12.0577 20.9391 11.9793 20.8607L11.5532 20.4346L12.2441 19.7436L12.6702 20.1697C12.7486 20.2481 12.8512 20.2974 12.9613 20.3098C13.0714 20.3221 13.1824 20.2967 13.2761 20.2377C13.6476 20.0029 14.0564 19.8332 14.485 19.7358C14.593 19.7112 14.6895 19.6506 14.7586 19.564C14.8277 19.4773 14.8652 19.3698 14.8651 19.2589V18.6579H15.8424V19.2589C15.8423 19.3698 15.8799 19.4773 15.9489 19.564C16.018 19.6506 16.1145 19.7112 16.2225 19.7358C16.6511 19.8332 17.0599 20.0029 17.4314 20.2377C17.5251 20.2967 17.6362 20.3221 17.7463 20.3098C17.8563 20.2974 17.959 20.2481 18.0373 20.1697L18.4634 19.7436L19.1543 20.4346L18.7282 20.8607C18.6499 20.9391 18.6005 21.0418 18.5882 21.152C18.576 21.2622 18.6016 21.3733 18.6608 21.467C18.896 21.8384 19.0665 22.247 19.1651 22.6754C19.1895 22.783 19.2497 22.8791 19.3358 22.9481C19.4218 23.0171 19.5287 23.055 19.639 23.0556H20.24V24.0328H19.639C19.5287 24.0334 19.4218 24.0712 19.3358 24.1403C19.2497 24.2093 19.1895 24.3054 19.1651 24.413Z" fill="#8F7500"/>
<path d="M15.3536 20.6123C14.7738 20.6123 14.207 20.7842 13.7248 21.1064C13.2427 21.4285 12.8669 21.8864 12.645 22.4221C12.4231 22.9578 12.3651 23.5473 12.4782 24.116C12.5913 24.6847 12.8706 25.2071 13.2806 25.6171C13.6906 26.0272 14.213 26.3064 14.7817 26.4195C15.3504 26.5326 15.9399 26.4746 16.4756 26.2527C17.0113 26.0308 17.4692 25.655 17.7913 25.1729C18.1135 24.6907 18.2854 24.1239 18.2854 23.5441C18.2846 22.7668 17.9755 22.0215 17.4259 21.4719C16.8762 20.9222 16.131 20.6131 15.3536 20.6123ZM15.3536 25.4986C14.9671 25.4986 14.5892 25.384 14.2678 25.1692C13.9464 24.9544 13.6958 24.6492 13.5479 24.292C13.4 23.9349 13.3613 23.5419 13.4367 23.1628C13.5121 22.7836 13.6983 22.4354 13.9716 22.162C14.2449 21.8887 14.5932 21.7025 14.9723 21.6271C15.3515 21.5517 15.7445 21.5904 16.1016 21.7383C16.4587 21.8863 16.764 22.1368 16.9788 22.4582C17.1935 22.7796 17.3082 23.1575 17.3082 23.5441C17.3082 24.0624 17.1022 24.5596 16.7357 24.9261C16.3691 25.2927 15.872 25.4986 15.3536 25.4986Z" fill="#8F7500"/>
<path d="M26.5919 6.93075H27.5692C27.568 5.89437 27.1558 4.90077 26.423 4.16794C25.6901 3.43511 24.6965 3.02289 23.6602 3.02173V3.99898C24.4375 3.99976 25.1827 4.30889 25.7324 4.85853C26.282 5.40818 26.5911 6.15343 26.5919 6.93075Z" fill="#8F7500"/>
<path d="M25.8591 22.0779C25.4055 22.0779 24.9705 21.8977 24.6498 21.577C24.3291 21.2563 24.1489 20.8213 24.1489 20.3677V19.6348H23.1717V20.3677C23.1724 21.0802 23.4558 21.7633 23.9596 22.2672C24.4635 22.771 25.1466 23.0544 25.8591 23.0552C26.4423 23.0552 27.0015 23.2868 27.4139 23.6992C27.8263 24.1115 28.0579 24.6708 28.0579 25.254C28.0579 25.8371 27.8263 26.3964 27.4139 26.8088C27.0015 27.2211 26.4423 27.4528 25.8591 27.4528H20.7285V28.4301H25.8591C26.7015 28.4301 27.5093 28.0954 28.1049 27.4998C28.7006 26.9042 29.0352 26.0963 29.0352 25.254C29.0352 24.4116 28.7006 23.6038 28.1049 23.0082C27.5093 22.4125 26.7015 22.0779 25.8591 22.0779Z" fill="#8F7500"/>
</g>
<defs>
<clipPath id="clip0_582_1448">
<rect width="31.2722" height="31.2722" fill="white" transform="translate(0.206055 0.577881)"/>
</clipPath>
</defs>
</svg>
