<svg width="33" height="33" viewBox="0 0 33 33" fill="none" xmlns="http://www.w3.org/2000/svg">
<path d="M23.2533 17.7799C23.2501 17.7709 23.2467 17.7622 23.2431 17.7534C23.1235 17.4625 22.8432 17.2747 22.5288 17.2747C22.5285 17.2747 22.5282 17.2747 22.5279 17.2747C22.2131 17.275 21.9328 17.4635 21.8138 17.7548C21.8105 17.7626 21.8075 17.7704 21.8047 17.7784L19.1684 25.0699C19.0231 25.4719 19.3232 25.892 19.7452 25.892C19.9962 25.892 20.2318 25.7367 20.3221 25.487L20.9327 23.798H24.1062L24.7106 25.4853C24.8248 25.8042 25.1763 25.9702 25.4948 25.8559C25.8138 25.7417 25.9796 25.3905 25.8654 25.0716L23.2533 17.7799ZM21.3763 22.5714L22.5267 19.389L23.6668 22.5714H21.3763Z" fill="#FFCF00"/>
<path d="M14.2627 13.1567C14.7861 12.4427 15.0961 11.5621 15.0961 10.6099C15.0961 8.23416 13.1697 6.30127 10.8017 6.30127C8.43384 6.30127 6.50732 8.23416 6.50732 10.6099C6.50732 12.9856 8.43378 14.9184 10.8017 14.9184C11.7797 14.9184 12.6819 14.5881 13.4047 14.0336L14.0766 14.7081C14.3158 14.9481 14.7041 14.9488 14.9441 14.7098C15.184 14.4707 15.1848 14.0823 14.9457 13.8423L14.2627 13.1567ZM10.8017 13.6916C9.11026 13.6916 7.73405 12.3092 7.73405 10.6098C7.73405 8.91046 9.11026 7.52794 10.8017 7.52794C12.4932 7.52794 13.8694 8.91046 13.8694 10.6098C13.8694 11.2221 13.6901 11.7927 13.3824 12.2729L12.5905 11.4779C12.3515 11.238 11.9631 11.2373 11.7231 11.4763C11.4831 11.7154 11.4823 12.1037 11.7214 12.3438L12.5294 13.1549C12.037 13.4933 11.442 13.6916 10.8017 13.6916Z" fill="#FFCF00"/>
<path d="M32.3686 20.8545C32.3686 14.7188 26.7678 10.0065 20.65 11.1816C20.9762 5.51016 16.4541 0.757568 10.8157 0.757568C5.3837 0.757568 0.964355 5.17692 0.964355 10.6089C0.964355 13.49 2.20396 16.1882 4.37711 18.0645L4.047 21.2394C4.02443 21.4563 4.1187 21.6688 4.29455 21.7977C4.47089 21.9269 4.70219 21.9521 4.90148 21.8654L8.67495 20.2262C9.98908 20.5175 11.3554 20.538 12.6841 20.2818C12.3554 25.974 16.8991 30.7059 22.5172 30.7059C23.2384 30.7059 23.9576 30.6272 24.6581 30.4717L28.4315 32.111C28.6304 32.1975 28.8617 32.1727 29.0384 32.0432C29.2143 31.9144 29.3086 31.7019 29.286 31.485L28.9558 28.3099C31.1289 26.4338 32.3686 23.7356 32.3686 20.8545ZM8.76193 18.9869C8.63189 18.9552 8.49487 18.9668 8.37207 19.0202L5.37573 20.3219L5.63101 17.8665C5.65254 17.6597 5.56783 17.4562 5.40597 17.3256C3.36291 15.6778 2.19108 13.2297 2.19108 10.6089C2.19108 5.85327 6.06006 1.9843 10.8157 1.9843C15.5714 1.9843 19.4403 5.85327 19.4403 10.6089C19.4403 15.3646 15.5714 19.2336 10.8157 19.2336C10.123 19.2336 9.43209 19.1506 8.76193 18.9869ZM27.9268 27.571C27.765 27.7015 27.6803 27.9051 27.7018 28.1118L27.9572 30.5674L24.9608 29.2657C24.8379 29.2123 24.7009 29.2006 24.5708 29.2324C23.9015 29.3961 23.2105 29.4791 22.5172 29.4791C17.436 29.4791 13.4069 25.0745 13.9403 19.9521C17.2729 18.8347 19.8158 15.9809 20.4899 12.4705C21.1499 12.3113 21.83 12.2298 22.5172 12.2298C27.2729 12.2298 31.1419 16.0988 31.1419 20.8544C31.1419 23.4753 29.9701 25.9234 27.9268 27.571Z" fill="#FFCF00"/>
</svg>
