<svg width="33" height="32" viewBox="0 0 33 32" fill="none" xmlns="http://www.w3.org/2000/svg">
<g clip-path="url(#clip0_582_1491)">
<path d="M18.8487 9.19163H29.3777C29.788 9.19163 30.1219 8.85778 30.1219 8.44731V4.59422C30.1219 4.34011 29.916 4.1342 29.6619 4.1342C29.4079 4.1342 29.2019 4.34011 29.2019 4.59422V7.56542L27.5936 5.03082C27.4748 4.84356 27.2715 4.7318 27.0497 4.7318C26.8279 4.7318 26.6247 4.84356 26.5059 5.03075L25.4761 6.65378L23.0834 2.88288C22.9646 2.69562 22.7613 2.5838 22.5395 2.5838C22.3177 2.5838 22.1145 2.69562 21.9957 2.88282L19.0245 7.56542V1.17981H29.2018V2.40654C29.2018 2.66066 29.4078 2.86656 29.6619 2.86656C29.9159 2.86656 30.1219 2.66066 30.1219 2.40654V1.00402C30.1219 0.593681 29.788 0.259766 29.3776 0.259766H18.8487C18.4383 0.259766 18.1045 0.593619 18.1045 1.00402V8.44737C18.1045 8.85778 18.4383 9.19163 18.8487 9.19163ZM22.5396 3.74306L24.9323 7.51396C25.0511 7.70116 25.2544 7.81285 25.4761 7.81291H25.4761C25.6978 7.81291 25.9011 7.70122 26.02 7.51396L27.0498 5.89094L28.5604 8.27158H19.6661L22.5396 3.74306Z" fill="#820700"/>
<path d="M24.8984 2.92382C24.8984 3.66998 25.5055 4.27709 26.2517 4.27709C26.9979 4.27709 27.6049 3.66998 27.6049 2.92382C27.6049 2.17766 26.9979 1.57056 26.2516 1.57056C25.5054 1.57056 24.8984 2.1776 24.8984 2.92382ZM26.6849 2.92382C26.6849 3.16273 26.4905 3.35704 26.2516 3.35704C26.0127 3.35704 25.8184 3.16273 25.8184 2.92382C25.8184 2.68492 26.0127 2.4906 26.2516 2.4906C26.4905 2.4906 26.6849 2.68492 26.6849 2.92382Z" fill="#820700"/>
<path d="M29.0426 14.9564H28.6874C27.7925 13.5888 26.2483 12.6829 24.4955 12.6829H24.4279C24.091 11.3241 22.8502 10.3184 21.4126 10.3184H11.5728C10.1352 10.3184 8.89437 11.324 8.55751 12.6829H8.48985C6.73711 12.6829 5.19284 13.5889 4.298 14.9564H3.9428C2.43552 14.9564 1.20929 16.1826 1.20929 17.6899V20.9638C1.20929 22.4711 2.43552 23.6973 3.9428 23.6973H4.29684C4.41534 23.8784 4.54513 24.0515 4.6854 24.2153H1.71476C1.27866 24.2153 0.923828 24.5701 0.923828 25.0062V30.8729C0.923828 31.309 1.27866 31.6638 1.71476 31.6638H9.41186C9.84797 31.6638 10.2028 31.309 10.2028 30.8729V29.0467C10.2028 28.7926 9.99683 28.5867 9.74277 28.5867C9.48872 28.5867 9.28275 28.7926 9.28275 29.0467V30.7438H1.84387V25.1354H9.28269V26.9C9.28269 27.1542 9.48866 27.3601 9.74271 27.3601C9.99677 27.3601 10.2027 27.1542 10.2027 26.9V25.9709H12.3448C13.3183 25.9709 14.2254 25.4472 14.7121 24.6042L15.7097 22.8763C15.8732 22.5932 16.1659 22.4243 16.4927 22.4243C16.8196 22.4243 17.1123 22.5932 17.2757 22.8763L18.2733 24.6042C18.76 25.4472 19.6671 25.9709 20.6406 25.9709H24.4955C26.2483 25.9709 27.7925 25.0649 28.6874 23.6974H29.0426C30.5499 23.6974 31.7761 22.4712 31.7761 20.9639V17.69C31.7761 16.1827 30.5499 14.9564 29.0426 14.9564ZM3.82105 22.7728C2.87764 22.71 2.12927 21.9229 2.12927 20.9638V17.6899C2.12927 16.7304 2.87831 15.943 3.82234 15.8808C3.60392 16.4423 3.48278 17.0521 3.48278 17.6899V20.9638C3.48278 21.6014 3.60276 22.2115 3.82105 22.7728ZM28.5825 20.9638C28.5825 23.2174 26.7491 25.0509 24.4955 25.0509H20.6406C19.9948 25.0509 19.3929 24.7034 19.0701 24.1441L18.0725 22.4163C17.7428 21.8451 17.1523 21.5042 16.4928 21.5042C15.8334 21.5042 15.2427 21.8452 14.913 22.4163L13.9154 24.1441C13.5925 24.7034 12.9907 25.0509 12.3449 25.0509H10.2029V25.0063C10.2029 24.5702 9.84803 24.2153 9.41192 24.2153H6.01861C5.0376 23.4683 4.40283 22.2892 4.40283 20.9638V17.6899C4.40283 15.4363 6.23629 13.6029 8.48985 13.6029H18.6603C18.9143 13.6029 19.1203 13.397 19.1203 13.1428C19.1203 12.8887 18.9143 12.6828 18.6603 12.6828H9.51748C9.8249 11.8398 10.64 11.2383 11.5728 11.2383H21.4126C22.3454 11.2383 23.1605 11.8398 23.4679 12.6828H20.8071C20.553 12.6828 20.347 12.8887 20.347 13.1428C20.347 13.397 20.553 13.6029 20.8071 13.6029H24.4955C26.7491 13.6029 28.5825 15.4363 28.5825 17.6899L28.5825 20.9638ZM30.8561 20.9638C30.8561 21.9233 30.1071 22.7108 29.163 22.773C29.3815 22.2114 29.5026 21.6017 29.5026 20.9638V17.6899C29.5026 17.0521 29.3815 16.4424 29.163 15.8808C30.1071 15.943 30.8561 16.7304 30.8561 17.6899V20.9638Z" fill="#820700"/>
<path d="M6.39752 17.1392C6.14347 17.1392 5.9375 17.3451 5.9375 17.5992V21.0549C5.9375 21.3091 6.14347 21.515 6.39752 21.515C6.65158 21.515 6.85755 21.3091 6.85755 21.0549V17.5992C6.85755 17.3451 6.65164 17.1392 6.39752 17.1392Z" fill="#820700"/>
<path d="M26.588 17.1392C26.3339 17.1392 26.1279 17.3451 26.1279 17.5992V21.0549C26.1279 21.3091 26.3339 21.515 26.588 21.515C26.842 21.515 27.048 21.3091 27.048 21.0549V17.5992C27.048 17.3451 26.842 17.1392 26.588 17.1392Z" fill="#820700"/>
<path d="M4.67662 25.9198C4.45992 25.7946 4.19084 25.7946 3.97426 25.9198C3.75762 26.0449 3.62305 26.278 3.62305 26.5281V29.351C3.62305 29.6012 3.75762 29.8343 3.97432 29.9594C4.08264 30.0219 4.20409 30.0532 4.32553 30.0531C4.44698 30.0531 4.56842 30.0218 4.67674 29.9593L7.12149 28.5478C7.33813 28.4227 7.4727 28.1896 7.4727 27.9394C7.4727 27.6893 7.33807 27.4562 7.12149 27.3312L4.67662 25.9198ZM4.54315 28.974V26.905L6.33497 27.9395L4.54315 28.974Z" fill="#820700"/>
<path d="M14.7054 4.75369H16.426C16.7891 4.75369 17.0846 4.45829 17.0846 4.09518V2.37457C17.0846 2.01146 16.7892 1.71606 16.426 1.71606H14.7054C14.3423 1.71606 14.0469 2.01146 14.0469 2.37457V4.09518C14.0469 4.45823 14.3423 4.75369 14.7054 4.75369ZM14.9669 2.63605H16.1645V3.83358H14.9669V2.63605Z" fill="#820700"/>
<path d="M28.209 10.7115V12.4321C28.209 12.7952 28.5044 13.0906 28.8676 13.0906H30.5881C30.9512 13.0906 31.2467 12.7952 31.2467 12.4321V10.7115C31.2467 10.3484 30.9513 10.053 30.5881 10.053H28.8676C28.5044 10.053 28.209 10.3484 28.209 10.7115ZM29.129 10.973H30.3266V12.1706H29.129V10.973Z" fill="#820700"/>
<path d="M13.3498 26.8958H11.6292C11.2661 26.8958 10.9707 27.1911 10.9707 27.5543V29.2749C10.9707 29.638 11.2661 29.9334 11.6292 29.9334H13.3498C13.7129 29.9334 14.0084 29.638 14.0084 29.2749V27.5543C14.0083 27.1911 13.7129 26.8958 13.3498 26.8958ZM13.0883 29.0133H11.8907V27.8158H13.0883V29.0133Z" fill="#820700"/>
<path d="M8.40242 15.7945C8.59606 15.6008 8.59606 15.2869 8.40242 15.0932C8.20879 14.8996 7.89484 14.8996 7.7012 15.0932C7.50756 15.2869 7.50756 15.6008 7.7012 15.7945C7.89484 15.9881 8.20879 15.9881 8.40242 15.7945Z" fill="#820700"/>
<path d="M9.99129 15.7945C10.1849 15.6008 10.1849 15.2869 9.99129 15.0932C9.79765 14.8996 9.4837 14.8996 9.29007 15.0932C9.09643 15.2869 9.09643 15.6008 9.29007 15.7945C9.4837 15.9881 9.79765 15.9881 9.99129 15.7945Z" fill="#820700"/>
</g>
<defs>
<clipPath id="clip0_582_1491">
<rect width="31.4042" height="31.4042" fill="white" transform="translate(0.649414 0.258545)"/>
</clipPath>
</defs>
</svg>
