<svg width="286" height="105" viewBox="0 0 286 105" fill="none" xmlns="http://www.w3.org/2000/svg">
<g clip-path="url(#clip0_223_16161)">
<path d="M97.758 15.828C97.7782 15.7287 97.8226 15.6361 97.8871 15.5587C97.9677 15.4588 98.0602 15.3695 98.1627 15.293C98.2691 15.2104 98.3866 15.1436 98.5115 15.0946C98.6227 15.0499 98.7408 15.0259 98.8603 15.0237H104.054C104.27 15.0181 104.481 15.0952 104.644 15.2399C104.777 15.3562 104.899 15.4842 105.01 15.6225L105.516 16.7988L116.169 44.7401C116.224 44.8455 116.248 44.965 116.238 45.084C116.227 45.2029 116.182 45.3162 116.109 45.4098C116.006 45.5054 115.884 45.5778 115.751 45.6224C115.618 45.6669 115.478 45.6826 115.339 45.6684H109.513C109.262 45.6836 109.011 45.6219 108.795 45.4913C108.603 45.3445 108.463 45.138 108.397 44.9031C108.13 44.1945 107.866 43.4965 107.605 42.8091C107.347 42.1005 107.092 41.4167 106.834 40.7151H96.0523C95.7942 41.4238 95.5361 42.1147 95.271 42.8091C95.0059 43.5036 94.7477 44.2016 94.4896 44.9031C94.4289 45.1337 94.2915 45.3359 94.1008 45.4754C93.9101 45.6149 93.6777 45.6831 93.4431 45.6684H87.4679C87.2375 45.6772 87.0115 45.6032 86.8295 45.4594C86.6586 45.3248 86.6307 45.1051 86.7388 44.8429L97.758 15.828ZM101.449 24.6611C101.194 25.3697 100.932 26.1173 100.671 26.9287C100.409 27.7401 100.144 28.5621 99.8858 29.3877C99.6277 30.2132 99.3696 31.0281 99.108 31.8324C98.8464 32.6367 98.5813 33.3879 98.3266 34.0894H104.557L101.449 24.6611Z" fill="#DA2128"/>
<path d="M117.846 15.9289C117.84 15.6955 117.92 15.4683 118.069 15.2911C118.154 15.1978 118.258 15.1251 118.374 15.0785C118.49 15.0318 118.615 15.0125 118.739 15.0218H125.367C125.571 15.0257 125.773 15.0753 125.956 15.1671C126.178 15.278 126.363 15.4515 126.49 15.6667C128.208 18.487 129.914 21.266 131.607 24.0037C133.3 26.7414 135.01 29.5133 136.738 32.3195V15.8049C136.781 15.5812 136.895 15.3782 137.063 15.2273C137.222 15.0914 137.423 15.0185 137.631 15.0218H143.401C143.653 15.0151 143.9 15.0991 144.098 15.2592C144.193 15.3413 144.268 15.4444 144.317 15.5605C144.366 15.6766 144.388 15.8027 144.381 15.9289V44.8622C144.39 44.9753 144.373 45.089 144.331 45.1942C144.29 45.2994 144.224 45.3932 144.14 45.4681C143.946 45.6101 143.709 45.6802 143.47 45.6665H137.024C136.85 45.6672 136.683 45.6 136.557 45.4788C136.398 45.3297 136.255 45.1634 136.131 44.9827L130.794 36.0079C129.032 33.0506 127.246 30.059 125.436 27.0331V44.7489C125.455 44.9933 125.383 45.236 125.234 45.4291C125.133 45.5151 125.017 45.5795 124.891 45.6185C124.765 45.6575 124.632 45.6702 124.502 45.6559H118.739C118.614 45.6667 118.488 45.6491 118.37 45.6043C118.253 45.5596 118.146 45.4889 118.059 45.3973C117.915 45.2202 117.839 44.9961 117.846 44.7666V15.9289Z" fill="#DA2128"/>
<path d="M147.189 30.3749C147.178 27.5721 147.908 24.8177 149.302 22.3992C149.973 21.2291 150.788 20.1504 151.727 19.1891C152.663 18.2276 153.718 17.3939 154.866 16.7089C156.03 16.0236 157.275 15.4903 158.571 15.1216C161.272 14.3657 164.125 14.3657 166.827 15.1216C168.128 15.4957 169.376 16.0362 170.542 16.7302C171.689 17.4165 172.744 18.2501 173.681 19.2104C174.63 20.167 175.451 21.2463 176.123 22.4205C176.799 23.6075 177.324 24.8766 177.686 26.1975C178.43 28.9456 178.43 31.8467 177.686 34.5948C177.326 35.9098 176.801 37.1721 176.123 38.3505C175.45 39.5172 174.629 40.5893 173.681 41.5393C172.742 42.4975 171.688 43.3309 170.542 44.0196C169.378 44.7131 168.129 45.248 166.827 45.6104C164.123 46.3522 161.274 46.3522 158.571 45.6104C157.273 45.2467 156.027 44.7118 154.866 44.0196C152.566 42.6392 150.651 40.6855 149.302 38.3434C148.618 37.1681 148.091 35.905 147.736 34.5877C147.367 33.215 147.183 31.7978 147.189 30.3749ZM155.044 30.3536C155.036 31.4429 155.228 32.5242 155.609 33.5424C155.971 34.5015 156.511 35.3808 157.2 36.1325C157.906 36.8923 158.76 37.4948 159.707 37.9016C160.655 38.3085 161.675 38.5108 162.704 38.4958C163.766 38.5084 164.82 38.2935 165.795 37.8651C166.716 37.4625 167.547 36.8729 168.236 36.1325C168.928 35.3827 169.468 34.5028 169.827 33.5424C170.583 31.4858 170.583 29.2214 169.827 27.1648C169.469 26.1986 168.929 25.3128 168.236 24.557C167.529 23.7919 166.675 23.1822 165.727 22.7654C164.779 22.3485 163.756 22.1335 162.723 22.1335C161.69 22.1335 160.668 22.3485 159.72 22.7654C158.771 23.1822 157.917 23.7919 157.21 24.557C156.517 25.3137 155.973 26.1991 155.609 27.1648C155.229 28.1834 155.038 29.2644 155.044 30.3536Z" fill="#939598"/>
<path d="M188.507 33.4456C188.484 34.328 188.626 35.2069 188.925 36.0356C189.165 36.6867 189.539 37.2785 190.021 37.7718C190.471 38.2156 191.013 38.551 191.608 38.7532C192.214 38.9591 192.849 39.0632 193.488 39.0615C194.145 39.0678 194.797 38.9476 195.41 38.7072C196.008 38.4728 196.549 38.1102 196.997 37.6442C197.472 37.1346 197.838 36.5317 198.075 35.8726C198.352 35.0987 198.487 34.2796 198.473 33.4562V15.9282C198.471 15.8103 198.492 15.6932 198.535 15.5837C198.578 15.4742 198.642 15.3746 198.724 15.2905C198.812 15.1998 198.919 15.129 199.036 15.0826C199.153 15.0363 199.278 15.0153 199.404 15.0212H205.334C205.468 15.0132 205.602 15.034 205.728 15.0822C205.853 15.1305 205.968 15.205 206.063 15.3011C206.146 15.3821 206.213 15.4795 206.258 15.5872C206.304 15.695 206.328 15.811 206.328 15.9282V33.3251C206.328 35.7297 205.979 37.7517 205.282 39.391C204.67 40.9135 203.714 42.2681 202.491 43.3452C201.293 44.344 199.898 45.0691 198.399 45.471C196.808 45.9105 195.165 46.1298 193.516 46.123C191.865 46.1298 190.222 45.9032 188.632 45.4498C187.127 45.0302 185.729 44.2844 184.534 43.2637C183.307 42.1828 182.344 40.8266 181.722 39.3024C181.025 37.6726 180.676 35.6742 180.676 33.3074V15.9282C180.675 15.6977 180.757 15.4747 180.906 15.3011C180.975 15.2127 181.063 15.1415 181.164 15.093C181.264 15.0445 181.374 15.0199 181.485 15.0212H187.558C187.792 15.0327 188.016 15.1238 188.193 15.2798C188.299 15.3504 188.386 15.4465 188.447 15.5596C188.508 15.6727 188.541 15.7994 188.542 15.9282L188.507 33.4456Z" fill="#9F2138"/>
<path d="M235.87 30.3758C235.878 31.7814 235.693 33.1813 235.322 34.5354C234.963 35.8261 234.433 37.0611 233.746 38.2061C232.399 40.482 230.491 42.3616 228.21 43.6591C227.043 44.3141 225.8 44.8165 224.509 45.1543C223.162 45.5081 221.777 45.6855 220.386 45.6822H210.375C210.148 45.6856 209.924 45.6282 209.726 45.5157C209.62 45.4346 209.538 45.3258 209.488 45.201C209.438 45.0762 209.423 44.9401 209.443 44.807V15.9729C209.429 15.7149 209.512 15.4612 209.677 15.2642C209.766 15.1697 209.875 15.0965 209.996 15.05C210.117 15.0034 210.246 14.9846 210.375 14.995H220.386C221.774 14.9909 223.157 15.172 224.498 15.5335C225.788 15.8785 227.028 16.3906 228.189 17.0571C229.328 17.7136 230.382 18.511 231.328 19.431C232.276 20.3468 233.097 21.3884 233.77 22.5277C234.444 23.6849 234.968 24.9258 235.329 26.2197C235.701 27.5724 235.883 28.9715 235.87 30.3758ZM217.302 22.4001V38.2699H219.008C219.318 38.2699 219.622 38.2699 219.922 38.238L220.815 38.1672C221.798 38.0922 222.761 37.8365 223.654 37.4125C224.514 37.0067 225.295 36.4474 225.96 35.7614C226.62 35.0771 227.143 34.2698 227.502 33.3839C227.879 32.4253 228.069 31.4011 228.06 30.3687C228.072 29.2714 227.853 28.1842 227.418 27.1799C227.008 26.2309 226.417 25.374 225.679 24.6587C224.94 23.9435 224.07 23.3842 223.117 23.0131C222.117 22.6165 221.051 22.4169 219.978 22.4249L217.302 22.4001Z" fill="#9F2138"/>
<path d="M87.8468 77.457L90.4665 85.9075L93.0547 77.457H94.1465L96.7662 85.9075L99.3579 77.457H100.495L97.2894 87.1546H96.1697L93.5919 78.9381L90.9862 87.1546H89.87L86.6748 77.457H87.8468Z" fill="#9F2138"/>
<path d="M107.287 83.913H101.423C101.472 84.5743 101.77 85.1908 102.256 85.6343C102.741 86.0778 103.376 86.3141 104.029 86.294C104.442 86.3034 104.853 86.2257 105.235 86.066C105.618 85.9062 105.963 85.6678 106.251 85.3657L106.837 85.9893C106.466 86.3862 106.016 86.6988 105.518 86.9065C105.019 87.1141 104.483 87.2121 103.945 87.194C101.831 87.194 100.373 85.6846 100.373 83.5091C100.373 81.3336 101.845 79.8384 103.931 79.8242C106.251 79.8242 107.398 81.447 107.287 83.913ZM106.334 83.052C106.338 82.7355 106.278 82.4216 106.157 82.1298C106.036 81.8381 105.857 81.5748 105.632 81.3563C105.406 81.1379 105.139 80.969 104.846 80.8602C104.554 80.7515 104.242 80.7052 103.931 80.7242C103.296 80.7 102.677 80.9306 102.207 81.3662C101.738 81.8017 101.456 82.4073 101.423 83.052H106.334Z" fill="#9F2138"/>
<path d="M119.485 77.457V78.481H114.1V81.7372H118.913V82.747H114.1V86.1271H119.681V87.1546H113.008V77.457H119.485Z" fill="#9F2138"/>
<path d="M128.314 82.6658V87.155H127.25V82.9422C127.25 81.6383 126.486 80.8624 125.216 80.8624C123.796 80.8624 122.924 81.8332 122.802 83.2469V87.1444H121.738V79.8667H122.82V81.4718C123.325 80.3663 124.292 79.8384 125.61 79.8242C127.302 79.8242 128.314 80.8907 128.314 82.6658Z" fill="#9F2138"/>
<path d="M132.531 80.7231C131.725 80.7231 131.111 81.0137 131.111 81.7081C131.111 83.3557 135.123 82.5124 135.123 85.1308C135.123 86.5481 133.867 87.1929 132.489 87.1929C131.477 87.2128 130.494 86.8476 129.733 86.1689L130.145 85.3788C130.802 85.973 131.651 86.3031 132.531 86.3071C133.375 86.3071 134.059 85.9741 134.073 85.2442C134.111 83.4726 130.089 84.3726 130.103 81.7932C130.103 80.4078 131.289 79.8125 132.597 79.8125C133.408 79.8095 134.203 80.0405 134.889 80.4786L134.481 81.3113C133.896 80.9377 133.222 80.7342 132.531 80.7231Z" fill="#9F2138"/>
<path d="M143.103 79.8672V87.1554H142.057V85.5043C141.579 86.6417 140.623 87.1803 139.329 87.1944C137.651 87.1944 136.64 86.1138 136.64 84.3599V79.8672H137.704V84.08C137.704 85.3803 138.454 86.1563 139.695 86.1563C141.181 86.1279 142.057 85.0225 142.057 83.4422V79.8672H143.103Z" fill="#9F2138"/>
<path d="M149.329 79.8226V80.8855C147.812 80.8572 146.887 81.8138 146.751 83.2842V87.164H145.688V79.8651H146.751V81.4843C146.963 80.9737 147.324 80.5409 147.784 80.2439C148.245 79.947 148.784 79.8 149.329 79.8226Z" fill="#9F2138"/>
<path d="M156.966 83.913H151.102C151.15 84.574 151.448 85.1905 151.933 85.6341C152.418 86.0777 153.052 86.3141 153.704 86.294C154.118 86.3034 154.53 86.2258 154.913 86.0661C155.296 85.9063 155.642 85.6679 155.93 85.3657L156.516 85.9893C156.144 86.385 155.695 86.6967 155.196 86.9043C154.698 87.1118 154.162 87.2105 153.624 87.194C151.51 87.194 150.049 85.6846 150.049 83.5091C150.049 81.3336 151.524 79.8384 153.61 79.8242C155.93 79.8242 157.074 81.447 156.966 83.913ZM156.01 83.052C156.015 82.7357 155.955 82.4218 155.834 82.1301C155.714 81.8383 155.535 81.575 155.31 81.3565C155.085 81.138 154.818 80.9691 154.525 80.8603C154.233 80.7515 153.921 80.7051 153.61 80.7242C152.975 80.6991 152.355 80.9294 151.886 81.3651C151.416 81.8008 151.135 82.4069 151.102 83.052H156.01Z" fill="#9F2138"/>
<path d="M159.52 86.5602C159.513 86.6919 159.468 86.8187 159.391 86.9248C159.314 87.0309 159.208 87.1116 159.086 87.1569C158.964 87.2023 158.832 87.2102 158.705 87.1798C158.579 87.1494 158.464 87.082 158.375 86.9858C158.286 86.8897 158.227 86.7692 158.205 86.6392C158.183 86.5093 158.199 86.3756 158.251 86.2547C158.303 86.1339 158.389 86.0313 158.498 85.9596C158.607 85.888 158.734 85.8504 158.864 85.8516C158.954 85.8524 159.042 85.8716 159.124 85.9081C159.206 85.9445 159.28 85.9975 159.341 86.0637C159.402 86.1299 159.45 86.208 159.48 86.2934C159.511 86.3787 159.525 86.4695 159.52 86.5602Z" fill="#9F2138"/>
<path d="M168.781 83.7886V87.1546H167.703V83.8134L164.009 77.457H165.139L168.236 82.5379L171.306 77.457H172.426L168.781 83.7886Z" fill="#9F2138"/>
<path d="M179.677 83.4949C179.677 84.476 179.293 85.4168 178.61 86.1106C177.927 86.8043 177.001 87.194 176.035 87.194C175.069 87.194 174.143 86.8043 173.46 86.1106C172.777 85.4168 172.394 84.476 172.394 83.4949C172.394 81.3336 173.907 79.8242 176.035 79.8242C178.163 79.8242 179.677 81.3336 179.677 83.4949ZM173.457 83.4949C173.457 85.1319 174.532 86.2373 176.035 86.2373C177.539 86.2373 178.613 85.1319 178.613 83.4949C178.613 81.858 177.535 80.7667 176.035 80.7667C174.535 80.7667 173.45 81.9218 173.45 83.5091L173.457 83.4949Z" fill="#9F2138"/>
<path d="M187.773 79.8672V87.1554H186.71V85.5043C186.232 86.6417 185.276 87.1803 183.982 87.1944C182.304 87.1944 181.296 86.1138 181.296 84.3599V79.8672H182.36V84.08C182.36 85.3803 183.11 86.1563 184.352 86.1563C185.838 86.1279 186.71 85.0225 186.71 83.4422V79.8672H187.773Z" fill="#9F2138"/>
<path d="M195.346 77.457V87.1546H194.258V77.457H195.346Z" fill="#9F2138"/>
<path d="M204.667 82.6658V87.155H203.6V82.9422C203.6 81.6383 202.839 80.8624 201.57 80.8624C200.15 80.8624 199.278 81.8332 199.156 83.2469V87.1444H198.092V79.8667H199.156V81.4718C199.658 80.3663 200.628 79.8384 201.946 79.8242C203.655 79.8242 204.667 80.8907 204.667 82.6658Z" fill="#9F2138"/>
<path d="M208.884 80.7231C208.079 80.7231 207.465 81.0136 207.465 81.7081C207.465 83.3557 211.476 82.5124 211.476 85.1308C211.476 86.548 210.22 87.1929 208.843 87.1929C207.83 87.2135 206.847 86.8482 206.087 86.1689L206.495 85.3788C207.154 85.9727 208.003 86.3027 208.884 86.3071C209.729 86.3071 210.409 85.9741 210.423 85.2442C210.465 83.4726 206.439 84.3726 206.453 81.7931C206.453 80.4078 207.643 79.8125 208.951 79.8125C209.761 79.81 210.556 80.041 211.242 80.4786L210.834 81.3113C210.249 80.9382 209.575 80.7348 208.884 80.7231Z" fill="#9F2138"/>
<path d="M219.442 79.8672V87.1554H218.396V85.5043C217.918 86.6417 216.962 87.1803 215.668 87.1944C213.99 87.1944 212.979 86.1138 212.979 84.3599V79.8672H214.025V84.08C214.025 85.3803 214.775 86.1563 216.017 86.1563C217.503 86.1279 218.378 85.0225 218.378 83.4422V79.8672H219.442Z" fill="#9F2138"/>
<path d="M225.691 79.8263V80.8892C224.177 80.8609 223.249 81.8175 223.113 83.288V87.1677H222.066V79.8688H223.113V81.488C223.326 80.978 223.686 80.5458 224.147 80.249C224.607 79.9521 225.146 79.8047 225.691 79.8263Z" fill="#9F2138"/>
<path d="M233.316 83.913H227.466C227.515 84.5743 227.813 85.1908 228.299 85.6343C228.784 86.0778 229.419 86.3141 230.072 86.294C230.485 86.3034 230.896 86.2257 231.278 86.066C231.661 85.9062 232.006 85.6678 232.294 85.3657L232.883 85.9893C232.511 86.3854 232.061 86.6974 231.562 86.905C231.063 87.1126 230.527 87.211 229.988 87.194C227.874 87.194 226.416 85.6846 226.416 83.5091C226.416 81.3336 227.888 79.8384 229.977 79.8242C232.28 79.8242 233.427 81.447 233.316 83.913ZM232.349 83.052C232.353 82.7358 232.293 82.4222 232.172 82.1307C232.052 81.8392 231.873 81.5761 231.648 81.3577C231.423 81.1393 231.156 80.9703 230.864 80.8614C230.572 80.7524 230.26 80.7057 229.95 80.7242C229.315 80.7046 228.698 80.9366 228.229 81.3711C227.761 81.8057 227.477 82.4086 227.438 83.052H232.349Z" fill="#9F2138"/>
<path d="M235.869 86.5603C235.862 86.6921 235.817 86.819 235.739 86.9252C235.662 87.0313 235.556 87.112 235.434 87.1573C235.312 87.2025 235.179 87.2102 235.053 87.1795C234.926 87.1488 234.811 87.081 234.723 86.9845C234.634 86.8881 234.575 86.7672 234.553 86.637C234.532 86.5068 234.548 86.373 234.601 86.2523C234.653 86.1315 234.74 86.0292 234.849 85.9579C234.959 85.8867 235.086 85.8497 235.216 85.8516C235.305 85.8529 235.393 85.8725 235.475 85.9092C235.556 85.9458 235.63 85.9988 235.691 86.065C235.752 86.1312 235.799 86.2091 235.829 86.2942C235.86 86.3793 235.873 86.4698 235.869 86.5603Z" fill="#9F2138"/>
<path d="M95.4942 52.3594V54.0069H92.006V63.2546H90.1503V54.0069H86.6621V52.3594H95.4942Z" fill="#939598"/>
<path d="M107.194 52.3594V54.0069H101.195V56.9513H106.57V58.5989H101.195V61.6035H107.39V63.2546H99.332V52.3594H107.194Z" fill="#939598"/>
<path d="M116.798 53.9303C116.288 53.908 115.78 53.9908 115.302 54.1736C114.825 54.3564 114.389 54.6354 114.02 54.994C113.652 55.3525 113.359 55.783 113.158 56.2597C112.958 56.7363 112.855 57.2492 112.855 57.7675C112.855 58.2858 112.958 58.7987 113.158 59.2753C113.359 59.752 113.652 60.1825 114.02 60.541C114.389 60.8996 114.825 61.1786 115.302 61.3614C115.78 61.5442 116.288 61.627 116.798 61.6047C117.943 61.5756 119.036 61.1146 119.864 60.3115L120.967 61.5268C119.818 62.6461 118.296 63.2849 116.704 63.3161C113.481 63.3161 110.983 60.9032 110.983 57.7746C110.983 54.646 113.512 52.2969 116.767 52.2969C118.321 52.2997 119.816 52.8997 120.953 53.9763L119.864 55.3475C119.472 54.9158 118.999 54.568 118.472 54.3246C117.946 54.0812 117.376 53.9472 116.798 53.9303Z" fill="#939598"/>
<path d="M126.961 52.3594V57.0895H132.793V52.3594H134.649V63.2546H132.793V58.7406H126.961V63.2546H125.105V52.3594H126.961Z" fill="#939598"/>
<path d="M141.614 52.3594L147.509 60.1862V52.3594H149.33V63.2546H147.506L141.656 55.4419V63.2546H139.804V52.3594H141.614Z" fill="#939598"/>
<path d="M165.247 57.8044C165.247 60.9188 162.7 63.3317 159.414 63.3317C156.128 63.3317 153.582 60.9188 153.582 57.8044C153.582 54.69 156.128 52.3125 159.414 52.3125C162.7 52.3125 165.247 54.6935 165.247 57.8044ZM155.48 57.8044C155.501 58.8522 155.93 59.8488 156.674 60.5755C157.417 61.3021 158.414 61.6996 159.446 61.6806C160.189 61.6487 160.908 61.3957 161.511 60.953C162.115 60.5103 162.577 59.8974 162.841 59.1903C163.104 58.4832 163.158 57.7131 162.995 56.9753C162.832 56.2376 162.459 55.5647 161.923 55.0402C161.386 54.5157 160.71 54.1626 159.978 54.0247C159.247 53.8868 158.491 53.9702 157.805 54.2646C157.119 54.5589 156.534 55.0513 156.121 55.6805C155.708 56.3098 155.486 57.0482 155.483 57.8044H155.48Z" fill="#939598"/>
<path d="M171.339 52.3594V61.5893H176.1V63.2546H169.473V52.3594H171.339Z" fill="#939598"/>
<path d="M190.882 57.8044C190.882 60.9188 188.336 63.3317 185.05 63.3317C181.764 63.3317 179.218 60.9188 179.218 57.8044C179.218 54.69 181.764 52.3125 185.05 52.3125C188.336 52.3125 190.882 54.6935 190.882 57.8044ZM181.115 57.8044C181.137 58.8513 181.567 59.8468 182.309 60.5732C183.052 61.2995 184.047 61.6977 185.078 61.6806C185.822 61.6487 186.54 61.3957 187.143 60.953C187.747 60.5103 188.209 59.8974 188.473 59.1903C188.737 58.4832 188.79 57.7131 188.627 56.9753C188.464 56.2376 188.091 55.5647 187.555 55.0402C187.019 54.5157 186.343 54.1626 185.611 54.0247C184.879 53.8868 184.123 53.9702 183.437 54.2646C182.752 54.5589 182.166 55.0513 181.753 55.6805C181.341 56.3098 181.119 57.0482 181.115 57.8044Z" fill="#939598"/>
<path d="M202.205 57.9001H203.823V61.9144C202.571 62.8147 201.08 63.3088 199.547 63.3317C196.292 63.3317 193.76 60.9188 193.76 57.8044C193.76 54.69 196.324 52.3125 199.658 52.3125C201.198 52.3136 202.69 52.8514 203.886 53.8361L202.84 55.1895C201.964 54.3997 200.836 53.958 199.665 53.9459C197.415 53.9459 195.654 55.6431 195.654 57.8044C195.654 59.9657 197.433 61.6806 199.679 61.6806C200.572 61.6551 201.444 61.3977 202.212 60.933L202.205 57.9001Z" fill="#939598"/>
<path d="M210.555 52.3594V63.2546H208.699V52.3594H210.555Z" fill="#939598"/>
<path d="M223.56 52.3594V54.0069H217.553V56.9513H222.932V58.5989H217.553V61.6035H223.748V63.2546H215.697V52.3594H223.56Z" fill="#939598"/>
<path d="M231.736 54.0057C230.651 54.0057 229.943 54.4131 229.943 55.143C229.943 57.524 235.873 56.2485 235.873 60.1708C235.873 62.116 234.129 63.3135 231.726 63.3135C230.071 63.3082 228.474 62.6953 227.229 61.588L228.028 60.0007C229.048 60.9603 230.369 61.5226 231.757 61.588C233.044 61.588 233.815 61.1062 233.815 60.2629C233.815 57.8358 227.885 59.1999 227.885 55.3025C227.885 53.4352 229.507 52.2695 231.897 52.2695C233.253 52.2732 234.582 52.6609 235.734 53.3892L234.963 55.0084C233.989 54.4006 232.878 54.0555 231.736 54.0057Z" fill="#939598"/>
<path d="M75.3208 59.6892L42.8805 2.59127C42.8491 2.54166 42.8108 2.4956 42.7794 2.44954C42.3522 1.75966 41.7592 1.19151 41.0563 0.798531C40.3534 0.405553 39.5636 0.200667 38.7612 0.203147C37.9588 0.205628 37.1703 0.415393 36.4697 0.81271C35.7691 1.21003 35.1796 1.78184 34.7565 2.47434C34.7278 2.51188 34.701 2.55091 34.6763 2.59127L32.8555 5.7801L65.5678 63.328H81.5332C80.2733 63.3344 79.0342 63.0009 77.9427 62.3616C76.8512 61.7223 75.9464 60.8001 75.3208 59.6892Z" fill="#DA2128"/>
<path d="M58.7935 59.6831L34.5855 17.1121C34.5541 17.0554 34.5122 17.0094 34.4773 16.9562C34.0466 16.269 33.451 15.7043 32.7464 15.315C32.0419 14.9257 31.2515 14.7246 30.4495 14.7306C29.6475 14.7366 28.8601 14.9495 28.1613 15.3494C27.4625 15.7492 26.8752 16.3229 26.4545 17.0165C26.4304 17.0469 26.4083 17.0789 26.3882 17.1121L24.5674 20.301L49.0092 63.3326H64.9746C63.719 63.3323 62.4857 62.9945 61.4001 62.3536C60.3145 61.7126 59.4152 60.7913 58.7935 59.6831Z" fill="#DA2128"/>
<path d="M42.3033 59.7276L26.3309 31.6446C26.3309 31.6234 26.303 31.6092 26.2925 31.5879C25.8746 30.8825 25.2857 30.2977 24.582 29.8891C23.8784 29.4806 23.0834 29.2619 22.2729 29.2541C21.4624 29.2463 20.6635 29.4495 19.9523 29.8445C19.2411 30.2394 18.6414 30.8128 18.2104 31.51C18.179 31.556 18.1441 31.595 18.1162 31.6446L16.2988 34.8335L32.4771 63.331H48.453C47.2076 63.3273 45.9848 62.9928 44.906 62.3607C43.8272 61.7286 42.93 60.8209 42.3033 59.7276Z" fill="#939598"/>
<path d="M25.8061 59.796L18.0623 46.1797C18.0309 46.1265 17.9925 46.0805 17.9577 46.0309C17.5299 45.3475 16.9393 44.7848 16.2405 44.395C15.5418 44.0052 14.7574 43.8008 13.9602 43.8008C13.163 43.8008 12.3786 44.0052 11.6798 44.395C10.9811 44.7848 10.3904 45.3475 9.96271 46.0309C9.92471 46.0781 9.88976 46.1278 9.85807 46.1797L8.17676 49.1347L16.2484 63.3321H31.9453C30.7081 63.3334 29.4918 63.0082 28.4155 62.3883C27.3393 61.7685 26.4401 60.8752 25.8061 59.796Z" fill="#9F2138"/>
<path d="M9.8201 60.363C9.39402 59.6666 8.80013 59.0919 8.09455 58.6935C7.38898 58.295 6.59503 58.0859 5.78774 58.0859C4.98046 58.0859 4.18651 58.295 3.48093 58.6935C2.77536 59.0919 2.18147 59.6666 1.75539 60.363L0.0566406 63.3322H15.5826C14.4603 63.3301 13.3542 63.0603 12.3533 62.5446C11.3524 62.0288 10.4847 61.2816 9.8201 60.363Z" fill="#9F2138"/>
</g>
<defs>
<clipPath id="clip0_223_16161">
<rect width="285.668" height="103.851" fill="white" transform="translate(0.0537109 0.179688)"/>
</clipPath>
</defs>
</svg>
