<svg width="49" height="48" viewBox="0 0 49 48" fill="none" xmlns="http://www.w3.org/2000/svg">
<path fill-rule="evenodd" clip-rule="evenodd" d="M45.1399 1.59983C45.1399 0.892901 44.5668 0.319824 43.8599 0.319824C43.1531 0.319824 42.58 0.892901 42.58 1.59983V3.51984H40.6599C39.9531 3.51984 39.3799 4.09289 39.3799 4.79984C39.3799 5.50675 39.9531 6.07984 40.6599 6.07984H42.58V7.99984C42.58 8.70675 43.1531 9.27984 43.8599 9.27984C44.5668 9.27984 45.1399 8.70675 45.1399 7.99984V6.07984H47.0599C47.7668 6.07984 48.3399 5.50675 48.3399 4.79984C48.3399 4.09289 47.7668 3.51984 47.0599 3.51984H45.1399V1.59983ZM38.5915 10.0684C39.2161 10.6933 39.2161 11.7063 38.5915 12.3312L35.3915 15.5312C34.7665 16.156 33.7534 16.156 33.1287 15.5312C32.5038 14.9064 32.5038 13.8933 33.1287 13.2684L36.3284 10.0685C36.9534 9.44361 37.9665 9.44361 38.5915 10.0684ZM32.1914 16.4684C32.8161 17.0933 32.8161 18.1064 32.1914 18.7312L9.7913 41.1311C9.16647 41.7561 8.15342 41.7561 7.52858 41.1311C6.90372 40.5065 6.90372 39.4933 7.52858 38.8684L29.9286 16.4684C30.5534 15.8436 31.5665 15.8436 32.1914 16.4684ZM43.8599 16.3198C44.5668 16.3198 45.1399 16.8929 45.1399 17.5998V19.5198H47.0599C47.7668 19.5198 48.3399 20.0929 48.3399 20.7998C48.3399 21.5068 47.7668 22.0798 47.0599 22.0798H45.1399V23.9998C45.1399 24.7068 44.5668 25.2798 43.8599 25.2798C43.1531 25.2798 42.58 24.7068 42.58 23.9998V22.0798H40.6599C39.9531 22.0798 39.3799 21.5068 39.3799 20.7998C39.3799 20.0929 39.9531 19.5198 40.6599 19.5198H42.58V17.5998C42.58 16.8929 43.1531 16.3198 43.8599 16.3198ZM29.14 1.59983C29.14 0.892901 28.5669 0.319824 27.86 0.319824C27.1531 0.319824 26.58 0.892901 26.58 1.59983V3.51984H24.66C23.9531 3.51984 23.38 4.09289 23.38 4.79984C23.38 5.50675 23.9531 6.07984 24.66 6.07984H26.58V7.99984C26.58 8.70675 27.1531 9.27984 27.86 9.27984C28.5669 9.27984 29.14 8.70675 29.14 7.99984V6.07984H31.06C31.7669 6.07984 32.34 5.50675 32.34 4.79984C32.34 4.09289 31.7669 3.51984 31.06 3.51984H29.14V1.59983Z" fill="#404040"/>
</svg>
