<svg width="48" height="48" viewBox="0 0 48 48" fill="none" xmlns="http://www.w3.org/2000/svg">
<path d="M9 33.0002C6 35.5202 5 43.0002 5 43.0002C5 43.0002 12.48 42.0002 15 39.0002C16.42 37.3202 16.4 34.7402 14.82 33.1802C14.0426 32.4382 13.0186 32.0094 11.9445 31.9762C10.8703 31.943 9.82175 32.3076 9 33.0002Z" stroke="#404040" stroke-width="4" stroke-linecap="round" stroke-linejoin="round"/>
<path d="M24 30L18 24C19.0643 21.2389 20.4044 18.5921 22 16.1C24.3304 12.374 27.5752 9.30611 31.426 7.18819C35.2768 5.07028 39.6053 3.97275 44 4.00001C44 9.44001 42.44 19 32 26C29.4738 27.5975 26.7937 28.9375 24 30Z" stroke="#404040" stroke-width="4" stroke-linecap="round" stroke-linejoin="round"/>
<path d="M18 24H8C8 24 9.1 17.94 12 16C15.24 13.84 22 16 22 16" stroke="#404040" stroke-width="4" stroke-linecap="round" stroke-linejoin="round"/>
<path d="M24 30V40C24 40 30.06 38.9 32 36C34.16 32.76 32 26 32 26" stroke="#404040" stroke-width="4" stroke-linecap="round" stroke-linejoin="round"/>
</svg>
