<svg width="49" height="48" viewBox="0 0 49 48" fill="none" xmlns="http://www.w3.org/2000/svg">
<path d="M8.65996 27.9998C8.28149 28.0011 7.91042 27.895 7.58986 27.6938C7.26931 27.4926 7.01243 27.2045 6.84906 26.8632C6.68569 26.5218 6.62254 26.141 6.66696 25.7652C6.71137 25.3893 6.86152 25.0338 7.09996 24.7398L26.9 4.33984C27.0485 4.1684 27.2509 4.05255 27.4739 4.0113C27.697 3.97006 27.9274 4.00586 28.1274 4.11285C28.3274 4.21983 28.4851 4.39163 28.5746 4.60005C28.6641 4.80848 28.6801 5.04113 28.62 5.25984L24.78 17.2998C24.6667 17.6029 24.6287 17.9289 24.6691 18.2499C24.7096 18.5708 24.8273 18.8772 25.0121 19.1427C25.197 19.4082 25.4435 19.6249 25.7305 19.7742C26.0175 19.9234 26.3364 20.0009 26.66 19.9998H40.66C41.0384 19.9985 41.4095 20.1047 41.73 20.3059C42.0506 20.5071 42.3075 20.7951 42.4709 21.1365C42.6342 21.4779 42.6974 21.8587 42.653 22.2345C42.6085 22.6104 42.4584 22.9659 42.22 23.2598L22.42 43.6598C22.2714 43.8313 22.069 43.9471 21.846 43.9884C21.623 44.0296 21.3925 43.9938 21.1925 43.8868C20.9925 43.7798 20.8348 43.608 20.7453 43.3996C20.6558 43.1912 20.6398 42.9585 20.7 42.7398L24.54 30.6998C24.6532 30.3968 24.6912 30.0708 24.6508 29.7498C24.6103 29.4289 24.4926 29.1225 24.3078 28.857C24.1229 28.5915 23.8764 28.3748 23.5894 28.2255C23.3024 28.0762 22.9835 27.9988 22.66 27.9998H8.65996Z" stroke="#404040" stroke-width="4" stroke-linecap="round" stroke-linejoin="round"/>
</svg>
